<?xml version="1.0" standalone="no"?>
<!DOCTYPE svg PUBLIC "-//W3C//DTD SVG 20010904//EN"
 "http://www.w3.org/TR/2001/REC-SVG-20010904/DTD/svg10.dtd">
<svg version="1.0" xmlns="http://www.w3.org/2000/svg"
 width="736.000000pt" height="1099.000000pt" viewBox="0 0 736.000000 1099.000000"
 preserveAspectRatio="xMidYMid meet">

<g transform="translate(0.000000,1099.000000) scale(0.100000,-0.100000)"
fill="#000000" stroke="none">
<path d="M3231 9936 c-9 -11 -9 -16 0 -21 10 -7 28 10 29 28 0 12 -17 8 -29
-7z"/>
<path d="M3300 9930 c-53 -13 -24 -64 62 -110 44 -24 58 -46 58 -93 0 -37 15
-54 69 -82 40 -20 130 -22 172 -3 27 12 39 28 21 28 -5 0 -15 11 -22 25 -7 14
-19 25 -25 25 -7 0 -18 7 -26 16 -29 35 -115 83 -138 77 -18 -5 -22 -2 -19 13
2 14 -11 25 -54 47 -32 15 -58 34 -58 42 0 19 -10 23 -40 15z"/>
<path d="M3894 9870 c24 -42 79 -90 104 -90 9 0 12 6 8 16 -3 9 -6 19 -6 23 0
21 -93 91 -120 91 -5 0 1 -18 14 -40z"/>
<path d="M4030 9756 c0 -8 7 -16 15 -20 13 -4 14 -2 5 14 -13 23 -20 26 -20 6z"/>
<path d="M3173 9713 c-24 -8 -13 -25 12 -21 14 3 25 1 25 -3 0 -5 5 -9 11 -9
17 0 5 22 -17 30 -10 4 -25 5 -31 3z"/>
<path d="M4067 9701 c3 -11 11 -22 19 -25 11 -4 12 -2 4 14 -14 27 -29 34 -23
11z"/>
<path d="M4097 9638 c-8 -27 -1 -38 24 -38 18 0 19 2 4 30 -19 36 -21 37 -28
8z"/>
<path d="M4170 9612 c0 -5 9 -17 21 -28 21 -19 21 -19 18 6 -4 23 -39 43 -39
22z"/>
<path d="M3560 9560 c0 -5 7 -10 15 -10 8 0 15 -3 15 -7 0 -8 81 -139 98 -159
5 -6 17 -24 26 -40 15 -26 16 -27 10 -4 -24 88 -114 229 -146 230 -10 0 -18
-4 -18 -10z"/>
<path d="M4332 9527 c-7 -6 -24 -22 -36 -34 -20 -20 -24 -21 -38 -7 -14 15
-15 12 -10 -32 5 -50 28 -91 72 -130 19 -17 25 -33 26 -63 0 -32 -2 -38 -12
-30 -26 21 -36 4 -14 -24 12 -16 21 -29 19 -30 -69 -37 -69 -41 -16 -148 53
-106 56 -125 26 -163 -19 -25 -20 -30 -9 -121 7 -52 9 -107 5 -122 l-7 -28
-17 23 c-21 29 -57 21 -40 -9 5 -10 17 -19 25 -19 11 0 14 -6 10 -16 -3 -9 -6
-22 -6 -30 0 -19 -35 -18 -66 2 -17 12 -23 23 -19 38 2 11 2 15 -1 9 -3 -8
-15 -11 -29 -7 -35 9 -42 -27 -16 -81 12 -25 21 -50 21 -57 0 -7 12 -33 25
-57 30 -52 22 -67 -29 -57 -26 5 -48 22 -91 71 -36 41 -62 62 -71 58 -13 -5
-13 -9 1 -29 8 -13 15 -28 15 -33 0 -19 -31 1 -41 26 -5 13 -13 22 -19 18 -5
-3 -7 -12 -3 -20 7 -19 -5 -20 -84 -11 -22 2 -33 -1 -33 -9 0 -9 -8 -11 -22
-7 -13 3 -19 1 -15 -5 4 -6 20 -13 36 -16 35 -7 64 -34 57 -53 -3 -8 -1 -14 4
-14 13 0 50 -37 50 -50 0 -6 -15 -9 -33 -7 -35 3 -105 42 -162 90 -34 28 -95
125 -95 151 0 8 -8 17 -18 21 -19 6 -47 53 -37 63 3 3 12 -3 20 -14 17 -22 19
-7 5 31 -5 14 -16 25 -22 23 -21 -4 -68 32 -85 66 -22 43 -123 196 -129 196
-6 0 6 -22 82 -147 35 -59 64 -110 64 -115 0 -14 -19 -9 -38 10 -10 9 -29 26
-43 38 -13 11 -38 36 -54 55 -33 37 -108 99 -120 99 -5 0 55 -62 132 -139 116
-113 147 -150 173 -205 18 -36 34 -66 37 -66 3 0 2 7 -1 16 -14 38 28 -12 46
-54 24 -53 34 -50 13 4 -14 36 -14 37 1 17 9 -12 27 -34 40 -48 13 -14 24 -34
24 -43 0 -24 -57 -134 -77 -149 -13 -10 -15 -24 -10 -74 6 -50 13 -68 42 -101
26 -31 32 -45 25 -58 -5 -10 -7 -19 -5 -22 3 -3 -15 -5 -40 -6 -35 0 -48 4
-60 21 -15 21 -14 23 17 35 30 13 31 15 15 27 -13 9 -18 28 -19 69 -1 41 -5
56 -16 56 -7 0 -16 9 -19 20 -3 11 -9 20 -14 20 -5 0 -9 8 -9 18 0 11 -9 27
-19 36 -11 10 -22 28 -24 40 l-4 21 -8 -22 c-9 -29 -22 -29 -30 -2 -7 20 -1
34 13 34 17 1 57 53 54 71 -2 16 5 23 38 33 22 6 40 16 40 22 0 6 -6 6 -18 0
-9 -5 -46 -17 -81 -26 -52 -13 -66 -14 -79 -3 -13 11 -15 10 -9 -11 4 -15 -1
-33 -14 -51 -20 -26 -22 -26 -74 -17 -44 7 -57 6 -69 -6 -20 -19 -21 -33 -13
-97 12 -88 27 -127 54 -141 14 -7 29 -22 35 -34 10 -17 9 -18 -3 -8 -8 7 -24
10 -35 7 -33 -9 -75 14 -87 46 -11 28 -22 35 -57 32 -8 -1 -24 3 -36 9 -11 6
-34 9 -50 7 -23 -2 -31 -10 -39 -35 -5 -18 -15 -33 -21 -33 -7 0 -39 24 -71
53 l-58 52 38 -47 c20 -25 37 -49 37 -52 0 -3 -13 -6 -30 -6 -16 0 -30 -4 -30
-10 0 -5 -10 -10 -22 -10 l-21 0 21 -23 c30 -32 28 -43 -4 -22 -25 16 -26 16
-19 -5 4 -12 1 -27 -6 -36 -11 -13 -19 -8 -63 33 -59 57 -41 27 22 -35 34 -34
43 -49 39 -68 -3 -18 4 -34 25 -56 16 -17 38 -54 50 -82 11 -28 36 -66 54 -84
37 -35 44 -62 17 -63 -15 0 -14 -3 5 -16 27 -19 31 -49 5 -34 -10 5 -20 10
-23 12 -3 1 -15 -3 -27 -9 -19 -11 -24 -8 -44 21 -13 17 -28 37 -35 42 -6 6
-35 43 -64 83 -29 39 -54 72 -55 72 -8 0 36 -78 49 -90 9 -7 16 -18 16 -24 0
-7 11 -23 25 -36 14 -13 23 -30 20 -38 -2 -7 -1 -11 4 -7 11 6 53 -49 45 -58
-3 -3 12 -32 33 -64 22 -32 42 -65 45 -74 4 -9 19 -20 35 -23 15 -4 36 -15 47
-24 18 -17 18 -16 2 16 -19 36 -9 42 19 12 10 -11 22 -20 27 -20 14 0 9 19
-12 40 -20 20 -18 24 13 21 11 -2 17 5 17 17 0 11 6 24 13 29 18 14 157 14
157 0 0 -7 8 0 18 16 9 15 20 27 24 27 3 0 13 6 20 13 24 22 58 38 58 27 0 -5
6 -10 14 -10 7 0 19 -7 27 -16 11 -13 9 -15 -17 -12 -20 2 -29 -1 -29 -12 0
-16 -21 -34 -33 -27 -4 3 -15 -3 -24 -12 -16 -16 -16 -19 -2 -39 8 -12 23 -22
33 -22 9 0 21 -4 27 -10 11 -11 56 -1 48 11 -9 16 53 10 66 -6 9 -11 10 -15 0
-15 -25 0 -3 -33 30 -44 28 -9 34 -16 33 -34 -2 -13 8 -44 21 -69 14 -25 22
-51 20 -57 -3 -7 7 -18 21 -26 41 -22 30 -37 -31 -45 -31 -4 -58 -4 -61 -1 -9
8 -44 -35 -37 -45 3 -5 -4 -9 -15 -9 -11 0 -23 -4 -26 -10 -3 -6 1 -7 9 -4 11
4 16 0 16 -11 0 -12 -5 -15 -16 -11 -9 3 -19 6 -24 6 -4 0 -7 8 -6 17 0 10 -6
18 -14 18 -8 1 -14 6 -12 13 2 11 -13 16 -45 15 -7 -1 -13 3 -13 8 0 5 -7 9
-15 9 -8 0 -15 -4 -15 -10 0 -17 -17 -11 -47 14 -15 13 -25 28 -21 32 5 4 16
0 26 -9 24 -22 50 -24 32 -2 -7 8 -18 15 -25 15 -18 0 -28 30 -15 45 8 9 -2
22 -35 49 -54 45 -100 63 -118 47 -10 -8 -17 -7 -26 2 -9 9 -11 7 -10 -8 1
-11 1 -35 1 -52 -2 -28 -6 -33 -26 -33 -14 0 -28 5 -31 10 -3 6 -26 10 -51 10
-41 0 -49 4 -99 57 -66 70 -82 67 -20 -4 45 -52 47 -63 11 -63 -17 0 -18 -2
-6 -10 12 -8 12 -10 -3 -16 -9 -3 -25 -3 -34 2 -10 4 -22 9 -28 9 -23 4 -52
20 -83 47 -18 15 -39 28 -47 28 -8 0 -15 5 -15 10 0 6 11 8 25 4 15 -4 25 -2
25 4 0 11 -48 49 -63 50 -28 2 -119 58 -154 94 -74 78 -223 338 -223 392 0 35
-28 41 -52 11 -24 -31 -36 -32 -48 -2 -12 31 -13 -4 0 -37 11 -31 40 -34 47
-6 10 40 30 18 82 -87 29 -60 75 -140 102 -180 27 -40 49 -76 49 -80 0 -5 9
-14 20 -21 11 -7 20 -17 20 -24 0 -6 -9 -3 -21 8 -12 10 -31 20 -43 20 -11 1
-43 9 -70 17 l-49 16 -34 -34 c-36 -36 -47 -95 -18 -95 14 0 55 -67 55 -89 0
-15 50 -91 81 -123 29 -31 49 -38 28 -10 -12 15 -11 15 7 -1 14 -14 16 -20 6
-26 -17 -10 25 -64 45 -57 7 3 13 0 12 -7 -3 -24 1 -33 32 -66 57 -63 16 -50
-82 26 -44 34 -60 54 -66 82 -7 31 -14 37 -47 46 -34 8 -41 7 -57 -14 -16 -20
-17 -26 -6 -54 12 -29 18 -33 68 -38 53 -6 122 -42 264 -139 86 -58 140 -76
128 -42 -7 19 -63 93 -100 131 -30 31 -40 22 -13 -12 11 -14 20 -30 20 -35 0
-6 6 -12 13 -15 6 -2 9 -7 6 -11 -7 -7 -13 -1 -152 174 -71 89 -137 188 -137
205 0 12 51 4 56 -8 3 -9 21 -14 49 -14 35 0 51 -6 80 -31 22 -20 46 -32 65
-32 16 0 32 -5 35 -10 7 -12 81 -11 105 1 21 10 77 -15 84 -38 3 -10 20 -24
38 -32 18 -8 40 -20 48 -27 9 -7 24 -13 35 -12 11 0 32 -3 48 -7 18 -5 27 -3
27 5 0 16 25 6 26 -11 1 -8 2 -20 3 -26 0 -7 17 -19 36 -27 59 -25 43 -41 -47
-49 -69 -6 -53 -18 20 -15 61 3 72 6 72 21 0 11 8 17 24 17 15 0 32 11 44 27
19 26 23 27 49 16 132 -54 167 -71 164 -79 -2 -5 -29 -19 -60 -30 -68 -26
-121 -54 -103 -54 7 0 29 8 50 18 20 10 63 27 94 37 50 17 62 17 112 5 30 -7
57 -19 60 -26 3 -8 19 -14 36 -14 30 0 43 -23 18 -33 -10 -4 -9 -8 2 -16 8 -5
19 -6 25 -2 5 5 20 12 33 15 16 6 22 3 22 -8 0 -9 7 -16 15 -16 19 0 19 -15
-1 -45 -15 -24 -15 -25 10 -36 20 -10 38 -9 83 1 45 11 58 11 61 2 3 -10 10
-9 29 4 21 13 32 14 62 5 20 -6 49 -12 64 -13 37 -4 38 -19 3 -38 -22 -11 -30
-12 -33 -2 -10 28 -41 10 -68 -39 -24 -45 -26 -53 -13 -66 13 -13 18 -10 36
21 12 20 37 44 56 53 34 16 37 16 56 -2 14 -13 17 -22 10 -29 -18 -18 -11 -27
11 -15 13 6 40 9 65 5 39 -5 45 -3 68 24 13 17 27 30 30 30 14 0 4 -31 -20
-59 -14 -17 -19 -29 -11 -25 8 3 31 -6 51 -20 42 -28 63 -25 72 9 6 23 31 41
42 30 3 -3 0 -21 -7 -41 -7 -20 -11 -38 -8 -40 3 -3 26 15 52 40 26 25 51 46
57 46 6 0 7 11 4 26 -4 15 -2 32 5 40 10 12 9 18 0 27 -10 9 -15 8 -25 -6 -17
-22 -66 -13 -101 19 -46 43 -17 71 35 34 17 -12 33 -20 36 -17 8 7 -48 57 -64
57 -7 0 -15 7 -18 15 -4 9 -13 14 -21 13 -17 -4 -122 82 -122 100 -1 9 4 10
18 3 14 -8 22 -7 32 5 7 8 19 12 28 9 27 -11 111 -22 106 -15 -3 5 6 11 20 14
14 4 25 13 25 21 0 9 9 15 23 15 17 0 19 2 8 9 -21 13 42 71 77 71 24 0 25 -1
7 -20 -10 -11 -22 -17 -26 -14 -5 3 -9 -15 -9 -39 0 -35 4 -44 17 -44 20 0 43
20 43 36 0 6 4 11 10 11 5 0 12 11 16 25 3 14 10 25 15 25 5 0 9 7 9 15 0 8 5
15 10 15 6 0 10 -4 10 -9 0 -5 11 -12 25 -15 14 -4 25 -13 25 -21 0 -7 4 -17
10 -20 6 -4 7 6 3 27 l-6 33 27 -33 c15 -17 31 -30 35 -28 10 7 11 -36 1 -49
-22 -26 -19 -67 6 -90 15 -14 22 -29 18 -39 -4 -11 -1 -16 10 -16 9 0 15 3 14
8 -2 4 0 8 5 10 16 5 27 1 27 -10 0 -6 14 -24 31 -39 23 -20 32 -38 34 -64 2
-29 -1 -35 -14 -30 -14 4 -14 4 0 -8 16 -12 34 -111 18 -102 -16 10 -41 -8
-36 -26 8 -29 -10 -22 -29 11 -10 16 -30 34 -45 39 -15 5 -37 23 -50 40 -20
27 -29 31 -73 31 -29 0 -59 7 -70 15 -22 16 -73 20 -94 6 -20 -12 -11 -45 13
-49 35 -7 41 -22 8 -22 -19 0 -33 -6 -37 -16 -9 -24 -7 -46 4 -39 13 8 13 3 0
-30 -7 -17 -7 -24 0 -20 6 3 13 -2 17 -12 3 -10 13 -22 21 -27 12 -7 12 -10 1
-17 -11 -7 -10 -9 4 -9 19 0 22 22 7 51 -15 27 7 25 31 -3 21 -23 26 -43 8
-33 -5 4 -3 -10 5 -30 9 -20 15 -39 14 -43 -5 -18 17 -58 43 -80 21 -17 29
-33 29 -57 0 -50 24 -59 103 -39 25 6 27 4 27 -24 0 -17 5 -34 10 -37 16 -10
12 -23 -9 -30 -10 -3 -26 -20 -35 -38 -14 -25 -15 -38 -7 -59 11 -30 22 -34
52 -18 16 9 19 7 19 -8 0 -11 -7 -35 -15 -55 -17 -41 -10 -52 19 -32 43 30 64
8 44 -45 -4 -8 -9 -37 -12 -65 -4 -27 -11 -63 -18 -81 -15 -42 -5 -68 20 -55
16 9 20 26 25 123 9 172 39 296 79 326 9 7 15 19 12 27 -4 8 -1 15 5 15 6 0
11 -8 11 -19 0 -38 30 -91 55 -97 14 -3 29 -13 34 -22 7 -13 12 -11 36 10 26
24 26 28 18 79 -8 50 -10 54 -36 54 -16 -1 -27 5 -27 12 0 7 3 12 8 12 33 -6
47 19 30 56 -14 32 0 50 32 40 21 -7 21 -8 4 -33 -17 -26 -17 -27 2 -12 10 8
25 23 32 33 7 9 22 17 34 17 16 0 19 -4 14 -22 -4 -13 -9 -36 -12 -53 l-5 -30
15 32 c14 30 16 31 45 20 17 -6 31 -15 31 -20 0 -4 24 -19 53 -31 29 -13 59
-31 66 -40 7 -9 19 -16 26 -16 7 0 12 -18 14 -50 1 -27 6 -59 11 -72 7 -18 9
-13 7 26 -2 57 13 70 31 24 6 -17 15 -29 19 -25 4 4 1 13 -5 19 -15 15 -16 32
-2 23 5 -3 17 -2 25 3 14 7 12 12 -10 36 -39 42 -29 43 18 0 51 -46 145 -126
160 -136 7 -4 9 -10 5 -13 -7 -7 -40 8 -60 28 -17 17 -95 67 -105 67 -4 0 11
-18 32 -40 21 -22 34 -40 28 -40 -6 0 -21 11 -34 25 -13 13 -27 25 -31 25 -21
0 -1 -21 73 -80 98 -78 111 -86 103 -66 -3 8 -14 16 -25 19 -20 5 -27 27 -9
27 20 0 89 -40 125 -71 32 -28 75 -88 113 -156 16 -31 16 -33 -13 -33 -21 0
-29 10 -54 65 -18 40 -36 65 -45 65 -10 0 -16 9 -17 23 0 12 -3 16 -6 9 -2 -6
-10 -9 -16 -5 -6 4 -1 -6 11 -22 48 -64 93 -138 92 -154 0 -9 -2 -32 -3 -53
-1 -20 -5 -40 -9 -44 -11 -11 -10 -26 2 -19 5 3 22 -4 38 -15 34 -25 122 -35
122 -13 0 7 7 13 16 13 10 0 14 6 11 15 -4 8 -1 17 5 21 19 12 0 85 -30 108
-14 11 -32 20 -39 18 -22 -5 -95 110 -85 136 2 8 -15 34 -39 58 -25 25 -37 44
-29 44 8 0 -2 12 -23 27 -22 15 -34 30 -29 35 13 13 146 -81 161 -112 14 -31
91 -88 91 -67 0 17 -35 65 -67 90 -12 9 -23 27 -25 40 -2 15 -10 22 -23 21
-19 0 -21 6 -20 55 0 80 -19 118 -64 131 -54 15 -66 14 -50 -6 11 -14 9 -19
-11 -36 -17 -13 -21 -21 -12 -25 6 -2 12 -9 12 -15 0 -5 -14 2 -31 16 -17 14
-34 26 -39 26 -12 0 -102 91 -96 97 3 3 17 -4 32 -16 15 -12 29 -19 32 -16 3
3 -1 11 -10 18 -19 15 -29 42 -19 53 5 5 14 30 21 56 12 44 15 47 39 42 l26
-5 -27 23 c-16 13 -28 29 -28 35 0 6 -7 13 -14 16 -8 3 -18 22 -21 41 -4 21
-17 41 -31 51 -13 8 -24 23 -24 31 0 9 -11 25 -25 36 -14 11 -25 26 -25 34 0
8 -4 14 -10 14 -5 0 -10 7 -10 15 0 17 -78 55 -112 55 -33 0 -97 40 -98 61 0
4 14 12 30 19 17 7 30 17 30 22 0 5 39 8 88 7 81 -2 245 23 265 41 4 4 -26 5
-67 2 -53 -3 -76 -1 -76 7 0 13 -59 15 -92 2 -13 -4 -40 -11 -60 -15 -32 -6
-37 -4 -32 9 3 8 2 15 -4 15 -17 0 -20 37 -6 64 11 22 11 26 -2 26 -17 0 -84
59 -84 73 0 4 22 5 50 1 30 -4 55 -2 63 4 9 8 32 5 82 -8 39 -11 82 -22 97
-25 20 -4 25 -9 21 -25 -5 -18 -11 -19 -82 -13 -62 4 -74 3 -64 -7 7 -7 27
-13 45 -12 61 2 201 -42 199 -62 -2 -16 0 -16 21 -2 14 10 42 16 73 15 l50 -1
-43 -15 c-52 -18 -51 -25 1 -13 36 8 41 6 88 -36 27 -24 54 -44 60 -44 7 0 8
-14 4 -39 -5 -33 -3 -41 14 -50 18 -10 19 -9 14 24 -8 48 16 55 67 21 45 -29
71 -68 143 -205 26 -52 62 -110 78 -130 16 -20 29 -44 29 -53 0 -11 14 -25 35
-35 19 -9 35 -23 35 -30 0 -7 6 -13 14 -13 23 0 29 -19 16 -50 -6 -15 -10 -39
-8 -52 2 -19 7 -14 29 30 14 28 22 52 18 52 -12 0 -41 59 -34 70 3 5 -6 30
-21 55 -21 36 -24 48 -14 60 14 17 5 36 -15 29 -8 -3 -19 4 -25 17 -11 19 -10
25 6 36 16 12 16 13 -9 13 -20 0 -32 9 -47 33 -10 17 -24 38 -30 45 -41 46
-76 229 -59 310 4 18 2 35 -3 38 -5 3 -3 13 6 23 10 11 17 43 20 86 3 49 10
76 26 97 14 19 23 49 26 86 l4 57 -18 -50 c-11 -27 -33 -84 -50 -127 -18 -42
-32 -83 -32 -92 0 -28 -19 -17 -40 24 -25 50 -25 76 1 119 11 19 29 63 40 97
12 40 27 68 40 75 11 6 27 26 35 45 8 19 19 34 24 34 11 0 25 47 21 72 -1 9 8
24 21 32 27 17 78 10 78 -11 0 -18 -35 -86 -54 -105 -19 -19 -9 -66 16 -79 26
-14 75 6 84 35 9 27 6 76 -6 91 -5 6 -10 56 -12 113 -2 56 -6 102 -9 102 -18
0 -78 -71 -84 -99 -9 -43 -15 -35 -25 39 -15 107 -30 97 -30 -20 0 -104 -1
-106 -40 -177 -23 -40 -42 -73 -44 -73 -5 0 2 86 10 128 4 23 14 36 31 43 26
10 26 12 1 85 -6 17 -8 38 -4 45 23 46 37 62 67 77 32 16 34 20 34 71 0 30 -5
60 -12 66 -12 13 -33 79 -33 108 0 68 51 -61 80 -200 7 -35 17 -63 21 -63 12
0 11 23 -1 56 -10 26 -20 86 -39 229 -8 58 -7 79 8 122 18 52 37 84 49 81 4
-1 17 3 29 10 15 9 24 26 29 59 6 43 4 49 -20 70 -15 13 -38 23 -50 23 -13 0
-29 7 -36 15 -7 8 -10 15 -6 15 4 0 -1 11 -10 25 -20 31 -30 31 -45 4 -9 -17
-8 -20 3 -14 10 6 10 5 1 -5 -8 -9 -9 -19 -3 -31 11 -19 -2 -35 -19 -24 -5 3
-12 1 -15 -3 -9 -15 -56 -1 -56 17 -1 14 -2 14 -13 0 -7 -8 -20 -18 -29 -22
-11 -4 -18 -17 -18 -34 0 -41 -11 -74 -22 -67 -5 3 -6 14 -3 24 9 28 -14 100
-41 133 -13 16 -31 53 -40 83 -8 30 -19 54 -24 54 -17 0 -17 -40 1 -69 24 -40
24 -52 -1 -74 -23 -19 -50 -23 -50 -6 0 8 -5 8 -15 -1 -12 -10 -16 -9 -21 6
-4 11 -14 27 -21 36 -13 15 -11 24 21 81 20 35 36 74 36 85 0 30 18 28 26 -3
4 -14 8 -24 11 -21 2 2 -1 22 -7 45 -10 37 -42 69 -62 63 -5 -1 -8 2 -8 8 0 5
-7 10 -15 10 -8 0 -15 5 -15 11 0 6 -7 8 -16 5 -40 -15 -69 13 -97 97 -4 9
-19 23 -34 29 -15 7 -33 20 -40 28 -11 13 -12 13 -13 -2 0 -9 5 -20 10 -23 17
-11 11 -61 -10 -80 -18 -16 -23 -17 -46 -4 -15 7 -28 20 -31 29 -3 8 -11 27
-19 43 -9 15 -14 37 -12 50 1 12 -5 33 -14 46 -21 30 -118 88 -140 83 -24 -5
-23 -39 1 -52 16 -8 19 -20 19 -75 -1 -55 -3 -62 -14 -47 -8 9 -14 27 -14 38
0 27 -16 40 -57 49 -33 7 -47 -8 -18 -19 18 -6 20 -27 4 -43 -7 -7 -24 -8 -51
-1 -30 6 -43 6 -49 -3 -4 -7 -18 -9 -35 -6 -16 4 -23 4 -16 1 6 -3 12 -16 12
-28 0 -33 12 -40 30 -16 15 20 18 20 45 6 17 -9 38 -16 48 -16 10 0 22 -11 27
-26 11 -29 6 -44 -16 -44 -8 0 -14 -10 -14 -22 0 -17 -3 -19 -12 -10 -7 7 -20
12 -29 12 -9 0 -24 16 -34 36 -14 29 -19 33 -31 23 -8 -7 -14 -19 -13 -28 3
-34 -3 -35 -21 -1 -16 29 -19 31 -20 13 0 -12 -4 -24 -9 -28 -11 -6 -25 31
-16 45 7 12 -18 61 -41 81 -16 13 -17 11 -10 -23 4 -23 3 -38 -3 -38 -15 0
-18 72 -4 95 10 16 8 24 -8 44 l-19 23 0 -45 c0 -25 5 -68 10 -94 12 -53 1
-157 -15 -155 -5 1 -15 30 -22 66 -7 36 -17 75 -23 86 -12 22 -40 27 -40 7 0
-31 34 -126 61 -170 16 -26 29 -51 29 -56 0 -31 38 -117 65 -145 22 -24 31
-43 32 -69 1 -24 10 -48 27 -68 20 -23 26 -42 26 -76 0 -30 7 -53 20 -70 11
-14 20 -29 20 -34 0 -10 -64 27 -80 47 -7 7 -18 14 -24 14 -6 0 4 -14 23 -30
19 -17 31 -33 28 -36 -7 -7 -117 86 -117 99 0 4 12 0 28 -10 15 -9 -4 13 -41
49 -75 71 -76 74 -23 135 14 17 17 30 12 57 -7 35 -54 128 -68 134 -4 2 -10
20 -14 40 -3 20 -12 51 -20 69 -8 17 -14 36 -14 42 0 6 -4 11 -10 11 -5 0 -10
11 -10 25 0 14 5 25 10 25 20 0 10 38 -12 43 -29 8 -50 -10 -39 -32 4 -9 11
-33 14 -55 6 -36 5 -37 -12 -22 -10 9 -22 16 -28 16 -14 0 -23 24 -23 58 0 19
-3 23 -9 13 -7 -11 -9 -11 -14 0 -4 8 -4 -9 0 -37 3 -28 1 -54 -3 -57 -18 -10
-54 12 -54 34 0 11 -9 32 -20 46 -12 16 -18 34 -14 45 3 10 -2 30 -11 44 -14
21 -21 24 -46 19 -39 -9 -87 11 -92 38 -3 15 -5 11 -6 -10 -1 -37 -20 -45 -23
-10 0 12 -2 34 -3 50 -4 51 -15 41 -16 -14 -1 -46 -3 -49 -9 -24 -11 43 -12
125 -1 125 13 0 21 39 10 46 -6 3 -17 0 -25 -7 -12 -9 -15 -28 -12 -70 1 -32
0 -60 -3 -63 -3 -4 -18 9 -33 28 -28 37 -28 73 0 97 19 15 18 27 -6 72 -11 20
-20 42 -20 48 0 7 -12 22 -26 35 -14 14 -22 29 -18 36 5 7 2 9 -7 6 -21 -8
-55 31 -67 77 -6 22 -14 83 -17 136 -4 53 -10 101 -14 107 -10 17 -55 23 -69
9z m46 -233 l2 -29 -14 25 c-19 31 -20 43 -3 38 6 -3 13 -18 15 -34z m22 -380
c0 -8 -4 -14 -10 -14 -5 0 -10 9 -10 21 0 11 5 17 10 14 6 -3 10 -13 10 -21z
m123 19 c-7 -2 -19 -2 -25 0 -7 3 -2 5 12 5 14 0 19 -2 13 -5z m-93 -13 c0 -5
-2 -10 -4 -10 -3 0 -8 5 -11 10 -3 6 -1 10 4 10 6 0 11 -4 11 -10z m1230 -152
c0 -19 -2 -20 -10 -8 -13 19 -13 30 0 30 6 0 10 -10 10 -22z m200 -339 c0 -5
-4 -9 -10 -9 -5 0 -10 7 -10 16 0 8 5 12 10 9 6 -3 10 -10 10 -16z m-310 -98
c8 -28 7 -31 -5 -21 -8 7 -15 24 -15 38 0 32 8 25 20 -17z m430 -15 c0 -3 -4
-8 -10 -11 -5 -3 -10 -1 -10 4 0 6 5 11 10 11 6 0 10 -2 10 -4z m-261 -25 c15
-9 30 -75 31 -132 0 -20 -10 -60 -21 -88 -20 -48 -27 -58 -27 -38 0 4 -7 18
-14 30 -8 12 -20 54 -27 92 -13 68 -12 71 10 107 26 41 28 42 48 29z m211 -29
c0 -15 -2 -15 -10 -2 -13 20 -13 33 0 25 6 -3 10 -14 10 -23z m-353 -24 c-3
-7 -5 -2 -5 12 0 14 2 19 5 13 2 -7 2 -19 0 -25z m-106 -5 c27 -16 29 -22 29
-74 0 -39 4 -59 14 -62 7 -3 16 -28 20 -59 3 -29 9 -68 13 -87 l6 -34 -26 19
c-16 12 -25 29 -25 44 0 14 -16 72 -36 130 -34 100 -43 140 -30 140 3 0 19 -8
35 -17z m141 -66 c10 -26 14 -47 10 -47 -10 0 -52 73 -52 90 0 27 26 0 42 -43z
m698 13 c0 -5 -2 -10 -4 -10 -3 0 -8 5 -11 10 -3 6 -1 10 4 10 6 0 11 -4 11
-10z m40 -46 c0 -8 -4 -12 -10 -9 -5 3 -10 13 -10 21 0 8 5 12 10 9 6 -3 10
-13 10 -21z m-1162 -28 c68 -63 110 -97 177 -145 60 -43 84 -71 85 -103 0 -24
-16 -22 -74 7 -27 14 -54 25 -60 25 -6 0 -39 25 -74 56 -61 55 -86 90 -102
143 -4 14 -11 34 -15 44 -12 30 14 19 63 -27z m1270 -25 c4 -73 -11 -85 -32
-25 -23 67 -21 86 7 82 19 -3 22 -10 25 -57z m-73 -18 c8 -19 15 -45 14 -57 0
-21 0 -20 -16 3 -9 13 -18 31 -19 40 -1 9 -6 27 -10 40 -11 37 13 17 31 -26z
m-145 -37 c0 -41 -15 -56 -24 -23 -10 37 -7 57 9 57 10 0 15 -10 15 -34z
m-2780 -22 c0 -8 -4 -12 -10 -9 -5 3 -10 13 -10 21 0 8 5 12 10 9 6 -3 10 -13
10 -21z m1914 -9 c11 -8 16 -15 10 -15 -5 0 -18 7 -28 15 -11 8 -16 15 -10 15
5 0 18 -7 28 -15z m-184 -15 c0 -5 -4 -10 -10 -10 -5 0 -10 5 -10 10 0 6 5 10
10 10 6 0 10 -4 10 -10z m1020 -69 c-6 -12 -17 -21 -25 -21 -21 0 -19 10 7 37
25 26 36 16 18 -16z m-960 15 c6 -8 33 -29 60 -46 48 -31 65 -53 54 -71 -6
-10 -17 -5 -64 31 -55 42 -90 77 -90 89 0 16 25 14 40 -3z m364 -108 c8 -21
11 -40 6 -43 -15 -9 -50 18 -67 53 -13 26 -13 35 -2 48 11 13 14 13 30 -3 9
-10 24 -35 33 -55z m-2009 14 c-6 -7 -35 18 -35 31 0 5 9 2 20 -8 11 -10 18
-20 15 -23z m-80 7 c-3 -4 4 -13 15 -19 31 -16 24 -30 -15 -30 -24 0 -37 6
-45 20 -14 26 -7 38 25 38 13 0 22 -4 20 -9z m-69 -56 c-10 -10 -19 5 -10 18
6 11 8 11 12 0 2 -7 1 -15 -2 -18z m154 -37 c0 -3 -4 -8 -10 -11 -5 -3 -10 -1
-10 4 0 6 5 11 10 11 6 0 10 -2 10 -4z m2055 -21 c14 -14 25 -32 25 -39 0 -7
9 -22 20 -34 26 -27 25 -34 -2 -30 -13 2 -22 9 -20 16 1 6 -6 12 -15 12 -38 0
-62 44 -47 84 8 21 9 21 39 -9z m158 -56 c35 -54 36 -89 2 -89 -27 0 -33 18
-13 38 10 10 5 11 -20 6 -36 -7 -42 7 -17 39 7 11 11 25 8 33 -11 29 15 12 40
-27z m-233 -103 c11 -25 34 -61 51 -82 38 -48 37 -64 -3 -64 -56 1 -124 83
-97 116 6 8 9 21 5 29 -6 17 2 45 14 45 5 0 18 -20 30 -44z m240 -10 c0 -2 -7
-6 -15 -10 -8 -3 -15 -1 -15 4 0 6 7 10 15 10 8 0 15 -2 15 -4z m430 -254 c-9
-67 -10 -96 -2 -104 8 -8 14 -4 23 15 22 49 27 28 6 -28 -11 -30 -24 -55 -29
-55 -5 0 -6 6 -3 13 4 6 -3 1 -14 -13 -11 -14 -21 -35 -21 -47 0 -13 -4 -23
-8 -23 -19 0 -32 27 -32 66 0 23 -4 65 -10 94 -11 56 -4 130 12 130 6 0 8 -15
4 -37 -6 -37 -6 -38 8 -13 9 15 13 37 10 56 -5 24 1 38 28 68 l33 38 4 -34 c2
-18 -2 -75 -9 -126z m-723 81 c-11 -10 -27 8 -27 30 l0 21 16 -22 c9 -13 14
-26 11 -29z m592 -216 c-1 -78 -15 -176 -18 -126 -1 9 -7 22 -15 28 -21 17
-30 69 -17 95 5 11 15 40 21 64 17 67 30 40 29 -61z m-114 5 c24 -18 38 -46
56 -118 10 -42 19 -79 19 -81 0 -14 -63 44 -99 91 -38 49 -41 57 -30 78 11 22
28 38 39 38 3 0 10 -4 15 -8z m-2850 -72 c3 -5 3 -10 -1 -10 -13 0 -84 44 -84
52 0 10 76 -27 85 -42z m2260 -41 c4 -6 5 -12 2 -15 -7 -7 -37 7 -37 17 0 13
27 11 35 -2z m785 -44 c0 -18 -29 -82 -31 -70 -1 6 -2 36 -3 68 -1 57 -1 58
16 37 10 -12 18 -28 18 -35z m-2845 -5 l29 -30 -27 0 c-23 0 -57 31 -57 52 0
18 28 6 55 -22z m2577 -12 c23 -28 24 -34 10 -39 -13 -4 -11 -7 9 -12 13 -3
38 -20 54 -37 24 -25 27 -34 19 -48 -15 -22 -50 -23 -46 0 1 10 -16 30 -43 52
-37 28 -58 36 -110 41 -38 4 -65 12 -65 19 1 37 51 66 105 61 30 -3 46 -12 67
-37z m318 -95 c0 -22 -2 -25 -10 -13 -13 20 -13 40 0 40 6 0 10 -12 10 -27z
m-2723 10 c-9 -2 -15 -9 -12 -14 4 -5 1 -9 -4 -9 -6 0 -11 7 -11 15 0 9 9 15
23 14 17 -1 18 -2 4 -6z m383 2 c0 -11 -75 -85 -87 -85 -7 0 -13 -5 -13 -12 0
-6 -9 -2 -20 10 -12 12 -32 22 -45 22 -24 0 -47 20 -23 21 7 0 34 10 60 22 39
19 128 34 128 22z m2286 -22 c-10 -10 -19 5 -10 18 6 11 8 11 12 0 2 -7 1 -15
-2 -18z m-2566 7 c-20 -13 -43 -13 -35 0 3 6 16 10 28 10 18 0 19 -2 7 -10z
m2295 -40 c4 -6 -11 -10 -37 -9 -33 0 -38 2 -23 9 28 12 53 12 60 0z m-1025
-72 c0 -4 -7 -8 -15 -8 -8 0 -15 4 -15 8 0 5 7 9 15 9 8 0 15 -4 15 -9z m-542
-44 c13 -4 22 -14 22 -25 0 -26 -12 -24 -40 6 -24 26 -21 29 18 19z m1102
-134 c0 -5 -2 -10 -4 -10 -3 0 -8 5 -11 10 -3 6 -1 10 4 10 6 0 11 -4 11 -10z
m-1000 -21 c0 -6 -4 -7 -10 -4 -5 3 -10 11 -10 16 0 6 5 7 10 4 6 -3 10 -11
10 -16z m235 -59 c3 -5 -1 -10 -10 -10 -9 0 -13 5 -10 10 3 6 8 10 10 10 2 0
7 -4 10 -10z m452 -53 c26 -15 82 -86 83 -106 0 -20 -68 -7 -95 19 -32 30 -44
101 -17 100 4 -1 17 -6 29 -13z m-117 -47 c0 -5 -9 -6 -20 -3 -20 5 -25 15
-13 26 7 8 33 -11 33 -23z m-40 -44 c-8 -8 -15 -6 -26 8 -22 30 -17 38 12 20
18 -13 22 -20 14 -28z m100 -26 c0 -5 -4 -10 -10 -10 -5 0 -10 5 -10 10 0 6 5
10 10 10 6 0 10 -4 10 -10z m130 -95 c11 -13 8 -15 -19 -15 -33 0 -42 16 -13
23 9 3 18 5 18 6 1 0 7 -6 14 -14z m-54 -162 c-10 -10 -19 5 -10 18 6 11 8 11
12 0 2 -7 1 -15 -2 -18z m-52 1 c3 -8 2 -12 -4 -9 -6 3 -10 10 -10 16 0 14 7
11 14 -7z m694 -112 c49 -40 40 -62 -14 -34 -38 20 -135 107 -128 115 8 7 92
-41 142 -81z m-792 32 c-3 -9 -6 -24 -6 -35 0 -14 -7 -19 -25 -19 -31 0 -33
15 -2 25 19 6 19 8 5 12 -31 8 -17 30 21 32 8 1 11 -5 7 -15z m584 12 c0 -3
-4 -8 -10 -11 -5 -3 -10 -1 -10 4 0 6 5 11 10 11 6 0 10 -2 10 -4z"/>
<path d="M6240 7170 c0 -5 5 -10 10 -10 6 0 10 5 10 10 0 6 -4 10 -10 10 -5 0
-10 -4 -10 -10z"/>
<path d="M4508 9528 c-36 -29 -37 -50 -7 -81 21 -20 29 -38 29 -63 0 -22 4
-33 10 -29 6 4 8 16 4 27 -4 13 -2 18 4 14 6 -4 15 16 22 50 16 74 2 90 -40
49 -16 -16 -33 -25 -37 -21 -4 4 -3 10 3 14 11 7 38 52 31 52 -2 0 -10 -6 -19
-12z"/>
<path d="M2872 9512 c2 -9 13 -18 26 -20 28 -4 20 24 -9 31 -15 4 -19 1 -17
-11z"/>
<path d="M3695 9453 c3 -15 10 -30 14 -33 4 -3 13 -19 20 -37 13 -32 61 -85
61 -67 0 6 -14 32 -31 60 -18 27 -36 61 -41 77 -13 36 -32 36 -23 0z"/>
<path d="M4845 9431 c-3 -5 -1 -12 5 -16 5 -3 10 -3 10 1 0 3 7 1 15 -6 19
-15 28 -9 19 14 -7 17 -39 22 -49 7z"/>
<path d="M2772 9413 c4 -21 33 -25 33 -3 0 8 -8 16 -18 18 -14 3 -18 -1 -15
-15z"/>
<path d="M4497 9319 c7 -7 15 -10 18 -7 3 3 -2 9 -12 12 -14 6 -15 5 -6 -5z"/>
<path d="M5040 9311 c0 -10 30 -24 37 -17 3 3 2 9 -2 15 -8 13 -35 15 -35 2z"/>
<path d="M4583 9240 c3 -19 10 -51 16 -70 10 -33 10 -31 7 23 -1 32 -8 63 -15
70 -11 10 -12 5 -8 -23z"/>
<path d="M5751 9218 c0 -7 14 -24 31 -37 25 -20 29 -21 20 -5 -6 10 -13 27
-16 37 -6 19 -36 24 -35 5z"/>
<path d="M3390 9155 c1 -26 2 -28 11 -12 8 14 8 22 0 30 -8 8 -11 3 -11 -18z"/>
<path d="M3450 9171 c0 -5 5 -13 10 -16 6 -3 10 -2 10 4 0 5 -4 13 -10 16 -5
3 -10 2 -10 -4z"/>
<path d="M3530 9171 c0 -5 7 -12 16 -15 24 -9 28 -7 14 9 -14 17 -30 20 -30 6z"/>
<path d="M3840 9167 c0 -15 52 -91 69 -102 17 -10 13 4 -10 36 -32 46 -7 34
56 -26 31 -30 61 -53 65 -50 5 3 13 -3 19 -12 9 -16 10 -16 11 3 0 14 -19 38
-54 68 -30 25 -57 46 -61 46 -3 0 -21 11 -39 25 -37 28 -56 32 -56 12z"/>
<path d="M5450 9128 c0 -8 7 -23 15 -34 14 -19 14 -19 15 2 0 12 -7 27 -15 34
-12 10 -15 10 -15 -2z"/>
<path d="M3310 9076 c0 -8 7 -16 15 -20 13 -4 14 -2 5 14 -13 23 -20 26 -20 6z"/>
<path d="M5606 9056 c15 -19 30 -33 32 -31 7 7 -19 45 -39 56 -18 9 -17 5 7
-25z"/>
<path d="M2625 9054 c-15 -11 -17 -17 -7 -23 7 -4 17 -30 21 -57 l9 -49 1 41
c1 33 5 43 22 47 21 6 21 6 2 31 -21 30 -22 30 -48 10z"/>
<path d="M3742 9048 c-18 -18 -14 -36 13 -54 50 -32 92 16 43 50 -27 19 -40
20 -56 4z"/>
<path d="M5780 9042 c0 -12 28 -48 33 -42 8 8 -11 50 -23 50 -5 0 -10 -4 -10
-8z"/>
<path d="M3502 9028 c-17 -17 -15 -24 9 -46 17 -17 25 -18 50 -9 37 14 37 21
-5 46 -39 25 -39 24 -54 9z"/>
<path d="M3870 9024 c0 -12 52 -76 57 -70 3 3 -8 21 -26 41 -17 20 -31 33 -31
29z"/>
<path d="M4067 9019 c7 -7 15 -10 18 -7 3 3 -2 9 -12 12 -14 6 -15 5 -6 -5z"/>
<path d="M3050 9006 c0 -7 12 -16 28 -19 19 -4 31 -15 39 -36 13 -35 33 -42
30 -10 -2 23 -60 79 -82 79 -8 0 -15 -6 -15 -14z"/>
<path d="M4905 9011 c-11 -10 -4 -40 15 -61 15 -17 20 -19 20 -8 0 9 3 29 6
46 6 27 4 31 -15 29 -12 -1 -24 -3 -26 -6z"/>
<path d="M5230 8990 c0 -19 5 -30 14 -30 22 0 28 17 16 40 -16 29 -30 25 -30
-10z"/>
<path d="M3689 8992 c6 -11 31 -38 58 -60 54 -47 53 -61 -3 -36 -22 9 -45 16
-51 15 -7 -1 -13 2 -13 7 0 4 -17 16 -37 25 -21 9 -30 11 -20 4 10 -6 31 -22
45 -34 15 -13 32 -23 37 -23 6 0 21 -8 34 -17 l24 -16 -22 -9 c-13 -4 -21 -14
-19 -20 7 -20 50 -22 64 -4 9 13 17 14 43 5 17 -6 31 -16 32 -22 0 -7 4 -3 9
8 13 30 12 35 -9 35 -10 0 -50 35 -92 80 -70 77 -101 100 -80 62z"/>
<path d="M6247 9003 c-14 -13 -6 -43 23 -86 21 -32 30 -57 30 -85 0 -47 13
-87 36 -109 11 -12 14 -26 10 -52 -12 -65 -11 -84 2 -88 7 -3 12 5 12 21 0 14
5 26 11 26 7 0 8 16 3 46 -6 41 -4 46 15 51 16 4 21 13 21 41 0 37 -36 102
-56 102 -26 0 -54 38 -54 73 0 45 -32 81 -53 60z"/>
<path d="M3358 8973 c-22 -5 -22 -4 -3 -39 8 -16 15 -23 15 -15 0 7 6 11 15 8
8 -4 17 -1 21 4 9 15 -27 47 -48 42z"/>
<path d="M1913 8954 c-14 -6 -10 -40 12 -119 20 -72 39 -202 37 -260 -3 -89
-2 -100 9 -103 6 -3 5 -9 -3 -19 -22 -26 -20 -53 5 -64 19 -8 22 -17 19 -40
-2 -16 0 -35 5 -42 6 -6 13 -27 17 -46 3 -19 14 -40 24 -47 11 -9 13 -16 6
-21 -7 -5 -4 -14 8 -26 16 -15 19 -15 24 -2 9 22 -1 94 -20 145 -10 24 -17 62
-18 85 0 22 -6 47 -13 55 -7 8 -15 39 -18 69 -4 29 -10 58 -16 65 -13 16 -41
212 -40 277 2 56 -7 100 -19 98 -4 0 -12 -3 -19 -5z"/>
<path d="M2020 8932 c-14 -9 -28 -21 -32 -27 -18 -25 -6 -80 33 -151 43 -78
43 -80 21 -183 -8 -34 -6 -56 6 -95 9 -28 16 -56 17 -62 0 -6 5 -18 11 -25 10
-13 30 -75 51 -159 5 -21 16 -36 26 -38 16 -3 17 3 11 71 -4 51 -3 76 5 81 8
5 8 13 1 27 -13 23 -5 40 14 33 13 -5 23 16 31 61 8 42 -8 107 -33 137 -24 28
-25 33 -15 71 9 32 9 44 0 49 -19 13 -41 4 -53 -20 -11 -22 -12 -22 -18 15
-20 123 -42 233 -46 232 -3 0 -16 -8 -30 -17z m109 -303 c13 -39 14 -49 2 -49
-9 0 -12 8 -27 63 -9 31 14 18 25 -14z m35 -115 c9 -24 7 -84 -3 -84 -13 0
-21 26 -21 66 0 35 13 46 24 18z"/>
<path d="M3187 8922 c17 -17 30 -32 28 -34 -2 -1 13 -11 34 -22 l36 -18 -20
22 c-11 12 -40 36 -65 52 l-45 30 32 -30z"/>
<path d="M3450 8916 c0 -3 24 -37 53 -75 28 -38 63 -88 76 -110 33 -55 37 -46
6 14 -38 70 -135 194 -135 171z"/>
<path d="M4071 8894 c0 -11 3 -14 6 -6 3 7 2 16 -1 19 -3 4 -6 -2 -5 -13z"/>
<path d="M5750 8878 c0 -7 45 -77 57 -88 10 -9 -25 54 -41 75 -8 11 -16 17
-16 13z"/>
<path d="M5310 8858 c0 -22 17 -41 29 -34 8 5 8 13 1 27 -12 21 -30 26 -30 7z"/>
<path d="M4000 8853 c0 -5 6 -15 13 -22 10 -12 8 -12 -8 -6 -27 11 -123 18
-108 8 16 -11 28 -63 14 -63 -12 0 -4 -58 11 -77 14 -17 70 -26 108 -18 24 5
29 10 20 20 -7 8 -7 15 -1 19 6 4 6 18 1 36 -5 19 -5 32 2 36 7 4 5 10 -6 16
-9 5 -16 14 -16 19 0 6 -7 17 -15 25 -8 9 -15 12 -15 7z"/>
<path d="M4710 8850 c0 -5 5 -10 11 -10 5 0 7 5 4 10 -3 6 -8 10 -11 10 -2 0
-4 -4 -4 -10z"/>
<path d="M5700 8845 c0 -8 4 -15 10 -15 5 0 7 7 4 15 -4 8 -8 15 -10 15 -2 0
-4 -7 -4 -15z"/>
<path d="M3610 8828 c0 -12 3 -18 6 -15 4 4 16 -3 27 -16 21 -23 20 -20 -2 26
-17 32 -31 35 -31 5z"/>
<path d="M2280 8805 c0 -32 2 -35 19 -25 31 16 36 32 16 47 -29 20 -35 16 -35
-22z"/>
<path d="M3180 8839 c0 -8 50 -142 55 -147 8 -9 6 2 -16 69 -17 53 -39 97 -39
78z"/>
<path d="M3671 8814 c0 -11 3 -14 6 -6 3 7 2 16 -1 19 -3 4 -6 -2 -5 -13z"/>
<path d="M2860 8770 c0 -5 5 -10 10 -10 6 0 10 5 10 10 0 6 -4 10 -10 10 -5 0
-10 -4 -10 -10z"/>
<path d="M3691 8730 c0 -14 6 -38 14 -55 18 -41 19 -3 0 45 -12 31 -14 32 -14
10z"/>
<path d="M6001 8683 c7 -12 15 -20 18 -17 3 2 -3 12 -13 22 -17 16 -18 16 -5
-5z"/>
<path d="M3015 8659 c-9 -13 20 -45 48 -53 22 -6 46 -35 120 -144 53 -78 54
-77 12 8 -40 79 -55 102 -111 163 -35 37 -57 46 -69 26z"/>
<path d="M2456 8632 c-2 -4 -1 -14 4 -22 7 -11 12 -12 21 -3 6 6 8 16 5 22 -8
13 -23 14 -30 3z"/>
<path d="M6285 8600 c-4 -7 -8 -27 -7 -44 1 -32 -25 -96 -38 -96 -5 0 -11 8
-13 18 -3 9 -3 -3 0 -28 8 -70 10 -83 22 -110 10 -22 11 -20 6 15 l-5 40 15
-27 c9 -16 20 -28 25 -28 19 0 42 49 36 77 -3 15 -8 60 -12 98 -7 78 -16 106
-29 85z"/>
<path d="M2650 8585 c0 -9 11 -31 24 -48 24 -32 42 -75 38 -90 -1 -4 8 -18 20
-32 19 -19 25 -21 35 -10 9 10 6 18 -16 38 -16 14 -36 47 -46 73 -9 27 -20 55
-24 63 -11 22 -31 25 -31 6z"/>
<path d="M3786 8565 c4 -8 8 -15 10 -15 2 0 4 7 4 15 0 8 -4 15 -10 15 -5 0
-7 -7 -4 -15z"/>
<path d="M3210 8525 c17 -25 36 -45 41 -45 6 0 -6 20 -27 45 -20 25 -38 45
-41 45 -2 0 10 -20 27 -45z"/>
<path d="M7120 8540 c0 -5 7 -10 15 -10 8 0 15 5 15 10 0 6 -7 10 -15 10 -8 0
-15 -4 -15 -10z"/>
<path d="M2915 8531 c25 -11 70 -60 114 -126 19 -27 56 -83 83 -122 47 -70 72
-97 46 -50 -7 12 -11 27 -10 33 1 6 -22 37 -51 70 -29 32 -59 71 -66 86 -22
42 -98 118 -118 117 -16 0 -15 -1 2 -8z"/>
<path d="M3890 8530 c0 -5 8 -10 17 -10 9 0 30 -12 46 -27 32 -30 28 -13 -6
25 -21 22 -57 30 -57 12z"/>
<path d="M2480 8499 c0 -8 13 -33 30 -55 34 -47 110 -192 110 -211 0 -7 -18
-22 -40 -33 -22 -11 -40 -27 -40 -35 0 -21 42 -82 68 -96 25 -14 29 -29 7 -29
-24 0 -17 -19 17 -48 17 -14 47 -51 66 -82 20 -30 43 -63 53 -73 16 -17 17
-15 14 42 -2 53 -7 68 -39 108 -20 26 -49 53 -64 59 -21 10 -23 13 -8 13 18 1
19 2 1 21 -21 23 -20 25 18 34 20 5 29 2 33 -9 11 -28 23 -15 17 20 -4 23 -2
35 6 35 24 0 9 20 -36 48 -41 25 -58 46 -118 152 -83 145 -94 162 -95 139z"/>
<path d="M3320 8494 c0 -17 67 -84 84 -84 9 0 16 2 16 5 0 8 -39 45 -47 45 -4
0 -17 10 -30 22 -13 12 -23 17 -23 12z"/>
<path d="M3750 8477 c0 -18 32 -67 40 -62 6 4 9 21 9 38 -1 18 -3 24 -6 15 -2
-10 -8 -18 -13 -18 -5 0 -14 8 -19 18 -6 9 -11 13 -11 9z"/>
<path d="M3260 8460 c0 -18 54 -93 58 -81 2 7 -8 30 -23 52 -29 41 -35 46 -35
29z"/>
<path d="M3250 8355 c0 -5 9 -23 20 -40 11 -16 20 -25 20 -20 0 6 -9 24 -20
40 -11 17 -20 26 -20 20z"/>
<path d="M3332 8340 c0 -14 2 -19 5 -12 2 6 2 18 0 25 -3 6 -5 1 -5 -13z"/>
<path d="M6316 8334 c-3 -9 -3 -20 0 -25 8 -13 34 9 34 27 0 19 -26 18 -34 -2z"/>
<path d="M6582 8319 c2 -7 10 -15 17 -17 8 -3 12 1 9 9 -2 7 -10 15 -17 17 -8
3 -12 -1 -9 -9z"/>
<path d="M2811 8295 c0 -5 3 -16 8 -24 8 -12 12 -12 25 -2 9 8 16 19 15 25 0
7 -2 6 -6 -1 -2 -7 -11 -13 -18 -13 -7 0 -16 6 -18 13 -3 6 -6 8 -6 2z"/>
<path d="M2490 8218 c0 -4 6 -8 14 -8 8 0 17 4 20 8 2 4 -4 8 -15 8 -10 0 -19
-4 -19 -8z"/>
<path d="M2490 8141 c0 -28 24 -49 35 -31 7 12 -12 60 -25 60 -5 0 -10 -13
-10 -29z"/>
<path d="M2744 8144 c3 -9 6 -18 6 -20 0 -2 5 -4 10 -4 6 0 10 9 10 20 0 12
-7 20 -16 20 -11 0 -14 -5 -10 -16z"/>
<path d="M2327 8113 c-4 -3 -7 -17 -7 -30 0 -21 2 -22 20 -11 22 14 27 48 7
48 -8 0 -17 -3 -20 -7z"/>
<path d="M2550 8090 c0 -5 5 -10 11 -10 5 0 7 5 4 10 -3 6 -8 10 -11 10 -2 0
-4 -4 -4 -10z"/>
<path d="M6560 7980 c0 -18 4 -29 10 -25 6 3 10 15 10 25 0 10 -4 22 -10 25
-6 4 -10 -7 -10 -25z"/>
<path d="M2120 7887 c0 -14 31 -47 44 -47 3 0 0 14 -9 30 -16 31 -35 40 -35
17z"/>
<path d="M2458 7758 c-19 -24 -15 -38 10 -38 9 0 41 -24 71 -52 l54 -53 -30
45 c-17 25 -38 62 -46 83 -18 42 -34 46 -59 15z"/>
<path d="M2672 7697 c-13 -15 -6 -50 20 -92 l18 -30 0 33 c0 18 5 42 11 53 18
35 -24 66 -49 36z"/>
<path d="M2965 7583 c11 -18 23 -33 28 -33 11 0 -8 34 -29 51 -16 12 -16 10 1
-18z"/>
<path d="M2340 7535 c0 -8 5 -15 10 -15 6 0 10 7 10 15 0 8 -4 15 -10 15 -5 0
-10 -7 -10 -15z"/>
<path d="M2520 7511 c0 -26 17 -36 35 -21 23 19 18 40 -10 40 -18 0 -25 -5
-25 -19z"/>
<path d="M3405 7439 c-11 -17 -2 -18 19 -3 17 12 17 14 4 14 -9 0 -20 -5 -23
-11z"/>
<path d="M3230 7370 c0 -15 39 -31 68 -28 26 4 26 4 -12 21 -44 19 -56 21 -56
7z"/>
<path d="M3560 7330 c0 -5 5 -10 11 -10 5 0 7 5 4 10 -3 6 -8 10 -11 10 -2 0
-4 -4 -4 -10z"/>
<path d="M2240 7270 c0 -5 11 -10 25 -10 14 0 25 5 25 10 0 6 -11 10 -25 10
-14 0 -25 -4 -25 -10z"/>
<path d="M3367 7219 c7 -7 15 -10 18 -7 3 3 -2 9 -12 12 -14 6 -15 5 -6 -5z"/>
<path d="M4590 6829 c0 -5 5 -7 10 -4 6 3 10 8 10 11 0 2 -4 4 -10 4 -5 0 -10
-5 -10 -11z"/>
<path d="M2840 6812 c0 -6 7 -17 15 -26 8 -8 15 -19 15 -25 0 -5 9 -13 20 -16
11 -3 20 -13 20 -21 0 -14 60 -45 70 -37 3 3 -6 13 -19 24 -13 10 -24 30 -25
44 -1 19 -6 25 -25 25 -14 0 -35 10 -48 22 -13 12 -23 17 -23 10z"/>
<path d="M4450 6785 c7 -8 17 -15 22 -15 6 0 5 7 -2 15 -7 8 -17 15 -22 15 -6
0 -5 -7 2 -15z"/>
<path d="M4810 6731 c0 -5 5 -13 10 -16 6 -3 10 -2 10 4 0 5 -4 13 -10 16 -5
3 -10 2 -10 -4z"/>
<path d="M3353 6719 c-7 -7 -29 -15 -50 -19 l-38 -8 38 -1 c40 -1 77 13 77 29
0 13 -13 13 -27 -1z"/>
<path d="M3138 6683 c12 -2 32 -2 45 0 12 2 2 4 -23 4 -25 0 -35 -2 -22 -4z"/>
<path d="M3612 6629 c3 -8 13 -16 24 -18 10 -2 22 -8 26 -15 5 -7 8 -5 8 5 0
9 -8 19 -17 23 -10 3 -24 9 -32 12 -9 4 -12 2 -9 -7z"/>
<path d="M3700 6566 c26 -29 59 -51 66 -43 2 2 -17 19 -44 37 -44 31 -45 32
-22 6z"/>
<path d="M6165 6580 c7 -11 45 -33 45 -26 0 2 -7 12 -16 20 -17 18 -39 22 -29
6z"/>
<path d="M3756 6572 c-2 -4 3 -13 13 -19 20 -13 47 -1 37 16 -8 13 -42 15 -50
3z"/>
<path d="M3920 6485 c-19 -14 -30 -25 -24 -25 10 1 73 50 63 50 -3 0 -20 -11
-39 -25z"/>
<path d="M4058 6443 c7 -3 16 -2 19 1 4 3 -2 6 -13 5 -11 0 -14 -3 -6 -6z"/>
<path d="M4065 6390 c-3 -6 6 -15 22 -21 15 -6 23 -13 17 -17 -6 -4 -13 -15
-17 -24 -8 -23 30 -25 59 -3 10 8 33 15 51 15 46 0 79 15 86 39 6 25 8 25 -36
6 -44 -18 -127 -20 -127 -3 0 6 -3 8 -6 5 -4 -3 -15 -2 -25 3 -12 7 -20 7 -24
0z"/>
<path d="M6271 6373 c11 -34 19 -42 19 -20 0 7 -7 22 -15 33 -13 17 -14 16 -4
-13z"/>
<path d="M4361 6373 c1 -10 5 -29 9 -43 7 -22 8 -21 9 12 1 20 -3 40 -9 43 -5
3 -10 -2 -9 -12z"/>
<path d="M4640 6265 c-7 -8 -18 -15 -24 -15 -6 0 -11 -16 -11 -38 0 -30 4 -38
22 -40 32 -5 63 31 63 73 0 28 -4 35 -19 35 -10 0 -24 -7 -31 -15z"/>
<path d="M5906 6198 c57 -62 69 -85 46 -91 -10 -3 -6 -5 11 -6 23 -1 26 2 18
17 -16 31 -71 95 -94 111 -12 8 -3 -6 19 -31z"/>
<path d="M3518 6203 c-51 -2 -88 -8 -88 -14 0 -6 4 -8 9 -5 5 4 11 2 13 -3 4
-12 159 6 173 20 5 6 4 8 -5 7 -8 -1 -54 -4 -102 -5z"/>
<path d="M3396 6134 c-16 -16 -21 -34 -10 -34 7 0 44 40 44 47 0 9 -20 1 -34
-13z"/>
<path d="M6607 6134 c-8 -13 20 -41 30 -30 3 3 1 6 -5 6 -6 0 -12 8 -14 18 -2
11 -6 13 -11 6z"/>
<path d="M4753 6098 c-16 -25 -33 -61 -31 -64 2 -1 13 -4 25 -6 23 -3 105 50
100 66 -5 15 -84 18 -94 4z"/>
<path d="M3368 5934 c-17 -16 8 -24 75 -23 77 2 79 0 -38 24 -17 4 -33 3 -37
-1z"/>
<path d="M6518 5915 c-26 -34 -22 -42 7 -15 25 23 32 40 18 40 -5 0 -16 -11
-25 -25z"/>
<path d="M5100 5855 c0 -8 5 -15 10 -15 6 0 10 7 10 15 0 8 -4 15 -10 15 -5 0
-10 -7 -10 -15z"/>
<path d="M6164 5676 c-5 -13 -3 -21 5 -24 7 -2 21 -25 32 -50 11 -24 22 -43
24 -40 3 3 -8 34 -24 69 -24 53 -30 61 -37 45z"/>
<path d="M5026 5643 c-9 -9 -7 -33 3 -33 12 0 22 28 12 34 -5 3 -11 3 -15 -1z"/>
<path d="M6566 5535 c-21 -32 -20 -38 4 -32 12 3 24 -1 31 -11 10 -16 10 -16
5 0 -3 9 -1 18 4 20 14 4 0 48 -15 48 -7 0 -20 -11 -29 -25z"/>
<path d="M6226 5523 c8 -33 12 -39 20 -30 9 9 -5 57 -16 57 -6 0 -8 -11 -4
-27z"/>
<path d="M6487 5442 c-18 -19 -23 -42 -9 -42 8 0 34 51 29 57 -2 2 -11 -5 -20
-15z"/>
<path d="M6796 5425 c25 -24 35 -41 31 -54 -3 -12 1 -22 10 -25 11 -5 13 -1 7
17 -20 64 -29 77 -67 90 -10 4 -2 -9 19 -28z"/>
<path d="M6602 5312 c1 -107 -3 -118 -58 -167 -6 -5 -18 -24 -27 -41 -12 -23
-13 -34 -4 -43 15 -15 27 -14 49 6 17 15 18 14 17 -33 0 -27 2 -65 5 -85 6
-45 -6 -61 -65 -83 -25 -9 -54 -23 -65 -31 -15 -11 -10 -11 24 2 62 24 90 9
85 -45 -1 -23 2 -53 7 -68 9 -23 7 -31 -12 -51 l-23 -25 28 7 c23 6 27 4 27
-14 0 -12 4 -21 8 -21 18 0 62 26 62 37 0 21 21 26 35 7 8 -13 24 -19 46 -18
88 3 89 3 89 29 0 14 8 29 19 35 48 25 61 70 25 84 -10 4 -14 25 -14 76 0 51
3 69 12 64 8 -5 9 2 3 27 -8 36 -12 66 -15 114 -2 19 -4 23 -7 12 -3 -11 -10
-16 -20 -13 -8 3 -19 6 -25 6 -6 0 -8 9 -5 21 4 14 -9 42 -40 87 -25 37 -50
69 -55 71 -5 1 -16 -5 -23 -15 -8 -11 -15 -15 -15 -10 0 6 -6 2 -13 -9 -22
-29 -34 -10 -36 57 -1 35 -6 79 -11 98 -6 26 -8 9 -8 -68z m248 -272 c0 -5 -4
-10 -9 -10 -6 0 -13 5 -16 10 -3 6 1 10 9 10 9 0 16 -4 16 -10z m-6 -95 c-4
-8 -7 -15 -9 -15 -2 0 -5 7 -9 15 -3 9 0 15 9 15 9 0 12 -6 9 -15z"/>
<path d="M6075 5388 c-3 -7 -4 -26 -2 -43 2 -23 7 -30 25 -31 26 -1 42 22 42
60 0 22 -4 26 -30 26 -17 0 -33 -6 -35 -12z m45 -12 c0 -3 -4 -8 -10 -11 -5
-3 -10 -1 -10 4 0 6 5 11 10 11 6 0 10 -2 10 -4z"/>
<path d="M6761 5365 c9 -9 23 -13 33 -9 14 5 15 9 4 15 -7 5 -22 9 -33 9 -17
0 -18 -2 -4 -15z"/>
<path d="M6692 5353 c-2 -34 9 -66 19 -56 5 5 6 24 3 41 -7 34 -20 43 -22 15z"/>
<path d="M6246 5347 c3 -10 9 -15 12 -12 3 3 0 11 -7 18 -10 9 -11 8 -5 -6z"/>
<path d="M6652 5340 c0 -14 2 -19 5 -12 2 6 2 18 0 25 -3 6 -5 1 -5 -13z"/>
<path d="M6040 5309 c0 -5 5 -7 10 -4 6 3 10 8 10 11 0 2 -4 4 -10 4 -5 0 -10
-5 -10 -11z"/>
<path d="M6002 5288 c-7 -7 -12 -25 -12 -42 0 -37 15 -24 25 22 7 35 5 38 -13
20z"/>
<path d="M6123 5166 c3 -8 -1 -20 -9 -26 -8 -7 -14 -27 -14 -45 0 -17 -3 -35
-7 -39 -4 -4 -9 -28 -10 -54 -2 -26 -9 -51 -16 -57 -7 -6 -13 -38 -14 -80 -1
-38 -4 -82 -8 -97 -6 -24 -4 -28 20 -34 31 -8 46 4 48 40 1 14 6 26 10 26 4 0
3 9 -2 19 -8 14 -7 22 4 31 11 9 12 16 4 26 -15 18 -4 47 23 59 18 8 23 18 23
46 0 20 6 43 13 52 8 10 10 21 5 29 -4 7 -8 20 -9 28 -1 8 -2 25 -3 37 0 12
-8 29 -17 37 -20 20 -48 21 -41 2z m-43 -386 c0 -5 -2 -10 -4 -10 -3 0 -8 5
-11 10 -3 6 -1 10 4 10 6 0 11 -4 11 -10z"/>
<path d="M6261 5103 c-1 -6 -4 -20 -7 -30 -5 -17 -5 -17 6 0 6 10 9 23 6 30
-3 9 -5 9 -5 0z"/>
<path d="M6227 4994 c-4 -4 -7 -19 -7 -33 l0 -25 16 23 c15 21 7 51 -9 35z"/>
<path d="M5810 4960 c0 -5 4 -10 9 -10 6 0 13 5 16 10 3 6 -1 10 -9 10 -9 0
-16 -4 -16 -10z"/>
<path d="M5855 4867 c-63 -64 -95 -122 -95 -175 0 -32 4 -41 21 -45 18 -5 21
-11 16 -37 -4 -19 -3 -29 3 -25 17 11 11 65 -11 94 l-20 28 24 54 c38 86 157
180 157 124 0 -8 9 -15 20 -15 23 0 25 8 6 33 -25 32 -63 21 -121 -36z"/>
<path d="M5990 4910 c0 -5 5 -10 11 -10 5 0 7 5 4 10 -3 6 -8 10 -11 10 -2 0
-4 -4 -4 -10z"/>
<path d="M6189 4802 c-19 -21 -46 -53 -62 -70 -15 -18 -35 -32 -45 -32 -10 0
-29 -12 -43 -26 l-24 -26 23 -19 24 -19 -22 -37 -22 -38 27 33 c14 17 35 32
44 32 35 0 161 32 161 41 0 5 -7 9 -15 9 -8 0 -15 7 -15 15 0 9 -9 15 -22 15
-34 0 -68 11 -68 21 0 5 7 9 15 9 8 0 15 3 16 8 3 29 11 47 39 82 40 51 33 52
-11 2z"/>
<path d="M5966 4702 c-35 -50 -48 -98 -32 -111 9 -8 11 -2 8 22 -3 26 2 38 27
60 17 15 31 36 31 47 0 27 -3 26 -34 -18z"/>
<path d="M6580 4545 c-7 -9 -11 -18 -8 -20 3 -3 11 1 18 10 7 9 11 18 8 20 -3
3 -11 -1 -18 -10z"/>
<path d="M6737 4410 c-9 -24 -15 -46 -12 -48 7 -7 37 68 33 80 -2 6 -12 -9
-21 -32z"/>
<path d="M5655 4415 c-25 -12 -26 -14 -5 -9 14 4 29 10 35 15 12 12 5 11 -30
-6z"/>
<path d="M5925 4382 c-27 -53 -27 -52 -21 -52 7 0 48 81 44 86 -2 2 -12 -13
-23 -34z"/>
<path d="M5560 4385 c-19 -7 -28 -14 -19 -14 9 -1 32 6 50 14 43 18 16 18 -31
0z"/>
<path d="M6733 4267 c-6 -24 -8 -59 -4 -82 l8 -40 7 30 c4 17 11 38 17 47 13
25 11 64 -4 76 -10 9 -15 2 -24 -31z"/>
<path d="M5870 4265 c0 -8 2 -15 4 -15 2 0 6 7 10 15 3 8 1 15 -4 15 -6 0 -10
-7 -10 -15z"/>
<path d="M5857 4233 c-4 -3 -7 -11 -7 -17 0 -6 5 -5 12 2 6 6 9 14 7 17 -3 3
-9 2 -12 -2z"/>
<path d="M6385 4165 c-14 -30 -32 -55 -39 -55 -8 0 -23 -17 -33 -37 -42 -82
-85 -158 -94 -170 -12 -14 -88 -14 -107 0 -9 7 -9 13 -1 23 9 11 8 14 -5 14
-8 0 -23 -14 -31 -31 -13 -24 -20 -29 -38 -23 -30 8 -67 33 -67 43 0 5 -16 19
-36 30 -27 16 -50 21 -87 19 -47 -3 -51 -5 -62 -37 -12 -37 -35 -54 -35 -26 0
13 -4 15 -12 8 -13 -10 -73 -27 -138 -39 -47 -8 -81 -41 -74 -70 9 -33 -12
-64 -44 -64 -15 0 -35 -6 -44 -13 -15 -12 -15 -14 5 -28 12 -8 36 -19 52 -25
49 -18 38 -38 -25 -45 -66 -7 -111 -29 -138 -66 -16 -22 -28 -28 -58 -28 -24
0 -41 -6 -48 -17 -13 -21 -8 -26 41 -43 33 -12 38 -17 35 -42 -3 -30 -21 -118
-30 -143 -12 -36 -7 -67 12 -89 l21 -24 -50 5 -50 5 38 -40 c37 -38 41 -39 85
-33 l47 6 -23 -19 c-12 -11 -28 -22 -35 -25 -9 -5 -9 -7 1 -12 6 -3 12 -13 12
-22 0 -10 8 -22 19 -29 16 -10 20 -8 31 13 14 25 32 33 29 12 -1 -7 1 -21 6
-32 11 -26 -7 -70 -30 -74 -29 -6 -45 -22 -45 -46 0 -12 -9 -27 -21 -34 -29
-18 -23 -76 8 -80 25 -4 37 -31 29 -64 -3 -13 -3 -17 0 -10 9 20 23 14 17 -8
-7 -25 -74 -80 -98 -80 -10 0 -23 7 -29 16 -10 13 -16 14 -39 3 -15 -7 -27
-20 -27 -29 0 -17 -37 -63 -56 -71 -6 -2 -27 -29 -47 -61 -28 -41 -36 -63 -32
-80 4 -16 1 -29 -9 -37 -20 -17 -21 -31 -2 -31 8 0 17 11 20 25 4 14 13 25 21
25 20 0 19 -10 -5 -40 -27 -34 -26 -70 1 -70 40 0 8 -19 -52 -31 -33 -6 -62
-16 -65 -20 -7 -12 95 -11 132 0 53 17 105 21 97 8 -5 -9 -3 -9 8 0 11 9 22 5
52 -23 20 -19 37 -38 37 -43 0 -13 88 4 107 21 10 8 25 17 34 20 8 3 21 24 28
47 6 23 15 41 20 41 4 0 13 18 20 40 6 21 22 52 34 67 37 47 57 89 57 121 0
17 5 34 11 37 7 5 5 15 -5 30 -22 34 -8 63 57 119 56 48 84 94 73 121 -4 10 2
19 18 25 13 5 28 22 34 39 6 16 20 35 32 41 11 6 32 37 47 68 14 31 32 61 39
65 8 5 14 25 14 49 0 37 2 40 23 35 28 -8 57 7 33 16 -9 4 -16 13 -16 20 0 19
89 42 103 28 6 -6 24 -11 39 -11 15 0 28 -4 28 -10 0 -21 36 -8 59 21 22 28
22 31 7 48 -9 10 -16 28 -16 42 l1 24 20 -24 c24 -29 33 -23 19 13 -8 21 -7
31 5 42 20 21 19 31 -5 46 -11 7 -20 21 -20 30 0 10 -4 18 -10 18 -5 0 -10 9
-10 20 0 11 6 20 14 20 20 0 25 20 13 48 -12 26 -1 44 14 22 5 -8 12 -32 15
-52 9 -54 24 -47 24 11 0 33 -5 51 -14 54 -12 5 -14 20 -10 66 2 33 8 71 13
84 6 14 8 42 6 62 -2 21 2 47 7 59 24 47 27 55 21 75 -3 12 -1 21 5 21 6 0 23
20 38 45 14 25 30 45 35 45 5 0 9 8 9 19 0 10 9 29 19 42 18 23 55 129 45 129
-2 0 -16 -25 -29 -55z m-805 -1495 c0 -5 -4 -10 -10 -10 -5 0 -10 5 -10 10 0
6 5 10 10 10 6 0 10 -4 10 -10z m-412 -388 c2 -8 -9 -12 -35 -12 -38 0 -38 0
-13 14 28 16 42 15 48 -2z"/>
<path d="M6421 4085 c1 -52 6 -95 10 -95 10 0 16 75 11 138 -7 89 -23 57 -21
-43z"/>
<path d="M5816 4154 c-9 -23 -8 -24 17 -23 19 1 19 2 3 6 -14 4 -15 7 -6 13 7
5 8 10 2 14 -5 3 -13 -1 -16 -10z"/>
<path d="M6685 4110 c-9 -16 -20 -30 -25 -30 -5 0 -8 -13 -8 -30 1 -37 15 -39
31 -2 7 15 19 27 27 27 8 0 16 10 18 23 4 23 -13 31 -21 10 -2 -7 -2 -3 0 10
5 31 -4 28 -22 -8z"/>
<path d="M6215 4080 c-3 -5 -1 -10 4 -10 6 0 11 5 11 10 0 6 -2 10 -4 10 -3 0
-8 -4 -11 -10z"/>
<path d="M6397 4043 c-4 -3 -7 -11 -7 -17 0 -6 5 -5 12 2 6 6 9 14 7 17 -3 3
-9 2 -12 -2z"/>
<path d="M5561 3964 c-24 -17 -57 -82 -46 -92 3 -4 9 -2 13 3 4 6 20 15 36 20
24 8 29 16 31 48 2 42 -1 44 -34 21z m19 -34 c0 -5 -4 -10 -9 -10 -6 0 -13 5
-16 10 -3 6 1 10 9 10 9 0 16 -4 16 -10z"/>
<path d="M6165 3970 c-3 -5 -1 -10 4 -10 6 0 11 5 11 10 0 6 -2 10 -4 10 -3 0
-8 -4 -11 -10z"/>
<path d="M6390 3950 c0 -5 5 -10 10 -10 6 0 10 5 10 10 0 6 -4 10 -10 10 -5 0
-10 -4 -10 -10z"/>
<path d="M6317 3933 c-4 -3 -7 -13 -7 -21 0 -12 3 -12 15 -2 8 7 15 16 15 21
0 11 -14 12 -23 2z"/>
<path d="M6360 3913 c0 -22 2 -25 10 -13 13 20 13 40 0 40 -5 0 -10 -12 -10
-27z"/>
<path d="M6303 3882 c-13 -8 -37 -101 -29 -110 6 -6 44 38 47 53 5 28 4 65 -1
65 -3 0 -10 -4 -17 -8z"/>
<path d="M2216 3706 c-20 -31 -20 -36 -1 -36 8 0 17 11 21 25 9 36 0 40 -20
11z"/>
<path d="M2172 3630 c-12 -16 -22 -34 -22 -40 0 -5 -4 -10 -10 -10 -5 0 -10
-4 -10 -10 0 -14 46 -12 57 3 6 6 13 21 15 32 3 11 9 28 13 38 12 29 -19 20
-43 -13z"/>
<path d="M4610 3609 c0 -5 5 -7 10 -4 6 3 10 8 10 11 0 2 -4 4 -10 4 -5 0 -10
-5 -10 -11z"/>
<path d="M5097 3233 c-13 -12 -7 -43 9 -43 8 0 12 5 9 10 -4 6 -1 17 5 25 10
12 10 15 -2 15 -8 0 -18 -3 -21 -7z"/>
<path d="M6003 3083 c2 -43 10 -55 20 -30 3 7 -1 26 -9 42 l-13 30 2 -42z"/>
<path d="M5832 2877 c-23 -54 -25 -77 -8 -77 18 0 29 35 24 76 l-4 29 -12 -28z"/>
<path d="M5590 2530 c0 -5 7 -10 16 -10 8 0 12 5 9 10 -3 6 -10 10 -16 10 -5
0 -9 -4 -9 -10z"/>
<path d="M5524 2374 c-32 -41 -25 -67 18 -72 33 -4 57 46 40 83 -15 34 -26 31
-58 -11z"/>
<path d="M5602 2343 c-14 -27 -45 -163 -39 -169 10 -10 25 32 40 109 15 79 15
90 -1 60z"/>
<path d="M2383 2283 c-27 -10 -3 -103 25 -103 32 1 74 50 43 50 -5 0 -13 9
-16 20 -7 23 -34 39 -52 33z"/>
<path d="M4960 2270 c30 -23 40 -25 40 -6 0 7 -10 16 -22 20 -39 10 -44 6 -18
-14z"/>
<path d="M2214 2205 c-9 -36 2 -57 28 -53 29 4 35 34 12 59 -23 25 -32 24 -40
-6z"/>
<path d="M5804 2178 c-4 -13 -12 -27 -19 -33 -14 -11 -9 -85 5 -85 8 0 14 20
25 98 7 45 1 56 -11 20z"/>
<path d="M5400 2069 c-14 -5 -30 -21 -36 -37 -24 -61 -33 -96 -27 -101 3 -3 8
0 11 8 2 7 13 21 23 29 11 9 19 22 19 29 0 7 4 13 8 13 5 0 16 16 25 35 18 37
16 39 -23 24z"/>
<path d="M5226 2034 c-8 -21 -1 -28 18 -21 9 4 13 13 10 22 -8 20 -20 19 -28
-1z"/>
<path d="M5123 1992 c-13 -8 -15 -102 -2 -102 10 0 19 28 19 61 0 17 4 28 10
24 6 -3 7 1 4 9 -7 18 -13 19 -31 8z"/>
<path d="M4850 1921 c-8 -12 -19 -20 -24 -18 -5 2 -24 -13 -43 -34 -36 -40
-45 -63 -13 -34 11 10 20 15 20 12 0 -4 11 -2 24 3 21 8 24 5 30 -21 7 -35 -1
-59 -20 -59 -8 0 -14 -8 -14 -17 -1 -20 -30 -64 -30 -45 0 7 -4 12 -10 12 -5
0 -10 -6 -10 -12 0 -7 -14 -42 -30 -76 -17 -35 -28 -68 -24 -73 3 -5 1 -9 -5
-9 -5 0 -7 -14 -4 -33 6 -41 -14 -61 -47 -49 l-23 8 27 27 c15 15 23 27 18 27
-17 0 -72 -57 -72 -74 0 -16 -100 -86 -123 -86 -6 0 -19 -5 -27 -11 -12 -9
-11 -10 7 -6 22 5 22 4 5 -18 -9 -13 -30 -26 -47 -29 -16 -3 -41 -8 -55 -12
-22 -7 -23 -6 -12 8 11 14 11 17 -2 20 -9 1 -44 46 -78 98 -45 67 -74 101
-103 117 -52 29 -69 30 -28 1 18 -13 33 -30 33 -39 0 -9 15 -28 34 -43 20 -15
37 -38 41 -57 4 -17 18 -40 31 -52 28 -24 31 -42 8 -51 -11 -4 -14 -1 -12 12
5 21 -28 52 -54 52 -10 0 -21 6 -24 13 -3 8 -10 14 -17 14 -7 0 -28 3 -47 7
l-35 7 28 -18 c27 -18 37 -43 16 -43 -6 0 -24 -9 -40 -20 -22 -16 -46 -21
-104 -23 -64 -2 -75 -5 -75 -19 0 -10 7 -18 15 -18 8 0 15 -4 15 -9 0 -14 -27
-21 -78 -22 -29 0 -40 -3 -29 -7 16 -7 16 -9 2 -29 -17 -24 -47 -21 -38 3 11
29 -39 14 -71 -21 -18 -19 -37 -35 -43 -35 -6 0 -16 -6 -22 -14 -10 -12 -7
-15 16 -20 15 -4 42 -2 60 3 24 7 35 6 44 -5 10 -12 7 -19 -11 -39 -13 -14
-21 -25 -18 -25 12 0 67 32 79 46 11 14 11 18 -3 28 -13 10 -5 12 44 14 l60 3
-4 -31 c-6 -39 7 -39 21 0 11 32 61 60 131 74 19 4 43 10 53 13 16 4 18 1 12
-19 -16 -48 -15 -52 3 -16 29 60 87 94 204 123 92 22 104 23 111 9 8 -14 11
-13 21 7 12 26 65 45 92 35 13 -5 15 -9 6 -18 -19 -19 -14 -29 8 -16 16 10 24
10 40 0 17 -10 20 -10 20 4 0 9 -9 18 -20 21 -29 8 -25 26 10 41 17 8 30 20
30 27 0 14 29 27 65 29 14 1 19 8 18 24 -3 23 22 32 29 10 3 -9 18 -2 42 20
20 17 44 32 52 32 8 0 21 15 29 33 7 17 27 47 44 66 17 19 31 39 32 45 0 6 2
22 4 36 1 14 -2 31 -7 38 -7 8 -7 12 0 12 6 0 18 25 27 55 8 30 19 55 24 55 5
0 9 10 8 23 0 12 3 30 7 40 5 10 4 17 -2 17 -5 0 -12 -13 -15 -29 -3 -16 -16
-51 -28 -80 -18 -39 -25 -48 -36 -40 -10 9 -14 7 -19 -7 -12 -41 -36 -80 -56
-93 -19 -12 -20 -11 -15 8 3 12 2 23 -3 26 -10 6 -20 -18 -20 -48 -1 -12 -14
-38 -30 -57 -29 -33 -30 -34 -30 -10 0 14 13 57 29 95 33 82 47 145 31 145
-14 0 -13 57 1 62 6 2 9 14 7 26 l-3 23 -15 -20z m-30 -46 c0 -8 -4 -15 -10
-15 -5 0 -7 7 -4 15 4 8 8 15 10 15 2 0 4 -7 4 -15z"/>
<path d="M4731 1794 c0 -11 3 -14 6 -6 3 7 2 16 -1 19 -3 4 -6 -2 -5 -13z"/>
<path d="M5106 1795 c-3 -9 -11 -13 -17 -9 -8 4 -9 3 -5 -4 4 -7 11 -12 16
-12 9 0 23 31 16 37 -2 2 -6 -3 -10 -12z"/>
<path d="M4700 1775 c-7 -8 -19 -15 -28 -15 -9 0 -36 -10 -61 -22 -44 -21 -45
-22 -21 -29 43 -12 70 -10 70 5 0 8 14 26 32 40 18 14 30 28 27 31 -4 3 -12
-1 -19 -10z"/>
<path d="M5035 1687 c-4 -10 -5 -21 -1 -24 10 -10 18 4 13 24 -4 17 -4 17 -12
0z"/>
<path d="M5015 1640 c3 -5 8 -10 11 -10 2 0 4 5 4 10 0 6 -5 10 -11 10 -5 0
-7 -4 -4 -10z"/>
<path d="M4620 1610 c-9 -6 -10 -10 -3 -10 6 0 15 5 18 10 8 12 4 12 -15 0z"/>
<path d="M3770 1429 c0 -5 5 -7 10 -4 6 3 10 8 10 11 0 2 -4 4 -10 4 -5 0 -10
-5 -10 -11z"/>
<path d="M4272 1213 c0 -16 -5 -41 -11 -57 -16 -39 -6 -45 13 -7 17 33 22 91
7 91 -5 0 -9 -12 -9 -27z"/>
<path d="M4660 1150 c-14 -11 -20 -20 -14 -20 6 0 19 9 29 20 23 25 17 25 -15
0z"/>
<path d="M3445 1040 c-3 -5 1 -10 9 -10 8 0 18 5 21 10 3 6 -1 10 -9 10 -8 0
-18 -4 -21 -10z"/>
<path d="M3376 1005 c-15 -8 -34 -15 -42 -15 -7 0 -28 -9 -46 -21 l-33 -21 35
8 c19 4 47 8 62 8 14 1 24 4 21 9 -2 4 12 14 31 22 20 9 36 17 36 20 0 10 -36
4 -64 -10z"/>
<path d="M2703 900 c-2 -24 2 -30 18 -30 17 0 18 -3 9 -20 -7 -12 -21 -20 -38
-20 -26 -1 -62 -20 -62 -34 0 -3 11 -6 25 -6 17 0 25 -6 25 -17 0 -13 3 -14
12 -5 7 7 20 12 30 12 9 0 22 9 28 20 6 11 15 18 19 16 4 -3 17 1 27 9 17 13
18 14 2 15 -10 0 -18 5 -18 10 0 14 16 13 40 -2 16 -10 22 -10 35 3 13 12 13
19 3 42 -11 23 -18 27 -40 23 -16 -3 -28 -2 -28 2 0 4 -19 8 -42 9 -41 2 -43
1 -45 -27z"/>
<path d="M2965 860 c-3 -5 -2 -10 4 -10 5 0 13 5 16 10 3 6 2 10 -4 10 -5 0
-13 -4 -16 -10z"/>
<path d="M2570 833 c0 -6 7 -16 16 -23 12 -11 18 -10 31 3 19 19 10 35 -10 19
-10 -9 -17 -8 -25 0 -8 8 -12 8 -12 1z"/>
<path d="M2843 821 c-18 -9 -31 -20 -29 -26 6 -21 33 -15 64 15 36 34 20 39
-35 11z"/>
<path d="M2527 813 c-10 -9 -9 -23 2 -23 5 0 11 7 15 15 5 15 -5 20 -17 8z"/>
<path d="M2277 769 c-10 -6 -25 -8 -33 -5 -8 3 -27 1 -42 -5 -15 -7 -22 -13
-14 -16 7 -3 20 -19 29 -36 l16 -31 -39 -33 c-22 -18 -61 -47 -87 -64 -26 -18
-45 -34 -43 -37 3 -3 12 1 21 8 8 7 25 10 39 6 15 -4 32 1 47 13 28 22 85 36
93 23 3 -5 -22 -26 -54 -46 -77 -49 -83 -79 -9 -40 17 8 44 16 60 16 16 1 29
5 29 10 0 5 6 8 13 7 33 -4 49 4 69 36 15 22 31 35 45 35 26 0 93 30 93 42 0
12 -12 10 -30 -7 -10 -9 -41 -18 -71 -22 -47 -6 -52 -4 -39 8 30 29 68 43 83
31 11 -9 21 -5 45 17 43 37 41 51 -8 51 -22 0 -40 5 -40 11 0 6 9 8 20 4 11
-3 20 -2 20 4 0 14 -31 19 -58 9 -26 -9 -110 1 -118 13 -7 11 -15 11 -37 -2z"/>
<path d="M2775 768 c27 -15 34 -28 28 -46 -5 -11 0 -11 21 3 31 20 29 41 -3
38 -11 -2 -21 2 -21 7 0 6 -10 10 -22 10 -22 -1 -22 -1 -3 -12z"/>
<path d="M2020 747 c-45 -24 -111 -70 -106 -75 3 -2 31 11 63 30 32 19 69 39
83 46 22 9 22 11 5 11 -11 1 -31 -5 -45 -12z"/>
<path d="M2965 666 c-23 -29 -52 -50 -78 -60 -23 -8 -34 -15 -25 -15 9 -1 18
-7 21 -13 4 -12 99 82 120 118 16 28 -3 13 -38 -30z"/>
<path d="M3050 679 c0 -5 5 -7 10 -4 6 3 10 8 10 11 0 2 -4 4 -10 4 -5 0 -10
-5 -10 -11z"/>
<path d="M1633 598 c-13 -6 -23 -15 -23 -20 0 -14 16 -9 35 12 20 22 19 23
-12 8z"/>
<path d="M1165 534 c-61 -32 -75 -43 -85 -69 -11 -29 0 -41 14 -14 10 21 59
63 112 96 33 20 11 14 -41 -13z"/>
<path d="M2376 541 c-3 -4 -34 -18 -68 -31 -35 -12 -67 -26 -72 -31 -39 -36
90 7 139 47 17 13 25 24 18 24 -6 0 -14 -4 -17 -9z"/>
<path d="M1945 493 c-9 -15 -35 -44 -58 -64 -40 -36 -41 -36 -18 -48 19 -11
25 -9 41 11 11 13 23 34 27 48 3 14 13 35 21 48 8 12 12 25 10 28 -3 2 -13 -8
-23 -23z"/>
<path d="M2706 503 c-6 -14 -5 -15 5 -6 7 7 10 15 7 18 -3 3 -9 -2 -12 -12z"/>
<path d="M2675 454 c-9 -15 -12 -23 -6 -20 11 7 35 46 28 46 -3 0 -12 -12 -22
-26z"/>
<path d="M2455 460 c-71 -10 -92 -18 -99 -37 -8 -20 -3 -25 18 -17 9 3 13 10
11 15 -6 9 16 15 84 23 24 2 48 9 54 15 12 12 9 12 -68 1z"/>
<path d="M2449 274 c-12 -14 -11 -16 5 -13 11 2 21 10 24 17 5 17 -13 15 -29
-4z"/>
<path d="M1300 268 c-19 -6 -50 -10 -67 -10 -27 1 -33 -3 -33 -21 -1 -21 -1
-21 -15 3 -10 17 -14 20 -15 9 0 -28 -27 -41 -87 -44 -81 -4 -100 -12 -100
-41 0 -17 5 -24 16 -23 9 1 28 -4 43 -11 25 -12 30 -11 45 7 20 22 78 53 100
53 7 0 16 7 19 15 9 22 39 18 56 -7 11 -16 20 -20 41 -14 16 4 24 11 21 19 -2
7 7 26 21 41 14 15 25 29 25 32 0 6 -31 3 -70 -8z"/>
<path d="M555 68 c-16 -5 -52 -9 -78 -8 -31 0 -46 -3 -42 -10 4 -6 37 -10 77
-9 56 1 73 -2 80 -15 11 -20 48 -21 48 -2 0 8 12 24 26 35 l27 21 -54 -1 c-30
0 -67 -5 -84 -11z"/>
<path d="M1368 29 c-21 -11 -38 -22 -38 -24 0 -6 49 15 75 32 30 20 5 15 -37
-8z"/>
</g>
</svg>
