<?xml version="1.0" standalone="no"?>
<!DOCTYPE svg PUBLIC "-//W3C//DTD SVG 20010904//EN"
 "http://www.w3.org/TR/2001/REC-SVG-20010904/DTD/svg10.dtd">
<svg version="1.0" xmlns="http://www.w3.org/2000/svg"
 width="500.000000pt" height="344.000000pt" viewBox="0 0 500.000000 344.000000"
 preserveAspectRatio="xMidYMid meet">

<g transform="translate(0.000000,344.000000) scale(0.100000,-0.100000)"
fill="#7e3035" stroke="none">
<path d="M771 3401 c-58 -36 -61 -40 -43 -50 11 -6 27 -11 34 -10 7 0 2 5 -11
10 -24 9 -22 11 40 49 35 22 60 40 54 40 -5 -1 -39 -18 -74 -39z"/>
<path d="M935 3423 l30 -16 -40 -13 -40 -13 38 5 c42 6 47 -6 15 -36 -15 -14
-37 -21 -72 -22 l-51 -2 48 -3 c52 -4 66 3 152 81 30 27 33 33 12 20 -27 -16
-30 -16 -57 -1 -15 9 -36 17 -47 17 -13 -1 -10 -5 12 -17z"/>
<path d="M1045 3388 c-16 -27 -63 -82 -104 -120 -72 -69 -74 -70 -115 -64 -22
4 -50 15 -61 25 -33 31 -62 41 -107 40 l-43 -2 45 -6 c25 -4 56 -13 70 -21
l25 -14 -30 -7 -30 -7 30 -2 30 -2 -34 -14 c-32 -14 -77 -9 -116 15 -6 3 -3
-1 7 -11 29 -26 88 -32 136 -13 26 11 52 15 68 11 l27 -7 -22 -15 c-12 -9 -53
-26 -92 -40 -67 -24 -74 -24 -104 -10 -18 9 -46 15 -62 15 -19 -1 -22 -3 -8
-6 11 -2 31 -7 45 -10 25 -6 25 -6 -5 -13 l-30 -8 35 -1 c34 -1 34 -1 12 -17
-40 -28 -82 -35 -113 -19 -38 20 -44 34 -23 50 17 13 15 13 -14 3 -17 -7 -32
-15 -32 -18 0 -3 23 -18 51 -34 57 -32 90 -31 140 5 29 20 149 62 157 55 2 -2
-14 -12 -34 -22 -21 -11 -40 -25 -42 -33 -3 -7 5 -4 17 8 11 11 25 21 30 21
35 0 8 -69 -34 -88 -33 -15 -38 -15 -29 1 4 6 -2 3 -14 -7 -29 -25 -23 -29 24
-14 42 14 84 66 84 104 0 15 15 35 41 56 22 18 66 54 97 80 31 26 58 45 60 44
1 -2 0 -16 -4 -31 -4 -16 -26 -41 -57 -63 -43 -31 -87 -95 -74 -108 2 -3 10 9
17 26 7 17 30 44 51 61 41 33 47 30 24 -11 -8 -14 -14 -29 -14 -35 0 -5 11 10
24 35 l24 45 0 -50 c1 -67 -15 -95 -74 -127 -28 -15 -53 -28 -57 -28 -4 0 -5
17 -2 38 3 32 2 31 -11 -13 -18 -62 -19 -74 -2 -53 6 9 38 29 70 44 82 38 92
56 92 179 l1 102 49 71 c26 40 47 74 44 76 -2 2 -17 -18 -34 -46z"/>
<path d="M1091 3401 c-33 -48 -40 -144 -16 -207 9 -25 19 -43 22 -40 3 3 -2
21 -11 40 -20 42 -21 142 -1 176 l14 25 2 -30 c1 -24 3 -25 6 -7 9 45 33 17
33 -39 0 -15 -9 -43 -20 -61 -11 -18 -20 -42 -20 -53 0 -21 59 91 60 113 0 7
-8 29 -17 50 -9 20 -19 44 -22 53 -5 12 -12 8 -30 -20z"/>
<path d="M1269 3413 c-3 -18 -2 -33 3 -33 4 0 8 -4 8 -10 0 -15 -36 -12 -50 5
-10 12 -9 15 5 15 10 0 16 3 12 6 -3 4 -13 4 -22 0 -13 -5 -13 -9 -3 -26 7
-11 22 -20 33 -21 18 0 18 -1 -3 -12 -18 -8 -25 -8 -32 2 -4 8 -10 9 -14 3 -3
-5 1 -12 9 -16 8 -3 12 -12 9 -21 -4 -8 0 -17 9 -21 9 -3 13 -12 11 -19 -7
-18 14 -29 30 -16 10 9 15 8 20 -4 3 -9 11 -13 17 -9 8 5 8 9 -1 14 -8 5 -11
19 -7 38 8 40 -2 47 -30 20 -26 -24 -46 -16 -20 9 18 18 77 25 77 9 0 -6 8 -1
18 11 9 12 28 24 42 26 14 3 -1 3 -32 1 -61 -4 -67 -1 -78 50 l-6 31 -5 -32z
m16 -132 c-14 -29 -35 -42 -35 -22 0 12 41 63 47 57 2 -2 -3 -18 -12 -35z"/>
<path d="M1297 3428 c3 -5 9 -22 13 -36 8 -26 8 -25 9 9 1 25 -3 36 -14 36 -8
0 -12 -4 -8 -9z"/>
<path d="M1342 3410 c0 -19 2 -27 5 -17 2 9 2 25 0 35 -3 9 -5 1 -5 -18z"/>
<path d="M1641 3408 l-20 -33 -103 1 -103 2 92 -7 c50 -3 94 -9 97 -12 9 -9
-54 -79 -72 -79 -12 0 -14 -2 -4 -8 8 -6 3 -15 -20 -32 -18 -14 -37 -25 -43
-25 -5 0 -10 -5 -10 -12 0 -11 -71 -73 -84 -73 -4 0 -13 6 -20 13 -11 10 -13
10 -7 0 4 -7 3 -13 -2 -13 -15 0 -34 28 -27 40 3 5 -1 10 -10 10 -11 0 -15 -5
-12 -14 4 -10 -1 -12 -16 -9 -16 3 -13 -1 8 -12 l30 -15 -31 4 c-18 3 -40 -1
-50 -9 -18 -13 -18 -14 -1 -20 14 -6 15 -10 6 -21 -7 -8 -9 -17 -5 -21 3 -4
13 3 21 14 8 12 23 24 33 26 9 2 5 3 -10 1 -15 -2 -30 1 -33 6 -4 6 13 10 39
10 54 0 58 -12 14 -41 -18 -12 -24 -18 -13 -14 11 4 26 8 33 9 8 1 18 9 24 17
6 10 7 2 3 -26 -4 -22 -12 -46 -18 -54 -10 -11 -13 -10 -17 9 -5 22 -6 22 -20
4 -8 -10 -10 -15 -4 -11 7 4 15 0 18 -9 6 -15 8 -15 25 0 14 13 20 14 23 5 6
-17 28 -2 28 19 0 13 -2 14 -9 3 -13 -21 -22 3 -14 40 5 28 7 30 14 14 6 -17
8 -15 9 10 1 25 17 43 92 105 62 51 110 102 150 158 32 45 54 82 49 82 -5 0
-18 -15 -30 -32z"/>
<path d="M1644 3343 c-26 -54 -63 -116 -83 -138 -34 -38 -34 -38 -3 -11 17 17
32 28 32 25 0 -2 -9 -33 -20 -67 -11 -35 -20 -69 -20 -75 1 -7 16 33 34 89 36
107 110 264 125 264 12 0 31 -88 31 -140 0 -31 -4 -40 -17 -40 -15 0 -16 -2
-3 -10 12 -8 10 -10 -10 -11 -17 -1 -20 -3 -7 -6 27 -7 9 -23 -26 -22 -28 0
-29 2 -12 10 19 8 19 9 1 6 -27 -3 -31 -24 -7 -32 17 -5 19 -10 11 -25 -6 -11
-6 -21 -1 -24 12 -8 41 4 41 16 0 6 -7 5 -15 -2 -22 -19 -27 -7 -8 19 12 18
17 20 24 10 7 -11 9 -9 10 6 0 12 3 15 6 7 4 -10 9 -9 20 5 8 10 11 12 7 4 -4
-8 -3 -12 3 -8 13 8 59 -40 49 -50 -4 -4 -16 3 -28 17 -14 18 -18 20 -14 7 3
-10 6 -22 6 -26 0 -4 9 -7 21 -8 23 -2 67 33 56 44 -4 3 -7 1 -7 -5 0 -20 -17
-14 -55 19 -45 40 -45 54 0 28 53 -31 96 -34 142 -9 21 12 29 18 18 14 -11 -4
-44 -9 -74 -12 -40 -3 -52 -2 -46 7 4 7 14 10 22 7 8 -3 12 -2 9 3 -7 11 27
21 70 21 18 0 34 -6 37 -14 6 -14 4 -24 -14 -97 l-9 -36 -55 5 c-48 4 -60 1
-95 -23 -22 -15 -37 -31 -34 -36 7 -11 105 -11 122 0 7 4 -13 6 -45 4 l-58 -4
24 21 c29 25 63 34 97 26 22 -6 24 -9 12 -23 -9 -12 -9 -15 0 -9 16 10 16 -13
-3 -57 -14 -33 -18 -36 -55 -35 -41 0 -120 -41 -120 -62 0 -6 21 -9 48 -9 l47
2 -40 6 -40 7 35 22 c19 12 47 22 63 22 35 0 36 -26 2 -97 -23 -50 -26 -53
-61 -53 -35 0 -114 -36 -114 -52 0 -11 63 -10 94 2 31 12 32 7 5 -31 -11 -16
-29 -29 -40 -29 -11 0 -39 -18 -62 -40 l-42 -39 30 0 c23 0 26 2 11 8 -17 6
-15 10 14 34 31 27 60 35 60 18 0 -5 -12 -19 -26 -30 -31 -25 -27 -27 12 -6
22 11 30 12 36 2 5 -7 8 -1 8 16 0 15 7 44 16 65 16 36 17 37 24 12 7 -22 8
-19 9 15 l1 39 21 -20 c25 -25 48 -90 42 -115 -6 -23 -19 -16 -44 25 -10 17
-19 26 -19 20 0 -6 14 -31 32 -55 l32 -44 7 38 c9 54 -4 114 -31 142 -23 24
-23 25 -6 70 22 57 31 62 45 26 7 -15 33 -48 58 -72 l45 -44 -7 40 c-8 45 -49
126 -76 151 -17 15 -17 19 -3 46 l16 30 51 -48 52 -49 -47 50 c-27 28 -48 59
-48 69 0 17 1 18 28 1 15 -9 35 -26 45 -37 9 -11 17 -15 17 -8 0 7 -18 29 -39
49 l-39 36 11 53 c11 52 20 64 30 38 10 -26 79 -117 85 -111 3 3 -4 15 -15 28
-25 28 -73 99 -73 109 0 12 52 -11 67 -30 12 -15 13 -14 3 6 -7 13 -25 31 -42
40 -28 16 -29 20 -23 64 7 55 24 108 35 108 13 0 55 -47 69 -77 7 -15 17 -36
22 -45 19 -37 8 -41 -26 -8 -19 18 -44 52 -55 74 -11 23 -20 34 -20 26 0 -20
30 -65 80 -120 l40 -45 -2 35 c-2 22 3 40 12 48 13 10 13 11 -2 6 -24 -8 -23
13 1 26 31 16 46 13 30 -7 -7 -10 2 -4 21 14 19 17 55 41 80 52 25 11 38 21
28 21 -9 0 -55 -19 -102 -43 -74 -37 -87 -41 -91 -26 -3 9 -27 36 -54 60 -41
39 -54 44 -99 47 -67 3 -165 -43 -132 -63 17 -11 127 -7 150 5 21 11 22 10 16
-17 -3 -15 -8 -45 -12 -65 l-6 -37 -42 5 c-35 5 -50 2 -85 -20 -30 -19 -48
-25 -64 -20 -21 7 -20 8 8 15 l30 7 -36 1 -36 1 -6 78 c-6 92 -13 112 -38 112
-14 0 -31 -26 -65 -97z m335 68 c11 -7 10 -11 -7 -20 -24 -13 -122 -15 -122
-3 0 25 99 42 129 23z m-47 -498 c17 -19 48 -88 48 -106 0 -18 -51 36 -71 75
-10 21 -19 40 -19 43 0 12 28 4 42 -12z m-122 -119 c0 -9 -68 -34 -92 -34
l-23 1 24 19 c21 18 91 29 91 14z"/>
<path d="M2480 3425 c0 -12 -16 -15 -77 -17 l-78 -2 73 -3 c39 -2 72 -7 72
-11 0 -14 -31 -52 -53 -64 -12 -6 -53 -14 -91 -17 -67 -6 -95 -22 -60 -35 14
-5 15 -4 4 9 -12 14 -6 15 46 14 40 -2 70 3 92 15 l34 18 -7 -31 c-4 -20 -3
-31 4 -31 6 0 11 12 11 28 0 15 8 44 18 65 l17 37 39 -52 c22 -29 46 -75 53
-102 18 -70 53 -105 53 -53 0 21 -16 47 -105 171 -20 27 -34 55 -31 63 3 7 1
13 -4 13 -6 0 -10 -7 -10 -15z m132 -210 c3 -14 2 -25 -2 -25 -9 0 -20 25 -20
46 0 23 17 7 22 -21z"/>
<path d="M2617 3415 c29 -43 64 -113 79 -160 8 -25 13 -32 13 -19 1 27 -73
177 -96 195 -13 11 -12 6 4 -16z"/>
<path d="M2707 3422 c6 -14 25 -12 30 4 2 5 -5 10 -16 10 -11 0 -17 -5 -14
-14z"/>
<path d="M2751 3417 c-1 -22 3 -28 17 -25 10 2 18 14 20 28 2 23 2 24 -12 7
-14 -18 -14 -18 -19 0 -3 12 -5 8 -6 -10z"/>
<path d="M2836 3431 c-21 -34 -76 -209 -76 -241 0 -107 77 23 102 171 10 65
12 69 24 48 8 -16 9 -31 3 -47 -15 -40 -30 -165 -21 -174 14 -14 33 18 38 64
5 50 -1 41 -11 -16 -4 -22 -10 -35 -15 -30 -9 9 11 139 23 151 4 3 8 -9 8 -28
1 -21 3 -26 6 -15 4 16 8 11 19 -20 19 -56 19 -59 -30 -127 -48 -68 -126 -218
-126 -242 0 -8 4 -15 10 -15 15 0 84 97 135 190 28 52 44 73 40 55 -4 -22 -3
-26 5 -15 9 13 10 13 10 0 0 -25 -59 -250 -71 -268 -19 -30 -3 76 25 163 14
43 23 81 21 83 -6 7 -56 -161 -62 -210 -3 -26 -3 -55 1 -64 12 -32 29 2 62
128 27 106 33 119 39 94 6 -20 1 -56 -14 -112 -11 -45 -23 -111 -26 -146 l-5
-63 14 75 c8 41 19 93 24 115 l10 40 1 -50 c1 -27 -6 -85 -14 -128 -8 -43 -15
-81 -15 -83 0 -3 -4 -2 -10 1 -5 3 -10 -1 -10 -9 0 -25 19 -19 30 9 5 14 16
69 23 123 l14 97 8 -59 c6 -45 3 -85 -14 -170 -25 -132 -27 -176 -6 -176 19 0
45 89 45 154 0 57 9 52 34 -16 18 -48 46 -65 46 -29 0 11 -21 65 -46 121 -33
73 -45 110 -41 130 3 15 1 33 -6 40 -9 10 -9 11 1 6 26 -15 172 -210 172 -230
0 -18 -42 29 -97 111 -31 45 -58 81 -60 79 -5 -5 103 -174 130 -203 11 -13 26
-23 34 -23 39 0 -12 90 -131 234 -45 52 -67 88 -68 107 -6 101 -12 98 59 27
62 -60 132 -152 147 -192 12 -33 -15 -4 -109 119 -49 63 -91 113 -93 111 -2
-3 27 -44 65 -93 38 -48 84 -109 103 -135 18 -27 39 -48 47 -48 16 0 16 8 1
51 -18 55 -64 115 -164 214 -62 61 -94 101 -95 116 -1 13 -2 35 -3 49 -1 14
-10 38 -20 53 -10 15 -16 30 -13 33 3 3 10 -3 16 -14 12 -23 187 -172 201
-172 19 0 9 30 -22 65 -39 45 -177 159 -184 152 -3 -2 17 -21 43 -40 63 -46
159 -145 150 -153 -7 -7 -217 194 -215 205 3 12 -44 81 -55 81 -7 0 -19 -36
-28 -83 -18 -92 -56 -190 -71 -181 -14 9 -2 64 38 168 29 80 38 117 20 87z
m108 -267 c-36 -86 -139 -243 -151 -230 -2 2 8 28 22 58 32 63 135 221 141
215 2 -2 -3 -21 -12 -43z m93 -471 c-5 -86 -21 -152 -34 -140 -6 7 28 227 35
227 3 0 2 -39 -1 -87z m79 -40 c-6 -6 -41 62 -50 97 -4 14 7 -1 24 -34 17 -32
29 -60 26 -63z"/>
<path d="M2970 3379 c94 -88 156 -116 120 -52 -15 26 -127 120 -134 112 -2 -2
26 -29 62 -59 36 -30 68 -61 70 -68 7 -21 -22 -3 -108 68 l-75 61 65 -62z"/>
<path d="M3030 3436 c0 -2 7 -6 15 -10 8 -3 15 -1 15 4 0 6 -7 10 -15 10 -8 0
-15 -2 -15 -4z"/>
<path d="M3156 3425 c-3 -9 -5 -47 -4 -83 l1 -67 7 80 c7 84 7 97 -4 70z"/>
<path d="M3232 3413 c-3 -48 -22 -131 -40 -172 l-16 -36 -7 35 -6 35 -2 -42
c-2 -59 13 -61 37 -5 33 77 44 124 40 172 -3 33 -5 36 -6 13z"/>
<path d="M3284 3387 c-1 -28 -11 -81 -24 -117 -27 -78 -37 -178 -21 -208 6
-12 15 -22 19 -22 13 0 53 106 54 141 0 19 -3 75 -6 124 -3 50 -3 83 1 75 3
-8 16 -22 28 -32 42 -33 77 -98 106 -195 16 -54 29 -102 29 -108 0 -25 -86
124 -112 193 -17 46 -26 63 -23 42 8 -56 45 -140 91 -210 49 -74 124 -161 124
-143 0 6 -5 15 -10 18 -21 13 -59 103 -86 204 -22 84 -36 115 -71 160 -76 98
-87 115 -72 106 12 -8 12 -6 0 8 -21 27 -26 21 -27 -36z m18 -183 c1 -54 -42
-166 -53 -138 -17 42 0 171 29 218 8 15 23 -35 24 -80z"/>
<path d="M3387 3422 c49 -26 111 -88 134 -135 l22 -42 -62 58 c-34 31 -77 64
-94 72 l-32 16 35 -28 c77 -62 131 -117 126 -130 -4 -9 -1 -11 6 -7 6 4 18 -2
26 -12 13 -18 14 -17 9 9 -4 24 1 31 37 51 40 23 127 41 140 29 3 -3 0 -13 -7
-22 -11 -14 -10 -14 5 -2 10 7 15 17 13 22 -8 11 29 29 60 29 43 0 125 49 125
74 0 6 -5 3 -11 -7 -12 -21 -52 -42 -98 -52 l-33 -7 27 46 c15 26 25 50 21 53
-7 8 -6 10 -35 -52 l-24 -50 -18 55 c-15 45 -18 50 -18 25 l-1 -30 -20 30
c-11 17 -20 26 -20 22 0 -17 33 -56 43 -50 6 4 8 0 4 -11 -5 -12 -3 -15 6 -10
9 5 9 4 1 -5 -8 -9 -21 -7 -55 8 -32 15 -65 21 -124 21 l-80 0 68 -37 c37 -21
67 -40 67 -43 0 -7 -66 -40 -79 -40 -4 0 -13 11 -19 24 -18 40 -82 106 -123
127 -47 23 -66 25 -22 1z m307 -63 c31 -11 56 -25 56 -30 0 -5 -25 -9 -56 -9
-42 0 -66 6 -100 26 -24 14 -44 27 -44 28 0 12 101 2 144 -15z"/>
<path d="M4171 3433 c0 -7 -9 -13 -18 -14 -14 0 -13 -2 5 -9 12 -5 27 -20 32
-32 5 -14 9 -17 9 -7 1 8 -3 19 -8 25 -5 5 -11 18 -14 29 -3 11 -5 14 -6 8z"/>
<path d="M4279 3426 c12 -7 34 -11 47 -8 14 2 32 -2 42 -11 10 -9 35 -19 57
-22 41 -6 57 2 85 40 8 11 0 7 -17 -9 -28 -25 -36 -27 -73 -21 -23 4 -46 15
-52 25 -9 14 -17 16 -40 10 -16 -5 -30 -5 -33 1 -4 5 -14 9 -23 9 -13 -1 -11
-4 7 -14z"/>
<path d="M4090 3405 c-8 -10 -11 -31 -7 -60 5 -32 3 -45 -6 -46 -6 0 -2 -4 11
-9 12 -5 22 -16 22 -25 0 -18 -29 -19 -83 -4 -46 12 -44 32 4 40 29 6 27 7
-18 8 -46 1 -53 -1 -53 -19 0 -27 31 -41 98 -43 52 -2 57 0 60 20 2 12 9 24
15 26 7 2 4 3 -6 1 -21 -3 -37 31 -37 77 0 21 6 32 23 39 15 6 17 9 6 9 -9 1
-22 -6 -29 -14z"/>
<path d="M4321 3403 c0 -4 4 -17 9 -28 8 -18 9 -18 9 -2 1 17 4 16 34 -4 17
-13 27 -17 20 -9 -15 19 -73 54 -72 43z"/>
<path d="M4447 3349 c-9 -5 -23 -7 -30 -3 -6 4 -9 4 -5 -1 4 -4 3 -16 -2 -26
-10 -17 -12 -16 -35 7 -14 14 -36 24 -53 24 -37 0 -75 -39 -69 -72 4 -22 4
-22 6 3 1 31 29 59 58 59 25 0 73 -37 73 -56 0 -8 -11 -26 -25 -39 -29 -30
-95 -36 -95 -8 0 9 -3 14 -6 10 -3 -3 -3 -14 0 -25 11 -35 126 -4 126 34 0 19
5 18 34 -11 19 -19 35 -25 63 -24 l38 2 -40 6 c-56 9 -65 17 -65 57 0 29 5 37
34 51 27 13 40 14 67 4 31 -10 32 -9 15 4 -23 17 -63 19 -89 4z"/>
<path d="M4177 3324 c-10 -13 -13 -24 -8 -24 10 0 36 39 29 45 -2 2 -11 -8
-21 -21z"/>
<path d="M1445 3330 c-3 -6 1 -7 9 -4 12 4 16 0 16 -16 l0 -22 20 23 c19 24
19 24 20 3 0 -12 -7 -27 -16 -35 -13 -10 -19 -8 -41 15 -25 27 -43 30 -51 8
-2 -7 11 -18 28 -26 31 -13 32 -13 8 -18 -31 -6 -50 1 -42 14 5 7 2 8 -5 3 -9
-5 -10 -10 -2 -18 6 -6 11 -19 11 -29 0 -24 19 -23 47 4 13 12 23 16 23 10 0
-7 8 -5 19 6 10 9 18 19 18 22 0 3 3 13 7 23 12 26 -1 52 -18 38 -10 -8 -16
-9 -21 -1 -8 13 -22 13 -30 0z m-5 -35 c14 -16 10 -18 -14 -9 -9 3 -16 10 -16
15 0 14 16 11 30 -6z m-3 -62 c-9 -9 -20 -13 -24 -9 -4 4 -1 11 7 16 25 16 35
11 17 -7z"/>
<path d="M3764 3309 c-3 -5 -1 -9 5 -9 6 0 13 -11 17 -24 7 -28 -14 -70 -55
-109 -55 -53 -66 -122 -19 -115 29 4 68 72 68 120 0 40 8 68 20 68 4 0 15 -20
24 -45 10 -25 22 -43 26 -40 5 3 19 -9 32 -26 33 -45 138 -128 154 -122 8 3
14 13 14 22 0 29 -101 111 -137 111 -32 0 -62 29 -93 90 -17 33 -30 62 -30 66
0 3 12 3 28 -1 33 -8 72 -43 72 -65 0 -21 75 -94 89 -86 6 4 11 13 11 19 0 7
-4 6 -10 -3 -8 -12 -14 -10 -40 15 -35 33 -39 50 -10 42 11 -3 18 -1 14 4 -3
5 -11 9 -18 9 -7 0 -23 11 -36 25 -27 28 -14 32 33 9 l32 -15 -25 21 c-14 11
-35 19 -47 17 -12 -2 -24 0 -25 4 -5 12 -87 28 -94 18z m6 -146 c-1 -31 -38
-103 -54 -103 -26 0 -25 15 5 68 30 53 49 66 49 35z m215 -71 c49 -37 70 -72
43 -72 -17 0 -128 87 -128 100 0 21 37 9 85 -28z"/>
<path d="M4558 3272 c4 -43 2 -51 -14 -55 -16 -4 -15 -5 4 -6 20 -1 22 4 22
42 0 23 -4 48 -9 55 -5 8 -6 -7 -3 -36z"/>
<path d="M2308 3283 c7 -3 16 -2 19 1 4 3 -2 6 -13 5 -11 0 -14 -3 -6 -6z"/>
<path d="M1320 3268 c0 -4 7 -8 15 -8 8 0 15 4 15 8 0 5 -7 9 -15 9 -8 0 -15
-4 -15 -9z"/>
<path d="M3667 3264 c-3 -4 -21 -10 -39 -14 -29 -7 -30 -8 -7 -9 14 -1 34 6
45 14 10 8 16 15 13 15 -3 0 -8 -3 -12 -6z"/>
<path d="M560 3245 c-33 -19 -21 -19 21 0 19 8 27 14 19 14 -8 0 -26 -6 -40
-14z"/>
<path d="M1660 3250 c0 -5 7 -7 15 -4 8 4 15 8 15 10 0 2 -7 4 -15 4 -8 0 -15
-4 -15 -10z"/>
<path d="M2400 3250 c-14 -4 -51 -15 -83 -24 -32 -10 -57 -19 -55 -21 2 -2 35
5 73 16 38 10 73 19 77 19 14 0 -5 -65 -26 -89 -11 -13 -43 -34 -69 -46 -34
-16 -43 -24 -31 -27 14 -2 11 -7 -16 -20 -19 -10 -28 -18 -20 -18 9 0 47 26
84 57 l69 57 -7 -84 c-7 -74 -11 -89 -38 -119 -16 -19 -39 -55 -50 -80 -11
-25 -23 -40 -25 -33 -3 7 1 20 9 30 12 15 11 16 -4 3 -10 -7 -18 -24 -18 -37
0 -38 26 -19 49 37 12 27 35 64 52 83 24 28 31 46 35 98 3 35 6 70 6 78 0 8 4
39 10 68 5 30 8 55 6 56 -1 2 -14 0 -28 -4z"/>
<path d="M2467 3235 c12 -16 33 -41 47 -54 14 -14 26 -31 26 -38 0 -8 4 -12
10 -8 12 7 43 -40 38 -57 -3 -8 -11 -1 -21 17 -21 38 -22 24 -2 -15 9 -17 22
-30 30 -30 37 0 2 62 -82 147 -37 38 -58 55 -46 38z"/>
<path d="M3690 3247 c-14 -7 -34 -29 -45 -50 -17 -33 -18 -39 -5 -47 8 -5 18
-10 22 -10 14 0 51 64 53 91 1 16 1 29 1 29 -1 0 -12 -6 -26 -13z m10 -32 c0
-14 -31 -65 -40 -65 -18 0 -21 22 -6 45 14 22 46 35 46 20z"/>
<path d="M3031 3190 c30 -36 65 -78 77 -94 12 -16 22 -25 22 -21 0 14 -68 100
-111 140 -39 36 -38 34 12 -25z"/>
<path d="M3960 3246 c0 -2 16 -14 35 -26 19 -12 38 -32 41 -45 6 -25 85 -105
103 -105 5 0 13 4 16 10 3 5 0 7 -8 4 -14 -5 -97 77 -97 96 0 18 28 11 62 -17
l33 -27 -29 32 c-18 19 -40 32 -54 32 -13 0 -36 8 -50 18 -38 26 -52 34 -52
28z"/>
<path d="M3011 3173 c43 -62 99 -123 112 -123 6 0 2 7 -10 15 -11 8 -44 46
-73 85 -59 79 -78 95 -29 23z"/>
<path d="M2706 3192 c-9 -27 -10 -118 -1 -131 13 -22 35 9 33 48 l-1 36 -4
-32 c-4 -33 -18 -44 -25 -21 -3 7 -1 35 4 62 8 51 5 72 -6 38z"/>
<path d="M2195 3173 c-58 -29 -95 -61 -95 -80 0 -25 26 -12 88 47 34 33 61 60
60 60 -2 -1 -25 -12 -53 -27z m-35 -48 c-13 -14 -31 -25 -39 -25 -11 1 -8 8
12 25 37 33 57 32 27 0z"/>
<path d="M1480 3169 c0 -5 6 -7 13 -4 6 4 1 -3 -12 -14 -13 -12 -20 -21 -16
-21 4 0 2 -7 -5 -15 -7 -9 -20 -13 -29 -10 -13 5 -13 4 -4 -6 10 -10 16 -9 31
4 10 9 22 14 27 10 4 -5 5 -2 1 5 -4 6 -2 12 3 12 6 0 11 -11 11 -24 0 -13 7
-27 16 -30 25 -10 29 -7 9 8 -14 10 -17 21 -12 49 4 26 2 37 -10 41 -20 8 -23
8 -23 -5z"/>
<path d="M1434 3149 c-3 -6 -2 -15 3 -20 5 -5 9 -1 9 11 0 23 -2 24 -12 9z"/>
<path d="M2071 3144 c0 -11 3 -14 6 -6 3 7 2 16 -1 19 -3 4 -6 -2 -5 -13z"/>
<path d="M508 3133 c7 -3 16 -2 19 1 4 3 -2 6 -13 5 -11 0 -14 -3 -6 -6z"/>
<path d="M1526 3127 c3 -10 9 -15 12 -12 3 3 0 11 -7 18 -10 9 -11 8 -5 -6z"/>
<path d="M3847 3127 c-4 -10 -2 -17 5 -17 7 0 9 -15 5 -42 -6 -45 28 -158 56
-186 19 -18 47 -9 47 15 0 15 -2 15 -15 -3 -15 -19 -15 -19 -30 1 -18 23 -45
108 -45 142 0 36 19 27 40 -19 22 -51 27 -43 5 9 -9 21 -21 41 -28 45 -6 4
-16 22 -22 39 -9 26 -13 29 -18 16z"/>
<path d="M1722 3114 c-14 -16 -5 -18 17 -5 7 5 9 11 5 14 -5 3 -15 -1 -22 -9z"/>
<path d="M2431 3094 c20 -30 125 -124 138 -124 6 0 11 6 11 14 0 22 -29 46
-54 46 -13 0 -41 18 -66 43 -24 23 -37 33 -29 21z m125 -88 c10 -8 15 -18 11
-22 -4 -4 -17 2 -29 14 -25 25 -13 30 18 8z"/>
<path d="M1465 3080 c-3 -5 -1 -10 4 -10 6 0 11 5 11 10 0 6 -2 10 -4 10 -3 0
-8 -4 -11 -10z"/>
<path d="M2218 3069 c-22 -13 -23 -25 -2 -33 14 -5 15 -4 5 8 -10 11 -7 16 16
24 15 6 21 11 13 11 -8 0 -23 -4 -32 -10z"/>
<path d="M3804 3068 c-21 -10 -62 -83 -52 -93 3 -3 13 13 23 35 18 41 37 48
43 17 2 -9 -9 -43 -25 -76 -16 -32 -24 -57 -18 -55 17 7 56 117 53 152 -1 17
-2 32 -3 31 0 0 -10 -5 -21 -11z"/>
<path d="M1541 3053 c-1 -8 -16 -13 -38 -14 l-38 -1 33 -9 c30 -9 31 -12 21
-32 -11 -19 -10 -20 3 -10 8 7 18 10 22 6 4 -4 4 1 0 12 -7 20 -7 20 16 0 13
-11 20 -14 16 -7 -5 8 -1 12 11 13 12 0 9 4 -9 10 -15 6 -29 18 -31 27 -3 9
-5 11 -6 5z"/>
<path d="M1620 3028 c24 -10 24 -10 5 -18 -16 -7 -17 -9 -3 -9 9 -1 20 4 24
10 7 13 -13 29 -36 28 -8 0 -4 -5 10 -11z"/>
<path d="M2355 3020 c-10 -11 -27 -20 -37 -20 -24 0 -58 -18 -58 -30 0 -6 10
-10 23 -9 20 0 20 1 3 8 -18 7 -18 8 -2 14 27 11 38 8 30 -5 -4 -7 9 3 29 21
21 19 37 36 37 38 0 7 -8 2 -25 -17z"/>
<path d="M1437 3023 c-13 -13 -7 -33 11 -33 14 0 15 2 2 10 -13 9 -13 11 0 20
8 5 10 10 4 10 -6 0 -14 -3 -17 -7z"/>
<path d="M1482 2978 c-17 -17 -15 -48 2 -48 8 0 17 -6 20 -12 3 -10 9 -8 19 5
10 12 17 14 22 8 8 -14 25 -14 25 0 0 5 -4 8 -9 4 -6 -3 -14 3 -20 12 -9 17
-10 17 -16 1 -10 -26 -27 -22 -20 5 7 22 7 22 -9 2 -18 -23 -21 -13 -6 16 12
22 9 24 -8 7z"/>
<path d="M2031 2980 c0 -8 4 -24 9 -35 5 -13 9 -14 9 -5 0 8 -4 24 -9 35 -5
13 -9 14 -9 5z"/>
<path d="M2439 2948 c33 -49 48 -63 53 -51 2 5 -17 28 -41 53 l-44 45 32 -47z"/>
<path d="M1440 2971 c0 -6 4 -13 10 -16 6 -3 7 1 4 9 -7 18 -14 21 -14 7z"/>
<path d="M1556 2967 c3 -10 9 -15 12 -12 3 3 0 11 -7 18 -10 9 -11 8 -5 -6z"/>
<path d="M1602 2960 c0 -14 2 -19 5 -12 2 6 2 18 0 25 -3 6 -5 1 -5 -13z"/>
<path d="M3931 2965 c1 -19 18 -51 18 -35 0 8 -4 22 -9 30 -5 8 -9 11 -9 5z"/>
<path d="M3741 2944 c0 -11 3 -14 6 -6 3 7 2 16 -1 19 -3 4 -6 -2 -5 -13z"/>
<path d="M2394 2872 c4 -61 25 -112 48 -112 15 0 3 66 -19 99 -10 14 -21 37
-25 51 -4 14 -6 -3 -4 -38z m45 -87 c0 -13 -7 -7 -20 20 -24 52 -24 80 1 35
11 -19 19 -44 19 -55z"/>
<path d="M2535 2877 c31 -26 29 -50 -2 -26 -16 13 -17 12 -4 -3 16 -21 41 -24
41 -5 0 14 -23 38 -50 52 -8 4 -1 -4 15 -18z"/>
<path d="M1731 2624 c0 -11 3 -14 6 -6 3 7 2 16 -1 19 -3 4 -6 -2 -5 -13z"/>
<path d="M1731 2583 c-2 -20 21 -63 30 -57 5 3 8 20 8 37 l-1 32 -7 -30 -7
-30 -11 30 c-6 17 -12 25 -12 18z"/>
<path d="M1972 948 c-7 -7 -12 -19 -12 -27 0 -11 4 -10 14 5 14 18 15 18 22 0
4 -10 11 -32 15 -50 7 -27 8 -25 5 13 -5 51 -25 78 -44 59z"/>
<path d="M2072 947 c-6 -7 -20 -34 -31 -60 -11 -26 -23 -47 -26 -47 -3 0 -14
15 -25 33 -26 42 -26 27 1 -24 13 -27 19 -55 17 -82 l-3 -42 -27 50 c-33 63
-74 103 -89 88 -7 -7 -9 -22 -5 -36 7 -28 83 -117 99 -117 7 1 0 11 -14 23
-32 28 -79 90 -79 105 0 21 26 12 47 -16 42 -56 60 -107 62 -171 2 -40 -1 -61
-8 -57 -19 12 -20 -11 0 -28 16 -13 20 -27 18 -66 -2 -27 0 -53 4 -56 10 -11
8 -92 -2 -98 -5 -4 -22 -1 -37 4 -15 6 -29 9 -31 6 -2 -2 13 -9 34 -16 50 -16
55 -22 64 -72 7 -36 7 -33 3 15 l-4 59 50 45 c49 44 64 73 37 73 -16 0 -38
-17 -57 -45 -8 -11 0 -7 18 9 17 16 35 26 39 23 12 -12 -47 -64 -73 -64 -22 0
-24 3 -24 46 0 43 3 48 46 76 44 29 81 72 71 82 -15 15 -89 -33 -109 -70 -7
-14 7 -6 35 21 26 23 52 42 59 42 7 -1 -9 -21 -36 -46 -27 -25 -54 -43 -60
-41 -6 2 -12 21 -14 42 -3 34 1 42 45 82 39 36 41 39 8 14 -39 -31 -62 -40
-50 -21 3 6 1 10 -5 10 -5 0 -9 15 -8 33 1 23 13 43 44 72 24 22 46 50 49 63
10 35 -18 27 -56 -15 l-32 -37 5 42 c4 28 18 55 42 84 34 40 46 80 27 92 -5 3
-13 0 -19 -7z m-2 -63 c-31 -49 -36 -35 -9 23 15 33 23 43 26 30 3 -9 -5 -33
-17 -53z m20 -102 c0 -4 -16 -23 -35 -42 -41 -40 -46 -31 -9 17 24 31 44 43
44 25z"/>
<path d="M2928 848 c-8 -15 -14 -75 -16 -165 -2 -79 -8 -143 -13 -143 -5 0 -9
7 -9 15 0 22 -38 95 -63 123 -27 29 -43 28 -51 -3 -9 -34 21 -100 79 -177 43
-57 45 -63 44 -121 l-2 -62 -22 50 c-28 64 -97 135 -130 135 -62 0 -3 -116 94
-185 42 -30 42 -31 38 -83 -2 -29 -9 -58 -15 -64 -14 -14 -111 41 -146 83 -27
32 -34 69 -13 69 15 0 70 -51 119 -110 21 -25 38 -39 38 -32 0 6 -31 44 -69
82 -50 52 -75 70 -95 70 -21 0 -26 -5 -26 -25 0 -41 28 -73 101 -116 93 -56
93 -55 70 -130 -19 -61 -19 -63 -1 -42 12 15 39 27 82 36 98 21 157 59 144 92
-3 8 -16 14 -28 14 l-23 -2 23 -4 c53 -10 7 -45 -111 -83 -53 -17 -56 -6 -8
26 38 24 58 45 29 28 -42 -23 -78 -57 -72 -67 5 -9 4 -9 -6 0 -11 10 -11 20 0
58 17 60 33 75 78 75 102 0 243 129 152 137 l-25 3 23 -10 c19 -8 21 -13 13
-29 -6 -11 -23 -29 -37 -40 -29 -23 -124 -55 -133 -45 -3 3 17 27 44 52 28 25
41 39 30 32 -11 -8 -42 -34 -68 -58 -27 -24 -51 -42 -53 -39 -3 3 -3 30 1 61
l7 55 77 42 c92 49 110 64 128 108 17 41 6 56 -34 47 -27 -7 -153 -129 -153
-149 0 -5 30 23 68 62 44 47 75 71 90 71 50 0 5 -57 -98 -124 -61 -40 -70 -36
-70 28 0 35 7 45 69 105 50 48 72 78 82 109 9 31 9 46 2 53 -16 16 -85 -52
-123 -121 l-31 -55 7 55 c3 30 20 88 36 129 29 71 40 163 24 190 -12 18 -34
13 -48 -11z m41 -62 c0 -22 -11 -68 -24 -101 l-24 -60 0 81 c-1 95 14 151 35
133 8 -7 14 -29 13 -53z m-130 -142 c24 -31 71 -174 57 -174 -14 0 -98 134
-103 165 -7 43 15 48 46 9z m215 -16 c-3 -13 -12 -34 -19 -48 -17 -33 -105
-118 -105 -102 0 36 96 172 122 172 5 0 6 -10 2 -22z m-249 -179 c42 -38 82
-114 73 -139 -5 -17 -115 91 -132 130 -26 63 -4 67 59 9z"/>
<path d="M1845 708 c4 -13 25 -41 48 -63 l41 -40 -37 43 c-41 47 -50 80 -18
62 11 -5 38 -31 62 -57 39 -44 40 -45 14 -8 -36 51 -75 84 -98 85 -14 0 -17
-5 -12 -22z"/>
<path d="M2074 688 c-19 -23 -19 -23 2 -5 11 9 23 17 27 17 3 0 8 -8 10 -17 4
-14 5 -12 6 5 0 12 -5 22 -12 22 -8 0 -22 -10 -33 -22z"/>
<path d="M3380 681 c-17 -33 -11 -78 14 -108 12 -15 26 -35 29 -43 4 -12 6
-12 6 -1 1 8 9 24 19 35 16 20 16 20 -1 7 -15 -12 -20 -11 -37 4 -22 20 -34
66 -25 95 5 15 15 20 41 20 44 0 64 -34 45 -77 -10 -26 -10 -27 4 -9 19 25 19
46 -1 74 -20 29 -79 31 -94 3z"/>
<path d="M1204 668 c-10 -12 -14 -18 -7 -14 9 5 11 -6 6 -42 -4 -33 1 -72 16
-125 24 -90 29 -183 7 -155 -7 10 -15 15 -18 13 -3 -3 -15 18 -28 47 -19 44
-22 65 -18 130 5 87 2 94 -11 25 -11 -62 0 -118 43 -209 20 -41 36 -81 37 -89
1 -18 37 -97 38 -84 1 6 -8 35 -18 65 -13 37 -16 60 -10 72 15 29 10 123 -11
190 -22 71 -25 107 -10 157 12 43 9 47 -16 19z"/>
<path d="M2260 670 c-13 -24 4 -54 26 -46 7 3 20 -6 28 -20 15 -22 15 -24 -2
-24 -23 0 -42 -19 -42 -41 0 -18 26 -33 40 -24 5 3 6 -10 3 -30 -3 -19 -2 -35
1 -35 18 0 46 22 46 36 0 9 5 12 12 8 7 -5 9 -2 5 9 -3 8 1 21 9 27 17 15 17
10 4 -25 -8 -20 -6 -38 5 -71 19 -56 19 -57 -4 -44 -11 5 -34 8 -53 5 -26 -4
-29 -3 -13 4 32 15 -2 12 -40 -3 -46 -20 -44 -28 5 -20 21 4 51 4 65 0 21 -5
24 -10 15 -26 -27 -51 7 -93 41 -51 20 24 21 23 33 -32 7 -30 -17 -77 -40 -77
-21 0 -17 17 8 34 12 9 18 16 12 16 -14 0 -44 -33 -44 -48 0 -7 7 -12 15 -12
8 0 15 -9 15 -20 0 -11 4 -20 9 -20 5 0 7 9 4 20 -9 33 14 50 56 44 28 -4 43
-1 55 11 19 19 13 35 -14 35 -26 0 -34 18 -18 37 9 12 9 15 1 9 -9 -5 -13 0
-13 13 0 22 -14 28 -25 11 -9 -15 -25 -12 -25 4 0 7 10 20 23 29 22 15 22 15
3 34 -13 11 -16 12 -8 2 10 -13 9 -19 -3 -29 -12 -10 -16 -9 -21 3 -3 9 -2 21
2 28 4 7 3 9 -3 6 -6 -4 -14 1 -17 10 -4 9 -1 20 6 25 10 6 10 8 1 8 -7 0 -13
7 -13 15 0 18 26 20 34 3 3 -7 4 -4 3 7 -2 11 -9 19 -15 18 -15 -4 -15 -3 3
40 18 43 19 60 4 55 -7 -2 -13 -19 -14 -37 -2 -18 -8 -38 -14 -44 -14 -14 -15
2 -1 38 7 19 7 24 -1 19 -7 -4 -9 0 -5 14 9 28 -21 38 -46 15 -19 -17 -19 -17
-13 12 5 23 4 26 -4 15 -9 -13 -11 -13 -11 2 0 9 3 24 7 34 6 16 7 16 12 1 5
-13 8 -12 18 8 16 36 -11 34 -34 -2 l-18 -27 -5 29 c-6 36 -34 44 -50 15z m40
-15 c0 -19 -20 -29 -32 -17 -8 8 -7 16 2 26 14 17 30 12 30 -9z m90 -94 c0
-23 -16 -36 -25 -21 -9 14 1 40 15 40 5 0 10 -9 10 -19z m-53 -8 c6 -17 -36
-38 -49 -25 -17 17 -1 44 24 40 12 -2 23 -8 25 -15z m-1 -81 c-15 -15 -16 -15
-16 4 0 28 24 52 28 28 2 -9 -3 -24 -12 -32z m84 -134 c0 -19 -21 -48 -35 -48
-18 0 -20 41 -4 57 13 13 39 6 39 -9z m56 -81 l-11 -28 -8 31 c-5 22 -4 37 5
47 11 13 13 13 18 -3 4 -10 2 -31 -4 -47z m54 -26 c0 -6 -5 -13 -10 -16 -15
-9 -43 3 -35 15 8 13 45 13 45 1z"/>
<path d="M2039 643 c-13 -16 -12 -17 4 -4 16 13 21 21 13 21 -2 0 -10 -8 -17
-17z"/>
<path d="M1175 629 c-4 -6 -5 -12 -2 -15 2 -3 7 2 10 11 7 17 1 20 -8 4z"/>
<path d="M1837 603 c-15 -25 46 -89 121 -127 58 -30 49 -7 -24 65 -69 66 -87
78 -97 62z m92 -67 c25 -25 43 -48 40 -50 -8 -9 -119 85 -119 100 0 21 26 5
79 -50z"/>
<path d="M3286 571 c-3 -4 6 -6 20 -3 15 3 32 -2 44 -13 24 -21 27 -13 4 9
-17 17 -59 22 -68 7z"/>
<path d="M3540 573 c-20 -7 -70 -54 -70 -66 0 -5 10 2 21 17 39 49 101 57 114
15 8 -24 -10 -48 -50 -65 -35 -15 -19 -19 19 -4 39 14 53 53 32 85 -16 24 -35
29 -66 18z"/>
<path d="M3369 502 c-4 -23 -1 -36 13 -49 13 -12 17 -26 13 -52 -4 -30 -3 -32
4 -11 13 38 13 70 -1 68 -8 -2 -15 13 -18 37 l-6 40 -5 -33z"/>
<path d="M3280 511 c0 -10 39 -46 43 -40 2 2 -7 14 -20 26 -13 12 -23 19 -23
14z"/>
<path d="M3412 490 c0 -14 2 -19 5 -12 2 6 2 18 0 25 -3 6 -5 1 -5 -13z"/>
<path d="M3915 494 c-11 -11 -15 -28 -13 -46 4 -24 -4 -36 -46 -76 -28 -27
-67 -69 -86 -95 -40 -53 -47 -56 -53 -24 -2 12 -3 9 -2 -8 3 -26 -33 -107 -54
-125 -3 -3 -18 -32 -34 -65 -27 -59 -19 -56 15 4 11 20 25 31 40 32 17 1 18 3
6 6 -23 6 -23 11 7 56 20 28 32 37 54 37 17 0 31 -7 35 -16 9 -25 60 -14 64
14 4 27 -23 40 -49 24 -21 -14 -69 -16 -69 -4 0 17 47 52 71 53 l24 1 -24 7
c-24 7 -24 7 16 49 42 45 80 55 103 27 17 -20 69 -19 77 1 3 8 1 20 -5 26 -7
7 -10 4 -9 -8 2 -14 -6 -20 -27 -22 -24 -3 -28 0 -24 15 4 16 1 18 -24 15 -38
-6 -30 14 23 52 32 22 40 33 37 54 -4 32 -29 40 -53 16z m41 -9 c7 -18 -12
-45 -32 -45 -17 0 -18 32 -2 48 16 16 27 15 34 -3z m-116 -295 c0 -21 -33 -29
-45 -10 -9 15 4 30 26 30 12 0 19 -7 19 -20z"/>
<path d="M1651 464 c-12 -15 -21 -36 -21 -48 0 -14 7 -7 20 22 10 23 26 42 35
42 14 0 14 -4 0 -37 -22 -51 -46 -77 -57 -61 -5 9 -8 8 -8 -5 0 -15 -5 -12
-26 12 -28 34 -68 41 -78 15 -9 -24 19 -51 62 -61 34 -8 39 -14 60 -73 l23
-65 -33 33 c-19 17 -44 32 -57 32 -19 0 -22 -4 -19 -32 3 -30 8 -34 60 -51 55
-19 57 -20 67 -65 5 -26 8 -49 6 -51 -3 -2 -19 10 -37 28 -36 35 -46 37 -73
17 -16 -12 -18 -19 -10 -43 9 -23 22 -32 75 -50 36 -13 66 -23 68 -23 1 0 2
17 3 38 0 32 6 41 42 67 41 30 87 88 87 109 -1 6 -10 -5 -20 -25 -19 -36 -73
-89 -91 -89 -10 0 22 69 53 112 11 16 29 29 41 29 18 1 19 2 4 6 -26 7 -54
-22 -89 -91 -16 -32 -32 -56 -34 -53 -6 6 -33 115 -34 134 0 6 9 15 20 18 30
9 56 53 41 68 -8 8 -17 5 -34 -13 l-22 -24 23 18 c33 28 40 10 9 -22 -18 -18
-27 -22 -27 -12 0 13 -2 13 -9 1 -7 -11 -13 -5 -25 24 -16 37 -16 39 8 74 31
45 57 106 49 115 -13 13 -32 5 -52 -20z m-69 -71 c30 -27 23 -43 -14 -32 -32
9 -51 27 -42 41 8 13 36 9 56 -9z m48 -171 c26 -32 21 -37 -23 -19 -37 16 -52
31 -43 46 10 15 45 0 66 -27z m-7 -121 c24 -10 63 -59 53 -68 -9 -10 -94 27
-100 43 -12 31 6 40 47 25z"/>
<path d="M3447 471 c-17 -18 -17 -18 7 -14 16 3 23 10 19 19 -3 8 -6 14 -7 13
0 0 -9 -8 -19 -18z"/>
<path d="M3796 454 c-18 -17 -22 -64 -6 -64 6 0 10 -10 11 -22 l0 -23 9 23 c5
12 14 22 19 22 19 0 33 38 21 60 -13 24 -33 26 -54 4z m48 -9 c7 -20 -2 -42
-21 -49 -20 -8 -33 1 -33 23 0 35 42 55 54 26z"/>
<path d="M1341 398 c-22 -33 -41 -66 -41 -72 1 -6 11 7 23 29 l22 40 3 -106
c2 -76 -1 -115 -12 -140 l-15 -34 -2 45 -2 45 -6 -45 -7 -45 -8 70 c-10 92
-14 102 -15 35 -2 -83 -14 -93 -45 -34 -14 27 -25 45 -25 39 0 -5 6 -21 14
-35 22 -39 18 -46 -12 -19 l-28 24 24 -27 c13 -15 29 -25 35 -21 7 4 7 2 0 -6
-22 -24 -124 41 -154 97 -10 20 -19 32 -20 26 0 -20 57 -99 81 -111 13 -7 49
-23 80 -37 50 -21 58 -29 74 -70 21 -54 33 -60 27 -13 -2 19 3 58 12 87 10 33
16 91 16 150 0 54 6 117 14 143 8 26 13 47 11 47 -1 0 -21 -28 -44 -62z"/>
<path d="M3205 449 c-11 -17 -2 -18 19 -3 17 12 17 14 4 14 -9 0 -20 -5 -23
-11z"/>
<path d="M3285 438 c15 -14 28 -38 31 -59 6 -33 4 -38 -22 -47 -28 -11 -28
-11 6 -6 31 5 38 2 50 -20 11 -22 11 -35 0 -81 -8 -35 -18 -54 -25 -51 -8 3
-10 -4 -8 -17 2 -12 -5 -47 -16 -77 -12 -34 -20 -46 -20 -32 -2 51 -53 112
-93 112 -26 0 -52 -45 -44 -75 8 -32 61 -65 104 -65 18 0 32 -5 32 -12 0 -8 5
-6 13 3 32 38 44 42 75 19 34 -25 93 -30 116 -11 21 18 20 55 -1 72 -15 11
-16 11 -5 -1 6 -8 12 -24 12 -37 0 -43 -80 -52 -115 -13 -15 16 -14 19 11 39
40 32 19 25 -32 -10 -25 -17 -47 -29 -50 -27 -2 3 5 32 17 65 23 70 47 84 87
52 14 -10 32 -19 41 -19 9 1 1 7 -16 15 -18 8 -33 21 -33 29 0 8 15 23 33 35
17 11 27 21 21 21 -6 0 -28 -13 -49 -30 -47 -37 -57 -38 -49 -3 18 75 42 98
91 88 25 -5 26 -5 6 4 -31 14 -29 34 8 65 32 28 77 34 97 14 28 -28 5 -66 -53
-86 -16 -6 -24 -11 -17 -11 7 -1 28 5 47 13 64 27 52 106 -16 106 -31 0 -94
-49 -104 -80 -3 -10 -13 -21 -22 -24 -13 -5 -14 0 -9 31 l5 38 -12 -34 -13
-34 -15 24 c-9 13 -19 41 -23 62 -7 38 -36 77 -57 77 -5 0 2 -10 16 -22z m-64
-298 c22 -12 49 -61 49 -90 0 -41 -102 -13 -113 32 -7 24 16 68 34 68 6 0 19
-5 30 -10z"/>
<path d="M1846 441 c-11 -17 6 -42 38 -57 l31 -15 -27 21 c-26 20 -38 50 -20
50 4 0 29 -13 55 -30 58 -37 61 -31 5 10 -41 30 -72 38 -82 21z"/>
<path d="M1010 400 c26 -53 35 -64 26 -32 -4 12 -4 22 0 22 13 0 115 -83 146
-119 34 -40 28 -24 -10 26 -13 18 -49 49 -80 69 -32 20 -68 46 -81 58 l-23 21
22 -45z"/>
<path d="M1201 404 c0 -11 3 -14 6 -6 3 7 2 16 -1 19 -3 4 -6 -2 -5 -13z"/>
<path d="M3692 408 c-30 -30 1 -94 33 -68 25 20 13 80 -15 80 -3 0 -11 -5 -18
-12z m38 -33 c0 -22 -22 -40 -34 -28 -3 4 -6 16 -6 28 0 12 3 24 6 28 12 12
34 -6 34 -28z"/>
<path d="M3200 381 c0 -9 49 -56 53 -50 1 2 -10 16 -25 31 -15 15 -28 23 -28
19z"/>
<path d="M1980 376 c0 -2 8 -10 18 -17 15 -13 16 -12 3 4 -13 16 -21 21 -21
13z"/>
<path d="M634 345 c-3 -8 3 -26 14 -40 l20 -25 6 26 c10 39 -27 75 -40 39z
m36 -21 c0 -17 -22 -14 -28 4 -2 7 3 12 12 12 9 0 16 -7 16 -16z"/>
<path d="M1505 225 c0 -76 2 -100 10 -87 13 22 13 168 0 181 -7 7 -10 -27 -10
-94z"/>
<path d="M2121 311 c-11 -11 -27 -35 -37 -53 -18 -37 -11 -31 30 25 26 36 46
48 46 27 0 -20 -81 -99 -96 -93 -8 3 -14 0 -14 -6 0 -7 -27 7 -60 29 -33 22
-68 43 -77 47 -10 3 10 -13 45 -35 34 -23 62 -44 62 -46 0 -9 -88 21 -121 41
-39 22 -47 40 -22 46 14 4 13 5 -5 6 -19 1 -23 -3 -20 -21 4 -28 53 -57 132
-78 60 -17 61 -18 70 -59 5 -23 6 -44 3 -47 -3 -3 -24 4 -48 16 -49 26 -128
55 -114 42 6 -4 30 -17 55 -27 25 -11 54 -25 65 -33 21 -15 16 -14 -85 4 l-25
4 25 -10 c14 -6 50 -14 80 -18 50 -7 55 -9 64 -39 5 -18 12 -33 17 -33 4 0 3
16 -2 36 -10 34 -9 37 45 89 55 53 65 68 47 79 -17 11 -38 -5 -71 -52 l-33
-47 46 50 c24 28 48 47 53 42 4 -4 -14 -30 -41 -57 -53 -54 -58 -53 -70 12 -6
32 -4 38 19 53 30 20 86 93 86 112 0 19 -27 16 -49 -6z"/>
<path d="M4363 225 c-87 -90 -106 -105 -128 -101 -19 4 -25 0 -25 -13 0 -9
-14 -30 -32 -47 -24 -23 -29 -25 -23 -9 4 11 10 39 12 63 5 33 2 42 -10 42 -8
0 -18 -7 -21 -16 -10 -26 -7 -29 10 -8 14 18 15 16 10 -23 -4 -23 -12 -54 -18
-69 -11 -23 -13 -24 -19 -7 -6 14 -8 12 -8 -9 -1 -35 10 -35 45 -3 21 20 37
25 78 25 28 0 67 5 86 10 19 6 73 13 120 16 69 5 83 4 73 -6 -7 -8 -51 -16
-105 -20 l-93 -7 75 0 c93 -1 135 8 135 27 0 12 -19 15 -106 15 -59 0 -102 -3
-95 -7 6 -5 3 -8 -10 -8 -12 0 -43 -3 -70 -6 l-49 -6 25 21 c18 15 33 19 54
15 19 -4 26 -3 22 5 -4 6 -14 11 -22 11 -31 0 -3 18 38 24 23 4 47 11 53 15
25 21 228 82 237 73 14 -14 -35 -38 -109 -56 -32 -8 -48 -15 -37 -15 31 -1
150 37 162 52 6 7 7 18 2 26 -10 18 -108 -5 -229 -54 -95 -39 -119 -39 -44 -2
57 29 133 107 133 137 0 11 -3 20 -7 20 -5 0 -54 -47 -110 -105z m107 75 c0
-13 -101 -110 -114 -110 -10 0 7 22 63 83 35 37 51 46 51 27z"/>
<path d="M1050 315 c0 -5 5 -17 10 -25 5 -8 10 -10 10 -5 0 6 -5 17 -10 25 -5
8 -10 11 -10 5z"/>
<path d="M2553 313 c9 -2 25 -2 35 0 9 3 1 5 -18 5 -19 0 -27 -2 -17 -5z"/>
<path d="M2610 310 c-8 -5 -31 -12 -51 -15 -21 -3 -42 -12 -49 -20 -8 -10 10
-7 65 10 42 13 79 26 83 29 9 9 -31 6 -48 -4z"/>
<path d="M689 293 c-13 -16 -12 -17 3 -5 14 11 18 10 27 -5 6 -10 11 -13 11
-7 0 6 -6 17 -14 23 -10 9 -17 7 -27 -6z"/>
<path d="M1291 294 c0 -11 3 -14 6 -6 3 7 2 16 -1 19 -3 4 -6 -2 -5 -13z"/>
<path d="M3162 298 c-7 -7 -12 -27 -12 -44 0 -42 31 -65 85 -62 l40 1 -40 4
c-49 5 -75 27 -75 64 0 16 7 32 18 38 9 6 12 11 7 11 -6 0 -16 -5 -23 -12z"/>
<path d="M3237 286 c15 -13 30 -22 33 -19 6 6 -38 43 -52 43 -5 0 4 -11 19
-24z"/>
<path d="M4271 296 c-10 -12 -9 -13 10 -9 21 6 22 4 16 -32 -3 -21 -18 -56
-32 -79 l-26 -41 25 30 c14 17 31 45 37 62 19 57 -1 104 -30 69z"/>
<path d="M605 279 c-11 -17 1 -21 15 -4 8 9 8 15 2 15 -6 0 -14 -5 -17 -11z"/>
<path d="M1481 260 c-6 -18 -27 -54 -47 -81 -20 -28 -34 -52 -32 -54 6 -7 53
61 79 113 11 24 19 46 16 48 -3 3 -10 -9 -16 -26z"/>
<path d="M3858 283 c-21 -5 -22 -12 -4 -35 13 -18 51 -24 60 -10 2 4 -8 8 -22
7 -18 0 -27 5 -27 15 0 10 9 15 27 15 14 -1 24 3 22 7 -5 8 -27 9 -56 1z"/>
<path d="M644 261 c0 -10 7 -18 14 -17 8 1 20 -16 28 -39 14 -40 28 -69 66
-132 24 -40 11 -42 -31 -7 -37 31 -66 29 -66 -5 0 -32 29 -50 55 -34 23 15 79
6 87 -13 3 -8 10 -14 16 -14 5 0 2 9 -8 20 -15 16 -15 22 -5 35 7 8 19 15 26
15 17 0 18 32 2 48 -14 14 -38 16 -38 3 0 -5 8 -8 17 -7 10 0 19 -7 21 -16 2
-11 -3 -18 -12 -18 -9 0 -17 6 -17 13 -1 6 -4 -1 -8 -18 l-7 -30 -28 43 c-28
40 -28 43 -12 61 14 16 15 23 6 38 -10 16 -10 16 -5 -3 3 -12 0 -26 -8 -33
-12 -9 -17 -3 -31 32 -21 56 -20 67 7 68 21 0 21 1 2 8 -12 5 -23 4 -27 -3 -5
-7 -8 -6 -8 3 0 8 -3 11 -7 8 -3 -4 -11 -3 -17 3 -8 6 -12 3 -12 -9z m56 -191
c25 -13 15 -42 -14 -38 -13 2 -22 12 -24 26 -4 24 8 28 38 12z"/>
<path d="M910 273 c0 -11 53 -105 79 -140 44 -61 100 -94 194 -115 119 -26
129 -24 87 12 -60 52 -113 85 -183 114 -44 19 -87 47 -123 80 -29 29 -54 50
-54 49z m181 -146 c96 -47 159 -90 147 -102 -9 -9 -119 20 -166 44 -39 20 -70
54 -112 126 l-23 40 30 -31 c16 -17 72 -52 124 -77z"/>
<path d="M1140 86 c0 -3 9 -10 20 -16 11 -6 20 -8 20 -6 0 3 -9 10 -20 16 -11
6 -20 8 -20 6z"/>
<path d="M1190 56 c0 -3 9 -10 20 -16 11 -6 20 -8 20 -6 0 3 -9 10 -20 16 -11
6 -20 8 -20 6z"/>
<path d="M3612 248 c-16 -16 -15 -34 4 -53 12 -12 19 -13 30 -4 8 6 14 17 14
23 0 6 -4 5 -9 -3 -12 -19 -43 -6 -39 16 2 11 12 18 25 17 12 0 20 3 17 8 -7
12 -28 10 -42 -4z"/>
<path d="M1160 231 c5 -11 15 -23 21 -27 6 -3 3 5 -6 20 -20 30 -30 35 -15 7z"/>
<path d="M3273 237 c4 -10 7 -22 7 -27 0 -4 7 -10 15 -14 13 -4 12 -1 -2 22
-23 36 -28 41 -20 19z"/>
<path d="M3478 243 c7 -3 16 -2 19 1 4 3 -2 6 -13 5 -11 0 -14 -3 -6 -6z"/>
<path d="M4039 228 c-20 -37 6 -228 31 -228 6 0 10 10 10 23 0 15 -3 18 -9 9
-12 -19 -34 132 -26 175 9 49 38 41 46 -12 6 -37 6 -37 8 -8 0 17 -2 38 -5 47
-9 23 -41 20 -55 -6z"/>
<path d="M3533 217 c12 -13 24 -22 26 -20 6 4 -30 43 -40 43 -5 0 2 -10 14
-23z"/>
<path d="M757 208 c6 -7 13 -20 16 -28 4 -10 6 -8 6 6 1 12 -6 25 -15 28 -13
5 -14 3 -7 -6z"/>
<path d="M4231 204 c0 -11 3 -14 6 -6 3 7 2 16 -1 19 -3 4 -6 -2 -5 -13z"/>
<path d="M633 174 c-3 -8 -1 -20 5 -26 14 -14 44 -6 50 12 4 12 2 13 -9 3 -21
-20 -42 -16 -36 7 6 24 -1 27 -10 4z"/>
<path d="M2613 174 c-10 -26 25 -80 84 -130 30 -26 56 -44 59 -42 2 3 -12 18
-31 33 -44 33 -95 101 -95 127 0 32 37 20 74 -24 20 -23 36 -39 36 -35 0 4
-16 25 -36 47 -39 42 -80 53 -91 24z"/>
<path d="M2533 169 c-7 -7 -13 -18 -13 -23 0 -6 -11 -24 -25 -41 l-24 -30 -1
30 c-1 19 -4 25 -8 15 -4 -8 -18 -15 -32 -15 -17 0 -26 -6 -28 -20 -3 -19 -2
-19 8 -2 9 14 15 16 26 6 19 -15 18 -27 -3 -32 -14 -4 -12 -5 5 -6 17 -1 22
-7 23 -28 0 -16 3 -21 6 -13 2 8 7 22 10 30 4 8 7 18 7 22 1 3 5 10 10 15 5 5
6 2 1 -5 -6 -11 -3 -12 14 -3 28 16 43 46 39 82 -2 24 -5 28 -15 18z m-9 -70
c-24 -27 -28 -17 -7 20 13 21 19 26 21 15 2 -8 -4 -24 -14 -35z"/>
<path d="M3535 169 c-4 -6 -17 -14 -29 -19 -14 -6 -16 -9 -5 -9 9 -1 24 8 34
19 10 11 15 20 12 20 -3 0 -9 -5 -12 -11z"/>
<path d="M3881 162 c-12 -23 -25 -89 -16 -80 4 4 10 22 14 39 4 18 12 34 19
37 10 3 13 -13 11 -71 -2 -42 0 -79 4 -83 4 -4 7 31 7 78 0 67 -3 87 -15 92
-8 3 -19 -2 -24 -12z"/>
<path d="M4221 164 c0 -11 3 -14 6 -6 3 7 2 16 -1 19 -3 4 -6 -2 -5 -13z"/>
<path d="M2450 155 c-8 -9 -8 -15 -2 -15 12 0 26 19 19 26 -2 2 -10 -2 -17
-11z"/>
<path d="M3642 150 c0 -14 2 -19 5 -12 2 6 2 18 0 25 -3 6 -5 1 -5 -13z"/>
<path d="M1860 137 c0 -16 20 -37 35 -37 5 0 2 7 -9 15 -10 7 -15 18 -11 24 3
6 1 11 -4 11 -6 0 -11 -6 -11 -13z"/>
<path d="M4398 143 c6 -2 18 -2 25 0 6 3 1 5 -13 5 -14 0 -19 -2 -12 -5z"/>
<path d="M2340 112 c0 -15 9 -44 19 -64 11 -19 17 -39 14 -42 -4 -3 1 -6 10
-6 13 0 12 7 -8 43 -24 41 -37 101 -15 67 11 -17 13 -10 4 14 -10 25 -24 18
-24 -12z"/>
<path d="M3536 118 c-21 -30 -20 -45 4 -60 11 -7 20 -23 20 -35 0 -13 4 -23 9
-23 4 0 6 11 4 24 -3 13 0 27 6 30 17 11 13 73 -5 80 -22 8 -21 9 -38 -16z
m44 -23 c0 -29 -16 -41 -35 -25 -19 16 -19 25 1 44 20 20 34 12 34 -19z"/>
<path d="M4082 100 c0 -19 2 -27 5 -17 2 9 2 25 0 35 -3 9 -5 1 -5 -18z"/>
<path d="M3785 111 c-3 -5 -20 -8 -38 -7 -17 2 -23 1 -12 -1 11 -3 30 -16 42
-30 13 -13 31 -23 40 -21 22 4 38 32 30 52 -7 17 -52 22 -62 7z m53 -24 c5
-25 -28 -34 -44 -12 -7 10 -11 22 -8 27 10 15 49 4 52 -15z"/>
<path d="M4338 113 c6 -2 9 -10 6 -15 -4 -7 -2 -8 5 -4 13 9 5 26 -12 25 -9 0
-8 -2 1 -6z"/>
<path d="M1469 54 c-17 -35 -21 -54 -13 -54 6 0 14 6 17 13 3 6 12 29 21 49
25 58 4 51 -25 -8z"/>
<path d="M3428 103 c6 -2 18 -2 25 0 6 3 1 5 -13 5 -14 0 -19 -2 -12 -5z"/>
<path d="M4122 90 c0 -14 2 -19 5 -12 2 6 2 18 0 25 -3 6 -5 1 -5 -13z"/>
<path d="M2162 64 c-17 -14 -37 -35 -43 -47 -7 -15 -3 -13 11 6 23 28 80 64
80 49 0 -4 -13 -21 -30 -37 -16 -16 -28 -31 -25 -34 9 -8 65 52 65 71 0 25
-19 22 -58 -8z"/>
<path d="M2741 85 c0 -5 11 -28 24 -50 14 -22 25 -36 25 -30 0 6 -11 28 -25
50 -13 22 -24 36 -24 30z"/>
<path d="M1381 64 c0 -11 3 -14 6 -6 3 7 2 16 -1 19 -3 4 -6 -2 -5 -13z"/>
<path d="M3873 35 c0 -22 2 -30 4 -17 2 12 2 30 0 40 -3 9 -5 -1 -4 -23z"/>
<path d="M1422 31 c-6 -17 -9 -31 -6 -31 7 0 25 52 20 57 -2 2 -8 -10 -14 -26z"/>
<path d="M1800 38 c-11 -12 -20 -26 -20 -31 0 -5 9 2 21 17 27 34 53 35 47 1
-3 -13 -1 -22 3 -19 5 3 9 16 9 30 0 31 -31 32 -60 2z"/>
<path d="M835 39 c-4 -6 -4 -13 -1 -16 3 -4 6 -1 6 5 0 18 28 14 39 -5 6 -10
11 -13 11 -8 0 27 -42 46 -55 24z"/>
<path d="M2400 31 c5 -11 15 -23 21 -27 6 -3 3 5 -6 20 -20 30 -30 35 -15 7z"/>
<path d="M1070 31 c0 -5 7 -15 17 -22 15 -13 15 -12 4 9 -12 23 -21 28 -21 13z"/>
<path d="M1372 20 c0 -14 2 -19 5 -12 2 6 2 18 0 25 -3 6 -5 1 -5 -13z"/>
<path d="M1875 30 c-7 -12 2 -30 15 -30 5 0 7 7 3 17 -5 14 -1 15 38 10 29 -4
37 -3 24 3 -28 12 -73 12 -80 0z"/>
<path d="M2495 20 c-10 -11 -13 -20 -8 -20 6 0 13 7 17 15 8 21 36 19 36 -2 0
-12 3 -14 11 -6 6 6 8 16 5 22 -11 17 -41 13 -61 -9z"/>
<path d="M939 14 c-13 -16 -12 -16 9 -3 20 12 24 12 33 -1 9 -13 10 -13 6 0
-5 22 -32 24 -48 4z"/>
<path d="M3059 13 c-13 -16 -12 -17 4 -4 16 13 21 21 13 21 -2 0 -10 -8 -17
-17z"/>
<path d="M3130 23 c8 -3 22 -11 30 -17 13 -10 13 -9 1 7 -7 9 -21 17 -30 16
-13 0 -14 -1 -1 -6z"/>
<path d="M3984 19 c-5 -8 -3 -9 6 -4 7 4 16 2 22 -6 8 -12 9 -12 6 0 -6 20
-24 25 -34 10z"/>
<path d="M2298 13 c12 -2 32 -2 45 0 12 2 2 4 -23 4 -25 0 -35 -2 -22 -4z"/>
<path d="M3703 3 c9 -2 23 -2 30 0 6 3 -1 5 -18 5 -16 0 -22 -2 -12 -5z"/>
<path d="M4223 3 c15 -2 39 -2 55 0 15 2 2 4 -28 4 -30 0 -43 -2 -27 -4z"/>
</g>
</svg>
