<?xml version="1.0" standalone="no"?>
<!DOCTYPE svg PUBLIC "-//W3C//DTD SVG 20010904//EN"
 "http://www.w3.org/TR/2001/REC-SVG-20010904/DTD/svg10.dtd">
<svg version="1.0" xmlns="http://www.w3.org/2000/svg"
 width="626.000000pt" height="626.000000pt" viewBox="0 0 626.000000 626.000000"
 preserveAspectRatio="xMidYMid meet">

<g transform="translate(0.000000,626.000000) scale(0.100000,-0.100000)"
fill="#000000" stroke="none">
<path d="M3249 5612 c-51 -68 -64 -92 -78 -137 -22 -73 -33 -95 -46 -95 -18 0
-83 -69 -105 -110 -10 -20 -21 -54 -25 -75 -4 -22 -13 -58 -20 -80 -36 -110
-41 -457 -9 -564 7 -25 18 -91 24 -146 6 -55 13 -109 17 -120 11 -40 -15 1
-46 71 -64 149 -112 418 -87 493 13 39 -17 20 -31 -20 -28 -75 20 -282 117
-510 116 -269 78 -226 -75 86 -174 357 -182 487 -50 850 7 19 7 19 -8 -1 -28
-37 -75 -168 -82 -229 -17 -136 -25 -92 -20 108 6 250 -5 268 -49 77 -14 -59
-14 -66 2 -84 12 -14 14 -20 5 -23 -20 -7 -16 -120 7 -226 33 -150 42 -181 59
-195 13 -10 13 -14 3 -21 -11 -6 -11 -20 -3 -68 11 -56 39 -164 56 -208 4 -12
-5 -6 -21 14 -49 58 -151 237 -240 419 l-85 173 -9 122 c-9 130 -16 160 -34
154 -14 -5 -14 -201 1 -352 11 -106 45 -258 77 -340 16 -39 16 -39 -1 -16 -82
114 -61 46 24 -79 35 -52 98 -135 140 -185 151 -180 184 -234 118 -191 -14 9
-25 12 -25 7 0 -5 20 -20 45 -32 24 -12 46 -28 49 -36 7 -18 -4 -16 -33 6 -13
10 -32 16 -41 14 -13 -3 -4 -17 39 -59 l56 -55 -74 36 c-111 55 -236 139 -322
216 -42 38 -78 69 -81 69 -4 0 -4 -9 -1 -19 3 -11 45 -55 94 -97 49 -43 87
-79 86 -81 -11 -10 -173 87 -270 161 -34 26 -64 35 -52 16 16 -26 127 -97 277
-176 172 -92 283 -140 386 -169 34 -10 62 -21 62 -25 0 -4 -28 -1 -62 9 -48
12 -62 13 -65 4 -6 -18 -23 -16 -23 2 0 9 -21 20 -57 30 -188 51 -406 153
-534 249 -193 145 -385 338 -518 518 -36 48 -67 86 -69 83 -2 -2 21 -42 51
-89 72 -110 228 -279 356 -386 56 -47 101 -90 101 -97 0 -15 91 -77 175 -121
86 -44 384 -182 395 -182 5 0 12 -5 16 -11 16 -26 -298 17 -454 62 -92 26
-289 92 -344 114 -29 12 -22 -20 7 -33 14 -7 31 -12 36 -12 6 0 62 -20 126
-45 63 -25 129 -45 147 -45 17 0 44 0 60 0 19 -1 30 -7 33 -20 5 -19 54 -37
73 -25 5 3 10 2 10 -3 0 -5 33 -15 73 -22 39 -7 79 -16 87 -21 21 -12 16 -11
-120 11 -67 12 -125 19 -128 16 -24 -25 488 -95 581 -79 33 5 37 3 37 -16 0
-14 -8 -22 -25 -26 -14 -3 -35 -7 -47 -10 -13 -2 -86 -11 -163 -20 -156 -18
-325 -14 -484 12 -100 16 -300 70 -363 97 -21 9 -38 12 -38 7 0 -13 213 -79
348 -108 203 -43 571 -42 717 2 41 12 45 11 44 -3 -1 -42 -234 -206 -360 -256
-35 -14 -91 -32 -124 -42 -33 -9 -64 -21 -70 -26 -18 -18 72 1 154 32 88 34
314 160 352 196 14 13 27 24 30 24 2 0 4 -84 5 -188 1 -165 5 -206 32 -351 17
-90 35 -168 41 -174 5 -5 7 -22 4 -37 -4 -20 1 -33 18 -48 17 -17 19 -24 11
-35 -14 -16 11 -113 103 -397 94 -292 167 -550 181 -640 7 -47 16 -164 20
-260 l6 -175 -36 -45 c-20 -25 -36 -55 -36 -67 0 -12 -5 -25 -11 -29 -6 -4
-26 -39 -44 -78 -19 -39 -63 -118 -98 -176 -43 -70 -61 -107 -53 -112 17 -12
22 -10 33 15 6 12 41 63 78 112 37 50 78 112 92 138 13 27 27 47 29 44 8 -8
-77 -227 -114 -292 -46 -82 -142 -207 -156 -202 -20 6 -18 57 4 94 19 32 20
73 2 73 -10 0 -61 -86 -68 -115 -14 -55 27 -105 84 -105 29 0 63 31 65 60 1
14 23 51 49 84 93 116 171 307 204 501 19 115 15 330 -10 500 -14 94 -85 360
-177 665 -66 217 -127 468 -162 664 -29 165 -32 199 -32 388 0 113 3 209 7
213 4 4 21 4 38 0 22 -5 45 -25 81 -70 50 -64 293 -295 310 -295 23 0 3 23
-73 85 -75 61 -193 189 -219 237 -8 14 -6 18 8 18 44 0 91 -23 138 -68 56 -55
133 -114 247 -190 95 -64 374 -205 447 -226 64 -19 61 -18 61 -7 0 5 -24 17
-52 26 -109 35 -349 154 -433 214 -71 50 -236 184 -259 210 -19 21 -19 21 10
17 16 -3 50 -7 75 -10 37 -4 74 -24 190 -101 202 -135 420 -235 513 -235 43 0
19 14 -69 41 -62 19 -233 97 -261 120 -5 4 -20 6 -32 2 -16 -4 -24 0 -31 18
-5 13 -46 51 -92 84 l-83 60 129 7 c129 7 129 7 239 -27 118 -38 126 -39 126
-26 0 4 -40 19 -90 32 -49 12 -90 25 -90 28 0 3 39 14 88 24 48 10 116 24 152
32 36 8 148 19 250 25 270 16 440 39 440 61 0 12 -67 12 -160 -1 -175 -23
-318 -40 -343 -40 -41 0 -32 15 16 29 47 14 171 80 164 88 -3 2 -19 -3 -36
-11 -17 -9 -87 -39 -155 -66 -95 -38 -138 -50 -178 -50 -76 0 -268 22 -268 31
0 4 19 15 43 25 35 15 38 18 20 22 -12 2 -30 -1 -40 -6 -13 -7 -61 1 -171 29
-84 21 -161 43 -170 49 -28 16 154 12 233 -6 125 -27 246 -43 268 -35 21 8 21
8 2 14 -27 8 -119 24 -177 32 -26 3 -50 10 -52 14 -3 4 37 13 88 19 106 13
167 31 174 50 3 9 -21 12 -95 12 -180 1 -427 31 -407 50 22 20 102 26 184 14
47 -6 136 -13 197 -13 97 -1 112 0 107 14 -5 13 -31 15 -160 15 -96 0 -154 4
-154 10 0 6 10 10 23 10 32 0 45 12 38 33 -6 17 -19 19 -159 18 -84 -1 -152 2
-152 6 0 5 24 17 53 27 37 14 88 20 181 23 89 2 132 7 138 16 6 9 8 9 8 -2 0
-11 12 -13 61 -7 84 8 110 25 44 28 -75 3 -93 3 -185 -5 l-85 -7 49 26 c30 16
84 31 140 40 172 26 374 73 494 116 57 21 34 27 -30 8 -161 -45 -221 -61 -327
-85 -141 -32 -165 -29 -86 12 33 17 71 43 84 57 20 22 33 26 76 26 73 0 146
11 139 21 -11 19 -401 0 -414 -20 -3 -4 -19 -8 -36 -9 -79 -2 -307 -61 -374
-98 -14 -7 -50 -25 -80 -39 l-55 -26 28 26 c23 20 25 25 10 25 -9 0 -34 -17
-55 -37 -42 -41 -62 -41 -23 1 14 15 25 31 25 36 0 5 9 14 19 20 15 8 19 17
14 43 -3 23 1 39 14 56 18 22 23 23 51 13 18 -6 32 -7 32 -2 0 16 51 37 180
73 150 43 183 49 415 82 146 21 218 26 383 26 184 0 231 6 186 23 -59 23 -200
34 -311 26 -160 -12 -533 -81 -598 -110 -11 -4 -31 -11 -45 -13 -14 -3 -54
-13 -89 -21 -35 -9 -66 -15 -68 -12 -6 5 60 56 142 108 155 100 330 172 520
216 44 10 73 20 65 24 -28 10 -262 -62 -389 -120 -69 -32 -165 -84 -213 -115
-49 -31 -88 -55 -88 -53 0 2 52 41 116 87 64 46 136 100 160 119 24 19 105 68
181 109 76 41 167 91 203 112 36 21 85 45 110 54 25 9 61 26 80 38 19 13 56
31 81 40 25 10 68 32 95 49 44 29 47 33 25 36 -32 5 -143 -36 -159 -60 -9 -12
-20 -17 -33 -13 -11 4 -31 -2 -48 -14 -16 -12 -32 -21 -36 -21 -13 0 -127 -60
-159 -84 -17 -13 -65 -42 -106 -64 -41 -23 -116 -69 -167 -104 -51 -35 -154
-105 -230 -157 -76 -51 -162 -118 -192 -148 -29 -30 -55 -52 -57 -50 -8 8 26
74 74 142 90 128 248 266 432 377 36 22 88 55 115 73 68 44 231 125 337 165
48 19 85 36 83 38 -10 10 -184 -53 -264 -94 -90 -47 -311 -185 -388 -242 -24
-19 -47 -32 -49 -29 -5 4 16 23 90 80 20 15 36 32 36 37 0 53 -236 -154 -352
-307 -46 -61 -144 -215 -173 -272 -11 -22 -20 -30 -26 -24 -14 14 137 323 191
393 61 78 196 215 257 261 37 28 53 47 55 66 3 25 7 28 35 26 25 -2 41 6 80
41 26 24 44 48 40 52 -13 13 -147 -62 -201 -112 -27 -24 -52 -44 -56 -44 -8 0
-162 -175 -217 -249 -23 -30 -39 -60 -36 -67 3 -8 -1 -14 -8 -14 -8 0 -36 -43
-64 -95 -27 -52 -52 -90 -53 -85 -8 22 62 229 104 310 83 161 230 324 432 479
45 35 80 66 78 68 -10 10 -165 -107 -252 -190 -206 -196 -288 -342 -382 -677
-10 -33 -10 -34 -11 -7 -1 17 -5 26 -11 22 -6 -4 -8 -15 -5 -26 4 -11 3 -34
-1 -52 l-7 -32 -18 54 c-15 43 -17 62 -9 90 13 46 13 114 0 106 -5 -3 -12 -22
-16 -43 -6 -30 -8 -33 -15 -17 -14 37 -9 114 11 165 24 62 27 88 6 71 -8 -6
-20 -26 -27 -44 l-14 -32 -6 45 c-8 57 6 85 68 140 46 40 83 65 83 57 0 -3 -7
-20 -15 -40 -13 -32 -12 -47 6 -47 10 0 92 141 85 147 -3 4 -6 1 -6 -5 0 -7
-6 -12 -14 -12 -8 0 -16 -7 -20 -15 -3 -8 -15 -15 -26 -15 -32 0 -80 -28 -128
-74 l-43 -41 6 65 c13 138 36 260 65 349 30 94 89 221 118 254 8 9 13 19 10
22 -2 2 -20 -17 -39 -43z m-144 -369 c-8 -45 -17 -130 -21 -190 -5 -94 -11
-117 -38 -173 -18 -36 -38 -94 -46 -130 -16 -80 -30 -99 -30 -42 0 79 31 317
49 382 10 36 21 80 25 98 5 29 66 145 73 139 1 -2 -4 -39 -12 -84z m-615 -363
c36 -95 207 -385 293 -499 28 -36 58 -86 68 -111 11 -27 18 -37 19 -25 1 17 4
16 23 -10 12 -16 46 -58 75 -92 29 -35 47 -63 41 -63 -9 0 -8 -4 0 -14 13 -15
5 -66 -10 -66 -6 0 -30 41 -54 92 -25 50 -45 84 -45 74 0 -9 9 -35 21 -57 11
-23 19 -43 16 -45 -2 -2 -32 31 -66 73 -63 77 -122 185 -188 338 -42 99 -58
117 -49 56 10 -67 130 -295 187 -357 10 -11 19 -24 19 -29 0 -17 -49 37 -106
118 -32 45 -73 100 -91 121 -58 69 -129 230 -152 341 -38 187 -38 253 -1 155z
m595 -105 c-9 -108 -10 -276 -1 -410 l7 -110 -36 90 c-39 98 -65 205 -65 264
0 50 34 183 62 244 21 45 23 47 31 25 5 -13 6 -59 2 -103z m38 -122 c7 -34
-14 -203 -25 -203 -10 0 -10 48 -1 157 6 82 16 98 26 46z m-278 -233 c12 -30
39 -91 59 -135 l36 -80 -41 45 c-52 57 -72 97 -104 205 -46 160 -26 146 50
-35z m323 -22 c-9 -38 -9 -50 2 -63 12 -14 11 -18 -1 -26 -29 -18 -34 -2 -31
97 3 123 10 144 29 84 11 -36 11 -54 1 -92z m-628 91 c0 -6 -4 -7 -10 -4 -5 3
-10 11 -10 16 0 6 5 7 10 4 6 -3 10 -11 10 -16z m1370 -114 c0 -2 -19 -13 -42
-25 -24 -11 -54 -27 -68 -35 -14 -8 -59 -31 -100 -49 -73 -34 -80 -35 -242
-42 -93 -4 -168 -4 -168 -1 0 12 133 68 220 93 115 33 400 76 400 59z m-841
-160 c19 -33 19 -65 0 -65 -14 0 -37 52 -48 115 -16 87 -12 108 9 43 10 -32
27 -74 39 -93z m507 -3 c-12 -20 -117 -35 -203 -29 -48 4 -99 7 -113 7 -15 0
-21 3 -14 10 5 5 72 11 149 13 77 1 150 4 163 5 13 1 21 -2 18 -6z m-130 -49
c-11 -12 -99 -43 -121 -43 -28 0 -135 33 -135 43 0 4 59 7 132 7 72 0 128 -3
124 -7z m-412 -59 c3 -8 2 -12 -4 -9 -6 3 -10 10 -10 16 0 14 7 11 14 -7z
m210 -13 c18 -7 18 -8 2 -14 -21 -8 -94 2 -102 14 -6 11 73 11 100 0z m269
-36 c49 -8 39 -22 -20 -31 -46 -7 -193 20 -193 36 0 18 58 25 115 13 33 -7 77
-15 98 -18z m178 22 c-8 -8 -48 -12 -112 -11 -145 1 -143 19 3 21 92 1 118 -1
109 -10z m-531 -28 c0 -12 -46 -22 -59 -14 -8 4 -8 12 -1 25 9 17 14 18 35 8
14 -6 25 -15 25 -19z m70 1 c0 -5 -5 -10 -11 -10 -5 0 -7 5 -4 10 3 6 8 10 11
10 2 0 4 -4 4 -10z m125 -25 l40 -13 -53 -1 c-54 -1 -92 11 -92 30 0 11 35 6
105 -16z m-368 -67 c-1 -21 -6 -22 -27 -5 -16 13 -50 62 -50 72 0 4 18 -6 39
-22 22 -16 39 -36 38 -45z m253 57 c24 -14 23 -14 -25 -14 -46 0 -48 1 -31 14
24 18 25 18 56 0z m276 -25 c35 -14 261 -40 341 -40 34 0 64 -4 67 -8 5 -8
-126 -33 -234 -46 -22 -2 -82 11 -164 36 -157 48 -199 46 -56 -2 l104 -35 -87
-3 c-76 -2 -94 0 -144 24 -32 14 -68 30 -81 35 -31 12 -20 27 20 28 18 1 60 5
93 10 86 12 110 12 141 1z m-276 -58 l65 -31 -80 5 c-51 4 -89 12 -105 23 -14
10 -32 21 -40 26 -12 6 -13 5 -2 -6 6 -7 12 -21 12 -31 0 -10 -6 -18 -12 -19
-7 0 -1 -5 15 -11 39 -14 34 -25 -14 -30 -37 -3 -40 -2 -36 19 2 12 -1 24 -6
26 -6 2 0 18 14 36 23 31 27 33 74 28 28 -2 79 -18 115 -35z m-282 1 c12 -3
22 -9 22 -14 0 -5 -17 -2 -37 6 -38 16 -63 34 -28 20 11 -4 30 -10 43 -12z
m604 -116 c98 -29 178 -55 178 -59 0 -7 -54 -4 -80 5 -28 9 -152 28 -157 23
-3 -2 0 -14 6 -25 8 -15 26 -22 62 -27 40 -5 48 -9 34 -16 -16 -9 -43 -7 -90
6 -11 4 -7 0 9 -7 35 -17 27 -23 -44 -31 -49 -6 -56 -4 -68 15 -17 27 -14 29
36 31 35 1 39 3 25 13 -10 8 -14 20 -10 34 7 28 -18 38 -119 51 -71 9 -124 26
-124 41 0 4 37 5 83 2 59 -3 131 -18 259 -56z m-892 33 c0 -5 -4 -10 -10 -10
-5 0 -10 5 -10 10 0 6 5 10 10 10 6 0 10 -4 10 -10z m127 -36 c-9 -9 -28 6
-21 18 4 6 10 6 17 -1 6 -6 8 -13 4 -17z m256 -6 c-10 -12 -19 -15 -21 -8 -7
20 7 40 23 34 14 -6 14 -9 -2 -26z m-296 16 c-3 -3 -12 -4 -19 -1 -8 3 -5 6 6
6 11 1 17 -2 13 -5z m213 -4 c0 -5 -19 -9 -42 -9 -40 1 -41 2 -13 9 44 11 55
11 55 0z m288 -26 c24 -16 29 -34 10 -34 -8 -1 -6 -6 5 -14 29 -22 19 -29 -35
-23 -45 6 -59 13 -98 53 l-45 46 70 -7 c39 -4 80 -13 93 -21z m-128 -56 c0 -5
-68 11 -79 19 -2 1 4 12 14 23 l19 21 22 -28 c13 -15 23 -31 24 -35z m269 28
l24 -13 -27 -7 c-34 -8 -62 0 -70 19 -7 19 39 20 73 1z m-349 -56 c0 -5 -9 -6
-20 -3 -11 3 -17 9 -15 14 7 10 35 1 35 -11z m740 -10 c36 -5 93 -10 127 -10
34 0 64 -4 67 -9 7 -10 -131 -41 -185 -41 -40 0 -194 48 -185 58 9 8 71 19 91
16 11 -2 49 -8 85 -14z m-636 4 c25 -10 8 -23 -22 -18 -38 7 -52 24 -20 24 15
0 33 -3 42 -6z m189 -6 l22 -12 -25 -7 c-40 -11 -89 -10 -113 3 l-22 12 25 7
c40 11 89 10 113 -3z m315 -35 l77 -28 -45 -7 c-25 -3 -79 -7 -121 -7 -64 -1
-79 2 -94 19 -10 11 -16 22 -14 23 3 3 81 21 112 26 5 0 43 -11 85 -26z m-267
-13 c46 -25 12 -30 -81 -13 l-35 7 45 6 c25 4 46 8 48 8 2 1 12 -3 23 -8z"/>
<path d="M3634 5497 c-81 -47 -161 -106 -178 -132 -10 -14 -35 -44 -56 -66
-45 -47 -100 -126 -100 -146 0 -27 38 -12 62 25 31 45 168 185 261 265 87 76
92 100 11 54z"/>
<path d="M3341 5049 c-22 -24 -46 -59 -52 -78 -7 -20 -18 -45 -25 -56 -30 -47
-76 -285 -55 -285 6 0 11 10 11 23 0 37 50 208 77 262 14 27 41 76 61 108 19
31 33 60 30 63 -4 3 -24 -14 -47 -37z"/>
<path d="M2087 5024 c-32 -66 -33 -141 -3 -251 15 -54 40 -127 57 -162 16 -35
28 -65 26 -67 -10 -10 -182 215 -228 298 -53 98 -59 78 -8 -26 34 -67 116
-173 219 -281 37 -38 79 -91 94 -117 30 -54 94 -120 107 -112 5 3 -3 22 -18
42 -32 41 -22 37 62 -29 33 -26 95 -68 139 -93 43 -26 99 -67 124 -91 25 -25
49 -45 53 -45 14 0 20 35 7 38 -7 3 -42 34 -77 71 -35 36 -67 65 -71 64 -22
-6 -128 133 -210 278 -22 39 -36 56 -38 45 -6 -29 114 -222 168 -271 12 -11
36 -38 54 -60 l31 -39 -41 23 c-50 28 -138 94 -212 157 -46 40 -63 65 -107
158 -28 61 -58 136 -65 166 -7 30 -19 75 -26 99 -15 49 -17 120 -5 194 10 58
-7 64 -32 11z"/>
<path d="M2272 4973 c4 -37 12 -71 18 -77 13 -13 13 1 -2 80 -15 84 -27 82
-16 -3z"/>
<path d="M3212 4943 c-34 -29 -70 -203 -42 -203 6 0 10 10 10 23 0 12 13 60
29 107 16 47 28 86 26 88 -1 1 -12 -5 -23 -15z"/>
<path d="M4420 4880 c-94 -12 -130 -21 -130 -31 0 -6 8 -8 18 -5 9 3 62 10
117 16 55 7 125 15 155 20 54 7 54 8 -25 7 -44 0 -105 -3 -135 -7z"/>
<path d="M4155 4830 c-8 -13 25 -13 45 0 12 8 9 10 -12 10 -15 0 -30 -4 -33
-10z"/>
<path d="M2307 4813 c-9 -15 60 -199 112 -303 55 -108 140 -245 148 -237 2 3
-17 37 -43 77 -62 96 -137 257 -175 375 -31 95 -34 102 -42 88z"/>
<path d="M3978 4510 c-76 -5 -145 -14 -155 -20 -14 -8 -4 -10 42 -6 205 19
407 14 488 -10 9 -3 17 -1 17 4 0 10 -106 30 -195 36 -33 2 -122 0 -197 -4z"/>
<path d="M3648 4470 c-103 -19 -194 -46 -203 -60 -3 -4 28 3 69 16 40 12 113
28 162 35 49 6 96 16 104 20 24 13 -23 9 -132 -11z"/>
<path d="M3517 4399 c-32 -10 -70 -28 -84 -39 -14 -11 -32 -20 -40 -20 -8 0
-28 -7 -46 -17 -56 -29 -11 -25 66 6 72 28 160 53 240 66 20 3 37 10 37 15 0
16 -111 9 -173 -11z"/>
<path d="M3367 4384 c-16 -9 -27 -18 -24 -20 7 -7 57 18 57 28 0 10 1 10 -33
-8z"/>
<path d="M1550 4272 c0 -4 11 -18 23 -31 20 -18 26 -19 36 -8 9 11 8 17 -1 24
-19 16 -58 26 -58 15z"/>
<path d="M4530 4254 c-47 -14 -121 -36 -165 -49 -44 -14 -141 -36 -215 -50
-74 -14 -143 -31 -153 -36 -10 -6 -24 -6 -30 -2 -7 5 -51 7 -99 5 -70 -3 -87
-6 -90 -20 -11 -39 410 -1 597 54 44 13 94 26 110 30 41 9 138 59 154 78 19
23 -4 20 -109 -10z"/>
<path d="M1620 4213 c1 -14 204 -132 228 -133 19 0 14 28 -6 34 -10 4 -52 29
-93 56 -66 44 -130 65 -129 43z"/>
<path d="M1524 3999 c43 -34 229 -139 246 -139 8 0 -17 18 -55 39 -39 21 -100
57 -137 80 -70 44 -98 54 -54 20z"/>
<path d="M4490 3999 c-57 -10 -339 -39 -385 -39 -19 0 -35 -5 -35 -10 0 -7 23
-9 63 -6 34 3 99 8 145 11 97 6 243 32 257 46 5 5 7 8 5 8 -3 -1 -25 -5 -50
-10z"/>
<path d="M2000 3961 c0 -16 123 -69 185 -80 70 -13 65 -13 65 -2 0 5 -19 12
-42 16 -24 4 -77 23 -120 41 -83 37 -88 38 -88 25z"/>
<path d="M4036 3552 c-7 -12 105 -43 257 -71 150 -29 196 -25 62 5 -153 34
-285 65 -300 70 -7 3 -16 1 -19 -4z"/>
<path d="M4140 3267 c0 -14 20 -27 41 -27 5 0 9 7 9 15 0 8 -4 15 -9 15 -5 0
-16 3 -25 6 -10 4 -16 1 -16 -9z"/>
<path d="M4277 3231 c-4 -15 4 -20 47 -30 117 -25 260 -26 215 -1 -8 5 -53 14
-100 19 -46 6 -100 15 -119 21 -19 5 -35 10 -36 10 -1 0 -4 -8 -7 -19z"/>
<path d="M4238 3223 c7 -3 16 -2 19 1 4 3 -2 6 -13 5 -11 0 -14 -3 -6 -6z"/>
</g>
</svg>
