<?xml version="1.0" standalone="no"?>
<!DOCTYPE svg PUBLIC "-//W3C//DTD SVG 20010904//EN"
 "http://www.w3.org/TR/2001/REC-SVG-20010904/DTD/svg10.dtd">
<svg version="1.0" xmlns="http://www.w3.org/2000/svg"
 width="500.000000pt" height="500.000000pt" viewBox="0 0 500.000000 500.000000"
 preserveAspectRatio="xMidYMid meet">

<g transform="translate(0.000000,500.000000) scale(0.100000,-0.100000)"
fill="#000000" stroke="none">
<path d="M4160 3751 c0 -48 54 -37 -490 -96 -228 -25 -597 -66 -819 -90 l-404
-45 -869 0 -868 0 0 40 c0 51 -18 53 -22 3 -3 -37 -4 -38 -45 -41 -29 -2 -43
-8 -43 -18 0 -10 12 -14 45 -14 l45 0 0 -79 c0 -84 -4 -91 -56 -91 -19 0 -24
5 -24 24 0 13 -3 31 -6 40 -12 30 -24 16 -24 -28 0 -44 -1 -45 -35 -48 -49 -4
-44 -23 5 -21 22 1 40 -1 40 -5 0 -4 23 -212 50 -462 l50 -454 0 -428 0 -428
-45 0 c-33 0 -45 -4 -45 -15 0 -11 12 -15 45 -15 l45 0 0 -40 c0 -22 5 -40 10
-40 6 0 10 18 10 40 0 40 0 40 39 40 l38 0 10 -80 c5 -45 7 -83 4 -85 -2 -3
-22 -5 -43 -5 -28 0 -38 -4 -38 -16 0 -14 7 -16 45 -11 43 6 45 5 45 -17 0
-14 3 -31 6 -40 11 -29 24 -17 24 23 0 38 2 39 38 45 20 3 405 46 856 96 l818
90 869 0 869 0 0 -40 c0 -22 5 -40 10 -40 6 0 10 18 10 40 l0 40 45 0 c33 0
45 4 45 15 0 11 -12 15 -45 15 l-45 0 0 79 c0 84 4 91 56 91 19 0 24 -5 24
-24 0 -13 3 -31 6 -40 12 -31 24 -16 24 29 0 45 0 45 35 45 26 0 35 4 35 16 0
14 -7 16 -40 11 -22 -3 -40 -1 -40 4 0 5 -16 150 -35 322 -19 171 -42 374 -50
450 -11 101 -15 250 -15 567 l0 430 45 0 c33 0 45 4 45 14 0 10 -14 16 -42 18
-42 3 -43 4 -46 41 -4 50 -22 48 -22 -3 0 -40 0 -40 -39 -40 l-39 0 -8 78 c-4
42 -6 79 -6 82 1 3 17 7 37 10 47 7 41 26 -7 23 -34 -2 -38 1 -38 22 0 13 -3
30 -6 39 -11 29 -24 17 -24 -23z m14 -117 c3 -26 6 -62 6 -80 l0 -34 -702 0
c-386 0 -699 2 -697 5 3 2 270 34 595 69 324 36 623 69 664 74 134 16 126 18
134 -34z m-2079 -149 c-5 -3 -237 -29 -515 -60 -278 -31 -585 -65 -682 -75
-98 -11 -180 -20 -183 -20 -3 0 -5 36 -5 80 l0 80 698 -1 c383 0 693 -2 687
-4z m2095 1 c0 -3 22 -209 50 -458 l50 -453 0 -437 0 -437 -32 -5 c-18 -3
-404 -46 -858 -96 l-825 -90 -882 0 c-486 0 -883 2 -883 5 0 3 -22 209 -50
458 l-50 452 0 437 0 436 38 6 c20 3 244 29 497 56 253 28 613 68 800 89 l340
39 903 1 c496 0 902 -1 902 -3z m99 -283 c0 -164 -4 -279 -9 -268 -7 18 -61
494 -60 538 0 13 8 17 35 17 l35 0 -1 -287z m-3601 -193 c1 -159 -1 -280 -6
-275 -7 9 -63 487 -62 537 0 15 30 28 55 23 6 -1 11 -106 13 -285z m3667
-1023 c15 -147 26 -269 23 -272 -2 -3 -19 -8 -36 -11 l-32 -6 0 288 c0 161 4
284 9 279 4 -6 21 -130 36 -278z m-3604 -169 c37 -329 37 -308 -6 -308 l-35 0
0 287 c0 157 3 284 6 280 4 -3 19 -120 35 -259z m3539 -228 l0 -80 -697 1
c-465 1 -678 5 -638 11 69 10 1266 145 1308 147 l27 1 0 -80z m-2071 -115 c-3
-2 -273 -34 -600 -70 -326 -36 -636 -70 -687 -76 -52 -6 -96 -9 -98 -6 -2 2
-7 38 -10 80 l-7 77 703 0 c387 0 701 -2 699 -5z"/>
</g>
</svg>
