<?xml version="1.0" encoding="utf-8"?>
<!-- Generator: Adobe Illustrator 24.0.0, SVG Export Plug-In . SVG Version: 6.00 Build 0)  -->
<svg fill="#7e3035" version="1.1" id="Layer_1" xmlns="http://www.w3.org/2000/svg" xmlns:xlink="http://www.w3.org/1999/xlink" x="0px" y="0px"
 viewBox="0 0 720 720" style="enable-background:new 0 0 720 720;" xml:space="preserve">
<g>
<path d="M330,291c4.7,12.2,8.1,24.5,8.6,37.6c0.5,12.1,0.9,24.1,1.7,36.2c1.1,16.7,2.6,33.3,3.8,49.9c0.5,7.4-1.8,13.8-7.2,19.2
c-4.6,4.7-8.8,9.8-12.8,15.1c-4,5.3,0,17.8,6.1,20.2c1,0.4,2.5,0.4,3.4-0.1c5.1-2.8,9.9-6.2,15-8.8c6.2-3.2,16.6-2.8,22.8,2.9
c1.6,1.5,4.1,1.4,5.8,0.1c5.3-4.2,10.6-8,15.1-12.7c8.3-8.6,6.9-16.6-2.9-23c-2.4-1.6-4.8-3.4-7.1-5.1c-4.2-3-6.6-6.8-7-12.2
c-1.3-19.1-3.4-38.2-4.1-57.3c-0.5-13,0.6-26.1,1.6-39c0.6-7.7,1.7-15.5,3.8-22.9c1.3-4.6,5.3-8.1,3.5-13.8c-1.8-5.9-7-6.4-11.2-9
c-4.8-2.9-9-2.8-13-0.6c-7.6,4.3-14.3,3.8-21.5-0.9c-4.9-3.2-8-1.6-7.8,4.3C327.1,277.8,327.6,284.9,330,291z"/>
<path d="M356.5,148.7C356.5,148.7,356.5,148.7,356.5,148.7c-6.4-0.4-12.8-1.1-19.1-1c-5,0.1-6.4,3.1-4.4,7.8
c2,4.6,4.7,9.1,5.3,13.9c2.3,19,4.6,38,5.5,57c0.3,5.9-3.2,12.3-6.3,17.8c-3.1,5.5-3.9,12.2,0.1,17.2c3.9,4.8,7.7,5,14.7,2.4
c3.7-1.4,8.2-1.8,12.2-1.3c6.3,0.7,13.1,3.5,17.5-2.8c4.4-6.3,0.4-12.3-3.2-17.5c-7.8-11.2-11.2-23.5-11.4-37.1
c-0.1-9.3-0.6-19-3.2-27.9c-2.5-8.5-0.6-15.1,3.8-21.6c3.6-5.2,5.2-9.5-1.5-13.3c-0.5-0.3-0.8-1.2-0.7-1c0.7-3.1,2-5.6,1.5-7.8
c-2.3-9.9-5.8-19.6-7.6-29.5c-2.2-11.8-3-23.9-4.7-35.9c-0.3-2-0.7-4.4-2.9-5.6c-2.5-1.3-6.4,0.5-8.3,2.2c-2.1,1.9-3.6,5.4-3.9,8.3
c-2.6,20.2-5,40.4-7.1,60.6c-0.3,2.6-0.7,6.9,2.2,7.9c4.4,1.2,9.2,1,13.8,1c2,0,4.7-1.7,6-0.9c1.3,0.8,2.3,2.1,3.4,3.7
C359.3,146.9,358.2,148.8,356.5,148.7z"/>
<path d="M187.8,510.9c1.9-3.3,4-6,4.7-9.1c1.1-5,3.7-6.5,8.3-7.5c9.6-1.9,18.1,2.4,27.1,4c2.1,0.4,5.7-1.5,6.8-3.4
c3.9-6.9-1.8-10.9-5.9-14.7c-8.5-7.9-14.3-17.4-15.5-28.7c-1.8-16.7-1.8-33.6-3.3-50.3c-0.8-8.9,1.4-15.5,9.1-20.3
c2.2-1.4,4-3.6,5.7-5.6c4.3-5,3.6-8.2-2-11.8c-6.8-4.3-13.5-8.6-20-13.3c-3.6-2.6-6.5-6.2-10-9.1c-4.6-3.8-10.5-4.4-15-1.1
c-3,2.2-5.4,7.4-5.4,11.3c0,6,1.2,12.6,3.7,18c11.9,26.4,16.6,54.4,20.3,82.8c1.1,8.4-0.8,17.1-5.9,23.8c-2,2.6-3.4,5.7-4.7,8.7
c-3.8,8.5-4.6,17,0.1,26.1C186.2,511.6,187.3,511.7,187.8,510.9z"/>
<path d="M187.4,330.6c2.4,1.6,6.3,0.7,10.1,1.1c2.5,9.2,9.9,16,17.9,22c7.9,6,13,5.4,21.5-0.4c3.2-2.2,6.5-4,9.9-5.8
c7.4-3.9,13.2-8.5,12.6-18.5c-0.5-8,8.9-17.8,17-17.5c8.7,0.3,14.4-3.7,18.5-10.6c2.8-4.7,5.7-9.4,8-14.3c0.6-1.2,0.8-2.5,1.1-4.1
c0.4-2.4-2-4.2-4.3-3.3c-1,0.4-1.8,0.8-2.5,1.3c-5.5,4.2-11,8.5-16.1,13.2c-8,7.6-17.5,11.9-28.4,11.7c-11.1-0.1-21.3,2.1-30.8,7.4
c-5.4,3-10.8,3.2-16.8,1.2c-4.2-1.3-9.3-1.4-13.5-0.2C183.8,316,181.3,326.5,187.4,330.6z"/>
<path d="M381.3,349.2c0.1,7,1.3,14,2,20.9c11.7-1.5,15.7-7.3,12.1-17.6c-1.4-4.1-3.4-8.1-5.2-12c-4.5-9.9-3.4-21.2,3.7-24.6
c4.4-2.1,10.1-2.2,15.1-1.8c6.6,0.6,12-0.7,16.2-5.1c0.7-0.7,0.7-1.8,0.1-2.5c-8.6-10.5-19-15.7-33.3-12.8
c-6.2,1.3-10.1,4.4-10.3,10C381.1,318.8,381.1,334,381.3,349.2z"/>
<path d="M310.2,377.9c2.5,4.4,3.6,9.5,5.7,14.1c0.7,1.5,2.3,3.3,3.7,3.5c2.6,0.3,5.3-0.1,6.9-0.3c0.3,0,0.6-0.3,0.6-0.7
c0-18,0-34.9,0-51.9c0-0.7-0.1-1.3-0.3-2.1c-0.2-0.9-1-1.5-1.9-1.4c-0.6,0.1-1.2,0.1-1.7,0.3C311.9,344,304.2,367.3,310.2,377.9z"
/>
<path d="M291.9,629.6c-2.2-6.5-2.6-13.6-4.3-20.3c-0.5-1.8-2.9-4.4-4.3-4.4c-4.8,0.3-10.4,0.3-13.9,2.9c-2.5,1.9-3.7,8.1-2.8,11.7
c3.2,13,12,21.8,23.8,27.5c2.3,1.1,5,1.5,8.3,2.2c1.1,0.2,2-0.9,1.5-1.9C296.9,640.8,293.8,635.4,291.9,629.6z"/>
<path d="M410,411.3c1.3-0.5,1.9-1.9,1.6-3.2c-0.2-0.6-0.4-1.2-0.8-1.5c-7-6.8-9.8-15.4-11.1-24.9c-0.4-2.7-1.8-5.3-3.1-8
c-0.5-1.1-1.8-1.6-3-1.1c-9.7,4.2-9.6,4.8-8.4,15.3c0,0.2,0,0.5,0.1,0.7c1.5,12.1,12.3,22.9,23,23
C408.8,411.7,409.4,411.6,410,411.3z"/>
<path d="M446.3,372c0.4,0.9,1.8,0.9,2.1-0.1c5.5-16.7,19.3-19.3,33.6-21.4c0.9-0.1,1.3-1.3,0.7-2c-6.7-7.9-13.2-9.7-23.7-7.6
c-8.4,1.7-11.3,7.8-12.8,15.1C445.3,360.7,443.4,365.5,446.3,372z"/>
<path d="M402.3,319c-0.2,0-0.5-0.1-0.7-0.1c0,0,0,0,0,0c0,0,0,0,0,0c0,0,0,0,0,0c-6.2-0.9-7.9,2.1-7.8,5.8c0,1.3,0.3,2.8,0.7,4.2
c0.1,0.4,0.2,0.7,0.3,1.1l0,0c1.5,5,3.5,10,5.5,14.8c2.9,6.9,7.4,13.3,9.4,20.4c3.7,13.5,5.7,27.4,9.4,40.9
c2.1,8,0.2,13.3-5.7,18.7c-6.6,6-11.3,13.4-12.4,22.6c-0.8,6.6,2.2,16.1,6.1,20.2c1,1.1,2.7,1.2,3.9,0.4c1.8-1.3,3.5-2.5,5.4-3.5
c3.9-1.9,7.8-4,12-4.8c5.3-1,12.5-3.2,15.8-0.8c6.9,5,13.5,6.6,21.5,6.1c1.4-0.1,3,1,4.5,1.5c0.3,0.1,0.7,0.2,1.1,0.3
c1.7,0.4,3.5-0.6,3.9-2.3c0.2-0.6,0.3-1.2,0.3-1.8c0.9-10.5-2.4-19.4-9.3-27.6c-5-5.9-10-12.6-12.4-19.9
c-7.2-21.6-13.2-43.5-19.6-65.3c0,0,0,0,0,0c-0.7-2.4,1.7-2,3.1-1.3c0.6,0.4,1.3,0.7,2.1,1.2c0.9,0.5,2,0.1,2.3-0.9
c2.3-7.1,4.9-14.2,6.8-21.6c1.6-6.5-2.3-11.1-8.7-12.8c-1.5-0.4-2.4-2.4-3.8-2.9c-1.7-0.6-3.3-0.5-5.1,0.8
C421.9,318.3,412.7,321.1,402.3,319z"/>
<path d="M547.7,506.1c-1.1-12.7-6.8-23.8-14.5-33.8c-0.5-0.7-1.5-1-2.5-1.2c-0.9-0.2-1.7,0.3-1.9,1.2c-0.2,1.1-0.5,2.2-0.8,3.2
c-0.4,1-0.8,2-1.2,3c-0.8,1.8-3.2,2.1-4.3,0.5c-0.8-1.1-1.5-2.2-2-3.3c-0.5-1.1,0.5-3.1,1.3-4.4c1.4-2.4,3-4.7,4.9-7.6
c0.4-0.6,1.2-0.7,1.8-0.3c1,0.7,2,1.4,3,2c0.8,0.5,1.7,1,2.5,1.5c0.7,0.4,1.6,0.2,2-0.5c0.5-0.9,1.1-1.8,1.2-2.8
c1.9-13-5.4-28.3-18.2-34.5c-14.8-7.2-20.5-19.9-23.5-34.4c-1.9-9.1-2.1-18.6-3.1-27.9c-0.6-5.5-3.5-8.3-9.4-9.1
c-23.6-3.1-39.4,16.3-30.9,38.5c2.6,6.8,6,13.3,9.2,19.9c0.7,1.5,2.1,2.7,3.2,4.1c0.7,0.8,1.6,0.8,1.5-0.5
c-0.2-3.8-0.1-7.7-0.8-11.4c-0.7-3.3-2.1-6.4-3.8-10.8c-0.8-2.2,5.2,0.9,6.7,2.7c4.7,7.1,8.8,14.6,13.6,21.6c4,6,4,11.1,0,17.2
c-1.8,2.7-1.8,6.8-1.7,10.3c0.1,5.4,1.1,10.8,1.6,16.2c0.2,2.1,0.4,4.3,0.6,6.8c0.1,0.9,1,1.4,1.8,1.1c1.1-0.5,1.7-0.8,2.3-1.2
c8.4-7,17.6-7.7,27.5-6.6c1.4,0.2,3.1,1.4,4,2.8c0.5,0.8,0.8,1.8,0.2,2.6c-0.1,0.1-0.3,0.2-0.4,0.1c-9.9-3.5-18.7-1-27,4.1
c-5,3.2-8.9,8-9,12.5c-0.1,8.2,0.4,16.4,0.6,24.6c0.1,5.1-2.2,8.7-6.7,11.3c-2.8,1.6-6,3.2-7.7,5.7c-5.7,8-11.1,16.3-16.2,24.7
c-5.3,8.7-11,16.3-22,18.1c-12.7,2.1-14.7,4.8-14.5,17.8c0,1.8,0.1,3.7,0.3,5.5c1.1,10.4,7,14.3,17.1,11c2.4-0.8,4.4-2.6,6.7-3.6
c1.2-0.5,2.6-0.8,3.9-1.1c0.9-0.2,1.7,0.4,1.8,1.3l0.5,3.7c0.2,1.2-0.7,2.4-2,2.6c-9.1,1.3-17.3,2.4-25.6,3.6
c-1.5,0.2-2.7,1.3-3.1,2.7c-5.2,18-22.6,25.7-35.9,37.7c-1.8,1.6-0.8,4.5,1.6,4.7c1.1,0.1,2.2,0,3.2-0.5
c12.7-5.7,25.7-11.2,37.7-18.2c10.7-6.1,20.3-14.1,24.6-26.5c0.3-1,1.4-1.5,2.4-1.1c0.3,0.1,0.7,0.3,1,0.4c6.3,3.3,9.3,2,10.8-5.1
c0.5-2.2,0.4-4.6,0.8-6.9c0.5-3.7,0.1-8.1,2-11c12.7-19.3,26.5-37.9,48.6-47.5c12.8-5.6,23.7-13.5,32.5-24.2
C545.9,514.3,548,509.7,547.7,506.1z"/>
<path d="M408.9,595.8c0.4-10,0.6-19.5,7.7-27.8c11.7-13.6,22.5-27.9,34.5-41.2c3.6-4,9.7-6.1,15-8.2c5-1.9,8.7-4.6,8.4-10.1
c-0.4-8.5-0.9-17.1-2.7-25.4c-1-4.8-4-9.6-7.4-13.5c-1.1-1.2-4.5-0.5-5.2,0.4c-2.7,3.8-5.2,3.4-8.2,0.8c-1.8-1.5-3.5-3-5.1-4.8
c-3.7-4.2-8.2-5.2-13.2-3c-5.9,2.5-12.1,4.8-17.6,8c-2.4,1.4-4.5,5-4.9,7.9c-1,7-0.8,14.1-1.3,21.2c-1.4,17.1-9.2,32-17.1,46.7
c-3.5,6.5-8.7,12.2-13.9,17.6c-3.8,3.9-6.2,7.6-5.9,13.1c0,1.2-0.1,2.3-0.3,3.5c-1.1,6.9-2.7,1.5-3.1-0.3c-0.2-1.1-0.3-2.1-0.2-3.2
c1.6-9.8,3.2-19.7,5.4-29.3c2.2-9.3,5.8-18.4,7.7-27.8c1.4-7,4.7-11.8,10.6-15.7c14.3-9.5,15.5-29.8,2.4-41.1
c-1.8-1.5-6-1.7-8.3-0.7c-2.6,1.1-4.8,3.2-7.2,5.4c-1.3,1.1-3.1,1.3-4.5,0.3c-2.8-1.8-5.6-3.7-8.5-5.3c-2.1-1.2-4.9-2.2-6.9-2.2
c-6.4-0.1-11.5,3.3-15.9,6.8c-5.9,4.7-10.5,11.1-15.6,16.8c-4.6,5.3-5.2,11.2-2.1,17.4c3.6,7.4,6.9,15,11.3,21.9
c6.2,9.6,6,19.8,5.8,30.6c-0.2,11.6-8.5,18.5-13,27.5c-0.1,0.3-0.8,0.3-1.5,0.5c-0.4-4.1-0.2-8.2-1.5-11.8
c-2.2-6-5.2-11.8-8.3-17.5c-5.6-10.2-6.6-19.8,1.5-29.5c4.9-5.9,5-12.3,1.3-19.4c-3.7-7.1-4.6-14.6,0.8-21.8c2.3-3.1,1.2-6.4-2-7.5
c-7-2.5-14.2-5-21.6-6.2c-8.2-1.4-17-3.3-24,3.5c-5.1,5-11.2,7-18,8c-2.2,0.3-4.3,0.8-6.3,1.6c-6.9,2.9-8.9,9.7-4.1,15.5
c3.1,3.8,6.5,7.3,10.3,10.4c12.1,9.7,21.9,20.1,23.6,37.2c1.7,16.6,6.7,32.8,10.3,49.2c1.3,5.9,3,12,9.3,13.9
c5.1,1.6,10.8,1.8,16.3,1.7c8.6,0,12.6-4.8,11.8-13.3c-0.1-1,0.1-2.1,0.2-3.1c5.6-0.3,5.7,0.9-0.9,23.1c-0.2,0.8-1.2,1-1.8,0.5
c-0.7-0.6-1.3-1.2-2-1.8c-1.5-1.4-3.7-4.1-4.2-2.8c-0.4,1.1-1,1.9-2.8,2.3c-0.7,0.1-1.3,0.2-2,0.2c-0.3,0-0.6,0-0.9,0.1
c-1.2,0.1-2.5,0.1-3.6-0.1c-3.5-0.5-6.9-2.3-10.3-3.6c-4.2-1.6-7,0.1-5.4,4.2c4,10.6,8.2,21.2,13.5,31.2c2.5,4.8,13.5,6.1,17.5,4.1
c1.7-0.9,4.6-1.3,6.2-0.5c8.5,4.1,12.8,2.5,17.4-5.9c2.3-4.2,6-7.8,9.4-11.3c0.5-0.5,1.9-0.2,3.1,0c0.5,0.1,0.7,0.8,0.4,1.2
c-3.5,3.8-6.9,6.6-8.8,10.3c-2.8,5.3-0.1,9,5.7,8c5.5-1,11.2-2.7,15.9-5.5c5.8-3.4,11.1-8,16.2-12.5
C411,616.6,407.9,624.2,408.9,595.8z"/>
<path d="M294.1,313.6c-4.4,1.6-15.3,3.4-21.7,4.9c0,0,0,0,0,0c-0.5,0.1-1,0.2-1.4,0.4l0,0c-7.1,2-8.5,5-8,12.7
c1.3,19.1,1.7,38.3,2.7,57.4c0.8,15.6-3.4,28.9-15.2,39.9c-5.4,5-9.8,11.2-13.7,17.5c-4.4,7.1-1.9,16.3,5.2,22.7
c5.3,4.8,16.7,6.9,21.5,3c10.2-8.3,21.1-12,34.3-8.9c5.8,1.3,9.1-2.4,9.8-8.6c0.7-6.7-1.4-12.4-5.8-17.5
c-6.2-7.3-10.2-14.6-7.6-25.5c3.7-16,4.8-32.5,7.6-48.7c1.9-11.2,5.5-21.8,16.7-27.8c1.8-1,3.1-4.8,2.9-7.2
c-0.7-13.9-12.7-20.8-25.1-15.1C295.6,313,294.8,313.3,294.1,313.6z"/>
<path d="M302.4,418.7c-0.9,4.7,3.2,13.8,7.5,16c5.9,3.1,15.5,1.3,19.9-3.5c4.9-5.5,5.6-10.1,2.2-16.5c-0.7-1.2-2.3-1.5-3.4-0.7
c-5.5,4.1-11,8.2-16.5,12.2c-0.9,0.6-2-0.3-1.5-1.3c0.6-1.4,1.5-2.5,2.5-3.5c4.1-3.8,8.6-7.2,12.5-11.2c1.5-1.5,1.8-4.2,2.3-6.4
c0.4-1.7-0.8-2.8-2.9-2.5c-7.2,1.2-13-1.7-16-9c0,0,0,0,0-0.1c0,0,0,0,0,0c0,0,0,0,0,0c-0.3-0.6-0.7-1.4-1.1-1.5c0,0,0,0,0,0h0
c0,0,0,0,0,0c-0.6-0.1-0.9,1.9-1.6,4.7c0,0,0,0,0,0c-0.1,0.3-0.1,0.5-0.2,0.8C304.8,403.7,303.8,411.2,302.4,418.7z"/>
<path d="M264.4,625.9c-6.9-11.7-1-24.1,12.1-25.9c2.4-0.3,6-3.1,6.5-5.2c1.6-7.4,0.1-14-6.7-19c-8.2-6-15.8-12.6-23.7-19
c-9.6-7.7-14.1-17.8-14-30.1c0-4.6,0.2-9.4-0.7-13.9c-0.5-2.7-2.4-6.7-4.5-7.2c-10.4-2.5-21.1-4.2-31.7-5.9
c-1.1-0.2-2.9,1.2-3.6,2.3c-2.1,3-3.5,6.4-5.6,9.4c-9.7,13.5-7.6,24.2,6.1,33.9c5.2,3.7,9.9,8.5,14.1,13.4c6.4,7.4,13,14.9,18,23.2
c6.1,10.2,12,20.8,15.5,32c2.9,9.1,9.7,12.9,16,17.7c2.9,2.4,4.6,4.4,4,1C265.5,630.4,265.5,627.9,264.4,625.9z"/>
</g>
</svg>
