<?xml version="1.0" standalone="no"?>
<!DOCTYPE svg PUBLIC "-//W3C//DTD SVG 20010904//EN"
 "http://www.w3.org/TR/2001/REC-SVG-20010904/DTD/svg10.dtd">
<svg version="1.0" xmlns="http://www.w3.org/2000/svg"
 width="500.000000pt" height="750.000000pt" viewBox="0 0 500.000000 750.000000"
 preserveAspectRatio="xMidYMid meet">

<g transform="translate(0.000000,750.000000) scale(0.100000,-0.100000)"
fill="#000000" stroke="none">
<path d="M2685 5270 c-3 -5 2 -10 11 -10 22 0 10 -13 -16 -17 -12 -2 -20 3
-20 12 0 31 -19 13 -25 -24 -5 -29 -10 -38 -21 -34 -9 3 -11 10 -6 17 5 7 2
18 -10 29 -18 17 -22 12 -19 -25 2 -21 -19 -34 -29 -18 -5 8 -9 3 -14 -13 -6
-25 -10 -26 -65 -18 -3 1 0 6 7 13 17 17 15 29 -3 21 -9 -3 -13 -8 -10 -11 3
-3 -3 -15 -14 -26 -10 -12 -21 -30 -23 -41 -4 -24 -59 -47 -65 -27 -3 6 -14
11 -26 11 -19 -1 -19 -2 -4 -6 17 -4 16 -8 -9 -34 -15 -15 -32 -25 -37 -22 -6
4 -8 0 -4 -9 9 -25 -2 -28 -39 -12 -19 8 -39 12 -43 9 -5 -2 -16 6 -25 20 -12
17 -26 25 -47 25 -17 0 -32 6 -35 15 -5 12 -10 13 -20 4 -8 -6 -26 -8 -44 -4
-23 5 -30 12 -30 31 0 14 -4 22 -10 19 -5 -3 -10 -15 -10 -26 0 -10 -5 -19
-11 -19 -5 0 -8 4 -5 8 3 5 -6 15 -19 22 -14 7 -25 20 -25 28 0 12 -3 12 -16
1 -14 -11 -18 -11 -29 4 -15 21 -25 22 -25 2 0 -9 -7 -18 -15 -21 -8 -4 -15
-10 -15 -16 0 -5 -7 -16 -15 -24 -12 -13 -17 -12 -35 6 -25 25 -30 25 -30 0 0
-14 -6 -20 -17 -18 -14 2 -17 -3 -15 -21 2 -20 -1 -22 -20 -18 -28 8 -47 -8
-41 -34 4 -15 2 -18 -11 -13 -10 4 -16 1 -16 -9 0 -8 -5 -17 -10 -19 -6 -2
-15 -32 -21 -66 -10 -63 -15 -73 -54 -115 -12 -12 -32 -43 -45 -69 -13 -26
-28 -44 -33 -41 -4 2 -5 -7 -1 -21 4 -19 2 -28 -10 -32 -11 -4 -14 -13 -10
-29 6 -26 -21 -42 -42 -24 -9 8 -14 8 -14 1 0 -6 -7 -18 -16 -26 -9 -9 -11
-16 -4 -16 6 0 8 -5 5 -10 -9 -15 4 -50 20 -50 7 0 16 6 18 13 3 7 6 8 6 1 1
-14 -49 -71 -68 -76 -9 -3 3 -18 35 -43 62 -50 105 -94 122 -123 27 -48 9 -42
-48 16 -33 34 -60 66 -60 71 0 5 -9 13 -20 16 -11 4 -32 17 -45 31 -13 13 -30
24 -37 24 -7 0 1 -11 17 -25 30 -24 30 -25 8 -31 -13 -3 -23 -11 -23 -16 0 -6
-8 -4 -17 3 -16 13 -17 12 -5 -3 9 -11 10 -18 2 -23 -17 -10 -41 15 -35 36 4
11 2 19 -3 19 -15 0 -92 -76 -93 -91 -1 -8 -2 -18 -3 -24 -1 -13 -36 -63 -63
-94 -13 -13 -23 -34 -23 -47 0 -29 26 -55 47 -47 11 4 14 3 9 -6 -5 -7 -14
-10 -21 -7 -7 2 -18 -1 -24 -7 -8 -8 -11 -8 -11 1 0 20 -14 13 -27 -14 -14
-30 -6 -57 14 -50 8 3 18 6 23 6 4 0 10 9 13 21 6 21 6 21 39 -4 33 -25 70
-37 121 -42 42 -4 52 -19 23 -33 -19 -9 -27 -8 -36 4 -17 19 -50 18 -50 -2 0
-11 -5 -14 -16 -10 -9 3 -24 6 -35 6 -10 0 -19 5 -19 11 0 6 8 8 19 4 11 -3
22 -1 26 5 3 6 -3 10 -14 10 -12 0 -21 5 -21 10 0 6 -6 10 -13 10 -8 0 -14
-12 -14 -29 0 -23 7 -33 28 -41 18 -8 26 -17 22 -27 -3 -8 -12 -12 -19 -9 -8
3 -14 1 -14 -4 0 -6 5 -10 11 -10 6 0 9 -7 5 -15 -3 -9 0 -15 9 -15 21 0 104
-53 105 -67 0 -8 -12 -13 -30 -13 -16 0 -30 5 -30 11 0 7 -10 20 -21 30 -22
19 -22 18 -36 -8 -7 -15 -12 -32 -9 -39 2 -6 0 -16 -6 -22 -7 -7 -4 -14 11
-24 23 -14 27 -38 9 -56 -9 -9 -7 -13 5 -18 23 -8 36 3 30 26 -5 17 0 20 30
20 20 0 39 4 42 10 7 12 174 65 181 57 3 -3 -8 -18 -24 -33 -17 -16 -33 -40
-37 -53 -6 -21 -5 -23 11 -17 23 9 21 9 62 7 25 -1 32 -5 32 -22 0 -11 -5 -17
-10 -14 -13 8 -80 -16 -81 -30 -1 -5 -2 -26 -3 -46 -1 -30 2 -35 18 -31 11 3
22 -2 28 -12 18 -33 36 -18 33 28 -2 24 -5 49 -9 54 -3 5 3 12 14 15 13 3 20
14 20 29 0 12 3 34 7 47 5 20 3 23 -10 18 -11 -4 -17 -1 -17 8 0 20 29 19 36
0 5 -12 10 -13 20 -4 11 9 14 9 14 0 0 -14 41 -5 51 11 4 7 9 6 13 -1 8 -12
46 17 46 36 0 6 5 15 11 19 8 4 9 0 4 -15 -4 -14 -2 -23 8 -27 24 -9 74 23 81
51 4 15 13 25 24 25 13 0 14 -2 3 -9 -7 -5 -10 -14 -6 -21 5 -8 16 -2 36 19
29 33 55 42 45 16 -3 -9 0 -15 10 -15 12 0 15 6 10 26 -6 22 -4 25 9 20 9 -3
26 1 38 9 12 8 27 15 34 15 6 0 24 5 39 10 24 10 26 12 12 26 -11 12 -21 13
-42 4 -15 -5 -42 -10 -60 -10 -18 0 -44 -8 -57 -19 -13 -10 -30 -16 -37 -13
-7 2 -16 -5 -19 -17 -3 -12 -9 -21 -13 -21 -5 0 -16 -3 -26 -7 -15 -5 -16 -2
-11 25 4 20 2 32 -6 35 -7 3 2 8 18 12 17 4 39 15 50 25 11 9 28 20 38 23 11
4 17 17 17 36 l0 30 88 -2 c64 -1 96 3 121 16 19 9 47 17 63 17 45 0 95 26
112 58 10 20 25 31 48 36 26 5 30 9 18 16 -13 9 -13 11 0 20 20 13 44 12 58
-2 16 -16 58 7 66 35 3 14 10 18 22 13 14 -5 15 -4 5 8 -8 10 -9 16 -1 21 5 3
13 -1 16 -9 3 -9 17 -16 30 -16 21 0 23 2 12 19 -9 15 -7 23 10 42 12 12 22
29 22 37 0 11 5 9 19 -7 17 -19 19 -20 32 -4 10 12 11 17 2 20 -7 2 -10 10 -7
18 9 23 -35 5 -53 -21 -19 -30 -38 -32 -22 -3 10 20 9 21 -17 14 -16 -4 -48
-11 -72 -15 -24 -4 -48 -12 -54 -18 -11 -11 -38 -5 -38 9 0 5 7 9 15 9 8 0 15
4 15 8 0 10 -36 9 -46 -1 -4 -4 -13 1 -20 11 -12 16 -13 16 -14 -3 0 -12 5
-26 11 -32 13 -13 4 -33 -17 -33 -8 0 -14 -4 -14 -9 0 -5 -5 -22 -10 -36 -9
-23 -13 -25 -25 -15 -12 10 -15 9 -15 -4 0 -9 -4 -16 -10 -16 -5 0 -10 7 -10
16 0 9 -6 14 -12 11 -7 -3 -21 -8 -30 -12 -13 -5 -18 -2 -18 8 0 8 6 18 13 20
8 4 7 6 -4 6 -9 1 -20 11 -26 24 -20 40 -34 84 -32 93 7 24 -16 89 -66 188
-30 60 -52 112 -49 115 9 9 40 -38 101 -156 31 -61 60 -107 64 -101 4 6 10 2
14 -11 8 -25 25 -28 25 -4 0 9 -9 44 -19 77 -69 219 -68 216 -55 227 10 8 15
4 20 -18 3 -15 25 -84 47 -152 31 -93 43 -118 47 -100 4 16 8 20 14 11 9 -15
26 -16 26 -1 0 5 -11 34 -24 62 -13 29 -31 79 -41 112 -9 33 -24 78 -31 100
-18 52 -18 55 6 55 15 0 20 -7 20 -26 0 -14 7 -49 16 -77 20 -67 54 -178 59
-195 4 -10 8 -10 25 0 24 16 26 26 3 24 -14 -1 -17 15 -19 134 -1 74 -5 159
-9 188 -8 63 9 72 19 10 3 -24 14 -76 24 -115 16 -69 19 -73 45 -73 15 0 27 5
27 10 0 22 32 22 56 0 l24 -23 0 29 c0 33 14 61 23 47 9 -15 11 -155 2 -185
-7 -25 -4 -29 26 -42 29 -13 34 -13 37 0 5 19 28 18 36 -2 3 -8 14 -14 23 -12
10 1 24 -1 31 -6 8 -5 20 1 33 16 16 18 18 32 14 68 -3 25 -8 97 -11 160 -7
142 9 140 31 -3 8 -54 21 -110 30 -127 8 -16 15 -36 15 -45 0 -8 4 -15 9 -15
10 0 21 34 21 64 0 11 10 30 22 43 22 24 24 33 44 236 4 37 11 67 15 67 17 0
16 -148 -2 -279 -12 -85 -12 -85 -30 -62 l-18 22 -7 -26 c-8 -33 16 -88 26
-59 6 17 7 17 13 0 9 -23 27 -11 27 19 0 13 5 27 11 30 11 8 32 52 33 74 1 8
6 16 11 18 13 4 7 -148 -7 -165 -6 -7 -9 -15 -6 -18 9 -9 48 85 48 115 0 17 4
32 8 35 5 3 8 31 6 62 -1 31 2 68 7 81 5 15 5 41 -2 71 -5 25 -7 58 -3 72 6
23 7 24 14 5 5 -11 9 -39 9 -62 1 -24 5 -43 9 -43 5 0 17 24 27 54 10 30 23
52 28 49 10 -6 6 -29 -17 -89 -8 -23 -19 -92 -25 -155 -5 -63 -15 -134 -22
-159 -6 -25 -12 -59 -13 -77 -2 -39 -11 -49 -54 -58 -33 -7 -33 -7 -30 27 3
29 0 33 -22 36 -14 2 -33 11 -42 19 -16 15 -18 15 -18 -2 0 -10 3 -16 6 -12 8
8 33 -16 27 -26 -3 -4 -11 -3 -19 4 -11 9 -15 8 -20 -4 -3 -8 -17 -18 -31 -22
-17 -4 -23 -11 -19 -21 3 -9 6 -20 6 -24 0 -5 16 -7 35 -5 46 6 44 -1 -5 -21
-22 -9 -40 -20 -40 -25 0 -16 41 -30 95 -33 41 -2 61 -8 80 -26 21 -20 29 -21
62 -13 21 5 70 6 108 3 56 -4 76 -1 101 13 18 10 36 17 40 16 5 -1 22 3 37 9
33 14 47 9 47 -19 0 -14 -7 -19 -27 -19 -59 0 -102 -12 -96 -26 4 -10 -5 -14
-33 -14 -42 0 -107 -18 -139 -38 -11 -7 -45 -25 -75 -40 -48 -24 -55 -31 -55
-57 0 -22 6 -33 23 -40 26 -11 27 -18 7 -35 -16 -13 -20 -36 -7 -42 19 -8 52
-70 52 -98 0 -36 -20 -40 -50 -10 -19 19 -70 45 -70 35 0 -2 11 -21 25 -41 30
-44 33 -64 5 -39 -16 14 -23 16 -32 7 -7 -7 -22 -12 -35 -12 -16 0 -23 -6 -23
-20 0 -11 -4 -20 -10 -20 -5 0 -10 8 -10 19 0 10 -7 24 -15 31 -13 10 -15 9
-15 -8 0 -12 -4 -24 -10 -27 -5 -3 -7 -19 -3 -35 3 -19 1 -30 -6 -30 -16 0
-14 -33 8 -135 11 -50 22 -115 26 -145 6 -49 5 -53 -8 -40 -12 11 -77 219 -77
244 0 2 -14 9 -31 15 -20 7 -35 21 -42 41 -6 16 -15 30 -20 30 -5 0 -7 -7 -3
-15 7 -20 -3 -45 -17 -39 -7 2 -17 -4 -23 -13 -12 -21 2 -103 18 -103 6 0 8 9
3 23 -4 12 -9 36 -12 52 -4 27 -3 28 10 12 13 -15 16 -15 27 -2 21 25 32 17
28 -20 -2 -22 1 -36 9 -39 10 -4 10 -11 1 -31 -6 -14 -15 -25 -19 -25 -4 0 -9
-15 -11 -32 -4 -33 -8 -30 -23 18 -13 39 -13 3 -1 -51 8 -33 14 -67 15 -75 0
-8 3 -49 7 -90 4 -50 3 -72 -4 -65 -13 13 -35 83 -37 115 -2 44 -15 123 -30
175 -8 28 -20 78 -26 113 -6 34 -16 62 -21 62 -5 0 -7 -9 -3 -20 20 -63 15
-113 -10 -104 -8 3 -17 19 -20 35 -4 16 -11 29 -16 29 -5 0 -9 7 -9 15 0 20
17 19 29 -2 10 -16 10 -16 11 3 0 22 -18 44 -37 44 -34 0 -58 -124 -31 -157 7
-9 7 -17 0 -26 -13 -16 0 -169 15 -174 6 -2 8 -23 5 -52 -3 -40 23 -180 45
-238 3 -7 1 -13 -5 -13 -5 0 -16 24 -22 53 -7 28 -23 88 -35 132 -13 44 -26
124 -30 178 -6 79 -11 102 -26 115 -10 9 -19 23 -19 30 0 8 -6 12 -14 9 -8 -3
-19 0 -24 6 -13 15 7 108 26 122 9 7 10 17 4 35 -9 23 -9 23 -14 2 -4 -12 -13
-22 -22 -22 -27 0 -46 -63 -37 -120 8 -48 0 -73 -15 -49 -4 8 -9 7 -15 -2 -7
-11 -9 -11 -9 -1 0 10 -5 10 -22 1 -16 -9 -23 -9 -26 0 -2 6 -17 11 -32 11
-21 0 -32 7 -42 27 -18 37 -38 41 -38 8 0 -15 -4 -24 -10 -20 -5 3 -10 25 -9
48 0 23 3 36 6 30 10 -27 23 -11 20 25 -2 20 -7 36 -11 35 -3 -2 -9 -3 -13 -3
-12 0 -33 -51 -27 -62 6 -10 -14 -68 -24 -68 -10 0 -31 35 -32 53 0 10 -4 16
-9 13 -4 -3 -21 -2 -37 3 -33 9 -57 4 -48 -11 11 -17 -6 -76 -24 -83 -9 -3
-18 -1 -20 4 -5 16 -22 13 -22 -4 0 -9 -6 -12 -15 -9 -19 8 -20 -18 -3 -81 7
-28 17 -44 24 -41 7 3 11 -2 9 -12 -2 -9 -4 -24 -4 -32 -1 -13 -2 -13 -12 0
-7 11 -9 -1 -4 -42 6 -50 4 -57 -9 -52 -9 4 -20 29 -27 64 -13 65 -16 72 -44
88 -17 10 -17 11 -3 12 15 0 17 8 11 68 -3 37 -10 72 -15 79 -5 7 -5 14 2 18
19 11 10 33 -15 37 -33 7 -43 -8 -43 -61 -1 -40 -15 -72 -26 -60 -3 3 -8 32
-11 64 -5 49 -12 66 -38 93 -17 17 -35 32 -39 32 -4 0 -8 -15 -8 -32 0 -21 3
-28 8 -20 13 19 66 -3 58 -24 -3 -9 -6 -18 -6 -20 0 -2 -13 -4 -30 -4 -34 0
-40 -22 -16 -55 8 -12 11 -34 8 -62 -4 -37 -2 -43 14 -43 16 0 16 -2 4 -10
-11 -7 -12 -13 -3 -32 16 -32 25 -77 18 -88 -8 -12 -35 -1 -35 15 0 6 -9 20
-20 30 -11 10 -20 14 -20 10 0 -4 -12 5 -27 21 -27 29 -28 29 -31 7 -4 -25
-42 -33 -42 -9 0 25 -31 27 -51 4 -10 -13 -18 -29 -19 -35 0 -7 -4 -13 -10
-13 -5 0 -10 -4 -10 -9 0 -14 45 -61 59 -61 6 0 11 -6 11 -14 0 -16 13 -22 82
-34 39 -8 48 -7 50 6 3 14 5 14 20 -1 15 -15 18 -15 32 -2 8 8 19 15 24 15 5
0 13 10 17 23 4 14 8 17 12 9 3 -7 -2 -21 -11 -31 -22 -24 -20 -51 3 -51 11 0
23 5 26 10 3 6 13 10 22 10 10 0 13 -5 8 -17 -13 -32 -10 -48 7 -48 20 0 37
-15 17 -15 -10 -1 -9 -4 4 -11 13 -8 24 -5 46 10 21 15 31 17 39 9 9 -9 12 -8
12 4 0 9 5 20 11 24 18 11 29 -18 22 -60 -5 -30 -3 -37 7 -31 12 8 100 -76
100 -96 0 -5 5 -9 10 -9 6 0 10 11 10 25 0 26 15 34 22 13 4 -10 11 -9 34 2
16 8 32 16 37 18 4 2 7 -14 7 -37 0 -41 16 -63 30 -41 4 7 13 9 20 5 7 -4 16
-2 20 5 5 8 15 10 26 5 11 -5 22 -8 26 -7 4 1 5 -5 2 -13 -4 -8 -12 -15 -19
-15 -23 0 -5 -34 28 -56 20 -13 45 -20 67 -19 19 2 40 -1 46 -6 21 -17 137 -5
189 21 72 35 213 90 231 90 11 0 29 7 40 15 10 8 33 15 49 15 17 0 50 6 75 14
25 7 83 14 129 15 47 1 91 7 99 13 7 6 25 13 39 14 16 2 37 16 51 34 16 20 32
30 51 30 25 0 27 3 23 30 -3 19 0 30 8 30 7 0 10 -8 7 -20 -8 -31 6 -24 26 13
16 30 17 36 2 77 -8 25 -23 51 -32 58 -10 7 -12 12 -5 12 7 0 12 16 12 43 0
41 1 41 13 17 7 -14 19 -54 27 -90 7 -36 16 -68 19 -72 4 -4 17 -1 30 8 17 12
21 22 17 40 -5 18 -3 22 8 18 23 -9 66 25 66 53 0 15 5 23 12 21 18 -6 41 19
34 37 -8 21 23 75 43 75 34 0 72 24 67 43 -2 10 4 26 15 35 20 18 26 42 9 42
-16 0 -12 28 6 38 10 5 18 27 21 55 4 32 9 44 19 40 8 -3 16 5 20 21 3 14 12
26 20 26 7 0 25 11 40 25 l27 25 -32 29 c-19 17 -31 39 -31 54 0 14 -7 27 -15
31 -8 3 -15 17 -15 31 0 14 -6 28 -12 30 -16 6 -91 -20 -95 -32 -2 -5 10 -42
27 -82 16 -41 30 -80 30 -87 0 -21 -18 -17 -25 6 -3 11 -11 20 -16 20 -5 0 -9
11 -9 24 0 13 -18 48 -40 77 -23 30 -43 64 -46 76 -4 14 -11 20 -21 16 -9 -4
-16 2 -20 16 -3 11 -12 21 -20 21 -10 0 -13 -6 -9 -16 4 -9 -1 -28 -10 -42
-10 -15 -11 -21 -3 -17 9 6 11 4 6 -7 -3 -9 12 -52 34 -97 21 -45 39 -87 39
-95 0 -7 6 -29 14 -48 18 -42 33 -148 19 -133 -9 10 -29 57 -60 140 -30 80
-63 146 -78 151 -8 4 -15 12 -15 18 0 30 -95 196 -112 196 -17 0 -7 -42 11
-47 22 -6 33 -34 20 -54 -5 -8 -9 -10 -9 -5 0 5 -7 3 -15 -4 -8 -6 -18 -9 -24
-6 -12 8 -22 -20 -15 -39 4 -8 1 -15 -4 -15 -6 0 -14 9 -17 21 -4 11 -9 18
-12 15 -3 -3 -19 4 -35 16 -39 27 -59 11 -33 -28 13 -21 19 -24 26 -13 7 12 9
11 9 -1 0 -9 -5 -21 -12 -28 -7 -7 -13 -22 -13 -34 0 -14 -7 -22 -22 -24 -13
-2 -23 0 -23 5 0 4 -12 25 -26 47 -15 22 -26 53 -27 73 -1 44 -12 53 -56 44
-26 -4 -32 -3 -29 8 3 8 10 13 16 12 11 -3 11 15 -1 35 -5 7 -2 14 7 18 22 9
36 -4 36 -32 0 -20 4 -24 19 -19 12 3 21 0 25 -10 6 -16 36 -21 36 -6 0 5 -7
14 -15 21 -10 8 -14 26 -13 49 l3 36 58 -3 c31 -2 55 -8 51 -13 -3 -5 0 -17 6
-26 10 -16 10 -15 5 3 -8 29 20 57 49 48 11 -4 23 -11 24 -15 7 -17 23 -9 32
17 10 25 13 26 75 22 59 -4 65 -2 59 14 -6 19 10 25 21 8 5 -8 11 -7 20 0 8 7
19 9 24 6 5 -4 12 -2 16 4 3 5 18 10 33 10 l27 1 -27 24 c-24 21 -37 23 -109
23 -91 0 -113 12 -79 47 17 16 24 18 39 8 16 -10 27 -8 59 7 53 26 103 13 119
-30 10 -27 14 -29 45 -24 18 4 51 13 73 20 22 8 54 14 72 14 32 0 53 15 31 22
-15 5 -14 81 1 86 9 3 9 8 0 18 -15 18 -33 18 -49 -1 -7 -8 -16 -12 -21 -9
-12 7 -11 51 1 59 30 19 -15 59 -64 57 -10 -1 -20 8 -23 19 -6 22 -16 24 -32
5 -9 -10 -8 -16 4 -26 21 -17 19 -37 -5 -43 -15 -4 -22 1 -26 19 -7 27 -14 30
-31 13 -7 -7 -19 -9 -29 -5 -15 6 -13 11 14 39 36 37 39 47 17 47 -8 0 -15 5
-15 12 0 6 -9 2 -20 -10 -23 -25 -33 -27 -62 -11 -25 13 -66 -2 -99 -37 -24
-26 -59 -32 -59 -11 0 7 14 26 30 42 23 22 30 38 30 67 0 23 12 62 29 96 16
31 32 72 36 90 10 47 35 43 28 -5 -3 -21 -10 -46 -15 -56 -5 -10 -7 -21 -4
-24 3 -4 1 -11 -4 -18 -14 -17 -39 -92 -33 -98 3 -3 19 3 36 14 18 10 39 19
48 19 22 0 61 44 54 61 -3 9 11 22 42 39 27 13 52 30 56 37 4 7 14 13 21 13 8
0 20 10 28 22 8 12 19 18 26 14 16 -10 15 -26 -2 -26 -7 0 -19 -7 -26 -15 -11
-13 -8 -15 14 -15 15 0 26 6 26 13 0 8 10 18 23 24 l22 10 -22 7 c-13 4 -23
12 -23 17 0 5 -5 9 -10 9 -18 0 -70 43 -63 53 3 5 -4 4 -15 -2 -31 -16 -47
-15 -33 3 10 12 8 17 -11 27 -22 12 -22 11 -8 -6 13 -16 13 -18 0 -12 -8 4
-23 10 -32 13 -10 4 -18 11 -18 16 0 5 -9 6 -20 3 -11 -4 -20 -2 -20 4 0 6 -9
15 -20 21 -16 9 -19 8 -13 -7 5 -12 2 -15 -10 -10 -9 3 -17 2 -17 -3 0 -6 -7
-10 -15 -10 -8 0 -15 7 -15 15 0 8 5 15 10 15 6 0 10 4 10 9 0 5 -10 7 -22 3
-16 -4 -19 -2 -13 9 7 11 6 12 -7 2 -8 -7 -18 -10 -21 -6 -4 3 -13 0 -21 -6
-23 -19 -71 7 -71 38 0 14 -7 26 -15 29 -13 3 -13 2 0 -7 13 -10 13 -11 0 -12
-8 -1 -18 -1 -22 0 -5 0 -8 -3 -8 -9 0 -5 -5 -10 -11 -10 -6 0 -9 9 -6 19 3
11 -1 22 -8 25 -9 3 -12 -3 -10 -22 1 -14 -4 -32 -12 -40 -17 -17 -18 -16 -27
21 -5 21 -4 27 5 21 9 -5 10 0 5 19 -3 14 -1 27 4 29 7 2 5 11 -4 23 -14 20
-15 20 -29 1 -10 -14 -21 -17 -41 -12 -26 7 -27 5 -21 -23 3 -17 2 -32 -4 -36
-6 -3 -11 -3 -12 2 -3 36 -8 61 -14 82 -8 22 -6 23 25 16 25 -5 31 -4 28 6 -3
8 -15 13 -27 12 -17 -2 -21 3 -21 25 0 43 -50 75 -76 49 -4 -4 -15 3 -26 15
l-19 22 -17 -25 c-9 -13 -17 -27 -17 -31 0 -3 -4 -10 -9 -15 -5 -5 -6 8 -3 30
3 22 2 35 -4 32 -5 -4 -9 -1 -9 5 0 6 -5 8 -10 5 -6 -4 -17 -2 -25 5 -10 9
-16 7 -25 -7 -11 -17 -11 -17 -6 0 3 10 6 21 6 23 0 2 7 4 15 4 9 0 12 6 8 17
-6 14 -8 13 -24 -6 l-18 -22 -11 21 c-6 11 -15 18 -21 15 -5 -4 -9 -1 -9 4 0
14 -27 14 -35 1z m-75 -99 c0 -6 -4 -13 -10 -16 -5 -3 -10 1 -10 9 0 9 5 16
10 16 6 0 10 -4 10 -9z m40 -31 c0 -5 -4 -10 -9 -10 -6 0 -13 5 -16 10 -3 6 1
10 9 10 9 0 16 -4 16 -10z m-375 -150 c-3 -5 -10 -10 -16 -10 -5 0 -9 5 -9 10
0 6 7 10 16 10 8 0 12 -4 9 -10z m825 -76 c0 -8 -5 -12 -10 -9 -6 4 -8 11 -5
16 9 14 15 11 15 -7z m-60 -9 c0 -8 -4 -15 -10 -15 -5 0 -10 7 -10 15 0 8 5
15 10 15 6 0 10 -7 10 -15z m140 5 c0 -5 -4 -10 -10 -10 -5 0 -10 5 -10 10 0
6 5 10 10 10 6 0 10 -4 10 -10z m120 -9 c0 -6 -4 -13 -10 -16 -5 -3 -10 1 -10
9 0 9 5 16 10 16 6 0 10 -4 10 -9z m-170 -87 c-7 -42 -16 -87 -20 -98 -4 -12
-13 -47 -20 -78 -11 -55 -30 -80 -30 -39 0 11 -5 21 -12 23 -8 3 -7 18 6 54
10 27 24 72 32 99 7 28 18 59 23 70 5 11 12 29 15 39 14 42 17 3 6 -70z m170
36 c0 -5 -7 -10 -15 -10 -8 0 -15 5 -15 10 0 6 7 10 15 10 8 0 15 -4 15 -10z
m70 -5 c0 -8 -7 -15 -15 -15 -9 0 -12 6 -9 15 4 8 10 15 15 15 5 0 9 -7 9 -15z
m-171 -57 c-7 -12 -13 -50 -14 -83 0 -33 -4 -66 -8 -72 -4 -6 -10 -39 -13 -72
-6 -51 -14 -71 -51 -121 -53 -73 -81 -80 -79 -20 0 22 6 42 13 45 7 2 13 17
13 33 0 16 7 36 17 43 25 21 73 130 73 166 0 17 5 35 10 38 6 4 9 12 8 18 -3
16 35 73 40 59 2 -6 -2 -21 -9 -34z m281 32 c0 -5 -7 -10 -16 -10 -8 0 -12 5
-9 10 3 6 10 10 16 10 5 0 9 -4 9 -10z m-149 -77 c-11 -31 -17 -61 -12 -67 4
-6 1 -22 -6 -36 l-14 -25 4 33 c4 36 -7 42 -23 12 -15 -28 -30 -25 -30 5 0 14
4 25 10 25 9 0 19 16 69 109 23 42 24 6 2 -56z m-972 40 c0 -10 -4 -27 -9 -38
-7 -16 -9 -13 -9 18 -1 20 4 37 9 37 6 0 10 -8 9 -17z m91 -29 c0 -19 -4 -34
-10 -34 -5 0 -10 18 -10 41 0 24 4 38 10 34 6 -3 10 -22 10 -41z m1110 1 c-27
-28 -40 -32 -40 -10 0 14 51 48 59 39 3 -2 -6 -15 -19 -29z m-1040 -11 c12
-36 7 -56 -9 -38 -5 5 -12 24 -16 42 -9 44 10 42 25 -4z m64 -66 c17 -83 21
-158 8 -158 -8 0 -32 131 -39 215 -5 70 11 39 31 -57z m909 82 c-3 -11 -9 -20
-14 -20 -10 0 -12 24 -2 33 13 13 21 7 16 -13z m-1934 1 c9 -6 5 -8 -13 -8
-14 0 -26 3 -26 8 0 11 21 11 39 0z m1197 -52 c-3 -17 -6 -38 -6 -45 0 -8 -4
-14 -9 -14 -8 0 -9 33 -2 83 1 4 6 7 12 7 8 0 9 -11 5 -31z m-877 -81 c18 -57
35 -110 38 -118 4 -10 2 -12 -5 -5 -13 13 -70 154 -78 195 -4 17 -2 30 3 30 5
0 24 -46 42 -102z m-91 58 c3 -12 -1 -17 -10 -14 -7 3 -15 13 -16 22 -3 12 1
17 10 14 7 -3 15 -13 16 -22z m232 -45 c-1 -13 -4 -12 -15 3 -8 11 -15 27 -15
35 1 13 4 12 15 -3 8 -11 15 -27 15 -35z m-311 -22 c12 -16 29 -48 37 -71 17
-48 17 -48 5 -48 -6 0 -24 27 -42 60 -17 33 -36 60 -40 60 -5 0 -9 9 -9 20 0
26 21 17 49 -21z m-84 -17 c0 -18 -20 -15 -23 4 -3 10 1 15 10 12 7 -3 13 -10
13 -16z m201 -39 c9 -32 34 -91 56 -131 40 -74 43 -102 9 -66 -54 54 -120 254
-86 254 3 0 12 -26 21 -57z m1218 39 c3 -5 -1 -9 -9 -9 -8 0 -15 4 -15 9 0 4
4 8 9 8 6 0 12 -4 15 -8z m246 -27 c-7 -9 -15 -13 -17 -11 -7 7 7 26 19 26 6
0 6 -6 -2 -15z m-744 -60 l-11 -30 -3 33 c-2 19 0 41 3 50 13 31 23 -20 11
-53z m-886 4 c0 -17 11 -49 24 -72 14 -23 32 -64 41 -91 10 -27 30 -63 46 -79
26 -25 30 -27 36 -11 4 10 2 19 -5 22 -7 2 -12 8 -12 14 0 5 13 0 29 -11 37
-26 55 -26 67 -1 9 20 10 19 21 -10 10 -27 9 -30 -7 -30 -10 0 -20 -6 -23 -12
-3 -10 -7 -10 -20 1 -15 12 -17 11 -17 -11 0 -13 8 -32 18 -41 40 -40 105 -87
117 -87 15 0 31 -38 20 -48 -3 -3 -16 0 -28 8 -12 7 -51 28 -87 46 -43 21 -87
54 -129 98 -56 59 -64 71 -63 103 2 47 -69 194 -100 208 -12 6 -23 15 -25 22
-6 18 39 2 59 -21 17 -21 17 -21 18 12 0 20 4 31 10 27 6 -3 10 -20 10 -36z
m-120 -58 c22 -33 40 -62 40 -65 0 -12 93 -141 101 -139 4 2 6 -10 5 -25 -2
-16 -10 -28 -20 -30 -11 -3 -16 -11 -14 -25 2 -17 15 -26 51 -36 49 -15 61
-35 27 -46 -23 -7 -60 2 -60 15 0 11 -73 50 -94 50 -8 0 -16 -6 -19 -12 -3 -9
-9 -7 -19 6 -15 19 -16 19 -37 -1 -35 -32 -25 -73 22 -96 48 -24 39 -38 -21
-30 -68 9 -124 49 -138 100 -6 24 -54 61 -54 43 0 -6 -8 -9 -17 -6 -52 15 -73
17 -73 8 0 -6 17 -14 38 -17 45 -7 64 -17 70 -35 4 -10 -2 -11 -19 -6 -13 4
-42 12 -64 17 -72 17 -73 18 -41 44 23 18 34 21 53 14 33 -12 35 -12 24 10
-14 26 -4 31 27 15 15 -8 32 -14 37 -14 6 0 28 -21 49 -46 21 -25 40 -43 43
-41 8 9 -59 129 -76 135 -9 3 -19 10 -24 16 -4 6 -5 -1 -3 -16 5 -32 0 -35
-26 -12 -17 16 -17 18 0 30 16 13 16 15 -2 29 -34 26 -11 26 28 0 20 -14 40
-25 45 -25 13 0 40 -34 64 -80 21 -41 42 -55 42 -27 0 22 38 46 57 36 11 -6
19 -5 23 1 8 13 -47 120 -91 179 -53 69 -41 84 17 22 27 -30 55 -66 63 -80 32
-63 52 -91 64 -91 21 0 3 48 -46 125 -25 38 -49 73 -54 76 -5 3 -11 19 -14 35
-2 16 -7 35 -9 42 -9 26 6 10 45 -47z m1490 30 c0 -6 -4 -13 -10 -16 -5 -3
-10 1 -10 9 0 9 5 16 10 16 6 0 10 -4 10 -9z m-1263 -33 c-3 -8 -6 -5 -6 6 -1
11 2 17 5 13 3 -3 4 -12 1 -19z m223 -166 c0 -19 -28 -45 -40 -37 -5 3 -10 13
-10 21 0 8 -4 14 -10 14 -5 0 -2 9 7 19 13 16 19 17 34 8 11 -7 19 -18 19 -25z
m70 -18 c0 -14 -4 -23 -10 -19 -5 3 -10 15 -10 26 0 10 5 19 10 19 6 0 10 -12
10 -26z m-30 -25 c0 -4 7 -15 16 -23 14 -15 14 -17 -2 -23 -9 -3 -25 -1 -34 5
-15 9 -17 8 -13 -7 4 -15 -1 -17 -33 -15 -26 3 -41 -2 -50 -14 -11 -15 -13
-14 -19 11 -9 35 -6 38 39 40 20 1 36 6 36 10 0 5 5 5 10 2 6 -3 10 0 10 7 0
8 9 14 20 14 11 0 20 -3 20 -7z m-810 -39 c0 -5 -4 -10 -10 -10 -5 0 -10 5
-10 10 0 6 5 10 10 10 6 0 10 -4 10 -10z m775 -59 c7 -12 -12 -24 -25 -16 -11
7 -4 25 10 25 5 0 11 -4 15 -9z m145 -17 c0 -2 -13 -4 -30 -4 -16 0 -30 4 -30
8 0 5 14 7 30 4 17 -2 30 -6 30 -8z m94 10 c9 -3 16 -11 16 -16 0 -7 -4 -7
-12 0 -7 5 -22 12 -33 15 -15 3 -16 5 -3 6 9 0 23 -2 32 -5z m-1034 -34 c0 -5
-4 -10 -10 -10 -5 0 -10 5 -10 10 0 6 5 10 10 10 6 0 10 -4 10 -10z m837 -6
c2 -5 -6 -10 -17 -11 -20 -2 -26 8 -13 21 9 8 26 3 30 -10z m-887 -12 c0 -13
-12 -22 -22 -16 -10 6 -1 24 13 24 5 0 9 -4 9 -8z m70 -28 c0 -11 -5 -14 -16
-10 -9 3 -18 6 -20 6 -3 0 -2 5 1 10 10 16 35 12 35 -6z m35 -4 c3 -5 1 -10
-4 -10 -6 0 -11 5 -11 10 0 6 2 10 4 10 3 0 8 -4 11 -10z m-69 -22 c18 -21 18
-21 0 -15 -10 4 -25 2 -32 -4 -11 -9 -14 -7 -14 9 0 11 -6 23 -12 25 -7 3 -1
6 13 6 15 1 34 -8 45 -21z m127 2 c12 -12 22 -34 23 -51 1 -16 9 -38 18 -48
21 -23 20 -43 -1 -39 -21 3 -88 132 -78 148 9 14 13 13 38 -10z m-95 -174 c2
-28 -1 -36 -14 -36 -11 0 -14 5 -10 16 3 9 6 27 6 40 0 38 15 20 18 -20z m522
34 c0 -5 -4 -10 -10 -10 -5 0 -10 5 -10 10 0 6 5 10 10 10 6 0 10 -4 10 -10z
m-586 -35 c-6 -16 -24 -21 -24 -7 0 11 11 22 21 22 5 0 6 -7 3 -15z m121 -5
c3 -5 1 -10 -4 -10 -6 0 -11 5 -11 10 0 6 2 10 4 10 3 0 8 -4 11 -10z m1690
-10 c3 -5 1 -10 -4 -10 -6 0 -11 5 -11 10 0 6 2 10 4 10 3 0 8 -4 11 -10z
m-1345 -20 c0 -16 -5 -19 -24 -14 -17 4 -28 -1 -42 -18 -11 -14 -34 -30 -53
-36 -43 -15 -41 -15 -41 6 0 10 12 25 28 33 15 8 29 17 32 20 13 15 47 28 73
29 21 0 27 -5 27 -20z m2067 -26 c-9 -9 -28 6 -21 18 4 6 10 6 17 -1 6 -6 8
-13 4 -17z m-700 -96 c15 -24 28 -50 29 -58 1 -8 7 -31 13 -50 14 -43 14 -50
1 -50 -14 0 -60 95 -60 124 0 14 -4 27 -9 31 -8 5 -12 45 -4 45 2 0 15 -19 30
-42z m533 27 c0 -8 -4 -15 -9 -15 -13 0 -22 16 -14 24 11 11 23 6 23 -9z
m-629 -48 c25 -19 36 -50 29 -77 -7 -22 -8 -23 -15 -6 -5 11 -3 21 4 25 8 5 7
12 -4 27 -13 17 -14 17 -15 2 0 -39 -35 -28 -45 15 -6 22 -4 27 11 27 11 0 26
-6 35 -13z m739 -7 c0 -5 -5 -10 -11 -10 -5 0 -7 5 -4 10 3 6 8 10 11 10 2 0
4 -4 4 -10z m-203 -34 c-4 -9 -11 -16 -17 -16 -17 0 -24 31 -9 41 18 11 34 -5
26 -25z m-614 -68 c9 -29 19 -66 23 -83 4 -16 10 -34 14 -40 8 -10 33 -96 31
-105 -9 -41 -89 153 -98 238 -7 59 11 53 30 -10z m12 42 c3 -5 1 -10 -4 -10
-6 0 -11 5 -11 10 0 6 2 10 4 10 3 0 8 -4 11 -10z m-105 -26 c0 -8 -4 -12 -10
-9 -5 3 -10 10 -10 16 0 5 5 9 10 9 6 0 10 -7 10 -16z m-1330 -24 c0 -5 -2
-10 -4 -10 -3 0 -8 5 -11 10 -3 6 -1 10 4 10 6 0 11 -4 11 -10z m484 -52 c-9
-52 -13 -60 -26 -52 -8 5 -9 2 -5 -9 3 -10 2 -17 -3 -17 -13 0 -13 9 1 51 6
19 12 40 15 47 8 27 23 10 18 -20z m-236 -1 c2 -12 -1 -15 -12 -11 -19 7 -22
38 -3 32 6 -3 13 -12 15 -21z m765 -44 c-10 -26 -23 -12 -23 25 1 36 1 37 14
13 8 -14 12 -31 9 -38z m1137 17 c0 -5 -4 -10 -10 -10 -5 0 -10 5 -10 10 0 6
5 10 10 10 6 0 10 -4 10 -10z m-1565 -20 c-3 -5 -10 -10 -16 -10 -5 0 -9 5 -9
10 0 6 7 10 16 10 8 0 12 -4 9 -10z m275 -5 c0 -8 -4 -15 -10 -15 -5 0 -10 7
-10 15 0 8 5 15 10 15 6 0 10 -7 10 -15z m-610 1 c0 -3 -4 -8 -10 -11 -5 -3
-10 -1 -10 4 0 6 5 11 10 11 6 0 10 -2 10 -4z m247 -18 c-3 -8 -6 -5 -6 6 -1
11 2 17 5 13 3 -3 4 -12 1 -19z m1191 -15 c13 -42 9 -51 -13 -33 -16 13 -21
70 -7 70 5 0 14 -17 20 -37z m-1238 -38 c0 -8 -4 -15 -10 -15 -12 0 -30 33
-30 56 0 16 2 15 20 -4 11 -12 20 -28 20 -37z m-250 11 c0 -7 -8 -20 -17 -27
-15 -12 -16 -12 -10 4 4 10 7 23 7 28 0 5 5 9 10 9 6 0 10 -6 10 -14z m1820
-28 c0 -14 -18 -9 -24 8 -11 28 -6 39 9 20 8 -11 15 -23 15 -28z m-1258 -13
c-5 -26 -16 -32 -27 -15 -7 11 11 40 25 40 4 0 5 -11 2 -25z m-342 -31 c0 -14
-4 -22 -10 -19 -5 3 -10 17 -10 31 0 14 4 22 10 19 6 -3 10 -17 10 -31z m60 5
c0 -11 7 -22 15 -25 8 -4 15 -15 15 -25 0 -13 -5 -17 -17 -12 -13 5 -15 2 -11
-15 6 -21 -7 -40 -19 -29 -14 14 -20 80 -10 107 12 31 27 31 27 -1z m1230 -36
c0 -44 -5 -41 -14 10 -5 27 -4 37 3 32 6 -3 11 -22 11 -42z m340 16 c0 -5 -7
-9 -15 -9 -9 0 -15 9 -15 21 0 18 2 19 15 9 8 -7 15 -16 15 -21z m-1440 -32
c0 -33 -25 -12 -28 24 -2 32 -1 33 13 15 8 -11 15 -28 15 -39z m157 31 c6 -7
7 -38 4 -68 -7 -62 -16 -51 -27 30 -7 50 3 64 23 38z m-476 -71 c-16 -16 -19
-5 -7 33 l10 35 4 -29 c2 -16 -1 -33 -7 -39z m-44 16 c-3 -10 -5 -4 -5 12 0
17 2 24 5 18 2 -7 2 -21 0 -30z m-40 21 c-3 -3 -12 -4 -19 -1 -8 3 -5 6 6 6
11 1 17 -2 13 -5z m1157 -36 c4 -17 2 -28 -4 -28 -5 0 -10 9 -10 19 0 11 -3
28 -6 38 -5 12 -4 15 3 8 6 -5 13 -22 17 -37z m-1144 3 c0 -6 -4 -13 -10 -16
-5 -3 -10 1 -10 9 0 9 5 16 10 16 6 0 10 -4 10 -9z m1040 -11 c0 -5 -7 -10
-15 -10 -8 0 -15 5 -15 10 0 6 7 10 15 10 8 0 15 -4 15 -10z m247 -32 c-3 -8
-6 -5 -6 6 -1 11 2 17 5 13 3 -3 4 -12 1 -19z m-1277 -37 c0 -6 -4 -13 -10
-16 -5 -3 -10 1 -10 9 0 9 5 16 10 16 6 0 10 -4 10 -9z m1510 -33 c0 -4 -7 -8
-15 -8 -10 0 -15 10 -15 28 1 26 1 26 15 8 8 -11 15 -23 15 -28z m-937 -73 c8
-27 18 -58 22 -67 4 -11 3 -18 -4 -18 -6 0 -11 8 -11 18 0 10 -4 22 -8 28 -8
9 -32 83 -32 100 0 20 20 -16 33 -61z m512 45 c3 -5 1 -10 -4 -10 -6 0 -11 5
-11 10 0 6 2 10 4 10 3 0 8 -4 11 -10z m485 -14 c0 -16 -30 -50 -37 -42 -3 3
-3 17 1 31 7 26 36 35 36 11z m-600 -42 c0 -21 -4 -33 -10 -29 -5 3 -10 22
-10 41 0 21 4 33 10 29 6 -3 10 -22 10 -41z m-542 -5 c-3 -8 -7 -3 -11 10 -4
17 -3 21 5 13 5 -5 8 -16 6 -23z m268 -53 c-2 -6 -5 -3 -5 7 -1 9 -5 17 -11
17 -5 0 -10 12 -9 28 1 27 1 27 15 -7 8 -18 13 -38 10 -45z m-395 -19 c-7 -7
-15 -6 -24 1 -8 7 -16 9 -19 6 -3 -3 -9 -1 -13 5 -3 7 2 11 14 11 16 0 21 7
22 28 1 27 1 27 15 -7 10 -23 12 -37 5 -44z m159 -22 c0 -8 -4 -15 -10 -15 -5
0 -7 7 -4 15 4 8 8 15 10 15 2 0 4 -7 4 -15z m160 -33 c0 -32 -15 -18 -24 22
-6 26 -5 28 8 17 9 -8 16 -25 16 -39z m203 24 c6 -16 -2 -28 -14 -20 -12 7
-11 34 0 34 5 0 11 -6 14 -14z"/>
<path d="M2871 5234 c0 -11 3 -14 6 -6 3 7 2 16 -1 19 -3 4 -6 -2 -5 -13z"/>
<path d="M2510 5230 c0 -5 5 -10 10 -10 6 0 10 5 10 10 0 6 -4 10 -10 10 -5 0
-10 -4 -10 -10z"/>
<path d="M2920 5210 c0 -15 21 -23 32 -12 6 6 2 11 -11 15 -12 3 -21 1 -21 -3z"/>
<path d="M3096 5095 c4 -8 11 -15 16 -15 6 0 5 6 -2 15 -7 8 -14 15 -16 15 -2
0 -1 -7 2 -15z"/>
<path d="M3268 4953 c7 -3 16 -2 19 1 4 3 -2 6 -13 5 -11 0 -14 -3 -6 -6z"/>
<path d="M3722 4714 c-17 -12 -21 -19 -13 -27 8 -8 16 -7 27 5 25 25 14 42
-14 22z"/>
<path d="M3593 4683 c-32 -35 -76 -127 -62 -131 22 -8 39 9 39 37 0 16 5 33
10 36 6 3 10 14 10 23 0 11 8 18 20 19 21 2 27 -11 10 -22 -16 -10 -12 -25 8
-25 24 1 77 46 63 54 -6 4 -20 4 -31 1 -16 -5 -20 -2 -20 14 0 29 -16 26 -47
-6z"/>
<path d="M1425 4680 c-3 -5 -1 -10 4 -10 6 0 11 5 11 10 0 6 -2 10 -4 10 -3 0
-8 -4 -11 -10z"/>
<path d="M3710 4640 c0 -5 5 -10 10 -10 6 0 10 5 10 10 0 6 -4 10 -10 10 -5 0
-10 -4 -10 -10z"/>
<path d="M2362 4510 c2 -17 -2 -25 -12 -25 -25 0 -33 -24 -16 -50 9 -13 16
-35 16 -48 0 -51 12 -87 30 -87 23 0 30 9 21 29 -32 62 -49 131 -33 131 6 0
13 -6 16 -12 4 -7 4 5 1 26 -2 22 -9 44 -15 50 -7 7 -10 3 -8 -14z"/>
<path d="M1340 4465 c-7 -9 -10 -18 -7 -21 10 -11 37 5 37 21 0 19 -14 19 -30
0z"/>
<path d="M2723 4395 c-3 -9 -3 -19 1 -22 3 -4 6 1 6 10 0 8 6 18 13 20 9 4 9
6 -1 6 -7 1 -15 -6 -19 -14z"/>
<path d="M2610 4385 c-7 -9 -9 -22 -5 -32 13 -30 5 -97 -13 -111 -9 -6 -17
-19 -18 -27 -2 -12 2 -13 17 -4 11 6 23 17 26 25 3 7 9 12 13 9 5 -3 19 -1 32
4 29 11 66 91 42 91 -8 0 -14 -6 -14 -14 0 -8 -4 -17 -9 -20 -5 -3 -8 2 -7 12
1 12 -5 16 -23 14 -17 -1 -22 2 -17 13 3 8 9 21 12 29 7 19 -22 28 -36 11z
m32 -107 c-7 -7 -12 -8 -12 -2 0 6 3 14 7 17 3 4 9 5 12 2 2 -3 -1 -11 -7 -17z"/>
<path d="M2127 4300 c3 -11 7 -20 9 -20 2 0 4 9 4 20 0 11 -4 20 -9 20 -5 0
-7 -9 -4 -20z"/>
<path d="M2218 4284 c3 -15 8 -22 14 -16 9 9 1 42 -12 42 -4 0 -5 -12 -2 -26z"/>
<path d="M2170 4255 c0 -17 2 -18 24 -9 18 7 12 24 -10 24 -8 0 -14 -7 -14
-15z"/>
<path d="M2520 4235 c7 -8 16 -12 21 -9 13 8 1 24 -18 24 -13 0 -13 -3 -3 -15z"/>
<path d="M3318 4039 c-22 -12 -23 -35 -3 -43 8 -3 15 -12 15 -19 0 -8 7 -20
15 -27 17 -14 21 0 4 17 -15 15 -1 56 16 49 11 -4 25 13 25 30 0 8 -55 3 -72
-7z"/>
<path d="M3130 3989 c0 -11 5 -17 10 -14 6 3 10 13 10 21 0 8 -4 14 -10 14 -5
0 -10 -9 -10 -21z"/>
<path d="M3167 3976 c-9 -7 -17 -19 -17 -27 0 -9 8 -6 22 9 25 24 22 37 -5 18z"/>
<path d="M3210 3960 c0 -5 5 -10 10 -10 6 0 10 5 10 10 0 6 -4 10 -10 10 -5 0
-10 -4 -10 -10z"/>
<path d="M1000 3910 c0 -5 5 -10 10 -10 6 0 10 5 10 10 0 6 -4 10 -10 10 -5 0
-10 -4 -10 -10z"/>
<path d="M2720 3891 c0 -5 7 -12 16 -15 9 -4 12 -11 8 -18 -13 -20 -10 -50 5
-83 12 -23 16 -26 19 -12 4 20 13 22 30 5 20 -20 35 11 18 38 -12 18 -12 22 5
32 10 7 19 18 19 25 0 9 -2 9 -8 0 -4 -6 -20 -15 -35 -18 -15 -4 -27 -12 -27
-19 0 -6 -4 -5 -9 3 -6 9 -4 19 5 28 18 19 18 29 -2 37 -23 9 -44 7 -44 -3z"/>
<path d="M2290 3831 c0 -11 5 -23 10 -26 6 -3 10 3 10 14 0 11 -4 23 -10 26
-5 3 -10 -3 -10 -14z"/>
<path d="M3745 3840 c3 -5 11 -10 16 -10 6 0 7 5 4 10 -3 6 -11 10 -16 10 -6
0 -7 -4 -4 -10z"/>
<path d="M2680 3774 c0 -8 5 -12 10 -9 6 4 8 11 5 16 -9 14 -15 11 -15 -7z"/>
<path d="M2573 3745 c-16 -17 -17 -29 -3 -20 6 4 17 1 25 -5 16 -13 19 -3 9
24 -7 19 -15 20 -31 1z"/>
<path d="M1810 3681 c0 -5 5 -13 10 -16 6 -3 10 -2 10 4 0 5 -4 13 -10 16 -5
3 -10 2 -10 -4z"/>
<path d="M1600 3633 c0 -15 4 -35 10 -43 8 -13 10 -13 14 0 14 36 11 64 -6 68
-14 3 -18 -3 -18 -25z"/>
<path d="M1645 3619 c-9 -14 0 -22 18 -17 13 2 13 5 2 15 -10 9 -16 9 -20 2z"/>
<path d="M2185 3620 c3 -5 8 -10 11 -10 2 0 4 5 4 10 0 6 -5 10 -11 10 -5 0
-7 -4 -4 -10z"/>
<path d="M2276 3581 c-4 -7 -5 -15 -2 -18 9 -9 19 4 14 18 -4 11 -6 11 -12 0z"/>
<path d="M1781 3504 c0 -11 3 -14 6 -6 3 7 2 16 -1 19 -3 4 -6 -2 -5 -13z"/>
<path d="M1394 3428 c2 -18 4 -36 5 -40 2 -12 61 -9 61 3 0 5 -4 8 -9 5 -10
-6 -25 24 -16 32 3 3 5 0 5 -6 0 -7 4 -12 9 -12 5 0 7 9 4 21 -3 11 -11 18
-19 15 -7 -3 -16 -1 -19 4 -13 21 -23 9 -21 -22z"/>
</g>
</svg>
