<?xml version="1.0" encoding="utf-8"?>
<!-- Generator: Adobe Illustrator 27.5.0, SVG Export Plug-In . SVG Version: 6.00 Build 0)  -->
<svg version="1.1" xmlns="http://www.w3.org/2000/svg" xmlns:xlink="http://www.w3.org/1999/xlink" x="0px" y="0px"
	 viewBox="0 0 500 500" style="enable-background:new 0 0 500 500;" xml:space="preserve">
<g  id="BACKGROUND">
	<rect x="-0.002" y="0.001" style="fill:transparent;" width="500.001" height="500"/>
</g>
<g id="OBJECTS">
	<g>
		<g>
			<path d="M358.597,113.266c-0.06,0.004-0.102,0.021-0.107,0.027c-0.006,0.014,0.004,0.021,0.025,0.012
				C358.536,113.3,358.567,113.282,358.597,113.266z"/>
		</g>
		<g>
			<path fill="#7e3035" d="M424.348,136.939c-0.293-1.213-1.314-1.418-2.502-1.302c0.3,0.063,0.467,0.101,0.467,0.101s-0.613,0.049-1.684,0.1
				c-0.521,0.112-1.126,0.228-1.809,0.406c-0.688,0.24-1.452,0.474-2.263,0.854c-0.818,0.331-1.673,0.806-2.601,1.256
				c-0.92,0.472-1.891,1.002-2.95,1.487c-0.526,0.234-1.06,0.473-1.601,0.715c-0.524,0.238-1.055,0.48-1.59,0.723
				c-1.041,0.476-2.099,1.044-3.127,1.624c-1.038,0.57-2.055,1.182-3.03,1.82c-0.961,0.658-1.922,1.285-2.798,1.963
				c-0.873,0.683-1.706,1.354-2.462,2.032c-0.747,0.687-1.42,1.366-2.028,2.015c-0.563,0.678-1.108,1.292-1.51,1.893
				c-0.446,0.578-0.732,1.141-1.018,1.588c-0.259,0.459-0.42,0.843-0.553,1.098c-0.126,0.26-0.192,0.398-0.192,0.398
				s0.026-0.15,0.077-0.433c0.065-0.278,0.097-0.714,0.259-1.23c0.18-0.508,0.336-1.168,0.689-1.842
				c0.298-0.708,0.734-1.449,1.237-2.249c0.272-0.383,0.557-0.783,0.852-1.197c0.31-0.402,0.661-0.789,1.008-1.204
				c0.72-0.801,1.515-1.615,2.403-2.38c0.889-0.762,1.822-1.532,2.836-2.228c1.014-0.691,2.064-1.361,3.146-1.979
				c1.102-0.591,2.198-1.152,3.345-1.647c0.572-0.267,1.131-0.475,1.679-0.673c0.545-0.203,1.083-0.403,1.611-0.601
				c1.057-0.416,2.077-0.818,3.043-1.201c0.721-0.271,1.411-0.513,2.092-0.72c0.734-0.997,1.404-2.051,1.967-3.217
				c2.667-5.407,2.29-9.604,1.816-15.525c-0.355-4.44-2.754-10.771-0.92-15.023c-2.759,0.744-5.74,1.224-8.639,0.731
				c3.107-1.939,7.163-3.552,8.894-6.59c-13.921-3.395-20.983-18.209-31.305-26.442c-4.907-3.913-11.638-5.709-18.096-5.023
				c-0.244,0.164-0.477,0.348-0.749,0.47c-0.572,0.287-1.153,0.608-1.754,0.841l-0.904,0.35c-0.304,0.11-0.601,0.249-0.913,0.333
				c-0.617,0.185-1.237,0.383-1.86,0.56l-1.901,0.438c-0.641,0.108-1.288,0.194-1.935,0.291c-0.322,0.056-0.653,0.055-0.98,0.086
				l-0.987,0.067c-0.328,0.031-0.667-0.007-1.001-0.008l-0.255-0.01l-0.206,1.156c-0.119,0.623-0.406,1.205-0.609,1.812
				c-0.497,1.171-1.17,2.283-1.995,3.235c-0.378,0.517-0.834,0.941-1.281,1.379c-0.434,0.455-0.902,0.859-1.385,1.24
				c-0.939,0.81-1.947,1.489-2.951,2.162c-2.015,1.333-4.064,2.521-5.982,3.825c-0.497,0.309-0.953,0.653-1.42,0.988
				c-0.476,0.326-0.925,0.676-1.348,1.049c-0.433,0.364-0.881,0.716-1.251,1.13c-0.372,0.411-0.823,0.767-1.125,1.225
				c-0.313,0.449-0.705,0.851-0.976,1.323l-0.776,1.372l-0.65,1.657c-0.207,0.549-0.239,1.031-0.381,1.55
				c-0.176,1.041-0.215,2.154-0.079,3.251c0.141,1.103,0.424,2.211,0.771,3.319c0.34,1.114,0.728,2.229,1.112,3.358
				c0.399,1.139,0.727,2.269,1.052,3.425c0.322,1.152,0.612,2.317,0.819,3.501c0.1,0.592,0.188,1.19,0.194,1.794
				c0.012,0.598-0.012,1.222-0.249,1.774c0.151-0.579,0.082-1.174-0.014-1.749c-0.102-0.577-0.236-1.147-0.401-1.711
				c-0.328-1.128-0.737-2.233-1.179-3.327l-1.365-3.268c-0.47-1.085-0.95-2.178-1.396-3.303c-0.431-1.131-0.808-2.312-1.04-3.551
				c-0.219-1.247-0.286-2.53-0.1-3.829c0.134-0.633,0.219-1.347,0.413-1.913l0.592-1.678c0.316-0.688,0.595-1.17,0.9-1.766
				c0.302-0.566,0.724-1.046,1.093-1.567c0.355-0.537,0.842-0.938,1.262-1.408c0.42-0.474,0.901-0.864,1.371-1.269
				c0.464-0.416,0.947-0.8,1.446-1.151c0.492-0.364,0.98-0.738,1.487-1.063c2.013-1.356,4.094-2.515,6.049-3.782
				c0.503-0.305,0.962-0.646,1.443-0.967c0.491-0.311,0.942-0.657,1.391-1.007c0.464-0.338,0.904-0.694,1.304-1.086
				c0.415-0.379,0.844-0.748,1.18-1.185c0.348-0.426,0.76-0.816,1.018-1.299l0.447-0.689l0.227-0.345l0.161-0.376
				c0.194-0.508,0.483-0.988,0.611-1.523l0.386-1.614l0.181-0.753l0.698,0.068l0.904,0.087c0.303,0.024,0.602,0.086,0.912,0.08
				l0.927,0.009c0.311-0.004,0.62,0.024,0.932-0.005c0.622-0.045,1.248-0.077,1.872-0.13l1.874-0.229
				c0.62-0.105,1.237-0.229,1.86-0.344c0.314-0.048,0.611-0.151,0.919-0.226c0,0-0.302-1.728-0.803-2.383
				c-2.224-2.64-3.615-6.435-6.59-8.893c-11.01-8.782-26.594,7.282-30.628,17.227c-1.045-2.038-3.111-3.438-4.406-5.49
				c-0.407,0.286-0.978,0.684-1.7,1.189c-0.764,0.537-1.74,1.136-2.725,1.975c-1.005,0.806-2.139,1.713-3.375,2.704
				c-1.201,1.046-2.502,2.179-3.876,3.377c-1.355,1.237-2.754,2.534-4.267,3.869c-1.469,1.322-2.874,2.719-3.897,4.349
				c-1.032,1.615-1.533,3.529-1.673,5.502l-0.086,1.598c-0.024,0.533-0.034,1.053-0.12,1.647l-0.104,0.862l-0.244,0.88
				c-0.098,0.3-0.136,0.569-0.289,0.889l-0.332,0.716c-0.396,0.942-0.996,1.924-1.361,2.791c-0.444,0.856-0.647,1.791-0.859,2.604
				c-0.112,0.983-0.288,1.987-0.34,2.903c-0.009,0.914-0.116,1.798-0.052,2.69c0.068,0.888,0.065,1.762,0.184,2.596
				c0.12,0.833,0.206,1.646,0.344,2.42c0.17,0.767,0.333,1.504,0.488,2.204c0.163,0.699,0.393,1.342,0.568,1.961
				c0.093,0.309,0.183,0.607,0.27,0.895c0.109,0.279,0.215,0.549,0.314,0.808c0.202,0.522,0.387,1.001,0.553,1.435
				c0.369,0.851,0.705,1.501,0.913,1.958c0.215,0.454,0.331,0.696,0.331,0.696s-0.151-0.22-0.435-0.634
				c-0.271-0.42-0.729-1.008-1.203-1.821c-0.226-0.414-0.475-0.873-0.745-1.373c-0.135-0.251-0.275-0.514-0.421-0.785
				c-0.119-0.283-0.243-0.577-0.372-0.879c-0.248-0.61-0.553-1.248-0.799-1.948c-0.223-0.708-0.458-1.454-0.704-2.23
				c-0.211-0.789-0.372-1.625-0.571-2.487c-0.194-0.864-0.238-1.782-0.368-2.715c-0.124-0.934-0.075-1.939-0.115-2.949
				c-0.012-1.007,0.147-1.952,0.218-2.959c0.218-1.135,0.443-2.203,0.905-3.207c0.397-1.046,0.887-1.854,1.302-2.852l0.324-0.72
				c0.079-0.154,0.117-0.417,0.182-0.619l0.178-0.65l0.073-0.721c0.067-0.459,0.075-1.005,0.093-1.536l0.069-1.598
				c0.177-2.273,0.815-4.593,2.076-6.517c1.23-1.931,2.901-3.377,4.433-4.679c1.554-1.269,3.054-2.495,4.478-3.657
				c1.453-1.138,2.871-2.162,4.163-3.118l0.841-0.656c-2.441-5.844-11.745-5.904-17.02-4.396c-3.753,0.905-6.108,2.663-8.992,4.867
				c-2.091,1.537-5.523,4.428-8.442,4.179c0.106,0.204,0.223,0.407,0.343,0.61c0.199,0.111,0.424,0.262,0.644,0.468
				c0.802,0.689,1.627,1.969,2.296,3.599c0.342,0.815,0.652,1.718,0.9,2.697c0.235,0.996,0.522,1.976,0.533,3.22
				c0.017,1.064,0.066,2.163-0.028,3.322c-0.052,1.111-0.103,2.241-0.155,3.37l0.018,1.618l0.012,0.775l0.091,0.838
				c0.112,1.139,0.25,2.141,0.423,3.159c0.209,1.008,0.397,1.988,0.668,2.893c0.107,0.464,0.263,0.894,0.414,1.312
				c0.147,0.417,0.268,0.838,0.427,1.219c0.17,0.379,0.332,0.741,0.486,1.085c0.139,0.358,0.297,0.68,0.475,0.968
				c0.353,0.574,0.58,1.15,0.89,1.53c0.563,0.809,0.881,1.3,0.881,1.3s-0.443-0.35-1.219-1.016c-0.412-0.313-0.777-0.81-1.257-1.341
				c-0.506-0.519-0.893-1.226-1.396-1.957c-0.416-0.771-0.921-1.604-1.266-2.554c-0.18-0.472-0.391-0.953-0.558-1.457
				c-0.163-0.505-0.3-1.03-0.455-1.561c-0.244-1.072-0.534-2.236-0.642-3.326l-0.108-0.836c-0.028-0.353-0.028-0.609-0.044-0.919
				c-0.018-0.594-0.055-1.196-0.057-1.788c0.074-1.151,0.142-2.347,0.233-3.408c0.102-1.074,0.176-2.179,0.218-3.247
				c0.044-0.732-0.042-1.575-0.14-2.364c-0.9-0.647-1.803-1.186-2.946-1.621c-5.469-1.938-15.706-2.568-16.128,5.236
				c-0.256,5.858,0.746,11.334,0.227,17.415c-0.499,5.837-1.263,11.897-1.539,17.998c-0.197,4.345,0.517,8.273,1.464,12.341
				c0.372,0.77,0.848,1.794,1.367,3.026c0.299,0.679,0.677,1.37,1.013,2.13c0.341,0.759,0.872,1.443,1.285,2.225
				c0.413,0.73,1.077,1.532,1.592,2.333c0.29,0.35,0.585,0.702,0.879,1.056c0.283,0.361,0.583,0.713,0.939,1.024l0.984,0.997
				c0.338,0.317,0.724,0.573,1.078,0.862c0.688,0.551,1.501,1.15,2.259,1.61c0.731,0.438,1.495,0.87,2.236,1.266
				c0.757,0.391,1.472,0.76,2.13,1.101c1.334,0.681,2.421,1.347,3.15,1.846c0.718,0.528,1.105,0.842,1.105,0.842
				s-0.488-0.155-1.304-0.448c-0.412-0.131-0.915-0.291-1.491-0.474c-0.586-0.168-1.231-0.364-1.947-0.589
				c-0.715-0.214-1.493-0.466-2.31-0.761c-0.814-0.308-1.683-0.637-2.58-1.11c-0.858-0.458-1.674-0.898-2.522-1.561
				c-0.412-0.315-0.859-0.602-1.25-0.95l-1.137-1.093c-0.384-0.358-0.72-0.77-1.04-1.195c-0.323-0.417-0.647-0.833-0.97-1.246
				c-0.273-0.411-0.518-0.827-0.765-1.24c-0.233-0.401-0.515-0.822-0.715-1.278c-0.414-0.886-0.868-1.727-1.127-2.57
				c-0.051-0.159-0.096-0.309-0.146-0.466c-6.016,3.873-16.496,21.338-6.506,24.337c4.051,1.327,8.207,1.437,11.974,3.229
				c0.756,0.424,1.542,0.853,2.329,1.28c0.387,0.118,0.78,0.24,1.183,0.377c0.662,0.207,1.442,0.42,2.059,0.561
				c0.785,0.146,1.603,0.274,2.423,0.446c0.816,0.141,1.659,0.395,2.473,0.48c0.814,0.114,1.631,0.226,2.429,0.359
				c0.802,0.115,1.576,0.306,2.37,0.367c0.783,0.079,1.538,0.196,2.259,0.3c0.72,0.086,1.397,0.24,2.031,0.306
				c2.531,0.312,4.237,0.719,4.237,0.719s-1.703,0.34-4.289,0.553c-0.646,0.074-1.35,0.066-2.092,0.075
				c-0.744,0.006-1.53,0.02-2.343-0.008c-1.624-0.018-3.391-0.292-5.133-0.508c-0.879-0.114-1.67-0.364-2.492-0.555
				c-0.813-0.199-1.601-0.435-2.371-0.641c-0.917-0.276-1.573-0.61-2.261-0.94c-0.664-0.325-1.265-0.657-1.812-0.966
				c-0.052-0.028-0.097-0.053-0.146-0.081c-8.666,3.753-13.846,16.322-14.17,24.669c4.308-4.532,10.353-6.465,16.739-6.654
				c5.9-0.23,13.225-2.789,17.754-7.058c-1.306,3.809-3.015,6.602-3.125,10.758c1.299-1.796,6.07-7.75,9.715-8.659
				c-3.048,10.514-6.249,20.984-9.626,31.398c-0.19-0.033-0.386-0.066-0.586-0.109c-1.761-0.568-3.395-0.986-5.192-1.14
				c1.344,2.833,2.946,5.603,3.321,8.692c-3.472,10.433-7.093,20.815-10.909,31.125c-5.197,14.039-11.141,27.891-20.486,39.72
				c-1.996,2.526-4.189,4.901-6.48,7.186c-0.854-2.336-2.51-4.68-3.633-6.34c-0.086,2.638-1.44,5.444-2.47,7.723
				c-0.868,2.015-2.877,4.348-2.801,6.72c0.288-0.114,0.3-0.252,0.462-0.517l0.155,0.078c-0.706,0.619-1.413,1.236-2.119,1.852
				c-6.289,5.477-12.833,10.656-19.34,15.872c-1.663,1.334-3.295,2.701-4.943,4.051c0.107-1.488,0.428-2.882,0.666-4.276
				c0.674-3.004,0.946-6.183,1.621-9.186c0.86-3.545,1.996-7.066,2.867-10.75c0.009-0.035,0.018-0.071,0.026-0.105
				c0.499-0.168,1.008-0.306,1.415-0.467c4.311-1.58,7.63-2.967,10.472-6.9c2.23-3.288,4.128-7.58,5.426-11.366
				c2.284-7.181,1.958-16.396,0.926-23.86c-1.487-10.287-7.035-17.024-12.867-25.317c-2.847-4.141-5.395-8.534-8.092-12.8
				c-2.341-3.541-4.083-7.587-3.855-11.882c-0.347,0.805-0.683,1.473-1.03,2.278c-2.324,4.394-5.305,8.315-8.284,12.236
				c-2.679,3.668-6.188,7.265-7.936,11.431c-1.748,4.165-0.799,7.726-0.589,11.78c0.198,4.192-0.606,8.717-1.777,12.652
				c-1.195,4.213-1.262,8.244-0.373,12.495c1.221,5.254,4.609,9.58,7.433,13.997c2.824,4.416,5.106,8.647,9.292,11.79
				c1.828,1.409,3.368,2.933,5.346,4.215c0.242,0.175,0.501,0.335,0.754,0.502c-0.05,0.175-0.094,0.35-0.146,0.524
				c-1.428,5.306-2.833,10.335-4.801,15.456c-1.722-2.652-4.067-4.523-6.25-6.658c-0.976-0.966-2.072-1.778-3.139-2.628
				c-0.936-1.591-1.581-3.73-1.762-5.168c-0.728-4.516-2.193-8.538-3.923-12.723c-2.326-5.349-5.888-9.271-9.853-13.368
				c-3.574-3.785-7.033-7.282-11.865-9.365c-5.878-2.869-11.888-4.219-18.161-5.73c-4.938-1.197-10.063-1.58-15.028-2.659
				c3.859,1.307,4.788,7.254,4.876,10.7c-0.027,1.946,0.072,4.042,0.183,6c0.075,2.373,0.774,3.963,1.703,6.131
				c1.604,4.033,4.715,8.337,7.807,11.245c3.344,3.209,6.654,6.832,10.622,9.259c5.279,3.374,12.223,3.551,18.223,3.367
				c3.064-0.017,6.163-0.447,9.167,0.228c1.548,0.472,3.814,1.012,5.234,1.775c0.768,0.916,1.53,1.821,2.173,2.755
				c2.263,2.838,4.008,5.214,5.094,8.786c1.086,3.572,1.355,6.936,0.069,10.584c-0.542,1.258-1.422,2.57-2.109,3.787
				c-8.095,6.949-16.021,14.09-23.729,21.48c-9.705,9.306-19.551,18.554-28.449,28.649c-0.474-3.707-2.104-7.393-3.507-10.653
				l-7.238,23.878c0.005-0.004,0.025-0.009,0.032-0.013c-10.166,13.584-19.029,28.288-27.956,42.616
				c-0.034,0.055-0.068,0.109-0.102,0.163c-1.771,2.848-0.393,5.777,1.809,7.153c0.821,2.696,6.776,0.892,9.142,0.024
				c4.379-1.296,9.374-3.28,10.536-8.191c6.148-24.157,20.734-44.993,38.184-62.431l-1.094,1.047
				c3.449-3.404,6.947-6.763,10.436-10.126c4.616,1.076,15.174-0.605,16.494-2.26c-2.574-1.318-6.042-3.431-9.457-4.469
				c11.285-10.748,23.018-21.029,35.159-30.793c12.878-10.356,26.214-20.509,37.202-32.939c4.327-4.894,7.383-10.364,9.899-16.121
				c0.766-0.334,1.494-0.909,1.997-1.562c1.858-2.207,3.626-4.979,6.015-6.863c4.351-3.664,9.986-6.105,15.335-8.432
				c3.182-1.398,5.302-1.773,8.499-0.108c3.324,1.815,6.2,4.01,9.859,5.157c3.81,1.021,8.52,1.285,12.436,1.063
				c3.777-0.233,7.693-0.456,11.381-1.254c4.401-1.016,8.689-2.319,12.517-4.775c3.817-2.318,7.772-4.624,11.944-6.217
				c7.47-2.702,15.419-4.527,23.295-3.854c-4.2-1.333-7.647-4.968-11.524-6.83c-5.073-2.522-9.674-5.699-14.782-7.806
				c-8.469-3.507-18.626-3.54-27.702-3.203c-3.916,0.222-8.42,0.811-12.269,1.873c-4.437,1.43-7.334,4.384-10.267,7.752
				c-5.553,6.345-9.167,16.057-17.729,18.527c-3.135,0.845-6.475,0.838-9.585,1.407c-1.37,0.303-2.636,0.497-3.936,0.573
				c1.078-3.092,2.169-6.195,3.371-9.28c1.722-4.424,3.372-8.873,4.971-13.339c1.324-0.577,2.628-2.197,3.859-2.996
				c1.326-0.861,3.17-1.26,4.37-2.271c-1.175-1.001-3.496-2.15-5.56-2.366c5.322-15.545,10.018-31.298,14.441-47.135
				c0.121,1.976,0.395,3.887,0.913,5.814c1.224,5.74,4.478,10.673,5.682,16.657c0.842,4.481,1.698,11.66-0.136,15.913
				c6.881-4.803,11.45-13.492,14.153-22.068c-0.498-0.364-0.994-0.743-1.477-1.156c-0.798-0.648-1.58-1.43-2.339-2.157l-1.017-1.148
				l-0.253-0.286l-0.152-0.173l-0.12-0.169l-0.475-0.675l-0.467-0.672c-0.132-0.233-0.241-0.473-0.36-0.706
				c-0.224-0.471-0.492-0.927-0.655-1.391c-0.392-0.919-0.692-1.817-0.955-2.661c-0.284-0.84-0.505-1.632-0.736-2.359
				c-0.26-0.698-0.427-1.403-0.67-1.94c-0.247-0.546-0.37-1.08-0.615-1.469c-0.421-0.801-0.645-1.271-0.645-1.271
				s0.374,0.361,1,1.013c0.331,0.305,0.619,0.794,1.001,1.321c0.401,0.535,0.71,1.164,1.1,1.855
				c0.363,0.688,0.733,1.452,1.102,2.245c0.36,0.801,0.776,1.614,1.183,2.44c0.19,0.43,0.457,0.797,0.686,1.204
				c0.223,0.414,0.493,0.785,0.773,1.145l0.409,0.556l0.102,0.14l0.104,0.11l0.26,0.279l1.045,1.122
				c0.706,0.697,1.353,1.389,2.103,2.03c0.743,0.637,1.439,1.309,2.186,1.876c0.721,0.6,1.447,1.148,2.135,1.674
				c0.68,0.538,1.369,0.981,1.976,1.443c0.613,0.451,1.206,0.821,1.712,1.186c0.357,0.251,0.674,0.464,0.969,0.66
				c2.289,0.797,4.591,1.311,6.776,1.439c0.492-2.897,0.783-6.302,0.525-9.02c0.869,1.299,1.981,2.619,2.607,3.898
				c0.403,1.015,0.46,3.225,0.884,3.996c1.558,1.848,5.448,2.18,7.395,2.347c1.914,0.241,3.745,0.248,5.508,0.048
				c0.08-0.028,0.154-0.056,0.236-0.083c0.747-0.219,1.531-0.635,2.393-1.042c0.436-0.188,0.869-0.433,1.303-0.715
				c0.442-0.262,0.899-0.531,1.368-0.809c0.889-0.649,1.855-1.263,2.787-2.025c0.966-0.708,1.864-1.558,2.834-2.348
				c0.963-0.868,1.931-1.727,2.804-2.631c0.944-0.848,1.768-1.83,2.623-2.75c0.793-0.981,1.647-1.889,2.371-2.858
				c0.736-0.957,1.477-1.867,2.132-2.77c0.666-0.898,1.297-1.747,1.877-2.531c1.17-1.578,2.145-2.893,2.827-3.814
				c0.696-0.916,1.111-1.43,1.111-1.43s-0.256,0.609-0.734,1.656c-0.483,1.043-1.187,2.532-2.131,4.266
				c-0.469,0.87-0.978,1.813-1.581,2.775c-0.574,0.979-1.221,1.992-1.936,3.01c-0.697,1.028-1.484,2.056-2.304,3.081
				c-0.876,0.983-1.718,2.024-2.702,2.949c-0.964,0.961-1.973,1.815-2.939,2.652c-1.023,0.837-2.06,1.628-3.105,2.324
				c-0.336,0.251-0.685,0.474-1.036,0.689c2.323,1.334,4.857,2.289,7.58,2.706c4.602,0.638,9.75,0.589,14.274-0.74
				c2.779-0.987,11.228-8.105,14.1-4.43c1.026-6.282,5.619-11.28,4.499-18.236c-0.483-2.991-1.725-5.592-3.425-7.878
				c7.812-0.055,13.538-2.189,16.825-11.311c3.813-10.21,0.106-21.307,4.648-31.454
				C422.271,141.172,424.688,138.683,424.348,136.939z M362.135,186.687c-0.161-0.333-0.361-0.745-0.596-1.228
				c-0.28-0.456-0.603-0.98-0.963-1.567c-0.325-0.602-0.828-1.182-1.317-1.838c-0.472-0.67-1.099-1.305-1.728-2.003
				c-0.617-0.708-1.419-1.332-2.177-2.052c-0.856-0.623-1.659-1.378-2.649-1.984c-1.888-1.32-4.114-2.485-6.522-3.569
				c-2.419-1.07-5.066-1.988-7.857-2.767c-1.396-0.379-2.835-0.739-4.272-1.025c-0.705-0.161-1.479-0.288-2.241-0.423
				c-0.386-0.079-0.751-0.132-1.157-0.233l-1.27-0.308c-3.396-0.888-6.506-2.938-8.876-5.437c-2.362-2.543-4.117-5.446-5.548-8.35
				c-0.737-1.449-1.351-2.918-1.931-4.375c-0.279-0.728-0.556-1.451-0.831-2.168l-0.398-1.056l-0.402-0.952
				c-1.096-2.517-2.61-4.776-4.376-6.652c-1.772-1.869-3.728-3.406-5.674-4.623c-1.95-1.214-3.879-2.137-5.654-2.797
				c-1.769-0.687-3.381-1.114-4.722-1.438c-1.34-0.265-2.414-0.496-3.162-0.563c-0.743-0.096-1.139-0.147-1.139-0.147
				s0.398-0.024,1.146-0.069c0.743-0.061,1.848-0.079,3.267-0.004c1.403,0.116,3.131,0.271,5.057,0.765
				c0.976,0.203,1.979,0.54,3.054,0.87c1.048,0.395,2.154,0.819,3.259,1.382c2.222,1.086,4.539,2.537,6.659,4.508
				c2.122,1.952,4.098,4.395,5.479,7.304l0.518,1.096l0.446,1.042c0.298,0.683,0.597,1.372,0.898,2.064
				c0.622,1.364,1.263,2.738,1.951,4.076c1.367,2.685,2.997,5.245,5.005,7.339c0.999,1.04,2.06,2.014,3.254,2.744
				c0.57,0.415,1.212,0.687,1.823,1.016c0.311,0.15,0.645,0.251,0.964,0.38c0.323,0.122,0.64,0.262,0.981,0.33l1.002,0.26
				c0.348,0.095,0.753,0.162,1.125,0.245c0.758,0.169,1.502,0.325,2.285,0.537c1.557,0.383,3.042,0.827,4.502,1.294
				c2.924,0.92,5.656,2.126,8.146,3.454c2.494,1.317,4.737,2.803,6.605,4.426c0.973,0.755,1.781,1.64,2.589,2.411
				c0.717,0.875,1.46,1.635,2.018,2.47c0.565,0.828,1.143,1.557,1.518,2.341c0.401,0.763,0.815,1.431,1.055,2.105
				c0.27,0.657,0.516,1.238,0.704,1.75c0.146,0.528,0.269,0.978,0.369,1.342c0.191,0.724,0.294,1.109,0.294,1.109
				S362.467,187.358,362.135,186.687z M405.955,162.394c-0.83,0.531-2.136,1.136-3.859,1.805c-1.747,0.569-3.928,1.228-6.519,1.43
				c-1.292,0.178-2.672,0.15-4.137,0.17c-1.454-0.095-2.996-0.187-4.574-0.489c-3.166-0.529-6.549-1.513-9.894-3.111
				c-3.342-1.583-6.694-3.718-9.671-6.604c-2.881-2.781-5.371-6.017-8.314-8.139c-0.356-0.293-0.768-0.475-1.149-0.722l-0.58-0.351
				l-0.586-0.253c-0.404-0.165-0.742-0.356-1.195-0.516l-1.485-0.435c-1.841-0.517-3.863-0.923-5.897-1.339
				c-2.031-0.439-4.129-0.894-6.209-1.579c-1.027-0.298-2.105-0.75-3.164-1.192c-0.533-0.219-0.934-0.466-1.407-0.697l-0.683-0.352
				l-0.17-0.087l-0.14-0.078l-0.043-0.027l-0.087-0.054l-0.344-0.217c-3.72-2.229-6.854-5.366-9.104-8.857
				c-2.252-3.515-3.481-7.391-4.089-11.05c-0.29-1.838-0.455-3.631-0.494-5.362c-0.015-1.73,0.046-3.394,0.181-4.979
				c0.261-3.171,0.811-6.022,1.387-8.511c0.57-2.493,1.228-4.618,1.792-6.354c0.555-1.738,1.084-3.074,1.427-3.987
				c0.355-0.908,0.545-1.392,0.545-1.392s-0.118,0.506-0.339,1.456c-0.219,0.95-0.509,2.347-0.867,4.123
				c-0.686,3.549-1.581,8.667-1.66,14.771c-0.016,3.046,0.228,6.333,0.95,9.671c0.744,3.33,2.072,6.676,4.101,9.679
				c2.055,2.99,4.877,5.534,8.174,7.493l0.306,0.189l0.076,0.047l0.02,0.013l0.134,0.067l0.687,0.344
				c0.45,0.213,0.935,0.496,1.358,0.653c0.85,0.325,1.675,0.676,2.638,0.945c1.852,0.589,3.823,0.998,5.851,1.412
				c2.026,0.432,4.072,0.863,6.206,1.485l1.48,0.452c0.518,0.183,1.101,0.464,1.643,0.699l0.82,0.377l0.735,0.447
				c0.478,0.311,1,0.573,1.435,0.928c1.863,1.322,3.313,2.925,4.68,4.446c0.659,0.756,1.314,1.508,1.965,2.255l0.48,0.552
				l0.21,0.235l0.252,0.268l1.003,1.068c0.174,0.176,0.361,0.334,0.538,0.506c2.359-0.197,4.684-0.59,6.854-1.365
				c2.316-0.866,4.479-2.084,6.256-3.783c0.485-0.367,0.872-0.86,1.301-1.295l0.629-0.668l0.285-0.298l0.296-0.374l1.186-1.494
				l1.003-1.499c1.295-2.043,2.298-4.275,2.992-6.563c0.697-2.294,1-4.69,0.957-7.076c-0.051-2.385-0.395-4.765-1.022-7.082
				c-0.623-2.318-1.522-4.573-2.651-6.717l-0.203-0.406l-0.051-0.102l-0.002-0.004l-0.013-0.021l-0.123-0.204l-0.489-0.818
				l-0.481-0.817l-0.494-0.688c-0.612-0.919-1.415-1.842-2.196-2.724c-1.597-1.766-3.473-3.292-5.442-4.658
				c-1.982-1.355-4.089-2.55-6.304-3.488c-2.21-0.942-4.505-1.699-6.851-2.143c-1.174-0.191-2.352-0.39-3.533-0.435l-0.885-0.065
				l-0.882,0.005l-0.884,0.002l-0.221,0h-0.016l-0.09,0.011l-0.474,0.056c-1.853,0.232-3.717,1.493-4.742,3.258
				c-1.04,1.775-1.26,3.961-0.641,5.993l0.293,0.749l0.072,0.189l0.007,0.019l0.027,0.045l0.246,0.408
				c0.16,0.226,0.264,0.356,0.425,0.563c0.189,0.198,0.348,0.411,0.561,0.603c0.799,0.791,1.759,1.515,2.769,2.191
				c0.083,0.057,0.172,0.109,0.256,0.166l0.006-0.028c0.061-0.301,0.118-0.614,0.195-0.926c0.089-0.306,0.222-0.599,0.34-0.908
				c0.265-0.604,0.639-1.174,1.099-1.695c0.23-0.258,0.502-0.479,0.763-0.722c0.277-0.214,0.578-0.403,0.878-0.599
				c0.62-0.348,1.29-0.607,1.976-0.784c0.689-0.154,1.391-0.257,2.084-0.249c0.693,0.001,1.385,0.056,2.05,0.203
				c0.67,0.13,1.324,0.318,1.946,0.578c0.629,0.244,1.234,0.54,1.803,0.898c1.145,0.696,2.182,1.584,3.022,2.648
				c0.429,0.524,0.798,1.102,1.107,1.713c0.317,0.604,0.557,1.256,0.724,1.922c0.079,0.336,0.153,0.668,0.182,1.013
				c0.047,0.339,0.068,0.68,0.05,1.022c0,0.34-0.016,0.676-0.086,1.009c-0.051,0.332-0.104,0.658-0.225,0.971
				c-0.101,0.315-0.201,0.622-0.352,0.91c-0.141,0.292-0.259,0.578-0.464,0.843c-0.346,0.56-0.753,0.97-1.205,1.389
				c0.076-0.602,0.204-1.21,0.212-1.748c0.01-0.545,0.039-1.087-0.057-1.599c-0.062-0.511-0.177-0.998-0.337-1.456
				c-0.061-0.232-0.169-0.452-0.264-0.67c-0.081-0.221-0.203-0.429-0.321-0.633c-0.216-0.416-0.496-0.799-0.785-1.168
				c-0.286-0.371-0.614-0.713-0.954-1.042c-0.344-0.325-0.708-0.633-1.091-0.917c-0.384-0.281-0.78-0.551-1.196-0.787
				c-0.414-0.236-0.838-0.459-1.275-0.644c-0.436-0.186-0.879-0.356-1.328-0.483c-0.449-0.129-0.901-0.24-1.354-0.3
				c-0.453-0.065-0.903-0.103-1.352-0.086c-0.228-0.009-0.44,0.033-0.67,0.042l-0.661,0.115c-0.43,0.118-0.865,0.261-1.288,0.478
				c-0.421,0.218-0.83,0.495-1.239,0.823c-0.305,0.257-0.588,0.56-0.876,0.876c-0.05,0.133-0.099,0.265-0.158,0.407
				c-0.017,0.039-0.042,0.081-0.064,0.122c1.719,1.087,3.544,2.082,5.388,3.175l0.06,0.035l0.017,0.011
				c1.377,0.922,2.753,1.855,4.123,2.807l4.299,2.548l4.475,2.264l4.648,1.934l0.744,0.055l-0.756,0.056h-0.006l-0.01-0.002
				c-1.625-0.438-3.265-0.867-4.897-1.337c-1.583-0.593-3.181-1.174-4.772-1.787l-4.616-2.187c-1.488-0.825-2.971-1.669-4.451-2.523
				l0.076,0.046c-2.221-1.112-4.593-2.141-6.873-3.475c-1.136-0.68-2.262-1.426-3.322-2.368c-0.271-0.223-0.519-0.502-0.777-0.753
				c-0.252-0.275-0.549-0.64-0.762-0.926l-0.268-0.395l-0.066-0.099l-0.033-0.049c0.005,0.01-0.027-0.046-0.057-0.1
				c-0.079,0.728-0.143,1.469-0.21,2.21c-0.141,1.941-0.281,3.883-0.413,5.703c-0.127,1.851-0.299,3.596-0.504,5.108
				c-0.214,1.504-0.455,2.786-0.675,3.656c-0.214,0.878-0.382,1.38-0.382,1.38s-0.179-0.499-0.409-1.373
				c-0.235-0.881-0.542-2.102-0.841-3.599c-0.294-1.49-0.56-3.248-0.726-5.15c-0.065-0.957-0.144-1.942-0.134-2.96
				c-0.027-1.012,0.036-2.05,0.098-3.089c0.115-1.04,0.2-2.083,0.429-3.105c0.176-1.024,0.461-2.021,0.773-2.975
				c0.318-0.95,0.709-1.852,1.127-2.675c0.421-0.751,0.815-1.446,1.282-2.047c0.158-0.403,0.335-0.8,0.543-1.181
				c1.46-2.663,4.085-4.718,7.278-5.24l0.472-0.071l0.117-0.018l0.06-0.009l0.158-0.016l0.032-0.001l0.255-0.01l1.021-0.037
				l1.023-0.034l1.017,0.048c1.36,0.042,2.696,0.247,4.029,0.453c2.655,0.476,5.223,1.291,7.692,2.314
				c2.477,1.016,4.833,2.312,7.016,3.864c2.183,1.546,4.257,3.274,6.054,5.297c0.891,1.026,1.754,2.031,2.543,3.235l0.598,0.874
				l0.477,0.829l0.464,0.832l0.116,0.208l0.098,0.185l0.053,0.113l0.21,0.453c1.162,2.39,2.082,4.915,2.696,7.523
				c0.616,2.605,0.943,5.302,0.835,7.997c-0.093,2.692-0.579,5.38-1.493,7.908c-0.891,2.541-2.216,4.876-3.787,7.023l-1.241,1.581
				l-1.29,1.404l-0.322,0.351c-0.182,0.179-0.262,0.24-0.399,0.365l-0.74,0.656c-0.504,0.426-0.958,0.9-1.523,1.257
				c-2.07,1.639-4.545,2.769-7.069,3.375c-2.329,0.571-4.714,0.642-7.046,0.524c2.405,2.329,5.099,4.302,7.876,5.812
				c3.019,1.626,6.087,2.788,9.009,3.525c2.922,0.737,5.701,1.067,8.166,1.039c2.474,0.037,4.616-0.319,6.375-0.665
				c1.725-0.457,3.104-0.836,3.98-1.248c0.907-0.359,1.391-0.55,1.391-0.55S406.796,161.9,405.955,162.394z"/>
		</g>
	</g>
</g>
</svg>
