<?xml version="1.0" encoding="utf-8"?>
<!-- Generator: Adobe Illustrator 27.5.0, SVG Export Plug-In . SVG Version: 6.00 Build 0)  -->
<svg version="1.1" xmlns="http://www.w3.org/2000/svg" xmlns:xlink="http://www.w3.org/1999/xlink" x="0px" y="0px"
	 viewBox="0 0 500 500" style="enable-background:new 0 0 500 500;" xml:space="preserve">
<g id="BACKGROUND">
	<rect style="fill:transparent;" width="500" height="500"/>
</g>
<g id="OBJECTS">
	<g>
		<g>
			<path style="fill:#7e3035;" d="M237.132,108.775c0.24,1.995,2.806,5.416,2.806,5.416s-2.565,12.257,1.425,25.939
				c1.423,4.878,3.351,8.44,5.244,11.016c1.571,1.264,2.807,2.795,3.862,4.384c0.537,0.782,1.123,1.585,1.903,2.164
				c1.285,0.985,2.757,1.701,4.271,2.282c1.002,0.392,2.079,0.623,3.117,0.959c1.678,0.531,3.39,1.166,4.823,2.335
				c1.11,0.913,1.972,2.138,2.704,3.323c0.022,0.039,0.052,0.071,0.078,0.107c0.387-0.097,0.83-0.126,1.221-0.06
				c0.867,0.14,1.503,0.548,2.01,0.918c0.789,0.614,1.469,1.425,2.214,2.119c0.105,0.096,0.24,0.137,0.348,0.229
				c0.069,0.048,0.138,0.117,0.176,0.196c0.025,0.06,0.039,0.149,0.02,0.171c-0.016,0.02-0.111,0.02-0.183,0.028
				c-0.053,0.005-0.104-0.029-0.155-0.049c-0.884-0.294-1.64-0.816-2.418-1.298c-0.503-0.308-1.109-0.47-1.628-0.66
				c-0.259-0.095-0.465-0.352-0.748-0.371c-0.674-0.037-1.223,0.32-1.824,0.657c-0.115,0.065-0.319-0.047-0.436,0.029
				c-0.78,0.516-1.563,0.996-2.435,1.335c-0.72,0.285-1.431,0.607-2.057,1.058c-0.648,0.459-1.191,1.061-1.783,1.58
				c-0.143,0.135-0.305,0.246-0.459,0.366c-1.342,2.087-5.894,9.001-8.939,15.924c-3.51,7.981-8.926,7.981-8.356,8.836
				c0.495,0.743,18.384-1.321,28.874-11.206c0.065-0.354,0.154-0.71,0.382-0.961c0.464-0.586,0.883-1.195,1.159-1.882
				c1.177-2.904,2.646-5.661,4.484-8.184c0.922-1.226,1.792-2.503,2.863-3.644c0.456-0.462,1.001-0.858,1.619-1.083
				c0.572-0.214,1.18-0.299,1.784-0.32c0.045-0.002,0.091-0.011,0.136-0.012c0.65-0.013,1.297,0.039,1.936,0.103
				c0.231,0.023,0.466,0.051,0.701,0.08c0.407-0.081,0.948-0.203,1.304,0.074c0.316,0.199,0.614,0.405,0.912,0.607
				c0.116,0.071,0.232,0.139,0.341,0.221c0.125,0.081,0.246,0.166,0.376,0.243c1.181,0.72,2.157,1.906,2.549,3.331
				c0.027,0.088,0.054,0.176,0.069,0.267l0.025,0.138c0.057,0.097,0.11,0.196,0.165,0.293l0.163,0.006l0.02,0l0.288,0.006
				l0.534,0.01c0.125,0.005,0.251,0,0.376-0.002c0.196-0.003,0.392-0.005,0.59-0.003c1.272-0.009,2.593-0.088,3.821-0.518
				c0.49-0.165,0.969-0.36,1.438-0.576c1.497-0.69,2.878-1.631,4.044-2.777c0.784-0.758,1.423-1.639,1.985-2.548
				c0.173-0.28,0.341-0.563,0.501-0.846c0.089-0.16,0.161-0.324,0.245-0.485c0.613-1.178,1.113-2.387,1.557-3.614
				c0.243-0.671,0.478-1.345,0.706-2.024c0.52-1.628,1.088-3.338,1.192-5.148c0.019-0.252-0.029-0.499-0.038-0.751
				c-0.01-0.152-0.005-0.322,0.029-0.461c0.028-0.098,0.086-0.209,0.116-0.204c0.026,0.005,0.09,0.148,0.145,0.251
				c0.039,0.076,0.049,0.19,0.069,0.287c0.096,0.417,0.159,0.838,0.194,1.261c-0.045-1.835-0.312-3.671-0.774-5.445
				c-0.767-2.958-2.28-5.653-3.87-8.238c-0.809-1.315-1.519-2.706-2.433-3.963c-0.62-0.846-1.257-1.681-1.898-2.513
				c-0.26-0.214-0.523-0.428-0.767-0.656l0.119-0.182c-1.447-1.866-2.905-3.73-4.265-5.673c-0.417-0.588-0.665-1.295-1.08-1.883
				c-2.803-3.971-5.413-8.072-7.818-12.287c-1.999-3.485-4.009-6.964-6.131-10.376c-2.175-3.512-4.474-6.949-6.688-10.438
				c-2.039-3.222-3.984-6.503-5.863-9.841c-0.891-1.575-1.897-3.096-2.694-4.739c-0.01-0.013-0.021-0.024-0.031-0.037
				c-0.277-0.358-0.553-0.767-0.719-1.272c-0.068-0.203-0.104-0.41-0.128-0.614c-0.805-1.91-1.448-3.895-1.889-5.924
				c-0.24-1.096-0.395-2.212-0.48-3.328c-0.035-0.5-0.004-1.005-0.033-1.757c0.282,1.151,0.769,2.469,0.947,3.685
				c0.273,1.737,0.74,3.455,1.469,5.052c0.039,0.087,0.083,0.17,0.123,0.256c0.213-1.368,0.55-2.687,0.97-3.999
				c0.545-1.632,1.24-3.202,1.794-4.807c0.959-2.647,1.939-5.416,4.056-7.499c0.698-0.673,1.487-1.282,2.4-1.73
				c0.456-0.222,0.943-0.399,1.453-0.518c0.513-0.125,1.082-0.146,1.274-0.25c0.088-0.042,0.095-0.068,0.124-0.113
				c0.03-0.048,0.08-0.143,0.139-0.286c0.11-0.279,0.326-0.778,0.574-1.137c0.499-0.77,1.193-1.408,1.972-1.85
				c1.561-0.899,3.396-1.131,5.103-0.764c1.38,0.307,2.473,1.048,3.43,1.818c0.959,0.784,1.81,1.639,2.633,2.507
				c0.234,0.237,0.5,0.438,0.728,0.682c0.085,0.086,0.169,0.18,0.246,0.276c0.095-0.065,0.182-0.136,0.279-0.198
				c1.288-0.845,2.857-1.191,4.338-1.095c0.482,0.027,0.972,0.117,1.444,0.26c-0.781-1.237-1.575-2.466-2.45-3.632
				c-1.08-1.438-2.315-2.757-3.7-3.805c-1.27-0.974-2.636-1.856-4.142-2.494c-0.265-0.114-0.543-0.193-0.824-0.263
				c-0.075,0.036-0.123,0.06-0.123,0.06s-0.275-0.105-0.76-0.265c-0.191-0.044-0.38-0.091-0.566-0.147
				c-0.499-0.147-0.998-0.297-1.499-0.452c-6.109-1.571-20.932-3.742-32.433,7.699c-0.048,0.075-0.092,0.155-0.153,0.218
				c-0.512,0.609-0.971,1.268-1.245,2.014c-1.18,3.153-2.099,6.265-2.918,9.477c-0.191,0.794-0.356,1.6-0.528,2.41
				c-0.127,0.814-0.199,1.639-0.236,2.464c-0.06,2.763,0.312,5.52,0.87,8.222c0.364,1.794,0.925,3.55,1.399,5.324
				c0.776,2.865,1.528,5.77,1.734,8.782c0.174,2.338-0.05,4.716-0.277,7.031c-0.036,0.324-0.017,0.649-0.054,0.974
				c-0.016,0.196-0.045,0.414-0.1,0.582c-0.043,0.118-0.116,0.244-0.145,0.23c-0.025-0.012-0.067-0.207-0.106-0.346
				c-0.028-0.103-0.02-0.246-0.025-0.37c-0.075-2.126-0.152-4.242-0.313-6.366c-0.118-1.374-0.489-2.715-0.742-4.068
				c-0.137-0.686-0.082-1.406-0.234-2.09c-0.388-1.652-0.854-3.288-1.215-4.949c-0.068-0.317,0.059-0.672-0.013-0.988
				c-0.505-2.131-0.926-4.295-1.007-6.503c-0.102-1.822-0.08-3.645-0.128-5.464c0.013-1.869-0.021-3.761,0.236-5.642
				c0.242-1.735,0.8-3.405,1.412-5.035c0.292-0.781,0.437-1.627,0.785-2.396c0.405-0.91,0.92-1.766,1.49-2.583
				c-3.807,0.441-23.087,3.257-25.655,15.323C222.549,79.13,223.494,98.228,237.132,108.775z M270.899,150.472
				c-0.028-0.001-0.147-0.153-0.24-0.257c-0.068-0.078-0.12-0.204-0.176-0.309c-0.932-1.803-2.061-3.491-3.467-4.973
				c-0.891-0.977-2.014-1.709-3.065-2.5c-0.524-0.413-0.971-0.939-1.523-1.322c-1.361-0.897-2.785-1.701-4.145-2.619
				c-0.259-0.176-0.402-0.513-0.664-0.684c-1.767-1.155-3.485-2.449-4.892-4.075c-1.129-1.375-2.173-2.804-3.018-4.36
				c-0.477-0.778-0.824-1.618-1.31-2.327c-0.471-0.726-1.081-1.246-1.811-1.703c-0.663-0.427-1.391-0.823-2.088-1.337
				c-0.701-0.511-1.324-1.114-1.894-1.756c-0.544-0.612-1.18-1.177-1.613-1.898c-0.644-1.063-1.053-2.267-1.194-3.494
				c-0.064-0.498-0.074-1.002-0.028-1.499c0.018-0.222,0.099-0.446,0.139-0.774c0.176,0.511,0.523,1.062,0.513,1.59
				c0.024,0.753,0.18,1.516,0.555,2.174c0.783,1.397,1.783,2.602,2.896,3.637c0.563,0.521,1.151,0.973,1.796,1.414
				c0.646,0.446,1.349,0.907,1.986,1.497c0.64,0.578,1.104,1.356,1.409,2.107c0.329,0.749,0.559,1.515,0.956,2.201
				c1.215,2.363,3.139,4.284,5.247,5.865c1.388,1.071,2.96,1.894,4.463,2.81c2.445,1.456,4.958,2.954,7.021,5.1
				c1.601,1.657,2.834,3.704,3.672,5.807c0.104,0.3,0.258,0.577,0.361,0.878c0.068,0.179,0.133,0.382,0.153,0.551
				C270.946,150.335,270.931,150.473,270.899,150.472z M280.487,170.635c-0.014,0.021-0.078,0.039-0.126,0.058
				c-0.035,0.013-0.064-0.008-0.095-0.014c-0.547-0.061-0.984-0.319-1.49-0.473c-0.324-0.111-0.688,0.015-1.017,0.022
				c-0.168,0.007-0.325-0.184-0.498-0.152c-0.417,0.076-0.817,0.242-1.209,0.339c-0.075,0.016-0.172-0.162-0.248-0.136
				c-0.508,0.187-0.997,0.335-1.54,0.342c-0.452,0.003-0.914,0.038-1.32,0.228c-0.42,0.19-0.776,0.521-1.164,0.764
				c-0.348,0.244-0.77,0.342-1.153,0.526c-0.18,0.095-0.279,0.34-0.447,0.455c-0.266,0.142-0.556,0.244-0.878,0.296
				c-0.139,0.007-0.283,0.007-0.434-0.006c-0.068-0.006-0.15-0.036-0.249-0.039c0.034-0.201,0.036-0.514,0.199-0.512
				c0.215-0.03,0.421-0.07,0.542-0.262c0.507-0.813,1.224-1.346,2.144-1.416c0.444-0.056,0.922,0.002,1.312-0.141
				c0.668-0.207,1.303-0.488,1.97-0.781c0.44-0.19,0.88-0.501,1.366-0.681c0.774-0.3,1.658-0.467,2.459-0.121
				c0.625,0.251,1.13,0.827,1.576,1.278c0.064,0.062,0.148,0.08,0.21,0.144c0.039,0.035,0.082,0.074,0.1,0.135
				C280.507,170.535,280.504,170.61,280.487,170.635z M258.813,74.315c0.063-0.351,0.272-0.668,0.447-1.161
				c-0.085,0.847,0.079,1.793,0.003,2.618c-0.07,1.196,0.175,2.422,0.649,3.536c0.989,2.367,2.322,4.619,2.949,7.269
				c0.668,2.701,0.063,5.34,0.773,7.648c0.655,2.292,2.918,4.061,3.769,6.529c0.738,2.028,0.95,4.176,1.776,6.137
				c0.773,1.972,1.875,3.808,3.219,5.424c0.886,1.076,1.917,2.022,3.014,2.855c1.103,0.83,2.296,1.54,3.5,2.267
				c1.938,1.176,3.994,2.345,5.768,4.019c1.761,1.662,3.108,3.595,4.393,5.467c1.995,2.943,3.784,6.037,5.707,9.033
				c0.277,0.393,0.574,0.816,0.859,1.22c0.169,0.249,0.349,0.533,0.462,0.774c0.077,0.172,0.138,0.374,0.103,0.376
				c-0.03,0.001-0.243-0.21-0.403-0.356c-0.118-0.109-0.245-0.289-0.366-0.44c-2.092-2.541-3.97-5.24-5.889-7.911
				c-1.247-1.721-2.623-3.366-3.968-4.988c-0.684-0.817-1.262-1.737-2.06-2.449c-1.936-1.715-4.25-2.907-6.444-4.373
				c-0.42-0.28-0.721-0.732-1.132-1.022c-2.811-1.952-5.14-4.688-6.504-7.848c-0.566-1.306-1.008-2.659-1.325-4.035
				c-0.318-1.37-0.536-2.747-1.04-4.017c-0.489-1.321-1.431-2.367-2.391-3.44c-0.479-0.539-0.957-1.102-1.366-1.739
				c-0.407-0.639-0.718-1.363-0.903-2.098c-0.343-1.365-0.338-2.733-0.375-4.038c-0.016-1.314-0.15-2.563-0.518-3.811
				c-0.338-1.197-0.966-2.299-1.436-3.477c-0.697-1.744-1.364-3.597-1.495-5.578C258.56,75.903,258.582,75.087,258.813,74.315z
				 M239.46,72.824c0.311-0.963,0.676-1.911,1.17-2.791c0.201-0.403,0.483-0.763,0.835-1.338c-0.349,1.007-0.543,2.249-0.976,3.251
				c-0.571,1.455-0.916,3.015-0.942,4.577c-0.123,6.663,2.245,12.9,5.163,18.815c1.442,2.93,3.037,5.816,4.855,8.552
				c3.013,4.59,6.267,9.013,9.512,13.448c2.148,2.94,4.38,5.829,6.444,8.852c3.348,4.871,6.406,10.025,8.541,15.602
				c1.673,4.326,2.716,8.883,3.372,13.432c0.082,0.637,0.246,1.262,0.306,1.905c0.046,0.387,0.085,0.819,0.084,1.16
				c-0.005,0.241-0.037,0.504-0.07,0.483c-0.028-0.018-0.13-0.39-0.212-0.654c-0.059-0.196-0.096-0.477-0.141-0.721
				c-0.818-4.142-1.872-8.229-3.298-12.208c-0.927-2.575-2.187-5.015-3.423-7.447c-0.63-1.233-1.11-2.548-1.8-3.754
				c-1.682-2.909-3.54-5.704-5.395-8.499c-0.356-0.531-0.547-1.176-0.909-1.704c-2.473-3.551-4.995-7.065-7.352-10.706
				c-1.96-3.008-3.931-6.013-5.949-8.985c-2.064-3.062-4.22-6.081-6.014-9.349c-1.663-3.009-2.902-6.266-3.697-9.629
				c-0.376-1.611-0.806-3.232-0.918-4.907C238.462,77.73,238.734,75.203,239.46,72.824z"/>
		</g>
		<g>
			<path style="fill:#7e3035;" d="M309.311,161.446c-0.078,0.396-0.143,0.798-0.209,1.2c0.16-0.688,0.268-1.387,0.35-2.09
				C309.409,160.854,309.367,161.153,309.311,161.446z"/>
		</g>
		<g>
			<path style="fill:#7e3035;" d="M292.592,50.96c1.134,1.236,1.939,2.661,2.882,3.96c0.773,1.099,1.562,2.184,2.374,3.253
				l0.779,1.007c0.559,0.307,1.053,0.716,1.406,1.249c0.004,0.007,0.008,0.014,0.012,0.021c0.031-0.064,0.058-0.131,0.092-0.192
				c0.039-0.094,0.174-0.307,0.298-0.513c0.249-0.401,0.542-0.775,0.857-1.136c0.646-0.704,1.419-1.315,2.3-1.755
				c1.408-0.707,3.126-1.036,4.756-0.708c1.631,0.285,3.1,1.162,4.229,2.232c0.38,0.37,0.717,0.764,1.031,1.169
				c0.462-0.602,1.012-1.219,1.714-1.534c1.277-0.662,2.92-1.021,4.279-0.234c0.69,0.392,1.242,0.927,1.857,1.069
				c0.612,0.159,1.416,0.084,2.23,0.322c1.623,0.438,2.898,1.668,3.73,3.007c0.751,1.2,1.237,2.518,1.548,3.859
				c0.855-0.166,1.825-0.225,2.652,0.073c1.57,0.491,2.989,1.279,4.34,2.16c2.894,1.899,4.864,5.007,5.972,8.248
				c1.129,3.26,1.552,6.712,1.46,10.121c-0.118,3.368-0.79,6.663-1.697,9.854c-0.787,2.656-1.782,5.279-3.31,7.62
				c-0.322,0.499-0.68,0.97-1.058,1.424c-0.144,0.224-0.297,0.442-0.431,0.673c-2.28,3.896-5.665,7.083-9.42,9.498
				c-1.857,1.198-3.796,2.243-5.63,3.438c-3.083,1.967-6.158,3.956-9.061,6.171c-1.928,1.46-3.709,3.103-5.428,4.76
				c-1.167,1.128-2.268,2.31-3.313,3.526c-0.5,0.626-1.022,1.232-1.49,1.877c-0.239,0.318-0.491,0.628-0.711,0.958l-0.168,0.239
				c0.036,0.047,0.073,0.095,0.109,0.142c0.005,0.006,0.012,0.013,0.016,0.017l0.167,0.178l0.329,0.36
				c1.69,1.903,3.029,4.048,4.165,6.257c0.171,0.295,0.329,0.599,0.493,0.899c0.553-0.734,1.148-1.627,1.926-2.168
				c1.166-0.896,2.323-1.792,3.387-2.792c4.516-4.246,9.527-7.882,14.617-11.329c2.509-1.703,5.044-3.389,7.349-5.365
				c3.858-3.279,7.394-6.974,10.27-11.126c1.896-2.756,3.403-5.754,4.561-8.835l0.648-1.886l0.54-1.912l0.434-1.932
				c0.128-0.648,0.244-1.332,0.426-2.042c0.172-0.701,0.449-1.464,0.806-2.129c0.35-0.663,0.737-1.246,1.074-1.799
				c0.706-1.115,1.072-2.052,1.069-3.246c0.023-1.841-0.695-3.905-0.889-6.133c-0.141-1.628,0.113-3.203,0.537-4.699
				c-0.013,0-0.025-0.001-0.039-0.001c-1.14-0.285,0.855-11.687-0.57-13.967c-1.425-2.28-3.991-5.131-5.986-6.841
				c-1.995-1.71-4.561-8.266-9.977-9.406c-5.416-1.14-7.696,1.71-11.687,0c-3.991-1.71-11.972-5.416-18.243-5.416
				c-5.042,0-15.42,4.603-19.298,6.409c0.172,0.065,0.347,0.119,0.517,0.192C289.987,48.735,291.429,49.726,292.592,50.96z"/>
		</g>
		<g>
			<path style="fill:#7e3035;" d="M251.909,167.779c0,0-16.533-2.28-20.808-5.416c-1.951,0,5.921,9.537,27.066,9.957
				c0.352-0.262,0.723-0.5,1.128-0.688c0.664-0.316,1.38-0.538,1.976-0.925c1.012-0.627,1.988-1.303,2.968-2.006
				c0.668-0.458,1.221-1.03,1.96-1.504c0.206-0.123,0.439-0.237,0.688-0.339c-0.715-0.707-1.434-1.401-2.221-2.037
				c-0.629-0.505-1.409-0.782-2.119-1.148c-0.366-0.177-0.633-0.538-1.015-0.694c-0.922-0.377-1.877-0.668-2.801-1.042
				c-0.176-0.072-0.268-0.323-0.446-0.391c-1.212-0.438-2.408-0.943-3.482-1.695l-2.639-1.87c-0.454-0.318-0.925-0.615-1.367-0.963
				c-0.462-0.322-0.905-0.68-1.302-1.077c-0.751-0.721-1.293-1.6-1.898-2.404c-0.229-0.301-0.535-0.542-0.809-0.808
				c-3.737-2.276-8.425-4.619-12.266-4.904c-7.696-0.57-15.963-9.121-15.963-9.121S223.405,163.788,251.909,167.779z"/>
		</g>
		<g>
			<path style="fill:#7e3035;" d="M355.314,88.848c-0.064,1.342-0.717,2.584-1.373,3.648c-0.686,1.085-1.398,2.092-1.642,3.363
				c-0.547,3.043-1.331,6.15-2.648,9.015c-0.23,0.559-0.694,1.002-0.954,1.54c-1.769,3.64-4.157,6.974-6.95,9.882
				c-2.31,2.414-4.775,4.654-7.276,6.844c-2.58,2.243-5.183,4.469-7.881,6.569c-2.488,1.941-5.102,3.701-7.636,5.563
				c-1.215,0.894-2.307,1.947-3.492,2.874l-0.728,0.561c0.161-0.092,0.329-0.173,0.484-0.277c2.607-1.847,5.483-3.247,8.526-4.157
				c1.497-0.461,3.033-0.797,4.485-1.351c2.445-0.875,4.858-1.834,7.254-2.844c1.587-0.67,3.13-1.465,4.699-2.18
				c1.018-0.465,2.037-0.918,3.062-1.355c0.005-0.032,0.011-0.066,0.016-0.098c3.872-1.867,8.095-4.072,10.127-5.699
				c4.276-3.421,6.271-5.416,7.981-7.411c1.71-1.995,3.991-11.402,4.276-12.542c0.285-1.14,5.701-6.556,4.276-9.121
				c-1.397-2.514-4.715-14.053-15.577-14.515c-0.151,0.715-0.277,1.433-0.332,2.159c-0.202,1.922,0.307,3.804,0.792,5.706
				C355.097,86.254,355.402,87.523,355.314,88.848z"/>
		</g>
		<g>
			<path style="fill:#7e3035;" d="M325.777,61.766c-0.44-0.531-0.991-0.956-1.586-1.238c-0.611-0.289-1.196-0.417-1.905-0.486
				c-0.519-0.057-1.232-0.163-1.803-0.54c-0.55-0.347-0.931-0.75-1.312-1.009c-0.725-0.521-1.674-0.573-2.63-0.249
				c-0.773,0.26-1.529,0.688-2.261,1.164c-0.161,0.109-0.328,0.212-0.514,0.333c0.155,0.208,0.3,0.422,0.441,0.636
				c1.624,1.778,2.793,4.001,3.422,6.338c0.712,2.584,0.948,5.247,1.008,7.849c0.058,2.611-0.083,5.227-0.428,7.815
				c-0.275,2.009-0.67,4.002-1.235,5.975c-0.572,1.964-1.326,3.902-2.43,5.624c-0.039,0.063-0.079,0.125-0.118,0.188
				c1.702-0.797,3.398-1.635,5.034-2.518c1.673-0.918,3.28-1.94,4.572-3.304c2.172-2.258,3.379-5.357,4.04-8.466
				c0.483-2.261,0.654-4.572,0.596-6.868c-0.103-0.465-0.213-0.929-0.293-1.396c-0.234-1.205-0.314-2.436-0.472-3.661
				c-0.057-0.5-0.101-1.003-0.114-1.516c-0.003-0.089,0.002-0.185,0.007-0.283C327.397,64.553,326.803,63.032,325.777,61.766z"/>
		</g>
		<g>
			<path style="fill:#7e3035;" d="M341.352,96.405c0.983-3.567,1.253-7.298,1.012-10.955c-0.238-3.365-0.735-6.765-1.958-9.911
				c-0.598-1.505-1.521-2.842-2.483-4.088c-1.428-1.854-3.277-3.375-5.445-4.301c-0.883-0.364-1.811-0.636-2.774-0.781
				c-0.216-0.035-0.433-0.069-0.681-0.095c0.02,0.094,0.048,0.187,0.066,0.282c0.292,1.504,0.445,3.031,0.462,4.554
				c0.001,0.24-0.02,0.478-0.025,0.718c0.607,2.615,0.832,5.312,0.646,7.991c-0.086,1.694-0.393,3.369-0.451,5.046
				c-0.227,2.797-0.405,5.598-0.769,8.393c-0.087,0.932-0.214,1.857-0.32,2.791c-0.096,0.936-0.212,1.872-0.397,2.794
				c-0.495,3.007-1.318,5.977-2.623,8.74c-0.526,1.066-1.08,2.117-1.741,3.11c-0.622,0.977-1.233,1.949-1.897,2.889
				c0.524-0.198,1.05-0.394,1.57-0.602c0.601-0.222,1.266-0.297,1.852-0.564c3.683-1.729,7.429-3.494,10.405-6.174
				c0.628-0.791,1.244-1.592,1.852-2.407c0.364-0.536,0.769-1.053,1.131-1.6c0.167-0.242,0.374-0.464,0.628-0.837
				c-0.011,0.041-0.02,0.09-0.03,0.132C340.219,99.907,340.855,98.158,341.352,96.405z"/>
		</g>
		<g>
			<path style="fill:#7e3035;" d="M269.866,86.982c1.933,3.169,3.848,6.38,5.672,9.638c1.792,3.216,3.515,6.472,5.431,9.612
				c3.18,5.256,6.428,10.477,9.809,15.604c2.243,3.396,4.654,6.676,7.097,9.912c0.937,1.249,1.905,2.479,2.87,3.719l0.071-0.105
				c0.56-0.754,1.268-1.385,1.867-2.097c1.427-1.748,2.97-3.42,4.669-4.919c0.321-0.291,0.776-0.418,1.105-0.694
				c2.195-1.91,4.564-3.605,7.065-5.064c2.065-1.217,4.143-2.405,6.126-3.735c2.043-1.364,3.975-2.885,5.871-4.423
				c1.746-1.422,3.534-2.792,5.142-4.363c0.384-0.377,0.726-0.792,1.056-1.215c-0.46,0.332-0.928,0.653-1.405,0.954
				c-3.145,1.95-6.441,3.649-9.897,5.026c-5.592,2.182-11.563,3.599-17.602,3.729c-4.692,0.144-9.363-0.509-13.889-1.483
				c-0.636-0.118-1.277-0.214-1.908-0.377c-0.382-0.089-0.806-0.197-1.128-0.314c-0.226-0.086-0.464-0.209-0.434-0.231
				c0.027-0.02,0.415,0.009,0.693,0.023c0.206,0.011,0.485,0.073,0.732,0.114c4.204,0.66,8.432,1.165,12.693,1.156
				c2.759,0.034,5.5-0.378,8.213-0.782c1.379-0.195,2.782-0.283,4.149-0.579c2.521-0.591,4.987-1.372,7.406-2.263
				c0.821-1.752,1.723-3.457,2.524-5.218c0.577-1.272,0.949-2.626,1.363-3.955c0.22-0.67,0.643-1.273,0.807-1.965l0.601-2.496
				c0.161-0.841,0.328-1.678,0.515-2.509c0.076-0.315,0.337-0.59,0.385-0.914c0.363-2.174,0.703-4.334,1.137-6.493
				c0.155-0.897,0.341-1.794,0.46-2.699c0.101-0.907,0.184-1.817,0.237-2.728c0.049-1.879-0.066-3.756-0.203-5.623l-0.129-2.453
				c-0.179,1.067-0.382,2.128-0.615,3.177c-0.557,2.401-1.31,4.791-2.595,6.927c-1.253,2.162-3.203,3.869-5.336,5.144
				c-2.398,1.417-4.846,2.711-7.363,3.891c-0.083,0.082-0.165,0.169-0.248,0.231c-0.169,0.131-0.37,0.252-0.377,0.215
				c-0.003-0.016,0.048-0.102,0.113-0.209c-0.297,0.137-0.591,0.28-0.891,0.413c-2.441,1.069-4.936,2.041-7.487,2.835
				c-2.548,0.796-5.097,1.42-7.572,2.169c-1.923,0.583-3.822,1.204-5.617,2.083c-1.499,0.73-2.92,1.648-4.175,2.771
				c-0.053,0.085-0.118,0.164-0.141,0.151c-0.002-0.001-0.005-0.01-0.007-0.014c-0.194,0.178-0.396,0.347-0.58,0.536
				c-0.393,0.407-0.708,0.877-1.052,1.326c-0.19,0.284-0.422,0.588-0.603,0.829c-0.136,0.164-0.31,0.333-0.326,0.3
				c-0.013-0.028,0.112-0.351,0.195-0.588c0.059-0.178,0.209-0.389,0.319-0.585c0.557-0.948,1.241-1.793,2.001-2.562
				c0.085-1.86,0.394-3.683,0.486-5.529c0.069-1.22-0.144-2.436-0.344-3.618c-0.103-0.598-0.03-1.235-0.219-1.823
				c-0.428-1.425-1.165-2.71-1.926-3.961c-0.141-0.24-0.122-0.579-0.286-0.813c-1.093-1.569-2.305-3.06-3.335-4.719
				c-0.86-1.367-1.708-2.748-2.527-4.147c-0.843-1.438-1.642-2.934-2.173-4.543c-0.499-1.483-0.673-3.05-0.774-4.599
				c-0.051-0.742-0.248-1.485-0.245-2.241c0.01-1.119,0.194-2.233,0.499-3.307c0.143-0.433,0.271-0.868,0.483-1.278
				c0.087-0.185,0.218-0.357,0.348-0.634c0.039,0.499,0.191,1.097,0,1.555c-0.244,0.662-0.405,1.359-0.36,2.064
				c0.164,2.983,0.579,5.799,1.157,8.67c0.288,1.412,0.661,2.852,1.375,4.135c1.166,2.159,2.754,4.045,4.32,5.948
				c1.029,1.27,2.167,2.491,3.065,3.939c0.721,1.163,1.352,2.444,1.719,3.807c0.38,1.357,0.5,2.763,0.449,4.135
				c-0.098,2.143-0.699,4.177-1.194,6.177c-0.028,0.112-0.043,0.226-0.059,0.34c1.862-1.73,4.151-3.015,6.472-3.959
				c2.289-0.929,4.614-1.794,6.977-2.496c1.199-0.355,2.449-0.516,3.635-0.9c2.864-0.938,5.65-2.079,8.407-3.263
				c0.35-0.151,0.735-0.226,1.108-0.329c1.673-2.848,2.434-6.148,2.932-9.433c0.357-2.367,0.395-4.769,0.452-7.153
				c0.031-1.209,0.227-2.42,0.183-3.634c-0.104-2.738-0.428-5.47-1.213-8.026c0.017,1.414,0.003,2.822-0.084,4.234
				c-0.102,1.676-0.55,3.354-1.26,4.896c-0.707,1.547-1.642,2.969-2.651,4.303c-1.002,1.346-2.108,2.575-3.234,3.794
				c-1.122,1.221-2.265,2.423-3.411,3.618c-1.146,1.146-2.412,2.325-3.984,2.987c-1.575,0.678-3.351,0.582-4.896,0.04
				c-2.651-0.906-4.563-3.079-6.14-5.263c-0.783-1.097-1.632-2.243-1.9-3.656c-0.252-1.411,0.055-2.804,0.382-4.133
				c0.924-3.536,2.817-6.899,5.624-9.424c0.578-0.5,1.159-0.979,1.807-1.419c0.651-0.436,1.403-0.851,2.302-1.034
				c0.909-0.186,1.845-0.066,2.658,0.213c0.82,0.277,1.553,0.706,2.21,1.24c2.618,2.138,3.724,5.854,2.607,9.063
				c-0.874,2.526-3.109,4.247-5.461,4.894c-1.192,0.307-2.448,0.385-3.637,0.117c-0.299-0.074-0.578-0.116-0.908-0.266
				c-0.327-0.123-0.687-0.489-0.761-0.857c-0.15-0.71-0.008-1.266,0.148-1.857c0.198-0.637,0.473-1.261,0.915-1.768
				c0.257-0.311,0.602-0.606,0.91-0.77c0.216-0.119,0.479-0.182,0.469-0.148c-0.006,0.033-0.303,0.27-0.474,0.474
				c-0.133,0.146-0.332,0.332-0.481,0.518c-0.627,0.796-0.996,1.79-0.988,2.781c-0.007,0.518,0.108,0.909,0.551,1.032
				c0.448,0.138,0.977,0.2,1.472,0.232c2.02,0.07,4.071-0.743,5.514-2.193c0.941-0.932,1.557-2.171,1.731-3.467
				c0.17-1.298-0.032-2.626-0.524-3.819c-0.473-1.207-1.154-2.413-2.242-3.196c-1.309-0.925-3.002-1.328-4.372-0.6
				c-1.384,0.698-2.652,1.821-3.775,2.951c-0.424,0.443-0.982,0.779-1.362,1.274c-1.286,1.661-2.25,3.548-2.909,5.52
				c-0.604,1.975-1.231,4.082-0.332,5.901c0.338,0.765,0.822,1.502,1.308,2.238c0.488,0.732,1.006,1.441,1.578,2.101
				c1.137,1.315,2.535,2.448,4.187,2.98c1.678,0.577,3.576,0.457,5.031-0.507c1.466-0.945,2.624-2.364,3.804-3.754
				c2.143-2.582,4.592-4.94,6.556-7.632c0.938-1.294,1.611-2.743,2.192-4.176c0.881-2.128,1.167-4.437,1.159-6.81
				c-0.001-0.963-0.032-1.937-0.059-2.916c-0.001-0.044-0.001-0.09-0.001-0.135c-0.773-1.186-1.544-2.364-2.478-3.423
				c-0.885-0.992-2.034-1.703-3.193-2.229c-0.206-0.084-0.408-0.188-0.612-0.291c-0.518-0.18-1.048-0.328-1.601-0.404
				c-0.35-0.04-0.705-0.052-1.061-0.043c-1.069,0.115-2.096,0.5-2.996,1.031c-0.244,0.151-0.603,0.138-0.833,0.333
				c-0.401,0.304-0.745,0.671-1.066,1.046c-0.338,0.417-0.503,0.662-1.002,1.504l-0.284,0.521l-0.143,0.262
				c-0.021,0.08-0.057-0.018-0.087-0.032l-0.093-0.098c-0.249-0.274-0.508-0.484-0.766-0.901l-0.379-0.549l-0.218-0.333
				l-0.431-0.669c-0.029-0.046-0.059-0.091-0.087-0.137c-0.736-0.267-1.554-0.338-2.338-0.255c-0.762,0.08-1.509,0.291-2.189,0.617
				c-0.673,0.321-1.293,0.791-1.877,1.298c-2.128,1.897-3.803,4.495-6.17,6.436c-1.081,0.952-2.059,1.987-2.946,3.016
				c-1.325,1.529-2.343,3.325-3.004,5.275c-0.261,0.795-0.474,1.614-0.63,2.453c-0.065,0.376-0.161,0.751-0.217,1.337
				c-0.185-0.891-0.398-2.047-0.098-3.007c0.371-1.369,0.894-2.663,1.449-3.948c0.601-1.354,1.441-2.638,2.472-3.732
				c1.02-1.099,2.146-2.043,3.147-3.041c1.835-1.814,3.377-4.163,5.68-5.831c-0.048-0.039-0.095-0.08-0.142-0.117
				c-1.74-1.309-3.36-2.784-5.313-3.698c-1.265-0.602-2.714-0.533-4.007-0.232c-0.652,0.151-1.371,0.218-1.952,0.605
				c-0.692,0.461-1.253,1.087-1.585,1.804c-0.184,0.325-0.265,0.83-0.764,1.273c-0.538,0.43-1.135,0.406-1.526,0.452
				c-0.296,0.032-0.625-0.122-0.929-0.034c-2.034,0.592-3.643,2.092-4.912,3.819c-1.064,1.451-1.823,3.158-2.392,4.91
				c-0.591,1.805-0.95,3.675-1.303,5.53l-0.51,2.564c-0.149,0.844-0.391,1.75-0.368,2.499c0.001,0.018,0.01,0.033,0.012,0.05
				c0.229,0.458,0.468,0.91,0.707,1.362c0.133,0.165,0.27,0.334,0.401,0.515c0.733,1.017,1.406,2.077,2.022,3.177
				c0.253,0.446,0.496,0.9,0.711,1.372c0.099,0.21,0.16,0.444,0.311,0.761c-0.071-0.057-0.15-0.114-0.228-0.172
				C269.648,86.614,269.756,86.799,269.866,86.982z"/>
		</g>
		<g>
			<path style="fill:#7e3035;" d="M351.71,146.152c-6.447,1.959-12.975,4.501-18.148,8.696c-0.009,0.011-0.016,0.023-0.024,0.035
				c-0.02,0.026-0.036,0.055-0.057,0.081c-0.368,0.475-0.874,0.835-1.237,1.309l-1.342,1.719c-0.473,0.552-0.953,1.102-1.449,1.637
				c-0.199,0.194-0.535,0.243-0.73,0.44c-1.277,1.374-2.744,2.566-4.342,3.546l-4.019,2.321c-0.408,0.235-0.814,0.478-1.221,0.719
				c-0.279,0.164-0.559,0.323-0.836,0.492c-0.696,0.386-1.399,0.769-2.113,1.128c-0.673,0.3-1.361,0.569-2.054,0.821l-2.114,0.649
				c-0.444,0.135-0.872,0.336-1.313,0.509c-0.229,0.09-0.46,0.174-0.7,0.232c-1.036,0.259-2.131,0.356-3.215,0.255
				c-0.44-0.04-0.879-0.116-1.302-0.256c-0.038-0.011-0.077-0.031-0.115-0.046c-0.641,0.879-1.411,1.662-2.267,2.337
				c-0.509,0.402-1.041,0.776-1.611,1.085c-1.286,0.698-2.628,1.241-3.977,1.748c-1.387,0.516-2.813,1.008-4.308,1.225
				c-0.035,0.006-0.07,0.007-0.105,0.013c-0.264,0.04-0.53,0.058-0.796,0.074c-0.028,0.002-0.055,0.004-0.083,0.005
				c0.079,0.155,0.16,0.309,0.236,0.465c0.17,0.35,0.33,0.704,0.483,1.061c0.154,0.359,0.297,0.722,0.432,1.089
				c-0.012-0.143-0.022-0.283-0.034-0.426c1.061,1.616,2.64,2.987,4.297,4.008c2.982,1.839,6.391,3.002,9.103,5.22
				c3.317,2.713,5.254,6.718,7.09,10.591c0.46-1.057,0.767-2.173,0.954-3.31c-0.011,0.057-0.021,0.113-0.04,0.169
				c-0.027,0.097-0.073,0.202-0.138,0.277c-0.051,0.052-0.132,0.102-0.159,0.09c-0.023-0.011-0.051-0.116-0.08-0.192
				c-0.02-0.056-0.003-0.126,0.001-0.189c0.022-1.075,0.171-2.116,0.182-3.189c0.002-0.694-0.224-1.37-0.362-2.044
				c-0.06-0.343,0.049-0.715-0.039-1.057c-0.235-0.823-0.568-1.618-0.819-2.43c-0.048-0.155,0.098-0.358,0.043-0.512
				c-0.389-1.033-0.721-2.086-0.872-3.184c-0.133-0.907-0.287-1.812-0.606-2.664c-0.325-0.877-0.803-1.693-1.244-2.499
				c-0.422-0.735-0.717-1.531-1.171-2.243c-0.229-0.332-0.594-0.564-0.86-0.852c-0.187-0.229-0.372-0.454-0.557-0.68
				c-0.169-0.245-0.362-0.465-0.537-0.714l-0.435-0.619c-0.066-0.095-0.101-0.232-0.203-0.382c0.138,0.032,0.34,0.002,0.506,0.034
				c0.168,0.029,0.308,0.104,0.4,0.22c0.246,0.352,0.516,0.651,0.867,0.881c1.544,0.94,2.613,2.523,3.021,4.229
				c0.216,0.843,0.291,1.713,0.548,2.51c0.408,1.342,0.85,2.672,1.357,3.987c0.332,0.872,0.799,1.712,1.153,2.597
				c0.476,1.17,0.862,2.408,0.953,3.696c2.855,5.26,5.476,10.647,7.826,16.152c0.981-4.216,3.88-7.757,5.105-11.909
				c1.779-6.029-0.482-13.04-5.447-16.894c2.785,0.53,5.57,1.06,8.354,1.59c-0.353-4.144-2.986-7.742-6.411-10.197
				c4.122-0.76,8.154-2.005,11.972-3.738c-1.621,0.24-3.321-0.088-4.737-0.915c8.877,0.992,17.779-2.598,24.909-7.978
				c7.13-5.381,12.767-12.455,18.316-19.455C368.282,141.838,359.831,143.684,351.71,146.152z"/>
		</g>
		<g>
			<path style="fill:#7e3035;" d="M308.878,164.908c-0.129,0.341-0.277,0.674-0.46,0.991c-0.195,0.396-0.454,0.813-0.703,1.108
				c-0.078,0.094-0.161,0.185-0.233,0.256c-0.007,0.017-0.016,0.034-0.023,0.051c-0.352,0.803-0.761,1.585-1.255,2.32
				c-0.051,0.075-0.095,0.154-0.147,0.228c-0.027,0.042-0.066,0.075-0.104,0.109c0.124-0.01,0.244-0.004,0.36,0.026
				c0.613,0.111,1.249,0.118,1.853-0.042c0.043-0.011,0.087-0.016,0.13-0.029c1.36-0.409,2.657-0.925,3.975-1.421
				c1.317-0.486,2.65-0.917,3.996-1.356c0.654-0.237,1.345-0.405,1.998-0.66c0.051-0.02,0.101-0.042,0.152-0.063
				c0.601-0.24,1.199-0.492,1.768-0.798c2.064-1.111,3.968-2.506,5.706-4.065c0.837-0.758,1.586-1.602,2.318-2.456
				c0.273-0.318,0.551-0.634,0.818-0.953c1.606-1.899,3.058-3.867,4.636-5.752c0.635-0.72,1.238-1.466,1.906-2.184
				c0.468-0.593,0.958-1.183,1.415-1.796c3.282-7.251,5.062-14.867,6.002-20.318c-1.028,0.458-2.056,0.918-3.101,1.331
				c-0.283,0.112-0.633,0.037-0.914,0.153c-1.889,0.804-3.802,1.533-5.776,2.089c-1.634,0.463-3.26,0.955-4.837,1.578
				c-1.619,0.646-3.184,1.428-4.764,2.158c-1.457,0.676-2.973,1.21-4.435,1.871c-0.698,0.324-1.324,0.799-2.007,1.148
				c-1.004,0.541-2.075,0.951-3.127,1.404c-0.432,0.178-0.871,0.345-1.326,0.484c-0.025,0.008-0.054,0.013-0.079,0.02l-2.468,1.902
				c-0.708,0.57-1.452,1.104-2.177,1.661c-0.276,0.197-0.579,0.412-0.981,0.699c0.669,1.231,1.289,2.493,1.802,3.81
				c1.913,4.928,2.288,10.565,0.469,15.477c-0.086,0.255-0.186,0.504-0.286,0.754C308.943,164.73,308.914,164.82,308.878,164.908z"
				/>
		</g>
		<g>
			<path style="fill:#7e3035;" d="M313.048,305.415c-0.877,0-1.766,0.028-2.659,0.072c-0.078,0.08-0.156,0.159-0.19,0.256
				c-0.419,1.354-0.945,2.674-1.685,3.887c-0.604,1.008-1.234,1.995-1.755,3.04c-0.558,1.061-1.002,2.192-1.578,3.253
				c-0.515,0.989-1.203,1.872-1.839,2.782c-0.306,0.436-0.448,0.985-0.751,1.426c-0.453,0.652-0.955,1.271-1.546,1.817
				c-0.242,0.221-0.49,0.437-0.751,0.642c-0.116,0.092-0.272,0.152-0.449,0.289c0.057-0.17,0.054-0.408,0.11-0.602
				c0.052-0.198,0.149-0.362,0.284-0.484c0.386-0.348,0.748-0.718,0.952-1.199c0.915-1.999,1.971-3.84,3.34-5.52
				c0.682-0.823,1.39-1.644,1.914-2.57c0.866-1.551,1.606-3.173,2.176-4.859c0.238-0.682,0.417-1.384,0.586-2.089
				c-1.185,0.086-2.372,0.215-3.552,0.394c-0.448,1.291-0.867,2.599-1.399,3.861c-0.103,0.245-0.38,0.409-0.486,0.652
				c-0.355,0.823-0.683,1.661-1.088,2.462c-0.418,0.794-0.853,1.579-1.351,2.329c-0.824,1.242-1.674,2.458-2.446,3.725
				c-0.816,1.287-1.537,2.646-2.417,3.905c-0.387,0.594-0.842,1.138-1.309,1.672c-0.464,0.535-0.93,1.068-1.421,1.578
				c-0.463,0.495-0.77,1.136-1.243,1.629c-0.715,0.717-1.448,1.422-2.301,1.986c-0.341,0.236-0.69,0.462-1.058,0.661
				c-0.163,0.091-0.354,0.148-0.599,0.286c0.222-0.405,0.401-0.977,0.813-1.195c0.555-0.349,1.084-0.738,1.456-1.281
				c1.66-2.21,3.292-4.334,5.161-6.333c0.938-0.972,1.862-1.977,2.617-3.098c1.241-1.885,2.318-3.877,3.211-5.95
				c0.598-1.371,1.048-2.809,1.529-4.224c0.282-0.807,0.56-1.613,0.845-2.417c-6.448,1.224-12.43,4.048-15.619,9.586
				c-0.051-0.006-0.102-0.007-0.153-0.012c-0.131,0.167-0.303,0.315-0.382,0.505c-0.705,1.796-1.561,3.541-2.678,5.127
				c-0.923,1.313-1.882,2.588-2.82,3.878c-0.966,1.324-1.902,2.688-3,3.929c-1.006,1.153-2.207,2.116-3.414,3.048
				c-0.567,0.459-1.058,1.032-1.658,1.464c-0.895,0.633-1.865,1.163-2.892,1.558c-0.411,0.173-0.838,0.314-1.28,0.411
				c-0.196,0.048-0.408,0.055-0.701,0.128c0.355-0.343,0.717-0.846,1.198-0.965c0.658-0.232,1.305-0.512,1.833-0.973
				c2.266-1.899,4.339-3.841,6.562-5.742c1.082-0.948,2.186-1.916,3.065-3.07c1.478-1.918,2.715-4.017,3.708-6.223
				c0.471-1.027,0.849-2.095,1.209-3.165c-6.337-0.248-12.755,2.522-16.861,7.368c-0.939,1.108-1.782,2.332-2.972,3.164
				c-1.112,0.777-2.447,1.154-3.734,1.585c-2.221,0.744-4.361,1.714-6.413,2.844c-0.355-0.008-0.71,0.003-1.064,0.014
				c-0.128,0.218-0.248,0.44-0.388,0.65c-0.467,0.74-1.089,1.361-1.654,2.022c-0.271,0.317-0.392,0.76-0.658,1.084
				c-0.402,0.475-0.84,0.921-1.36,1.287c-0.213,0.148-0.431,0.291-0.661,0.421c-0.102,0.059-0.242,0.082-0.399,0.169
				c0.046-0.138,0.037-0.345,0.081-0.504c0.041-0.162,0.124-0.288,0.243-0.369c0.339-0.232,0.655-0.488,0.83-0.864
				c0.717-1.442,1.584-2.712,2.697-3.812c-2.991,0.293-5.916,1.267-8.434,2.909c-3.508,2.288-6.171,5.806-7.522,9.765
				c-5.565,7.163-13.472,12.27-21.811,16.572c-4.5,1.213-8.829,3.04-12.841,5.413c2.815-3.753,5.629-7.505,8.444-11.258
				c3.816-5.087,7.627-10.182,11.396-15.309c0.004,0.022,0.006,0.043,0.01,0.065c0.256-0.376,0.512-0.751,0.768-1.127
				c7.611-10.383,14.992-20.926,21.733-31.88c2.863-4.199,5.726-8.398,8.588-12.598c3.745-5.494,7.513-11.029,10.178-17.121
				c-4.181-0.246-8.321,2.487-9.89,6.343c2.4-7,4.799-13.999,7.198-20.999c1.796-1.339,3.829-2.362,5.987-2.965
				c-1.545-1.147-2.71-2.752-3.415-4.54c5.103-14.886,10.205-29.771,15.308-44.657c1.575,5.251,2.347,10.058,1.59,11.724
				c-0.254,2.03,11.908-9.735,11.564-35.472c-0.094-0.53-0.195-1.059-0.309-1.587c-0.272-1.243-0.801-2.415-1.25-3.595
				c-0.224-0.6-0.291-1.262-0.558-1.85c-0.114-0.244-0.25-0.475-0.371-0.714c-0.16-0.314-0.319-0.629-0.488-0.938l-0.283-0.004
				c-0.023-0.112-0.017-0.256-0.027-0.382c-0.004-0.073-0.012-0.145-0.016-0.219c-0.348-0.614-0.705-1.222-1.061-1.826
				c-0.151-0.252-0.127-0.607-0.286-0.856c-0.531-0.839-1.127-1.566-1.906-1.901c-0.783-0.356-1.801-0.49-2.771-0.682
				c-0.465-0.083-0.933-0.142-1.396-0.156c-0.333-0.01-0.664-0.001-0.989,0.055c-0.778,0.127-1.484,0.529-2.026,1.122
				c-1.104,1.232-1.72,2.915-2.555,4.404c-0.742,1.402-1.633,2.715-2.447,4.074c-0.388,0.654-0.614,1.4-0.989,2.06
				c-0.305,0.547-0.64,1.076-0.989,1.598c0.533-0.635,1.044-1.29,1.511-1.979c-1.087,2.079-3.169,8.062,0.516,14.05
				c0.967,1.571,1.907,3.451,2.776,5.465c-1.14,4.505-2.486,8.958-4.052,13.334c0.174-3.961,0.085-7.934-0.267-11.883
				c-1.556-0.732-3.46,0.453-4.163,2.022s-0.556,3.367-0.468,5.084c0.508,9.991-1.492,19.941-4.009,29.624
				c-5.12,19.7-12.446,38.821-21.758,56.919c-0.72-1.104-1.148-2.498-1.507-3.789c-2.117-7.62-5.083-15.004-8.82-21.973
				c-0.736-3.233-1.293-6.505-1.66-9.8c-0.459-4.126-0.64-8.35-2.081-12.243c-0.288-0.779-0.642-1.546-1.053-2.282
				c-0.19,0.868-0.23,1.763-0.298,2.634c-0.053,0.86-0.228,1.706-0.242,2.569c-0.012,0.414,0.192,0.818,0.227,1.222
				c0.06,0.601,0.071,1.206,0.066,1.827c-0.013,0.261-0.027,0.515-0.04,0.776c-0.008,0.118-0.066,0.248-0.08,0.432
				c-0.218-0.215-0.585-0.469-0.546-0.778c0.013-0.43-0.008-0.84-0.164-1.236c-0.685-1.68-0.738-3.571-0.161-5.268
				c0.284-0.839,0.698-1.624,0.929-2.444c0.017-0.054,0.034-0.108,0.05-0.161c-1.158-1.932-2.721-3.617-4.627-4.666
				c0.046-1.422,0.061-2.841,0.01-4.256c-0.264-7.294-3.116-15.444-9.891-18.161c-0.513-0.206-1.071-0.406-1.472-0.765
				c-0.175,0.648-0.344,1.296-0.483,1.95c-0.253,1.16-0.405,2.35-0.674,3.509c-0.235,1.074-0.657,2.09-0.991,3.129
				c-0.158,0.499-0.137,1.052-0.279,1.555c-0.204,0.749-0.493,1.471-0.826,2.181c-0.144,0.287-0.292,0.573-0.454,0.856
				c-0.072,0.127-0.194,0.239-0.307,0.431c-0.012-0.176-0.105-0.391-0.127-0.591c-0.026-0.201,0.001-0.39,0.082-0.552
				c0.23-0.463,0.427-0.934,0.466-1.449c0.178-2.183,0.706-4.253,1.588-6.207c0.43-0.965,0.923-1.921,1.175-2.943
				c0.198-0.767,0.355-1.546,0.475-2.33c-0.272-0.525-0.226-1.16-0.201-1.757c0.13-3.112-0.906-6.231-2.769-8.722
				c-0.053,0.858-0.116,1.712-0.121,2.566c-0.049,1.164,0.026,2.346-0.092,3.52c-0.085,1.085-0.393,2.137-0.675,3.181
				c-0.139,0.499-0.074,1.057-0.221,1.56c-0.231,0.741-0.488,1.479-0.906,2.149c-0.168,0.273-0.343,0.543-0.533,0.803
				c-0.084,0.117-0.215,0.213-0.345,0.387c0.006-0.176-0.064-0.399-0.068-0.596c-0.008-0.199,0.037-0.377,0.131-0.526
				c0.267-0.424,0.509-0.866,0.543-1.373c0.249-2.109,0.554-4.102,1.141-6.101c0.308-0.983,0.59-1.991,0.67-3.018
				c0.055-1.079,0.033-2.163-0.071-3.238c-0.801-0.94-1.725-1.774-2.758-2.454c-1.657-1.091-3.528-1.803-5.342-2.607
				c-5.788-2.568-11.452-6.706-14.033-12.289c-0.014,0.024-0.028,0.049-0.043,0.074c-0.107,1.002-0.152,2.008-0.079,3.007
				c0.198,2.905,0.577,5.783,1.433,8.483c0.424,1.351,0.978,2.646,1.642,3.886c0.677,1.235,1.494,2.414,2.363,3.575
				c1.712,2.291,3.486,4.624,4.974,7.095c1.257,2.06,2.326,4.233,3.188,6.489c0.886,2.247,1.459,4.619,2.03,6.945
				c0.394,1.536,0.871,3.05,1.582,4.416c0.702,1.367,1.658,2.578,2.699,3.727c1.679,1.863,3.656,3.536,5.41,5.529
				c1.748,1.974,3.289,4.133,4.593,6.421c2.012,3.575,3.346,7.476,4.317,11.388c0.133,0.548,0.318,1.082,0.443,1.633
				c0.074,0.334,0.146,0.708,0.171,1.006c0.013,0.211,0.001,0.446-0.033,0.432c-0.029-0.012-0.158-0.325-0.258-0.546
				c-0.073-0.164-0.131-0.406-0.193-0.613c-1.135-3.519-2.417-6.986-4.122-10.272c-1.107-2.125-2.539-4.059-3.987-5.949
				c-0.739-0.955-1.357-2.016-2.181-2.908c-1.971-2.166-4.288-4.028-6.123-6.455c-0.351-0.462-0.513-1.053-0.819-1.539
				c-1.052-1.654-1.7-3.538-2.144-5.398c-0.454-1.868-0.739-3.728-1.227-5.537c-0.767-3.01-1.974-5.935-3.644-8.577
				c-0.862-1.357-1.836-2.634-2.901-3.839c-1.061-1.209-2.18-2.382-3.215-3.654c-0.952-1.172-1.83-2.447-2.476-3.845
				c-0.659-1.388-1.127-2.853-1.467-4.335c-0.329-1.418-0.714-2.842-0.822-4.301c-0.133-1.613-0.1-3.225,0.024-4.824
				c-3.457,6.16-6.252,12.864-4.686,19.586c0.248,1.064,0.605,2.157,0.376,3.225c-0.061,0.285-0.169,0.552-0.295,0.812
				c0.333,0.345,0.675,0.68,1.052,0.979c0.349,0.293,0.833,0.383,1.209,0.612c0.576,0.318,1.119,0.691,1.699,1.04
				c0.228,0.162,0.465,0.31,0.706,0.465c0.107,0.071,0.201,0.191,0.368,0.303c-0.32,0.068-0.764,0.244-1.038,0.037
				c-0.4-0.257-0.797-0.476-1.251-0.591c-1.259-0.293-2.417-0.943-3.355-1.82c-0.165,0.24-0.333,0.478-0.495,0.717
				c-1.577,2.326-2.398,4.945-2.752,7.696c0.176,0.133,0.348,0.27,0.531,0.394c1.99,1.372,4.127,2.503,6.31,3.555
				c1.442,0.707,2.956,1.293,4.409,2.023c2.345,1.168,4.685,2.521,6.55,4.481c1.455,1.51,2.562,3.348,3.456,5.191
				c0.137,0.25,0.288,0.493,0.413,0.752c0.078,0.154,0.151,0.334,0.181,0.488c0.017,0.11,0.011,0.242-0.02,0.246
				c-0.027,0.003-0.152-0.121-0.248-0.204c-0.07-0.063-0.129-0.172-0.189-0.263c-1.062-1.516-2.133-3.008-3.413-4.353
				c-0.818-0.88-1.85-1.528-2.809-2.234c-0.491-0.354-0.869-0.865-1.391-1.185c-1.254-0.78-2.573-1.445-3.865-2.154
				c-0.244-0.138-0.391-0.444-0.643-0.573c-1.7-0.86-3.388-1.738-4.978-2.818c-1.316-0.894-2.624-1.794-3.959-2.653
				c-0.128-0.083-0.257-0.164-0.385-0.245c-0.167,1.516-0.203,3.068-0.141,4.633c0.059,0.031,0.12,0.056,0.178,0.088
				c0.862,0.463,1.716,0.936,2.622,1.286c0.924,0.376,1.907,0.626,2.842,0.989c0.87,0.321,1.659,0.813,2.48,1.235
				c0.394,0.201,0.874,0.231,1.274,0.423c0.595,0.284,1.156,0.636,1.676,1.061c0.21,0.177,0.416,0.36,0.613,0.558
				c0.089,0.088,0.152,0.221,0.285,0.356c-0.152-0.015-0.358,0.042-0.531,0.034c-0.176-0.003-0.326-0.057-0.443-0.157
				c-0.332-0.283-0.682-0.537-1.11-0.63c-1.801-0.426-3.456-1.085-4.956-2.112c-0.738-0.508-1.459-1.068-2.269-1.429
				c-0.854-0.389-1.734-0.713-2.626-1.008c0.145,2.613,0.519,5.248,0.919,7.784c0.339,2.155,0.693,4.355,1.716,6.282
				c2.026,3.819,6.202,5.83,10.014,7.911c0.629-0.087,1.263-0.168,1.902-0.19c1.078-0.056,2.147,0.125,3.207,0.276
				c0.509,0.066,1.045-0.03,1.558,0.047c0.761,0.116,1.502,0.35,2.209,0.667c0.287,0.134,0.568,0.282,0.841,0.448
				c0.122,0.075,0.228,0.198,0.41,0.314c-0.359,0.059-0.806,0.226-1.106,0.037c-0.443-0.22-0.906-0.395-1.402-0.393
				c-2.1,0.001-4.073-0.091-6.1-0.406c-0.399-0.062-0.804-0.122-1.211-0.171c0.6,1.561,1.899,2.835,3.268,3.852
				c0.657,0.488,1.34,0.952,2.012,1.427c0.444-0.149,0.889-0.293,1.328-0.475c1.265-0.532,2.649-1.044,4.094-1.109
				c1.332-0.095,2.618,0.217,3.871,0.467c0.603,0.12,1.238,0.069,1.836,0.184c0.889,0.164,1.745,0.414,2.605,0.658
				c0.35,0.1,0.701,0.206,1.053,0.332c0.158,0.052,0.313,0.148,0.558,0.226c-0.195,0.045-0.418,0.172-0.644,0.234
				c-0.226,0.067-0.451,0.064-0.655,0.002c-0.58-0.176-1.151-0.332-1.751-0.332c-2.561-0.032-4.929-0.57-7.29-0.763
				c-0.585-0.026-1.183-0.06-1.782,0.008c-0.599,0.066-1.192,0.222-1.767,0.427c-0.358,0.138-0.717,0.275-1.077,0.412
				c0.879,0.641,1.717,1.325,2.402,2.167c1.172,1.438,1.82,3.228,2.843,4.775c3.771,5.701,11.495,6.888,18.299,7.547
				c4.111,0.398,8.222,0.797,12.332,1.195c1.621,1.315,3.079,2.791,4.177,4.562c1.96,3.162,2.578,6.973,2.767,10.689
				c0.479,9.428-1.592,18.973-5.936,27.354c-0.485,0.935-0.998,1.875-1.445,2.835c-0.211,0.338-0.423,0.677-0.633,1.019
				c-1.536,1.008-3.144,1.906-4.814,2.673c-0.426,0.196-0.877,0.4-1.148,0.782c-0.226,0.316-0.297,0.714-0.363,1.097
				c-0.492,2.852-0.984,5.705-1.476,8.557c-15.054,19.354-30.109,38.707-45.163,58.061c-1.827,0.849-3.743,1.508-5.711,1.942
				c-0.156,0.034-0.313,0.068-0.47,0.107c0.3-3.292,0.458-6.597,0.453-9.903c0.875-3.198,1.926-6.347,3.156-9.425
				c1.54-3.855,3.371-7.666,3.936-11.779c0.113-0.823,0.162-1.666,0.147-2.509c-0.576,0.676-1.034,1.447-1.505,2.183
				c-0.452,0.733-1.005,1.397-1.424,2.151c-0.206,0.359-0.217,0.812-0.376,1.185c-0.23,0.559-0.505,1.097-0.803,1.643
				c-0.135,0.223-0.266,0.442-0.401,0.665c-0.063,0.1-0.175,0.188-0.274,0.343c-0.091-0.293-0.295-0.689-0.115-0.944
				c0.214-0.373,0.389-0.745,0.438-1.168c0.188-1.805,1.033-3.497,2.341-4.722c0.646-0.607,1.381-1.103,1.972-1.718
				c0.04-0.04,0.081-0.079,0.121-0.119c-0.111-2.25-0.695-4.473-1.882-6.296c0.71-1.232,1.393-2.477,2.015-3.749
				c3.205-6.558,4.532-15.089-0.162-20.679c-0.355-0.424-0.753-0.863-0.938-1.368c-0.46,0.49-0.915,0.981-1.345,1.492
				c-0.77,0.903-1.465,1.881-2.248,2.777c-0.713,0.837-1.565,1.534-2.349,2.293c-0.374,0.366-0.617,0.863-0.979,1.24
				c-0.533,0.565-1.129,1.065-1.757,1.534c-0.262,0.185-0.527,0.368-0.804,0.541c-0.123,0.078-0.284,0.12-0.474,0.236
				c0.072-0.16,0.092-0.394,0.167-0.581c0.071-0.189,0.185-0.344,0.333-0.449c0.421-0.3,0.817-0.622,1.094-1.058
				c1.186-1.841,2.628-3.418,4.326-4.726c0.835-0.648,1.72-1.259,2.424-2.042c0.536-0.583,1.042-1.197,1.517-1.831
				c0.008-0.592,0.348-1.129,0.651-1.644c1.581-2.683,2.138-5.923,1.669-8.997c-0.452,0.731-0.91,1.455-1.316,2.206
				c-0.591,1.003-1.083,2.081-1.74,3.061c-0.587,0.917-1.354,1.7-2.095,2.487c-0.358,0.375-0.563,0.897-0.93,1.272
				c-0.553,0.545-1.128,1.074-1.812,1.468c-0.277,0.161-0.558,0.317-0.848,0.457c-0.129,0.064-0.29,0.087-0.487,0.179
				c0.088-0.152,0.131-0.382,0.221-0.558c0.087-0.179,0.211-0.315,0.363-0.402c0.436-0.248,0.857-0.524,1.126-0.955
				c1.213-1.743,2.422-3.357,3.882-4.843c0.735-0.721,1.459-1.478,2.014-2.346c0.557-0.925,1.048-1.892,1.463-2.889
				c-0.264-1.207-0.685-2.377-1.276-3.465c-0.947-1.743-2.262-3.253-3.482-4.818c-3.894-4.993-6.938-11.313-6.583-17.453
				c-0.024,0.015-0.048,0.03-0.073,0.045c-0.566,0.833-1.081,1.699-1.488,2.615c-1.195,2.656-2.217,5.372-2.735,8.157
				c-0.263,1.391-0.385,2.795-0.384,4.202c0.015,1.408,0.18,2.834,0.399,4.267c0.43,2.827,0.895,5.721,1.043,8.602
				c0.137,2.409,0.056,4.829-0.247,7.226c-0.278,2.4-0.89,4.761-1.484,7.082c-0.377,1.541-0.67,3.101-0.687,4.641
				c-0.025,1.537,0.247,3.055,0.624,4.559c0.603,2.434,1.557,4.841,2.165,7.426c0.611,2.565,0.952,5.195,1.024,7.828
				c0.089,4.101-0.573,8.171-1.561,12.079c-0.141,0.546-0.229,1.104-0.379,1.649c-0.092,0.329-0.205,0.693-0.324,0.968
				c-0.088,0.193-0.21,0.394-0.232,0.366c-0.02-0.024,0.014-0.361,0.03-0.604c0.013-0.18,0.076-0.42,0.119-0.632
				c0.658-3.639,1.162-7.3,1.206-11.002c0.026-2.396-0.326-4.777-0.712-7.126c-0.201-1.191-0.247-2.417-0.553-3.593
				c-0.717-2.84-1.883-5.574-2.357-8.579c-0.092-0.573,0.044-1.171,0.003-1.743c-0.148-1.954,0.169-3.921,0.654-5.771
				c0.481-1.862,1.106-3.636,1.528-5.461c0.743-3.016,1.057-6.164,0.829-9.282c-0.121-1.603-0.378-3.189-0.749-4.753
				c-0.366-1.567-0.799-3.129-1.113-4.738c-0.287-1.483-0.46-3.021-0.371-4.558c0.073-1.535,0.351-3.047,0.749-4.515
				c0.378-1.405,0.71-2.843,1.302-4.181c0.643-1.486,1.432-2.892,2.295-4.243c-5.953,3.803-11.577,8.398-13.365,15.064
				c-0.283,1.055-0.483,2.187-1.189,3.021c-0.188,0.222-0.409,0.407-0.643,0.577c0.131,0.461,0.275,0.919,0.466,1.36
				c0.17,0.422,0.554,0.73,0.778,1.109c0.359,0.552,0.662,1.137,1.008,1.718c0.125,0.25,0.264,0.493,0.403,0.743
				c0.061,0.113,0.087,0.263,0.181,0.441c-0.314-0.091-0.789-0.145-0.933-0.457c-0.232-0.416-0.479-0.795-0.825-1.111
				c-0.972-0.852-1.687-1.971-2.101-3.187c-0.258,0.134-0.519,0.265-0.774,0.399c-2.487,1.308-4.446,3.231-6.055,5.49
				c0.092,0.2,0.18,0.402,0.282,0.597c1.108,2.148,2.46,4.152,3.889,6.109c0.938,1.303,1.997,2.534,2.935,3.862
				c1.517,2.136,2.943,4.431,3.664,7.04c0.571,2.018,0.681,4.161,0.601,6.207c0.003,0.285,0.022,0.57,0.01,0.857
				c-0.004,0.173-0.024,0.366-0.07,0.515c-0.037,0.105-0.105,0.218-0.134,0.207c-0.025-0.01-0.077-0.178-0.122-0.297
				c-0.032-0.089-0.032-0.213-0.043-0.321c-0.222-1.838-0.463-3.658-0.958-5.447c-0.307-1.162-0.911-2.22-1.425-3.295
				c-0.266-0.544-0.358-1.173-0.668-1.7c-0.739-1.279-1.588-2.488-2.393-3.721c-0.15-0.237-0.136-0.576-0.297-0.808
				c-1.094-1.56-2.169-3.13-3.062-4.831c-0.74-1.409-1.468-2.819-2.241-4.206c-0.074-0.133-0.15-0.265-0.224-0.398
				c-0.862,1.258-1.625,2.61-2.309,4.019c0.037,0.055,0.079,0.106,0.116,0.161c0.542,0.815,1.073,1.634,1.706,2.371
				c0.638,0.767,1.386,1.451,2.04,2.212c0.616,0.693,1.08,1.5,1.605,2.258c0.253,0.363,0.662,0.615,0.924,0.974
				c0.391,0.531,0.719,1.106,0.979,1.725c0.102,0.255,0.197,0.513,0.278,0.781c0.037,0.119,0.031,0.266,0.083,0.448
				c-0.127-0.085-0.335-0.132-0.485-0.22c-0.153-0.086-0.261-0.205-0.317-0.347c-0.159-0.406-0.348-0.795-0.682-1.079
				c-1.387-1.225-2.536-2.586-3.375-4.199c-0.411-0.796-0.783-1.63-1.327-2.33c-0.57-0.745-1.193-1.447-1.841-2.127
				c-1.104,2.373-2.015,4.873-2.859,7.298c-0.717,2.06-1.442,4.168-1.448,6.349c-0.013,4.323,2.722,8.065,5.103,11.698
				c0.596,0.22,1.193,0.447,1.768,0.729c0.977,0.459,1.835,1.123,2.698,1.755c0.417,0.298,0.936,0.466,1.352,0.776
				c0.616,0.461,1.159,1.016,1.634,1.629c0.19,0.253,0.368,0.517,0.53,0.792c0.073,0.123,0.108,0.282,0.214,0.47
				c-0.345-0.117-0.818-0.181-0.993-0.488c-0.286-0.403-0.613-0.775-1.051-1.008c-1.853-0.989-3.549-2.001-5.189-3.233
				c-0.323-0.243-0.652-0.486-0.987-0.722c-0.207,1.659,0.338,3.396,1.066,4.937c0.35,0.741,0.734,1.471,1.102,2.207
				c0.462,0.078,0.923,0.16,1.395,0.207c1.367,0.127,2.828,0.328,4.133,0.951c1.219,0.544,2.207,1.425,3.194,2.236
				c0.475,0.389,1.059,0.644,1.532,1.027c0.707,0.563,1.344,1.188,1.987,1.809c0.261,0.253,0.52,0.512,0.772,0.789
				c0.115,0.12,0.206,0.278,0.386,0.462c-0.193-0.053-0.449-0.046-0.678-0.098c-0.231-0.048-0.428-0.156-0.578-0.307
				c-0.429-0.428-0.858-0.835-1.388-1.118c-2.243-1.235-4.078-2.826-6.069-4.109c-0.503-0.298-1.016-0.61-1.575-0.833
				c-0.56-0.224-1.156-0.366-1.759-0.456c-0.381-0.047-0.762-0.096-1.144-0.145c0.473,0.98,0.889,1.978,1.097,3.043
				c0.355,1.82,0.083,3.704,0.257,5.551c0.639,6.806,6.891,11.493,12.581,15.282c3.438,2.289,6.875,4.579,10.313,6.868
				c0.809,1.924,1.4,3.913,1.534,5.993l-0.211,3.121c-0.018,0.015-0.039,0.024-0.056,0.039c-0.425,0.384-0.632,0.947-0.824,1.487
				c-1.429,4.015-2.859,8.029-4.288,12.044c-8.34,10.698-16.704,21.377-25.16,31.984c-7.556,9.479-15.202,18.922-23.795,27.471
				c-0.155,2.159,2.149,3.867,4.313,3.835c2.164-0.033,4.104-1.3,5.787-2.661c4.935-3.991,8.796-9.124,12.605-14.202
				c4.851-6.467,9.701-12.933,14.551-19.4c1.453-0.642,2.962-1.156,4.506-1.529c0.549-0.132,1.125-0.258,1.563-0.615
				c0.931-0.76,0.852-2.172,0.797-3.373c-0.061-1.318,0.027-2.639,0.229-3.943c12.127-16.168,24.254-32.336,36.382-48.504
				c0.758-0.64,1.498-1.305,2.249-1.947c5.811-4.972,12.602-8.773,19.853-11.2c4.001,1.155,7.591,5.04,9.052,9.201
				c0.21,0.598,0.388,1.204,0.552,1.813c0.371-0.59,0.712-1.202,1.087-1.788c0.432-0.706,1.005-1.309,1.498-1.971
				c0.234-0.32,0.318-0.745,0.536-1.075c0.326-0.489,0.712-0.936,1.152-1.347c0.183-0.164,0.373-0.325,0.576-0.475
				c0.09-0.068,0.223-0.107,0.363-0.208c-0.023,0.137,0.019,0.334,0,0.493c-0.015,0.161-0.077,0.292-0.181,0.385
				c-0.295,0.264-0.561,0.547-0.692,0.922c-0.556,1.589-1.412,2.985-2.628,4.105c-0.525,0.495-1.105,0.946-1.571,1.482
				c1.34,5.395,1.18,11.166,2.862,16.489c0.496,1.571,1.149,3.092,1.778,4.619c0.261-0.653,0.543-1.298,0.861-1.93
				c0.533-1.068,1.028-2.158,1.381-3.297c0.355-1.174,0.563-2.391,0.825-3.585c0.233-1.104,0.62-2.168,0.885-3.265
				c0.122-0.528,0.073-1.091,0.169-1.622c0.128-0.792,0.373-1.561,0.622-2.333c0.112-0.313,0.231-0.625,0.367-0.935
				c0.06-0.139,0.171-0.269,0.265-0.48c0.029,0.18,0.142,0.391,0.183,0.594c0.046,0.204,0.036,0.402-0.028,0.579
				c-0.18,0.506-0.325,1.015-0.324,1.55c0.032,2.273-0.382,4.505-1.293,6.57c-0.435,1.022-0.996,1.996-1.333,3.038
				c-0.628,1.72-1.17,3.468-1.736,5.22c-0.123,0.383-0.226,0.776-0.334,1.167c0.518,1.321,0.976,2.658,1.265,4.044
				c0.07-0.142,0.132-0.288,0.203-0.429c0.867-1.741,1.664-3.524,2.269-5.375c0.631-1.901,1.063-3.863,1.517-5.806
				c0.417-1.795,0.94-3.564,1.317-5.369c0.186-0.865,0.157-1.768,0.299-2.638c0.198-1.296,0.454-2.582,0.734-3.872
				c0.118-0.524,0.238-1.05,0.385-1.573c0.064-0.235,0.173-0.464,0.269-0.821c0.096,0.576,0.338,1.287,0.161,1.877
				c-0.208,0.845-0.363,1.693-0.385,2.556c-0.071,3.662-0.72,7.304-1.989,10.738c-0.628,1.693-1.383,3.332-1.97,5.021
				c-0.831,2.307-1.703,4.601-2.598,6.887c0.384,2.675,0.352,5.476,1.655,7.824c1.978,3.565,6.214,4.838,10.068,6.43
				c0.291-0.929,0.559-1.864,0.732-2.82c0.23-1.292,0.311-2.61,0.461-3.911c0.128-1.203,0.418-2.379,0.592-3.576
				c0.079-0.574-0.018-1.17,0.037-1.746c0.07-0.857,0.251-1.702,0.45-2.548c0.09-0.343,0.188-0.687,0.302-1.029
				c0.05-0.153,0.152-0.301,0.232-0.534c0.041,0.189,0.168,0.405,0.223,0.618c0.06,0.213,0.063,0.425,0.011,0.619
				c-0.145,0.553-0.255,1.108-0.213,1.677c0.198,2.413-0.019,4.811-0.727,7.109c-0.338,1.135-0.792,2.241-1.019,3.389
				c-0.225,0.979-0.423,1.964-0.61,2.952c0.397,0.169,0.79,0.34,1.174,0.521c4.764,2.247,8.704,6.156,11.047,10.872
				c-0.191-2.317-0.556-4.62-0.802-6.934c-0.129-1.22-0.066-2.459-0.223-3.675c-0.385-2.942-0.898-5.86-1.495-8.744
				c-0.112-0.55-0.039-1.142-0.169-1.692c-0.893-3.7-1.938-7.387-2.51-11.198c-0.483-3.151-0.738-6.311-1.357-9.408
				c-0.625-3.182-1.665-6.279-3.292-9.028c-1.452-2.561-3.27-4.925-5.389-7.005c-1.036-0.98-2.227-1.777-3.365-2.624
				c-1.687-1.269-3.422-2.482-5.198-3.657l-2.176-1.441c-0.307-0.214-0.642-0.447-1.132-0.788c0.434,0.157,0.949,0.259,1.442,0.425
				c0.493,0.166,0.964,0.396,1.378,0.664c1.172,0.779,2.343,1.541,3.561,2.225c2.581,1.448,5.038,3.185,7.157,5.313
				c2.148,2.093,3.882,4.632,5.106,7.371c1.186,2.73,1.726,5.626,2.257,8.473c0.437,2.387,0.757,4.79,1.179,7.172
				c0.411,2.385,0.987,4.733,1.605,7.073c0.817,3.101,1.817,6.17,2.488,9.353c1.1,5.143,1.641,10.345,1.93,15.519
				c0.027,0.512,0.041,1.025,0.061,1.537c2.476-8.195,4.758-16.752,4.63-25.12c-0.47-0.424-0.91-0.876-1.26-1.407
				c-0.424-0.631-0.845-1.26-1.362-1.805c-0.529-0.562-1.159-1.04-1.703-1.593c-0.515-0.5-0.888-1.119-1.326-1.682
				c-0.211-0.269-0.568-0.421-0.79-0.683c-0.328-0.39-0.6-0.825-0.809-1.307c-0.082-0.198-0.157-0.403-0.217-0.617
				c-0.028-0.095-0.015-0.221-0.054-0.367c0.112,0.051,0.302,0.056,0.435,0.107c0.137,0.048,0.23,0.131,0.274,0.242
				c0.128,0.317,0.284,0.615,0.573,0.804c1.214,0.812,2.179,1.797,2.837,3.054c0.329,0.615,0.6,1.286,1.047,1.806
				c0.696,0.851,1.488,1.619,2.339,2.324c-0.118-2.826-0.547-5.626-1.332-8.381c-0.156-0.086-0.316-0.165-0.465-0.263
				c-0.522-0.318-0.924-0.787-1.37-1.195c-0.214-0.195-0.557-0.246-0.78-0.436c-0.324-0.288-0.616-0.613-0.83-1.013
				c-0.085-0.164-0.166-0.333-0.233-0.514c-0.031-0.08-0.025-0.196-0.068-0.319c0.107,0.023,0.282-0.01,0.408,0.007
				c0.128,0.015,0.218,0.07,0.264,0.161c0.131,0.26,0.289,0.499,0.568,0.603c0.732,0.296,1.368,0.671,1.927,1.138
				c-0.921-2.64-2.135-5.171-3.363-7.686c-2.829-5.797-5.667-11.61-9.177-17.022c-0.092-0.141-0.189-0.281-0.282-0.422
				c-0.311-0.141-0.628-0.263-0.959-0.334c-0.587-0.117-1.204-0.095-1.797-0.158c-0.551-0.043-1.069-0.256-1.609-0.369
				c-0.26-0.051-0.551,0.078-0.813,0.044c-0.39-0.053-0.767-0.174-1.135-0.366c-0.149-0.083-0.297-0.173-0.442-0.28
				c-0.065-0.047-0.122-0.144-0.22-0.219c0.093-0.044,0.208-0.174,0.313-0.232c0.106-0.063,0.205-0.07,0.288-0.023
				c0.239,0.134,0.484,0.233,0.755,0.168c1.145-0.268,2.256-0.189,3.263,0.345c0.499,0.252,0.965,0.611,1.484,0.743
				c0.167,0.053,0.338,0.087,0.507,0.133c-0.964-1.418-2.013-2.803-3.2-4.023c-0.009,0.002-0.019,0.001-0.028,0.003
				c-0.515,0.108-1.011,0.352-1.523,0.488c-0.469,0.149-0.965,0.123-1.449,0.18c-0.23,0.036-0.435,0.238-0.662,0.294
				c-0.343,0.049-0.694,0.051-1.055-0.01c-0.149-0.041-0.3-0.089-0.453-0.154c-0.069-0.029-0.141-0.086-0.244-0.123
				c0.122-0.178,0.257-0.471,0.426-0.413c0.236,0.045,0.469,0.077,0.675-0.064c0.869-0.599,1.789-0.879,2.779-0.709
				c0.39,0.048,0.79,0.157,1.174,0.166c-1.349-1.318-2.862-2.427-4.619-3.124c-3.48-1.381-7.387-0.99-11.083-0.394
				c-1.809,0.292-3.609,0.637-5.401,1.017c5.328-2.664,9.908-6.696,14.248-10.91c3.453-0.675,7.049,1.518,9.675,4.023
				c2.865,2.732,5.47,6.056,9.236,7.272c4.024,1.3,8.469-0.126,12.608,0.738c2.103,0.439,4.036,1.452,6.073,2.133
				c1.478,0.494,3.015,0.785,4.567,0.918c-1.087-1.147-2.141-2.307-3.131-3.538c-0.847-1.065-1.748-2.094-2.768-2.995
				c-1.046-0.932-2.212-1.721-3.341-2.539c-1.044-0.752-2.01-1.606-3.053-2.361c-0.51-0.349-1.11-0.563-1.635-0.883
				c-0.775-0.487-1.514-1.026-2.239-1.603c-0.296-0.232-0.591-0.469-0.869-0.739c-0.126-0.118-0.229-0.275-0.422-0.453
				c0.418,0.06,0.986,0.029,1.3,0.336c0.474,0.389,0.952,0.761,1.525,0.978c2.401,0.962,4.587,2.385,6.376,4.241
				c0.888,0.908,1.678,1.91,2.597,2.76l4.533,4.36c0.861,0.838,1.762,1.654,2.621,2.513c1.678,0.02,3.357-0.156,4.988-0.549
				c-1.434-1.433-2.775-2.937-4.038-4.493c-1.178-1.449-2.44-2.839-3.837-4.083c-1.434-1.284-3.008-2.401-4.561-3.523
				c-1.435-1.034-2.814-2.145-4.282-3.135c-0.702-0.479-1.522-0.769-2.246-1.207c-1.086-0.635-2.141-1.32-3.195-2.024
				c-0.427-0.29-0.854-0.583-1.272-0.898c-0.188-0.14-0.354-0.319-0.64-0.531c0.551,0.108,1.28,0.125,1.745,0.493
				c0.684,0.484,1.388,0.921,2.154,1.243c3.26,1.341,6.285,3.243,8.848,5.664c1.268,1.189,2.422,2.489,3.686,3.653
				c2.094,1.967,4.131,4.002,6.134,6.068c0.835,0.856,1.713,1.665,2.6,2.457c0.879-0.266,1.746-0.571,2.58-0.958
				c-0.583-2.107-1.166-4.214-1.749-6.32c0.946,3.147,4.187,5.19,7.448,5.6c3.26,0.409,6.537-0.526,9.613-1.682
				c5.905-2.217,11.489-5.285,16.527-9.08c0.468-0.353,0.926-0.72,1.38-1.093c-1.537-0.009-3.072-0.133-4.58-0.421
				c-1.787-0.332-3.556-0.711-5.338-1.006l-5.517-0.819c-1.692-0.275-3.345-0.726-5.02-1.063c-0.804-0.161-1.641-0.13-2.447-0.261
				c-1.199-0.191-2.384-0.447-3.57-0.733c-0.482-0.12-0.965-0.242-1.445-0.391c-0.215-0.065-0.425-0.174-0.753-0.272
				c0.534-0.093,1.197-0.332,1.739-0.153c0.777,0.212,1.558,0.369,2.356,0.392c3.392,0.076,6.72,0.656,9.934,1.626
				c1.586,0.477,3.159,1.022,4.782,1.323c2.705,0.52,5.452,0.869,8.2,0.9c0.922,0.016,1.843-0.027,2.759-0.102
				c0.264-0.244,0.541-0.475,0.791-0.735c5.051-5.234,6.082-12.556,7.205-19.948c-0.206,0.027-0.432-0.004-0.618,0.071
				c-1.646,0.714-3.361,1.271-5.129,1.569c-1.463,0.251-2.923,0.474-4.362,0.795c-1.48,0.325-2.941,0.761-4.421,1.095
				c-1.365,0.315-2.759,0.45-4.135,0.682c-0.659,0.114-1.284,0.413-1.938,0.546c-0.97,0.207-1.957,0.323-2.952,0.412
				c-0.406,0.032-0.813,0.058-1.228,0.053c-0.185,0.001-0.379-0.043-0.661-0.041c0.381-0.243,0.816-0.658,1.285-0.647
				c0.658-0.031,1.304-0.112,1.917-0.342c2.601-0.974,5.285-1.552,8.023-1.731c1.35-0.092,2.715-0.115,4.036-0.376
				c2.209-0.413,4.393-0.987,6.497-1.769c1.353-0.495,2.642-1.156,3.914-1.803c0.713-4.564,1.565-9.103,3.527-13.143
				c1.379-2.84,3.357-5.599,3.335-8.755C332.082,306.841,322.348,305.418,313.048,305.415z M334.647,308.982
				c0.388-0.1,0.82-0.208,1.168-0.246c0.246-0.026,0.519-0.024,0.502,0.01c-0.015,0.03-0.381,0.179-0.639,0.292
				c-0.193,0.082-0.472,0.162-0.713,0.24c-4.091,1.405-8.058,3.173-11.676,5.557c-2.346,1.538-4.419,3.446-6.493,5.326
				c-1.052,0.956-2.222,1.79-3.242,2.787c-2.461,2.418-4.838,4.931-7.439,7.239c-0.494,0.443-1.129,0.723-1.63,1.155
				c-3.379,2.905-7.137,5.535-11.409,7.051c-3.513,1.306-7.264,1.773-10.96,1.789c-3.811,0.009-7.61-0.368-11.371-0.775
				c-3.469-0.368-6.916-0.871-10.373-0.788c-1.654,0.082-3.282,0.392-4.868,0.77c-2.38,0.469-4.665,1.352-6.923,2.346l-2.752,1.266
				c-0.412,0.191-0.84,0.354-1.462,0.654c0.829-0.685,1.787-1.601,2.849-2.05c1.576-0.71,2.995-1.349,4.461-2.009
				c3.144-1.461,6.684-2.057,10.15-2.081c3.485-0.049,6.905,0.497,10.275,1.062c3.32,0.569,6.636,1.245,10.008,1.25
				c2.805,0.029,5.63-0.279,8.309-1.114c2.684-0.817,5.209-2.086,7.563-3.591c3.127-2.004,5.876-4.515,8.543-7.082
				c4.306-4.161,8.394-8.689,13.402-12.292c3.876-2.815,8.305-4.841,12.828-6.178C333.384,309.376,334.006,309.149,334.647,308.982z
				"/>
		</g>
	</g>
</g>
</svg>
