<?xml version="1.0" standalone="no"?>
<!DOCTYPE svg PUBLIC "-//W3C//DTD SVG 20010904//EN"
 "http://www.w3.org/TR/2001/REC-SVG-20010904/DTD/svg10.dtd">
<svg version="1.0" xmlns="http://www.w3.org/2000/svg"
 width="360.000000pt" height="360.000000pt" viewBox="0 0 360.000000 360.000000"
 preserveAspectRatio="xMidYMid meet">

<g transform="translate(0.000000,360.000000) scale(0.100000,-0.100000)"
fill="#000000" stroke="none">
<path d="M1417 3382 c16 -12 21 -24 17 -39 -5 -18 -3 -21 14 -16 12 3 29 14
39 25 17 19 17 20 -2 34 -10 8 -35 14 -54 14 l-36 0 22 -18z"/>
<path d="M1036 3332 c-8 -13 18 -57 37 -60 25 -5 32 25 12 48 -19 21 -40 26
-49 12z"/>
<path d="M1907 3313 c-12 -11 -7 -60 7 -72 10 -9 16 -8 25 3 10 11 9 21 -4 45
-17 33 -18 35 -28 24z"/>
<path d="M1736 3295 c-3 -8 -12 -15 -21 -15 -24 0 -17 -29 9 -36 37 -9 64 10
59 41 -6 28 -37 35 -47 10z"/>
<path d="M2313 3264 c-8 -21 14 -67 30 -62 17 6 21 46 7 64 -16 18 -29 18 -37
-2z"/>
<path d="M1731 3196 c-7 -8 -8 -22 -3 -36 10 -27 22 -14 27 26 3 27 -7 31 -24
10z"/>
<path d="M2012 3193 c-7 -13 -25 -23 -51 -27 -39 -6 -62 -32 -37 -42 8 -3 24
-1 35 5 31 17 61 -6 61 -44 0 -29 2 -31 38 -30 49 1 62 10 62 46 0 31 -11 37
-29 15 -17 -21 -59 1 -54 28 3 12 0 32 -5 46 -9 24 -9 24 -20 3z"/>
<path d="M1440 3191 c0 -6 10 -17 22 -25 41 -29 65 -15 32 18 -17 17 -54 22
-54 7z"/>
<path d="M1583 3154 c-13 -36 -7 -54 18 -54 23 0 26 37 6 65 -13 17 -15 16
-24 -11z"/>
<path d="M1135 3118 c-12 -38 -8 -68 9 -68 22 0 28 17 21 50 -7 31 -22 40 -30
18z"/>
<path d="M1815 3100 c-12 -19 17 -41 48 -38 39 4 45 21 12 36 -32 15 -52 15
-60 2z"/>
<path d="M2270 3071 c0 -16 7 -34 15 -41 12 -10 16 -8 25 14 12 33 3 56 -21
56 -14 0 -19 -7 -19 -29z"/>
<path d="M2112 3008 c3 -37 38 -55 38 -20 0 31 -11 52 -27 52 -10 0 -13 -9
-11 -32z"/>
<path d="M2350 3022 c0 -14 40 -52 55 -52 8 0 15 -7 15 -15 0 -16 25 -21 34
-7 3 5 8 23 11 40 5 32 -3 40 -21 22 -7 -7 -20 -6 -40 5 -32 16 -54 19 -54 7z"/>
<path d="M1330 2981 c0 -13 -9 -20 -30 -24 -18 -4 -30 -13 -30 -22 0 -20 56
-75 76 -75 47 0 144 70 144 104 0 15 -29 36 -51 36 -7 0 -9 -10 -6 -25 3 -19
-3 -34 -23 -55 -32 -34 -30 -33 -66 -20 l-27 11 24 17 c13 9 28 16 33 14 5 -2
16 0 24 3 12 4 11 10 -8 30 -28 30 -60 33 -60 6z"/>
<path d="M1932 2988 c-12 -15 -19 -46 -12 -49 12 -5 49 13 54 27 12 31 -21 47
-42 22z"/>
<path d="M1050 2959 c0 -22 21 -49 39 -49 25 0 34 26 15 45 -18 17 -54 20 -54
4z"/>
<path d="M2170 2960 c0 -15 48 -43 65 -36 20 7 19 32 -1 40 -24 9 -64 7 -64
-4z"/>
<path d="M730 2902 c0 -16 7 -36 16 -43 14 -11 18 -10 30 6 12 16 12 22 0 39
-22 34 -46 33 -46 -2z"/>
<path d="M1820 2902 c0 -31 11 -52 27 -52 22 0 13 64 -9 68 -12 2 -18 -3 -18
-16z"/>
<path d="M1978 2884 c-25 -13 -39 -44 -20 -44 17 0 72 41 67 50 -8 13 -14 12
-47 -6z"/>
<path d="M2376 2874 c-19 -19 -21 -64 -3 -64 21 0 37 22 37 52 0 32 -11 35
-34 12z"/>
<path d="M1653 2873 c-23 -9 -14 -33 11 -33 35 0 56 10 56 26 0 14 -41 18 -67
7z"/>
<path d="M1084 2846 c-17 -13 -18 -15 -2 -21 21 -8 70 7 76 23 5 17 -50 15
-74 -2z"/>
<path d="M2444 2828 c-4 -6 0 -17 10 -23 9 -7 15 -22 14 -35 -2 -12 5 -27 14
-33 14 -10 22 -7 40 11 22 22 22 23 4 34 -15 8 -16 12 -5 19 11 8 10 12 -5 24
-24 18 -62 20 -72 3z"/>
<path d="M2039 2789 c-30 -30 -21 -55 18 -51 24 2 34 -2 43 -17 17 -33 31 -25
28 17 -2 30 -7 38 -25 40 -13 2 -23 10 -23 18 0 20 -17 17 -41 -7z"/>
<path d="M1672 2777 c-27 -29 -28 -37 -2 -37 24 0 63 37 55 50 -10 16 -30 11
-53 -13z"/>
<path d="M1930 2748 c0 -31 4 -38 19 -38 31 0 33 16 6 47 l-24 28 -1 -37z"/>
<path d="M2314 2755 c-8 -34 2 -57 23 -53 22 4 29 44 13 64 -18 21 -29 17 -36
-11z"/>
<path d="M930 2755 c0 -28 20 -55 40 -55 25 0 26 22 3 42 -32 27 -43 30 -43
13z"/>
<path d="M1729 2743 c-13 -14 -3 -33 16 -33 15 0 45 27 45 41 0 13 -49 7 -61
-8z"/>
<path d="M2529 2737 c-13 -7 -25 -23 -27 -35 -3 -19 -6 -20 -23 -11 -12 6 -28
8 -36 5 -14 -6 -13 -10 7 -31 26 -28 63 -35 54 -10 -6 15 15 21 60 16 22 -2
66 36 66 56 0 16 -36 17 -46 1 -5 -8 -10 -6 -19 5 -9 13 -15 14 -36 4z"/>
<path d="M1290 2705 c0 -42 21 -47 39 -9 13 30 7 44 -20 44 -15 0 -19 -7 -19
-35z"/>
<path d="M1863 2718 c-6 -7 -13 -21 -16 -30 -4 -11 -12 -15 -21 -12 -11 4 -19
-3 -26 -20 -12 -32 -4 -56 19 -56 19 0 94 107 85 121 -8 13 -30 11 -41 -3z"/>
<path d="M1486 2705 c-3 -8 -1 -27 4 -41 10 -26 -2 -64 -20 -64 -18 0 -11 -36
10 -55 14 -13 17 -22 10 -29 -18 -18 -12 -64 10 -76 11 -6 25 -8 30 -5 15 9
12 41 -5 55 -22 18 -18 28 9 23 20 -4 29 2 45 28 l20 33 -34 32 c-22 20 -35
41 -35 57 0 51 -29 79 -44 42z m54 -140 c-7 -8 -16 -15 -21 -15 -5 0 -9 7 -9
15 0 9 9 15 21 15 18 0 19 -2 9 -15z"/>
<path d="M1560 2696 c-14 -17 -10 -58 6 -63 6 -2 17 10 24 26 17 43 -3 69 -30
37z"/>
<path d="M2236 2688 c-16 -26 -20 -144 -5 -153 5 -4 14 5 21 19 6 14 17 26 24
26 6 0 15 11 18 24 3 13 9 31 12 40 4 12 0 16 -15 16 -16 0 -21 6 -21 25 0 31
-15 32 -34 3z"/>
<path d="M1700 2667 c-28 -14 -33 -40 -8 -45 16 -3 58 33 58 50 0 12 -21 10
-50 -5z"/>
<path d="M2727 2663 c-11 -10 34 -53 56 -53 10 0 17 5 15 12 -6 17 -63 50 -71
41z"/>
<path d="M1886 2648 c-18 -10 -18 -11 5 -29 19 -14 22 -20 12 -30 -18 -18 -17
-79 2 -79 15 0 41 38 32 47 -3 2 3 13 14 24 21 21 25 39 8 39 -6 0 -8 9 -4 20
5 17 2 20 -22 20 -15 0 -37 -6 -47 -12z"/>
<path d="M2827 2643 c-9 -8 -9 -58 0 -66 11 -12 43 25 43 50 0 22 -27 33 -43
16z"/>
<path d="M1627 2623 c-12 -11 -8 -41 8 -57 20 -20 47 -9 43 17 -3 22 -40 51
-51 40z"/>
<path d="M1700 2593 c1 -21 23 -53 38 -53 15 0 20 22 11 48 -10 27 -49 31 -49
5z"/>
<path d="M2519 2595 c-11 -10 3 -55 20 -68 10 -7 20 -20 24 -29 8 -22 36 -23
63 -4 23 18 14 29 -26 30 -16 1 -30 6 -30 13 0 16 -44 66 -51 58z"/>
<path d="M2128 2562 c-6 -22 8 -62 22 -62 18 0 23 30 10 56 -16 29 -26 31 -32
6z"/>
<path d="M1792 2519 c2 -18 20 -34 46 -45 1 -1 -5 -15 -15 -33 -13 -23 -15
-33 -6 -39 8 -5 7 -14 -7 -32 -17 -23 -18 -23 -45 -6 -34 23 -55 7 -55 -42 0
-28 -3 -33 -12 -24 -14 14 -48 16 -48 3 0 -5 -12 -11 -27 -13 -20 -2 -28 -9
-28 -23 0 -23 53 -45 128 -52 57 -5 75 -18 69 -50 -3 -18 -11 -23 -34 -23 -23
0 -29 -4 -24 -15 4 -12 -2 -14 -27 -12 -26 2 -32 -2 -32 -18 0 -23 53 -42 82
-30 10 5 23 9 28 11 65 16 77 36 51 86 -13 25 -13 27 12 33 16 4 28 2 30 -4 2
-6 9 -17 15 -24 7 -7 17 -22 23 -32 8 -14 22 -20 45 -20 39 0 99 -25 99 -40
-1 -15 -30 -51 -30 -37 0 7 -9 12 -20 12 -12 0 -20 -7 -20 -18 0 -26 28 -62
49 -62 10 0 23 -11 29 -25 7 -15 20 -25 33 -25 18 0 21 4 16 29 -4 20 -2 31 7
34 18 7 27 67 10 67 -15 0 -25 39 -17 68 6 26 -17 31 -37 7 -16 -19 -30 -19
-30 0 0 8 3 14 8 14 4 -1 22 4 40 11 26 10 32 17 32 41 0 19 -5 29 -14 29 -23
0 -29 19 -12 36 9 9 14 20 11 25 -10 14 -51 10 -65 -6 -11 -13 -10 -18 4 -28
16 -12 16 -14 -8 -25 -26 -11 -36 -32 -16 -32 6 0 10 -7 10 -16 0 -9 -7 -14
-17 -13 -10 1 -25 -1 -33 -4 -8 -4 -28 -3 -45 1 -24 7 -31 14 -33 41 -2 23 -8
32 -20 30 -32 -3 -33 1 -9 26 21 23 26 24 56 14 27 -9 35 -9 42 2 19 28 22 62
8 73 -8 6 -20 23 -26 39 -8 18 -20 27 -35 27 -33 0 -42 10 -56 57 -12 41 -43
73 -70 73 -8 0 -12 -9 -10 -21z m142 -175 c9 -3 16 -12 16 -19 0 -11 -6 -11
-29 -2 -17 6 -28 15 -25 19 6 10 17 10 38 2z m-84 -44 c13 -8 11 -11 -7 -16
-13 -4 -23 -10 -23 -15 0 -5 -4 -9 -10 -9 -11 0 -14 33 -3 43 9 10 25 8 43 -3z
m-103 -22 c-3 -8 -6 -5 -6 6 -1 11 2 17 5 13 3 -3 4 -12 1 -19z"/>
<path d="M2233 2504 c-7 -18 6 -45 24 -51 14 -5 25 25 18 48 -8 23 -33 25 -42
3z"/>
<path d="M2398 2504 c-45 -24 -33 -51 18 -45 7 1 9 -9 7 -23 -4 -19 0 -24 20
-28 28 -5 80 13 92 32 14 23 -12 34 -39 16 -26 -16 -26 -16 -26 13 0 24 -3 28
-20 24 -16 -4 -19 -2 -14 11 8 20 -3 20 -38 0z"/>
<path d="M2072 2502 c-23 -15 -2 -42 33 -42 45 0 52 16 16 35 -35 17 -32 17
-49 7z"/>
<path d="M1356 2464 c-3 -9 -13 -14 -21 -10 -21 8 -45 -21 -45 -55 0 -32 11
-37 30 -14 7 8 20 15 29 15 16 0 51 47 51 69 0 17 -37 13 -44 -5z"/>
<path d="M2000 2415 c-10 -12 -10 -19 -2 -27 9 -9 20 -8 47 5 19 9 35 21 35
27 0 16 -66 12 -80 -5z"/>
<path d="M2136 2413 c-27 -3 -40 -10 -43 -24 -4 -14 -13 -19 -31 -17 -30 3
-42 -23 -22 -47 14 -17 60 -20 60 -5 0 6 11 10 25 10 20 0 25 5 25 24 0 20 6
24 40 30 22 3 40 10 40 15 0 10 -26 22 -43 19 -7 -1 -29 -3 -51 -5z"/>
<path d="M2858 2399 c-24 -14 -23 -49 0 -49 15 0 42 36 42 55 0 8 -24 5 -42
-6z"/>
<path d="M2315 2385 c-16 -49 -15 -48 -31 -35 -25 22 -40 -2 -24 -39 14 -35
40 -41 40 -10 0 16 4 19 19 14 27 -8 44 25 31 59 -11 29 -28 34 -35 11z"/>
<path d="M2715 2380 c-7 -23 2 -60 15 -60 13 0 30 34 30 59 0 28 -36 28 -45 1z"/>
<path d="M847 2333 c-4 -3 -7 -22 -7 -42 l1 -36 19 24 c23 27 26 61 7 61 -8 0
-17 -3 -20 -7z"/>
<path d="M2780 2317 c0 -40 44 -65 57 -32 6 18 -23 55 -44 55 -7 0 -13 -10
-13 -23z"/>
<path d="M2892 2324 c-24 -16 -30 -44 -9 -44 16 1 50 47 39 54 -5 3 -18 -2
-30 -10z"/>
<path d="M2574 2296 c-3 -19 -3 -39 0 -45 9 -14 75 -6 93 12 25 25 12 39 -21
22 -36 -19 -32 -20 -39 15 -9 40 -25 38 -33 -4z"/>
<path d="M1154 2249 c-8 -13 13 -34 44 -44 28 -8 30 15 4 38 -21 20 -38 22
-48 6z"/>
<path d="M1267 2253 c-13 -13 -7 -63 7 -63 11 0 36 46 36 66 0 7 -37 4 -43 -3z"/>
<path d="M2750 2239 c0 -25 17 -59 30 -59 11 0 13 40 4 64 -9 23 -34 20 -34
-5z"/>
<path d="M2480 2240 c0 -35 40 -78 61 -64 15 9 11 20 -17 48 -28 27 -44 33
-44 16z"/>
<path d="M2920 2200 c0 -19 36 -60 52 -60 11 0 10 2 -7 44 -16 38 -45 49 -45
16z"/>
<path d="M1610 2174 c-6 -14 -8 -30 -4 -35 3 -5 0 -9 -5 -9 -6 0 -11 7 -11 15
0 10 -10 15 -30 15 -33 0 -47 -19 -35 -47 5 -10 7 -26 6 -35 -2 -12 5 -18 18
-18 17 0 21 -6 21 -30 0 -30 6 -36 26 -22 17 11 24 63 8 69 -19 7 5 43 29 43
24 0 32 26 17 56 -17 31 -28 30 -40 -2z"/>
<path d="M2199 2181 l-23 -18 22 -7 c31 -10 62 2 62 25 0 25 -30 25 -61 0z"/>
<path d="M1305 2180 c-11 -18 15 -50 40 -50 29 0 31 7 9 38 -16 23 -39 29 -49
12z"/>
<path d="M2416 2115 c-3 -9 -6 -25 -6 -36 0 -11 -7 -19 -16 -19 -12 0 -14 -9
-12 -37 2 -31 7 -39 27 -41 22 -3 23 -1 18 26 -5 22 -2 32 10 36 12 5 14 14 9
38 -8 40 -21 55 -30 33z"/>
<path d="M2591 2102 c-10 -20 -4 -62 9 -62 12 0 33 57 25 69 -9 16 -23 13 -34
-7z"/>
<path d="M1360 2070 c0 -18 30 -70 40 -70 17 0 20 17 9 49 -10 29 -49 46 -49
21z"/>
<path d="M1834 2066 c-22 -16 -19 -22 16 -31 29 -7 67 16 56 33 -10 16 -48 15
-72 -2z"/>
<path d="M2484 2029 c-3 -6 -1 -15 6 -19 16 -10 73 3 78 18 5 16 -74 17 -84 1z"/>
<path d="M1627 2013 c-12 -21 14 -52 47 -59 26 -4 36 -11 36 -25 0 -20 20 -25
36 -9 6 6 15 6 24 0 9 -6 10 -10 3 -10 -13 0 -53 -39 -53 -51 0 -4 10 -9 23
-11 15 -2 21 -9 20 -23 -3 -26 17 -65 33 -65 7 0 16 16 20 35 6 33 8 34 42 30
44 -6 61 -21 34 -29 -16 -6 -20 -14 -19 -41 2 -18 10 -42 20 -53 14 -15 16
-25 7 -46 -15 -40 -14 -43 30 -50 25 -4 40 -12 40 -20 0 -25 -12 -46 -26 -46
-8 0 -14 -4 -14 -10 0 -5 -7 -10 -15 -10 -16 0 -30 -42 -21 -65 8 -21 34 -19
41 4 5 16 12 19 40 14 28 -4 35 -2 35 10 0 9 -4 19 -10 22 -22 14 -7 21 51 22
63 2 89 14 89 41 0 11 -8 13 -40 8 -41 -6 -57 7 -20 17 13 3 20 14 20 30 0 16
7 26 20 30 22 6 27 36 8 55 -10 10 -8 14 10 18 33 9 31 54 -2 54 -47 0 -57 -9
-50 -46 3 -19 2 -34 -2 -33 -17 1 -49 18 -36 18 14 1 17 31 2 31 -20 0 -9 19
13 22 14 2 23 11 25 26 3 18 -3 26 -27 35 -18 6 -31 19 -33 32 -2 12 -12 21
-26 23 -20 3 -23 8 -18 28 8 29 -13 41 -42 25 -25 -13 -43 -7 -60 20 -11 18
-11 23 5 34 16 12 17 14 1 20 -21 8 -78 -21 -78 -40 0 -9 -10 -15 -25 -15 -18
0 -25 5 -25 20 0 26 -26 26 -41 -1 l-11 -21 -16 24 c-24 36 -54 50 -65 31z
m233 -132 c0 -4 -11 -8 -25 -9 -19 -1 -25 3 -25 18 0 17 3 18 25 8 14 -6 25
-14 25 -17z m124 -23 c41 -27 45 -38 14 -37 -13 0 -33 13 -46 30 -28 35 -16
37 32 7z m1 -88 c10 -11 13 -20 7 -20 -7 0 -12 -9 -12 -20 0 -11 4 -20 9 -20
16 0 8 -41 -10 -51 -22 -11 -33 15 -18 42 9 17 7 21 -10 26 -25 6 -24 5 -9 38
14 30 19 31 43 5z m78 -127 c-6 -19 -42 -52 -55 -53 -18 0 -6 30 18 49 33 26
45 27 37 4z"/>
<path d="M1577 1963 c-13 -12 -7 -23 18 -35 14 -6 25 -17 25 -24 0 -21 46 -68
58 -60 19 12 14 33 -12 54 -17 13 -22 22 -15 29 7 7 3 16 -12 27 -24 17 -51
21 -62 9z"/>
<path d="M1408 1785 c-9 -19 -14 -22 -25 -14 -10 9 -17 8 -28 -1 -19 -16 -19
-40 -1 -65 14 -19 15 -19 26 5 6 14 26 32 43 41 38 19 50 59 17 59 -12 0 -25
-10 -32 -25z"/>
<path d="M1502 1773 c4 -45 22 -54 35 -16 13 36 7 53 -18 53 -17 0 -20 -6 -17
-37z"/>
<path d="M2714 1735 c-8 -20 4 -65 16 -65 12 0 24 45 16 65 -3 8 -10 15 -16
15 -6 0 -13 -7 -16 -15z"/>
<path d="M2232 1708 c-14 -14 -16 -58 -3 -58 20 0 54 37 48 53 -7 20 -28 22
-45 5z"/>
<path d="M2983 1630 c-28 -11 -29 -16 -3 -30 24 -13 60 -4 60 15 0 10 -24 28
-33 24 -1 0 -12 -4 -24 -9z"/>
<path d="M2269 1553 c-13 -34 -8 -57 12 -61 19 -4 31 32 22 66 -7 30 -21 28
-34 -5z"/>
<path d="M2460 1556 c0 -17 19 -33 44 -38 31 -5 29 20 -3 36 -37 19 -41 20
-41 2z"/>
<path d="M1828 1506 c-12 -29 -5 -56 15 -56 26 0 38 25 27 54 -12 33 -27 33
-42 2z"/>
<path d="M2347 1513 c-12 -11 -7 -41 9 -57 18 -19 34 -13 34 13 0 20 -33 54
-43 44z"/>
<path d="M2029 1483 c-5 -14 -7 -33 -4 -41 8 -23 49 9 53 42 5 37 -34 37 -49
-1z"/>
<path d="M2150 1454 c-16 -42 -12 -50 27 -45 6 1 14 -3 17 -8 10 -15 43 -1 56
25 15 27 6 44 -12 26 -18 -18 -38 -14 -38 8 0 30 -38 26 -50 -6z"/>
<path d="M2415 1460 c-3 -5 -3 -15 1 -21 3 -6 1 -14 -5 -18 -21 -13 0 -40 35
-47 40 -7 52 -1 35 20 -9 11 -9 15 1 18 9 3 8 11 -5 31 -17 27 -50 36 -62 17z"/>
<path d="M2297 1433 c-13 -13 -7 -50 11 -66 22 -20 32 -13 32 23 0 35 -26 61
-43 43z"/>
<path d="M1915 1420 c-3 -5 -1 -19 5 -31 7 -11 10 -21 8 -22 -48 -24 -59 -43
-31 -54 10 -4 24 -15 31 -25 16 -22 45 -23 62 -3 14 17 6 31 -23 37 -17 3 -17
4 2 25 27 28 26 35 -2 61 -25 24 -42 28 -52 12z"/>
<path d="M1783 1323 c-20 -7 -15 -31 8 -43 16 -9 26 -8 46 6 l26 17 -24 13
c-25 14 -36 16 -56 7z"/>
<path d="M2093 1313 c-18 -7 -16 -40 1 -46 8 -3 16 -16 18 -29 2 -14 13 -26
30 -32 34 -12 43 -4 29 22 -9 17 -7 21 12 26 21 5 53 43 44 52 -2 3 -16 0 -30
-5 -19 -8 -34 -6 -54 4 -30 16 -31 16 -50 8z"/>
<path d="M2322 1288 c-17 -17 -15 -68 2 -68 16 0 26 21 26 56 0 26 -10 30 -28
12z"/>
<path d="M2423 1243 c-17 -6 -17 -73 0 -73 18 0 37 21 37 41 0 20 -21 38 -37
32z"/>
<path d="M2484 1207 c-29 -26 -26 -48 5 -40 26 7 55 39 46 52 -9 16 -21 13
-51 -12z"/>
<path d="M2408 1148 c-18 -15 -34 -58 -21 -58 19 0 53 32 53 51 0 22 -10 24
-32 7z"/>
<path d="M2050 1104 c0 -27 20 -54 40 -54 27 0 27 45 1 60 -28 14 -41 13 -41
-6z"/>
<path d="M2229 923 c-13 -16 -12 -17 4 -4 16 13 21 21 13 21 -2 0 -10 -8 -17
-17z"/>
<path d="M2023 923 c-32 -11 1 -62 40 -63 19 0 22 13 7 39 -11 21 -29 30 -47
24z"/>
<path d="M2053 793 c-19 -7 -15 -33 5 -33 9 0 23 9 30 20 10 17 10 20 -5 19
-10 0 -24 -3 -30 -6z"/>
<path d="M1884 622 c-15 -9 -23 -57 -13 -73 6 -10 13 -9 29 6 32 29 18 90 -16
67z"/>
<path d="M1790 527 c0 -7 13 -26 30 -42 24 -23 30 -25 35 -12 9 21 -23 67 -46
67 -11 0 -19 -6 -19 -13z"/>
<path d="M1842 355 c-6 -13 -7 -27 -3 -30 5 -2 12 7 15 21 9 35 2 40 -12 9z"/>
<path d="M1727 333 c-11 -10 -8 -52 4 -74 14 -27 39 -7 39 30 0 36 -25 62 -43
44z"/>
<path d="M1360 286 c0 -37 10 -56 31 -56 23 0 24 12 4 50 -19 36 -35 39 -35 6z"/>
<path d="M1661 264 c-30 -38 -6 -75 27 -42 14 14 16 68 3 68 -5 0 -19 -12 -30
-26z"/>
<path d="M1733 168 c2 -7 -3 -18 -11 -24 -12 -9 -12 -15 -2 -35 7 -13 18 -27
24 -31 7 -5 4 -8 -7 -8 -23 0 -34 -29 -16 -41 33 -20 49 -10 49 30 0 21 7 55
15 74 20 48 20 47 -21 47 -24 0 -34 -4 -31 -12z"/>
<path d="M1330 121 c0 -9 44 -41 57 -41 4 0 14 4 22 9 12 8 12 12 2 25 -14 17
-81 22 -81 7z"/>
<path d="M1342 78 c-17 -17 -15 -42 6 -61 26 -24 32 -21 32 11 0 39 -21 67
-38 50z"/>
<path d="M1630 75 c-16 -20 -5 -45 20 -45 24 0 63 36 55 50 -9 15 -61 12 -75
-5z"/>
</g>
</svg>
