<?xml version="1.0" standalone="no"?>
<!DOCTYPE svg PUBLIC "-//W3C//DTD SVG 20010904//EN"
 "http://www.w3.org/TR/2001/REC-SVG-20010904/DTD/svg10.dtd">
<svg version="1.0" xmlns="http://www.w3.org/2000/svg"
 width="626.000000pt" height="626.000000pt" viewBox="0 0 626.000000 626.000000"
 preserveAspectRatio="xMidYMid meet">

<g transform="translate(0.000000,626.000000) scale(0.100000,-0.100000)"
fill="rgba(0,0,0,0.750)" stroke="none">
<path d="M3325 5590 c4 -6 50 -33 103 -59 53 -27 106 -56 117 -65 19 -15 17
-16 -35 -10 -34 4 -64 14 -80 28 -13 11 -19 14 -12 5 6 -9 9 -18 6 -21 -6 -6
23 -13 96 -23 42 -6 48 -11 74 -56 22 -41 25 -51 14 -62 -118 -109 -115 -107
-166 -107 -57 0 -95 28 -73 54 7 8 11 25 8 38 -4 21 -4 20 -6 -4 -2 -41 -18
-42 -52 -3 -18 20 -34 33 -37 30 -3 -3 16 -28 43 -55 27 -27 47 -51 44 -53 -2
-3 -25 -7 -51 -9 -44 -5 -50 -3 -107 44 -34 27 -61 45 -61 41 1 -4 23 -26 50
-47 28 -22 50 -43 50 -47 0 -25 -208 -21 -239 4 -12 9 -13 9 -7 0 5 -10 -7
-13 -49 -13 -31 0 -54 -4 -51 -8 3 -5 76 -12 163 -15 125 -5 168 -4 207 8 53
16 186 21 186 7 0 -11 -30 -38 -50 -45 -12 -4 -12 -6 2 -6 10 -1 33 13 51 29
19 17 38 30 41 30 4 0 36 23 72 50 39 30 73 49 83 46 9 -3 36 -10 61 -16 25
-7 76 -32 114 -57 l69 -46 -29 -12 -29 -13 38 5 c46 7 104 -28 143 -87 26 -39
26 -39 9 -83 -14 -37 -24 -47 -66 -65 -43 -19 -60 -21 -139 -15 -95 6 -110 2
-132 -41 -9 -18 -6 -17 18 5 28 25 32 26 114 20 l85 -6 -4 -35 c-6 -61 -75
-143 -174 -206 -48 -31 -86 -59 -83 -62 3 -2 12 1 21 8 24 20 31 3 9 -22 l-19
-23 23 19 c12 11 22 25 22 32 0 7 10 20 22 28 29 20 48 4 26 -21 -28 -33 -31
-48 -5 -24 15 14 27 34 27 46 0 13 15 34 39 53 l40 32 11 -35 c18 -53 31 -52
15 1 -14 46 -13 48 13 82 15 19 32 58 37 86 10 47 13 51 48 59 28 7 45 20 67
52 25 36 38 45 82 55 43 11 65 25 118 75 36 35 79 70 97 79 33 17 145 22 180
9 16 -6 15 -8 -7 -14 -14 -5 8 -5 48 -2 65 5 76 3 110 -19 33 -22 46 -46 114
-199 65 -147 77 -185 81 -241 7 -98 1 -103 -109 -94 -80 6 -91 9 -111 34 -13
16 -23 42 -24 62 -1 30 -2 32 -8 11 -6 -23 -9 -22 -53 34 l-46 58 5 109 c4 78
3 108 -6 108 -7 0 -11 -21 -11 -58 0 -32 -3 -62 -7 -65 -4 -4 -19 5 -35 20
-23 22 -28 35 -28 75 0 26 -4 48 -10 48 -5 0 -7 -22 -3 -52 5 -40 14 -63 40
-92 24 -29 33 -49 33 -75 0 -30 14 -54 80 -138 88 -112 65 -99 230 -132 58
-12 59 -54 9 -378 -24 -150 -45 -273 -48 -273 -19 1 -41 59 -57 152 -21 125
-17 138 52 182 62 39 48 44 -18 7 -30 -17 -57 -31 -60 -31 -3 0 -11 36 -18 80
-7 44 -19 85 -27 91 -12 10 -13 6 -8 -27 23 -151 51 -365 47 -369 -2 -2 -22 7
-43 21 -53 33 -51 8 2 -30 23 -16 47 -43 55 -61 7 -18 25 -47 40 -64 21 -26
25 -39 21 -67 -5 -27 16 -98 93 -327 54 -160 101 -300 105 -310 7 -17 10 -16
36 9 16 15 29 24 29 19 0 -5 -15 -45 -34 -90 -18 -44 -46 -113 -61 -152 -15
-40 -31 -73 -36 -73 -6 0 -22 26 -36 57 l-27 58 17 82 c10 45 20 89 23 98 3 8
2 15 -4 15 -5 0 -16 -29 -23 -65 -7 -36 -16 -65 -20 -65 -4 0 -13 42 -20 92
-7 51 -14 87 -17 80 -6 -19 26 -249 46 -327 l18 -70 -27 -86 c-15 -48 -33
-127 -40 -176 -11 -81 -11 -92 4 -114 13 -18 17 -47 17 -135 l0 -111 -40 -42
-40 -42 -63 51 c-34 29 -64 57 -66 63 -2 5 -14 26 -27 45 -27 39 -31 95 -12
138 10 22 10 28 0 32 -23 7 -12 55 28 128 22 40 40 83 40 95 0 12 8 32 17 43
10 12 11 15 3 9 -23 -21 -30 -15 -30 22 0 43 31 108 72 151 21 22 28 39 25 55
-4 23 -4 23 -6 -2 0 -16 -11 -33 -25 -43 -23 -15 -25 -15 -29 7 -3 15 -4 12
-4 -8 1 -17 -10 -50 -23 -73 l-25 -44 -22 28 c-13 17 -24 46 -26 74 l-3 45 -2
-49 c-2 -40 3 -56 25 -84 19 -26 28 -51 31 -91 4 -49 1 -62 -34 -128 -21 -40
-42 -73 -45 -73 -3 0 -16 14 -29 32 -26 35 -65 217 -54 251 4 13 2 17 -5 13
-6 -4 -11 -17 -11 -28 0 -21 0 -21 -22 -2 -18 14 -17 12 3 -11 21 -23 29 -49
39 -114 11 -70 19 -93 47 -129 33 -43 33 -44 33 -153 l0 -109 -37 -1 -38 -1
42 -11 c25 -7 79 -42 135 -87 l94 -75 1 -68 c1 -64 0 -67 -23 -67 -34 0 -30
-17 6 -25 20 -4 36 -17 46 -38 9 -18 24 -40 33 -50 15 -17 14 -20 -4 -34 -11
-8 -42 -26 -70 -40 -109 -56 -120 -67 -209 -210 l-86 -138 -161 -91 c-147 -84
-162 -91 -192 -83 -18 6 -178 48 -356 94 -267 69 -328 88 -350 109 -33 31 -48
32 -155 5 -71 -18 -83 -24 -79 -39 4 -15 -4 -21 -39 -30 -23 -6 -65 -18 -92
-26 -61 -17 -105 -17 -225 4 l-95 17 -14 43 -14 43 41 53 40 54 -16 86 c-11
56 -22 86 -30 86 -16 0 -16 -3 2 -90 l15 -72 -27 -39 c-16 -21 -31 -39 -35
-39 -13 0 -18 38 -8 64 13 35 13 66 -1 66 -5 0 -7 -5 -4 -10 8 -13 -4 -50 -16
-50 -5 0 -9 6 -9 14 0 15 -18 31 -26 24 -2 -3 2 -23 10 -45 9 -25 11 -45 5
-54 -5 -8 -9 -24 -9 -36 0 -26 0 -26 -34 -14 -16 7 -37 34 -62 81 -20 39 -39
68 -42 66 -2 -3 13 -38 35 -78 32 -59 45 -74 71 -82 18 -5 32 -14 32 -21 0
-15 33 -45 49 -45 7 0 20 -8 29 -19 10 -10 39 -26 65 -36 27 -9 46 -19 43 -22
-2 -3 -48 -15 -102 -28 l-97 -23 28 22 27 22 -62 19 c-43 13 -69 27 -83 47
-13 18 -38 33 -73 43 -29 8 -60 18 -69 21 -10 4 -15 0 -15 -10 0 -21 -3 -20
-90 9 -86 29 -101 30 -140 10 -20 -11 -31 -12 -36 -4 -4 8 -9 7 -14 -1 -6 -9
-15 0 -29 28 -22 43 -17 50 22 32 21 -10 21 -10 -1 6 l-23 17 22 23 c13 13 32
24 43 24 12 0 28 5 36 10 11 8 7 9 -14 4 -38 -9 -27 11 17 31 23 11 25 13 7 8
-23 -5 -24 -4 -11 13 8 10 -12 -8 -45 -41 l-59 -60 -5 105 c-3 58 -9 111 -13
117 -4 7 -4 29 2 48 11 41 7 45 -12 9 l-13 -26 -27 41 c-23 34 -27 52 -27 109
0 38 7 89 16 115 15 43 14 50 -2 94 -25 69 -38 78 -15 10 16 -45 18 -63 9 -87
-5 -17 -13 -30 -16 -30 -3 0 -22 15 -41 33 l-35 32 32 -44 c29 -41 32 -52 32
-118 0 -40 -3 -73 -6 -73 -3 0 -25 12 -50 26 -52 31 -89 99 -74 137 5 12 14
60 20 107 6 47 13 93 16 103 3 9 1 17 -5 17 -6 0 -11 -13 -11 -30 0 -16 -3
-30 -7 -30 -5 0 -9 -29 -10 -64 -3 -70 -18 -121 -33 -111 -5 3 -7 0 -4 -9 3
-8 0 -24 -6 -36 -6 -12 -14 -43 -16 -68 -4 -32 -13 -55 -30 -72 l-24 -25 -16
23 c-9 13 -27 35 -40 50 -14 15 -9 4 11 -25 l36 -52 -26 -17 c-24 -16 -27 -16
-48 2 -48 41 -57 55 -82 132 l-26 79 21 47 c11 26 20 56 20 67 0 11 -18 55
-40 99 -22 44 -40 85 -40 91 0 6 10 20 23 31 l22 20 -25 -16 c-34 -22 -40 -20
-40 11 0 14 -3 24 -6 20 -3 -3 -18 8 -31 24 -22 26 -25 36 -19 74 6 49 -1 56
-27 25 -23 -27 -31 -25 -62 12 -19 23 -25 39 -22 57 10 48 149 326 180 359 34
35 27 45 -9 11 l-22 -21 5 59 c4 38 11 62 23 70 110 77 113 82 157 221 22 73
37 132 33 132 -4 0 -27 -56 -51 -125 -24 -69 -47 -125 -51 -125 -15 0 -9 107
7 120 8 7 15 17 15 22 0 6 -6 6 -14 -1 -11 -10 -17 -4 -30 31 -9 24 -13 30 -9
13 4 -16 8 -70 8 -119 l0 -90 -42 -29 -42 -30 -63 53 c-73 61 -75 64 -79 110
-4 56 14 80 59 75 20 -3 28 -2 17 1 -47 12 -47 13 -15 54 17 22 28 40 23 40
-4 0 -25 -25 -47 -56 l-38 -56 -18 53 -18 52 40 65 c21 35 37 66 34 69 -2 3
-19 -23 -38 -56 -18 -33 -36 -61 -39 -61 -23 0 -57 213 -37 237 9 11 8 13 -3
11 -10 -2 -15 10 -17 45 -2 26 -8 47 -14 47 -6 0 -8 -16 -4 -42 3 -24 11 -92
17 -153 8 -78 19 -129 39 -175 30 -70 48 -180 30 -180 -6 0 -22 12 -35 26 -14
15 -25 24 -25 21 0 -4 45 -53 100 -109 l100 -103 -5 -60 c-4 -37 -20 -88 -41
-135 -35 -74 -36 -75 -49 -50 -17 30 -19 24 -4 -18 13 -38 -5 -78 -64 -139
-42 -43 -44 -44 -109 -26 -10 2 -31 23 -47 46 -23 34 -31 61 -40 132 -6 50
-11 93 -11 97 0 8 -53 38 -67 38 -4 0 7 -12 24 -27 29 -26 32 -34 37 -110 l6
-83 -37 0 c-62 1 -161 63 -233 148 -63 74 -86 92 -55 45 13 -19 14 -25 4 -21
-41 17 -53 19 -29 4 14 -8 33 -15 42 -16 18 0 44 -37 34 -47 -3 -4 -17 -1 -31
5 -39 18 -44 14 -10 -8 17 -11 37 -18 45 -15 8 2 32 -11 53 -30 l39 -34 -42
-21 c-56 -29 -45 -37 13 -9 l45 22 37 -21 c24 -15 53 -22 85 -22 48 0 50 -1
70 -41 15 -29 32 -45 63 -58 35 -15 47 -28 71 -77 22 -47 39 -66 82 -93 53
-34 54 -36 47 -73 -4 -27 0 -51 12 -78 14 -30 16 -51 10 -96 -6 -53 -12 -63
-65 -118 l-58 -60 -17 35 c-15 27 -18 54 -16 134 1 54 6 106 10 115 3 8 4 38
0 65 -6 49 -6 49 -8 10 -1 -22 -6 -96 -11 -165 -10 -119 -9 -127 11 -172 22
-47 22 -48 5 -134 -25 -127 -28 -131 -68 -128 l-33 4 31 -10 c40 -13 198 -205
188 -229 -3 -9 -9 -37 -11 -63 -5 -44 -7 -47 -37 -50 l-31 -4 32 -19 c27 -17
50 -61 38 -74 -2 -1 -34 7 -72 20 -54 18 -83 36 -140 88 -91 82 -106 121 -76
201 8 21 3 63 -9 78 -6 7 -34 31 -62 54 l-51 42 57 -60 56 -59 -8 -50 c-5 -27
-9 -56 -9 -62 -2 -34 -91 19 -91 54 0 7 -4 13 -10 13 -5 0 -10 -7 -10 -16 0
-11 -6 -14 -22 -8 -13 3 -21 4 -18 1 3 -3 43 -45 90 -93 l85 -86 -45 6 -45 6
49 -15 c35 -10 65 -29 105 -68 34 -33 75 -62 104 -72 26 -10 47 -21 47 -25 0
-4 -30 -32 -66 -62 l-66 -54 -44 14 c-40 13 -44 18 -59 67 -8 29 -15 58 -15
64 0 5 -25 18 -55 27 -47 15 -57 22 -64 48 l-9 31 -1 -27 c-1 -25 -3 -27 -27
-17 -15 5 -29 7 -32 5 -5 -5 104 -56 119 -56 22 0 49 -42 49 -75 0 -41 -20
-47 -44 -13 -13 19 -16 20 -16 5 0 -14 -6 -16 -25 -11 -15 4 -25 2 -25 -4 0
-6 33 -21 73 -33 39 -11 76 -25 81 -29 4 -5 -10 -21 -32 -38 -37 -26 -45 -28
-89 -21 -26 4 -64 8 -83 7 -33 0 -33 -1 10 -9 109 -21 125 -20 177 17 41 30
53 34 88 28 38 -5 44 -2 118 62 l79 67 129 -44 c71 -24 129 -47 129 -50 0 -3
-19 -14 -42 -25 -24 -10 -73 -47 -110 -82 -60 -58 -67 -62 -73 -43 -6 21 -141
98 -152 87 -3 -2 27 -21 65 -40 92 -46 99 -66 44 -118 -36 -33 -47 -38 -91
-38 -47 0 -52 2 -92 50 -23 28 -44 48 -47 45 -3 -2 12 -23 32 -45 20 -22 36
-45 36 -50 0 -6 -26 -10 -57 -10 -67 0 -103 -8 -103 -22 0 -6 46 -8 128 -3
l127 7 -45 -46 c-40 -40 -56 -49 -150 -76 -141 -41 -135 -39 -123 -51 15 -15
227 48 262 76 25 20 259 200 286 219 8 6 30 -5 70 -37 31 -26 65 -47 75 -47
10 0 50 7 89 16 80 18 78 16 170 172 49 82 63 95 56 55 -13 -84 -15 -114 -6
-109 5 3 11 33 13 66 2 33 7 63 11 66 3 4 81 -11 173 -32 155 -35 172 -41 224
-81 39 -29 64 -41 81 -38 13 2 54 6 91 10 62 6 67 5 73 -15 5 -15 1 -26 -12
-35 -10 -8 -13 -15 -7 -15 5 0 16 6 22 12 10 10 15 10 22 -2 13 -20 8 -33 -18
-45 -38 -17 -27 -37 16 -29 52 10 51 11 116 -30 33 -20 70 -36 81 -36 12 0 51
22 86 48 91 69 207 146 254 169 36 18 56 20 180 16 77 -2 295 5 485 15 l345
20 40 -43 c64 -69 132 -73 208 -12 33 27 54 36 97 39 49 5 58 10 95 51 l40 45
230 23 230 22 67 68 67 69 122 0 121 0 79 72 c44 39 77 74 74 77 -4 3 -9 1
-13 -4 -4 -6 -38 -37 -75 -70 l-69 -59 -90 12 c-50 6 -93 14 -96 17 -3 3 23
34 57 69 64 65 72 88 35 103 -12 4 -27 -5 -49 -30 -18 -21 -35 -37 -38 -37
-13 0 10 105 40 178 48 117 37 131 -19 25 -34 -65 -51 -113 -64 -181 -18 -91
-18 -91 -81 -154 l-63 -62 0 102 c0 84 -3 102 -15 102 -13 0 -15 -20 -15 -121
l0 -122 -123 7 c-110 6 -129 5 -177 -13 -30 -11 -55 -19 -56 -18 -2 2 89 79
202 172 183 152 204 173 199 195 -3 14 3 72 13 130 l18 104 201 56 200 55 91
69 c51 37 92 71 92 75 0 23 -21 13 -105 -50 -76 -57 -102 -71 -149 -80 -32 -6
-60 -8 -63 -5 -3 3 16 31 43 62 99 114 105 122 93 129 -6 4 -33 -18 -61 -50
-56 -62 -61 -61 -73 13 -4 24 -9 41 -12 38 -3 -3 0 -33 6 -66 l12 -60 -33 -39
c-27 -33 -41 -41 -81 -46 -80 -11 -88 10 -61 156 4 18 4 31 0 28 -14 -13 -37
-162 -26 -173 5 -5 10 -13 10 -17 0 -9 -60 -18 -64 -10 -2 3 8 76 23 161 26
154 26 155 54 158 20 3 32 13 47 42 11 22 20 48 20 59 0 13 12 27 30 36 36 18
40 38 6 29 -22 -5 -24 -2 -31 43 -4 26 -11 55 -15 64 -12 21 134 205 181 230
l34 17 -35 -1 -35 -2 -23 105 -23 105 22 46 c19 43 21 57 15 139 -6 69 -4 95
6 107 9 12 9 15 1 9 -11 -6 -17 8 -15 34 0 3 -8 6 -18 6 -15 0 -16 -3 -5 -21
7 -11 15 -66 19 -122 5 -85 3 -108 -11 -138 -9 -19 -20 -34 -24 -33 -4 2 -32
31 -62 64 -47 54 -55 68 -60 116 -5 43 -3 65 12 99 12 26 17 55 14 72 -9 47
-18 38 -18 -18 0 -58 -16 -88 -36 -68 -9 9 -7 32 8 90 l20 78 -50 58 -50 58
21 28 c16 23 22 50 28 130 l7 102 103 86 c57 48 106 94 108 103 3 8 10 47 16
85 l11 70 67 42 c51 31 63 43 50 48 -10 4 -37 -7 -73 -29 l-56 -36 -34 26
c-41 31 -41 37 -15 124 11 36 20 72 19 80 0 8 -14 -28 -31 -80 l-30 -95 36
-30 c40 -34 43 -52 23 -147 -11 -55 -16 -61 -91 -123 -43 -36 -83 -68 -89 -72
-6 -4 -8 20 -5 70 5 74 4 79 -29 133 l-34 56 21 42 c11 23 20 50 20 59 0 9 16
27 35 40 36 25 37 40 1 31 -19 -4 -23 2 -36 60 l-16 64 79 99 c44 55 91 103
108 111 37 16 37 19 -4 14 l-33 -4 -22 111 -23 110 22 43 c19 38 21 52 15 133
-5 76 -3 94 11 115 16 23 16 24 0 11 -15 -12 -17 -11 -17 13 0 17 -4 25 -11
21 -6 -4 -17 1 -26 11 -8 11 -6 3 5 -16 30 -53 40 -223 16 -273 -10 -20 -20
-37 -23 -37 -3 0 -31 28 -62 63 -49 55 -56 68 -62 118 -6 45 -3 64 13 98 18
35 19 47 10 82 -6 23 -14 39 -16 36 -3 -3 -1 -20 4 -39 9 -35 -8 -98 -28 -98
-12 0 -28 32 -23 47 2 6 -6 13 -19 15 -16 2 -25 12 -29 33 -5 23 -7 25 -8 8
-1 -28 -11 -29 -39 -3 -12 12 -22 16 -22 11 0 -5 13 -18 29 -27 26 -16 29 -22
28 -63 -1 -25 1 -59 6 -76 7 -30 7 -30 -33 12 -34 36 -40 48 -40 87 0 47 -19
66 -41 40 -7 -9 -16 -11 -23 -5 -6 5 -29 11 -51 13 l-40 3 -3 66 -3 66 52 62
51 62 23 -33 c13 -19 20 -41 17 -53 -5 -18 -4 -19 12 -6 25 21 18 73 -12 86
-15 6 -21 16 -18 27 8 33 -14 29 -46 -9 -18 -20 -45 -50 -59 -67 l-25 -29 -31
55 c-31 55 -84 108 -106 108 -7 -1 -6 -6 4 -13 13 -10 13 -16 2 -37 -15 -30
-16 -50 -3 -70 7 -12 12 -7 25 23 8 20 20 37 26 37 5 0 21 -24 34 -52 20 -43
25 -69 25 -136 l0 -83 -67 7 c-60 5 -77 12 -140 55 -79 54 -83 56 -83 34 0 -8
19 -27 42 -42 l42 -28 -74 -7 c-77 -8 -165 -33 -175 -49 -8 -12 -62 -12 -85 1
-24 13 -40 -9 -16 -22 20 -11 21 -41 2 -57 -8 -7 -30 -15 -49 -18 -32 -5 -49
4 -190 102 -85 59 -160 118 -167 131 -8 13 -17 24 -22 24 -5 0 -1 -11 8 -25
19 -29 13 -30 -50 -14 -40 10 -46 16 -82 84 l-38 73 -123 61 c-129 64 -138 68
-128 51z m1236 -378 c-7 -2 -18 1 -23 6 -8 8 -4 9 13 5 13 -4 18 -8 10 -11z
m115 8 c19 0 34 -4 34 -10 0 -16 -64 -12 -86 6 -17 14 -17 15 -1 10 10 -3 34
-6 53 -6z m-406 -50 c-19 -12 -50 -13 -50 -2 0 5 14 9 32 10 23 1 28 -2 18 -8z
m602 -100 l75 -90 -11 -67 c-10 -60 -38 -125 -49 -112 -12 12 -147 329 -147
343 0 11 9 16 29 16 24 0 41 -15 103 -90z m188 -2 c0 -30 -11 -36 -29 -14 -6
8 -8 27 -4 46 6 30 7 32 20 15 7 -11 13 -31 13 -47z m-850 -3 c-12 -13 -38
-29 -57 -36 -51 -17 -50 -4 1 15 24 9 50 24 56 32 7 7 15 14 18 14 3 0 -5 -11
-18 -25z m806 -80 c12 -25 7 -22 -31 19 -61 65 -80 103 -25 51 23 -22 48 -53
56 -70z m53 15 c4 -14 30 -49 57 -79 48 -52 80 -113 63 -119 -13 -5 -11 -22 5
-38 21 -20 31 -100 17 -130 -6 -14 -11 -32 -11 -40 0 -13 -64 -105 -101 -148
-5 -6 -18 -1 -31 11 -27 25 -68 46 -74 40 -3 -3 11 -15 30 -26 52 -33 74 -107
58 -196 -7 -36 -17 -77 -23 -93 l-11 -27 -13 25 c-10 16 -14 59 -15 123 0 58
-4 97 -10 97 -6 0 -10 -28 -10 -65 0 -36 -4 -65 -8 -65 -4 0 -17 22 -29 48
l-20 49 21 181 21 182 37 37 c25 26 38 50 42 78 l6 40 -11 -35 c-11 -37 -36
-70 -51 -70 -5 0 -1 15 10 33 11 17 25 55 32 84 11 48 10 55 -9 82 -12 16 -21
39 -21 50 0 19 2 20 20 9 11 -7 24 -24 29 -38z m-89 -164 c0 -2 -8 -10 -17
-17 -16 -13 -17 -12 -4 4 13 16 21 21 21 13z m-63 -291 c0 -8 -4 -12 -9 -9 -5
3 -6 10 -3 15 9 13 12 11 12 -6z m73 -322 l33 -87 -53 -48 c-29 -27 -55 -47
-57 -44 -5 5 13 195 23 249 3 15 9 25 13 22 5 -2 23 -44 41 -92z m99 -181 l31
-49 -12 -176 c-6 -98 -15 -182 -18 -187 -11 -18 -37 -1 -65 42 -15 22 -29 37
-32 35 -8 -9 59 -97 74 -97 7 0 13 -2 13 -4 0 -12 -13 -36 -20 -36 -4 0 -46
45 -94 101 -76 88 -86 105 -85 137 1 20 4 47 7 59 6 19 157 223 166 223 2 0
18 -22 35 -48z m-274 -64 c-4 -51 -11 -97 -16 -102 -6 -6 -9 -2 -9 10 0 32 23
184 28 184 2 0 1 -42 -3 -92z m-21 -194 c3 -9 4 -20 1 -25 -3 -4 8 -57 25
-116 17 -59 33 -117 36 -128 5 -19 4 -19 -6 -2 -21 34 -80 221 -80 254 0 35
14 44 24 17z m185 -224 l42 -50 -24 -26 -24 -26 -22 70 c-30 101 -30 101 28
32z m86 -124 c27 -69 9 -119 -29 -81 -9 9 -16 12 -16 5 0 -6 11 -16 25 -22 28
-13 30 -20 11 -63 l-13 -30 -27 81 c-27 82 -27 103 2 137 22 25 29 22 47 -27z
m95 -248 c0 -22 -4 -26 -17 -21 -14 5 -13 1 5 -16 12 -12 22 -27 22 -34 0 -7
28 -43 61 -81 53 -60 60 -74 56 -101 -3 -18 1 -38 9 -49 20 -28 27 -97 14
-131 -7 -16 -13 -38 -15 -48 -4 -16 -92 -137 -100 -137 -3 0 5 24 17 53 45
110 45 117 8 211 -25 65 -38 88 -55 92 -16 4 -27 23 -48 86 l-26 80 21 80 c19
71 23 78 35 62 7 -10 13 -30 13 -46z m-104 -478 c6 -92 -5 -237 -27 -367 -9
-50 -15 -63 -29 -63 -16 0 -19 14 -26 118 -14 208 -11 259 19 352 15 47 30 92
33 100 11 25 24 -36 30 -140z m-151 50 c-3 -5 -12 -10 -18 -10 -7 0 -6 4 3 10
19 12 23 12 15 0z m-55 -71 c-17 -50 -32 -51 -19 -1 16 60 20 69 26 53 3 -7 0
-31 -7 -52z m286 -137 c-4 -3 -14 2 -24 12 -16 18 -16 18 6 6 13 -6 21 -14 18
-18z m2 -67 c-3 -3 -9 2 -12 12 -6 14 -5 15 5 6 7 -7 10 -15 7 -18z m52 -29
c0 -47 -32 -166 -46 -166 -9 0 -10 10 -4 38 5 20 14 70 20 111 8 49 15 69 21
60 5 -8 9 -27 9 -43z m-3866 -153 c24 -34 24 -38 9 -55 -22 -25 -29 -23 -43
12 -11 26 -8 80 5 80 2 0 16 -17 29 -37z m3541 -34 c6 -37 4 -47 -9 -52 -14
-5 -16 3 -16 61 1 74 13 69 25 -9z m-3483 -219 c-11 -30 -53 -131 -92 -224
-64 -151 -70 -172 -61 -200 l10 -31 -26 33 c-41 51 -65 133 -54 183 5 22 17
49 27 60 15 16 16 22 5 29 -23 14 -5 51 59 122 33 36 60 73 60 81 0 8 10 22
23 30 l22 16 -23 -6 c-22 -5 -23 -4 -16 33 3 22 14 47 23 57 15 17 17 14 40
-55 l24 -73 -21 -55z m3627 178 c-1 -7 -5 -24 -9 -38 -7 -22 -8 -21 -9 13 -1
20 4 37 9 37 6 0 10 -6 9 -12z m-139 -142 c0 -80 -3 -106 -15 -116 -13 -11
-15 1 -15 97 0 60 3 113 7 116 18 19 23 -2 23 -97z m-70 -57 c0 -75 -4 -128
-9 -125 -17 11 -41 100 -41 153 0 51 21 103 41 103 5 0 9 -59 9 -131z m-2972
-173 c47 -23 65 -39 100 -92 45 -68 47 -78 35 -197 -5 -59 -9 -68 -29 -73 -12
-3 -32 0 -44 6 -20 10 -21 17 -15 58 4 29 14 54 27 65 23 20 11 23 -16 4 -10
-7 -20 -33 -24 -62 l-7 -49 -88 115 c-104 138 -112 175 -42 218 19 12 19 12
-2 6 -20 -6 -22 -3 -16 32 3 21 10 49 15 63 9 24 10 24 29 -21 17 -39 29 -50
77 -73z m-360 28 c12 -42 22 -77 24 -78 2 -1 24 -19 51 -40 42 -34 47 -43 47
-79 l0 -40 -22 19 -23 19 21 -25 c22 -26 124 -251 124 -274 0 -7 -11 -22 -23
-35 -21 -19 -25 -20 -37 -6 -14 17 -35 21 -25 5 8 -13 -24 -12 -104 3 l-63 12
-40 100 c-30 75 -37 104 -30 116 8 13 7 16 -6 15 -11 -1 -22 13 -31 41 -15 41
-15 41 45 182 32 77 62 141 65 141 4 0 16 -34 27 -76z m3577 6 c3 -5 -29 -26
-72 -46 -130 -60 -142 -64 -148 -54 -6 9 105 70 175 96 19 7 36 13 37 13 1 1
5 -3 8 -9z m-3379 -124 c-4 -15 0 -28 10 -37 14 -12 14 -14 -3 -20 -17 -7 -16
-8 3 -8 14 -1 44 -34 97 -106 42 -57 77 -108 77 -112 0 -20 -48 -64 -76 -69
-26 -5 -35 -1 -62 30 -17 20 -35 49 -38 64 -4 15 -10 29 -14 32 -15 12 -50
112 -50 145 0 33 2 36 23 30 l22 -6 -23 14 c-22 13 -22 14 -4 30 10 9 22 14
25 10 4 -3 7 1 7 10 0 10 3 17 6 17 3 0 3 -11 0 -24z m3184 -56 c-11 -16 -25
-32 -31 -36 -6 -3 -14 -16 -19 -28 -7 -21 -167 -122 -177 -113 -2 2 7 22 19
44 17 32 44 54 123 101 55 34 101 61 103 61 2 1 -6 -12 -18 -29z m-56 -129 c3
-5 -27 -28 -67 -52 -39 -23 -82 -49 -94 -56 -19 -13 -21 -12 -19 2 3 21 43 48
59 39 6 -4 9 -3 4 1 -4 5 16 24 45 42 57 35 64 38 72 24z m-3464 -61 c-6 -11
-13 -20 -16 -20 -2 0 0 9 6 20 6 11 13 20 16 20 2 0 0 -9 -6 -20z m1287 -97
c-11 -10 -37 12 -37 31 0 37 13 39 27 5 7 -18 12 -34 10 -36z m1886 50 c-5
-12 -3 -14 7 -8 23 14 -25 -47 -72 -91 -54 -53 -125 -97 -140 -88 -7 4 -8 3
-4 -4 7 -12 -5 -16 -33 -13 -7 2 -10 -2 -6 -8 4 -7 0 -8 -10 -5 -12 5 3 18 52
47 37 22 100 73 138 113 39 39 71 72 72 73 1 0 -1 -6 -4 -16z m-2568 -17 c18
-8 40 -27 49 -43 l15 -29 -67 -33 -66 -33 24 -20 25 -20 -25 5 c-14 3 -54 11
-90 18 -36 6 -66 13 -68 14 -2 1 5 19 14 39 12 23 28 39 48 46 17 5 39 24 48
40 19 34 41 37 93 16z m-619 -102 c15 -56 22 -67 48 -79 l31 -13 -37 -1 c-33
-1 -38 2 -47 32 -17 50 -29 127 -21 127 4 0 16 -30 26 -66z m1314 36 c0 -14
-14 -12 -28 2 -19 19 -14 30 8 18 11 -6 20 -15 20 -20z m725 -10 c3 -6 -1 -7
-9 -4 -18 7 -21 14 -7 14 6 0 13 -4 16 -10z m-1100 -75 c77 -30 145 -55 152
-55 7 0 13 -4 13 -10 0 -6 -32 -10 -77 -9 -102 1 -169 12 -165 27 1 7 -2 12
-8 12 -5 0 -10 -7 -10 -15 0 -18 -1 -18 -34 -5 -14 5 -33 24 -42 41 -16 31
-16 33 7 50 13 10 24 19 24 19 0 0 63 -25 140 -55z m821 38 c-12 -3 -15 -8 -8
-12 6 -3 -41 -21 -105 -40 -78 -22 -118 -30 -125 -23 -7 7 18 19 78 37 49 14
100 30 114 35 14 5 34 8 45 8 19 0 19 -1 1 -5z m-1026 -57 c0 -17 -25 -27 -46
-19 -15 6 -15 8 2 20 23 17 44 17 44 -1z m-330 -26 c-8 -5 -22 -9 -30 -9 -10
0 -8 3 5 9 27 12 43 12 25 0z m1845 -55 c124 -25 230 -54 223 -60 -2 -2 -46 3
-98 12 -88 14 -115 14 -360 -4 -237 -18 -270 -18 -310 -5 -63 21 -68 29 -24
41 22 5 59 15 84 22 133 35 298 33 485 -6z m1235 26 c0 -11 -25 -21 -55 -21
-25 0 -39 12 -28 24 10 9 83 7 83 -3z m-3235 -36 c32 -10 37 -14 22 -20 -21
-9 -137 23 -137 37 0 10 52 2 115 -17z m2401 -44 c23 -6 41 -17 41 -25 0 -11
-9 -11 -59 0 -77 18 -131 41 -124 53 4 6 24 5 54 -4 26 -7 65 -18 88 -24z
m-2171 -33 c-14 -24 -36 -60 -48 -81 -21 -36 -24 -38 -61 -33 -46 5 -54 12
-62 51 -5 29 -4 31 78 67 46 20 91 36 101 37 16 1 15 -4 -8 -41z m2651 -3
c-11 -8 -25 -15 -30 -15 -6 1 0 7 14 15 32 19 40 18 16 0z m-1588 -18 c51 -13
93 -27 93 -31 0 -4 -22 -24 -48 -43 -26 -20 -60 -47 -75 -61 l-26 -24 -42 23
-41 23 5 51 5 50 -11 -40 c-6 -22 -12 -41 -13 -43 -1 -1 -23 7 -50 19 -36 16
-58 19 -91 14 -33 -5 -44 -3 -44 7 0 8 42 25 113 44 61 17 117 32 122 33 6 0
52 -10 103 -22z m288 8 c-11 -8 -27 -15 -35 -15 -9 0 -36 -10 -61 -22 -25 -12
-53 -22 -63 -23 -18 -2 -18 -2 0 16 30 31 96 58 138 58 37 0 39 -1 21 -14z
m-606 -23 c-92 -31 -176 -34 -283 -8 -43 10 -76 20 -74 22 2 2 53 -3 113 -12
104 -15 113 -15 199 4 121 27 135 25 45 -6z m-925 -43 c6 -26 6 -26 -47 -21
-84 7 -52 -5 47 -18 49 -6 91 -13 93 -14 1 -2 -5 -17 -14 -33 -15 -26 -27 -32
-101 -47 l-83 -17 -54 43 c-30 24 -54 47 -52 53 3 13 189 94 198 86 4 -3 9
-18 13 -32z m-195 16 c-7 -8 -18 -15 -24 -15 -6 0 -2 7 8 15 25 19 32 19 16 0z
m912 -16 c50 -13 55 -26 12 -31 -25 -3 -44 2 -63 16 -56 42 -54 43 51 15z
m1973 1 c-3 -5 -16 -15 -28 -21 -19 -9 -19 -8 3 10 28 23 34 26 25 11z m-1835
-10 c0 -5 -15 -10 -32 -9 -31 1 -32 1 -8 9 35 11 40 11 40 0z m100 -20 c-8 -5
-18 -6 -24 -3 -5 4 -1 10 10 13 24 9 34 2 14 -10z m137 -32 c40 -23 73 -44 73
-48 0 -7 -56 -50 -65 -50 -10 0 -120 77 -134 94 -12 14 -11 19 5 31 29 22 41
19 121 -27z"/>
<path d="M4902 4860 c0 -19 2 -27 5 -17 2 9 2 25 0 35 -3 9 -5 1 -5 -18z"/>
<path d="M5000 3415 c0 -5 5 -17 10 -25 5 -8 10 -10 10 -5 0 6 -5 17 -10 25
-5 8 -10 11 -10 5z"/>
<path d="M4765 1570 c-3 -6 1 -7 9 -4 18 7 21 14 7 14 -6 0 -13 -4 -16 -10z"/>
<path d="M4630 1490 c-9 -6 -10 -10 -3 -10 6 0 15 5 18 10 8 12 4 12 -15 0z"/>
<path d="M3353 5453 c9 -2 25 -2 35 0 9 3 1 5 -18 5 -19 0 -27 -2 -17 -5z"/>
<path d="M4771 3244 c0 -11 3 -14 6 -6 3 7 2 16 -1 19 -3 4 -6 -2 -5 -13z"/>
<path d="M4412 2820 c0 -14 2 -19 5 -12 2 6 2 18 0 25 -3 6 -5 1 -5 -13z"/>
<path d="M1456 2375 c-9 -26 -7 -32 5 -12 6 10 9 21 6 23 -2 3 -7 -2 -11 -11z"/>
<path d="M1685 2050 c9 -16 18 -30 21 -30 2 0 -2 14 -11 30 -9 17 -18 30 -21
30 -2 0 2 -13 11 -30z"/>
<path d="M1655 1956 c10 -14 19 -26 22 -26 7 0 -17 39 -28 46 -6 3 -3 -5 6
-20z"/>
<path d="M1638 1923 c7 -3 16 -2 19 1 4 3 -2 6 -13 5 -11 0 -14 -3 -6 -6z"/>
<path d="M1512 1860 c0 -14 2 -19 5 -12 2 6 2 18 0 25 -3 6 -5 1 -5 -13z"/>
<path d="M798 1423 c7 -3 16 -2 19 1 4 3 -2 6 -13 5 -11 0 -14 -3 -6 -6z"/>
<path d="M838 1413 c6 -2 18 -2 25 0 6 3 1 5 -13 5 -14 0 -19 -2 -12 -5z"/>
</g>
</svg>
