<?xml version="1.0" standalone="no"?>
<!DOCTYPE svg PUBLIC "-//W3C//DTD SVG 20010904//EN"
 "http://www.w3.org/TR/2001/REC-SVG-20010904/DTD/svg10.dtd">
<svg version="1.0" xmlns="http://www.w3.org/2000/svg"
 width="630.000000pt" height="630.000000pt" viewBox="0 0 630.000000 630.000000"
 preserveAspectRatio="xMidYMid meet">

<g transform="translate(0.000000,630.000000) scale(0.100000,-0.100000)"
fill="#000000" stroke="none">
<path d="M2794 5606 c-3 -9 -12 -16 -19 -16 -7 0 -18 -7 -25 -15 -21 -25 0
-36 43 -23 32 10 38 15 35 37 -4 29 -25 40 -34 17z"/>
<path d="M2610 5600 c0 -5 5 -10 10 -10 6 0 10 5 10 10 0 6 -4 10 -10 10 -5 0
-10 -4 -10 -10z"/>
<path d="M2726 5449 c-98 -11 -111 -15 -152 -51 -33 -30 -42 -32 -108 -33 -62
0 -78 -4 -115 -28 -26 -17 -49 -43 -58 -64 -21 -51 -71 -110 -121 -145 -60
-41 -76 -82 -75 -193 0 -49 5 -103 11 -118 9 -21 9 -34 1 -50 -7 -12 -11 -60
-10 -115 1 -74 5 -100 19 -120 20 -26 20 -25 -18 -148 -6 -17 -10 -42 -10 -57
0 -26 2 -27 55 -27 52 0 59 -3 103 -44 61 -58 85 -66 186 -66 71 0 91 4 138
28 l55 27 38 -27 c47 -34 94 -48 165 -48 59 0 132 27 147 54 8 14 13 13 43 -9
76 -56 213 -191 251 -246 22 -33 58 -99 80 -147 22 -48 47 -100 55 -116 13
-26 13 -28 -3 -21 -96 41 -110 42 -188 15 -32 -11 -59 -19 -60 -18 -22 45 -21
64 6 93 30 33 71 144 59 160 -4 6 -10 26 -14 47 -13 70 -128 148 -228 155 -48
3 -58 1 -58 -12 0 -23 -30 -65 -46 -65 -8 0 -14 -9 -14 -21 0 -11 -7 -27 -15
-35 -8 -9 -15 -31 -15 -50 0 -21 -4 -33 -10 -29 -16 10 -12 -48 5 -72 8 -12
12 -28 9 -36 -3 -8 7 -25 25 -40 16 -13 27 -27 24 -31 -3 -3 2 -15 12 -26 14
-16 28 -19 75 -16 55 3 100 19 100 34 0 4 9 13 19 19 18 11 21 8 37 -33 14
-37 15 -47 4 -54 -7 -4 -10 -12 -6 -18 3 -6 -14 -25 -38 -41 -55 -38 -70 -77
-64 -174 3 -58 9 -80 32 -112 29 -42 45 -60 31 -35 -5 8 11 -3 35 -24 27 -24
45 -35 48 -27 3 8 15 3 37 -14 19 -14 37 -25 41 -25 4 0 15 -6 23 -13 9 -7 28
-18 43 -25 22 -9 26 -9 22 3 -5 13 13 56 63 150 36 67 7 216 -48 245 -11 7
-18 14 -15 18 13 13 -99 72 -136 72 -39 0 -51 13 -22 24 9 3 49 6 90 6 72 0
141 -22 159 -49 20 -34 25 -123 10 -212 -18 -113 -19 -219 -3 -288 6 -28 9
-54 5 -57 -3 -3 -41 7 -84 22 -55 19 -104 29 -168 32 -79 4 -100 1 -170 -23
-44 -15 -105 -40 -136 -56 -102 -51 -271 -200 -354 -314 -17 -22 -38 -49 -48
-60 -26 -28 -86 -137 -98 -177 -6 -18 -10 -128 -10 -243 l0 -210 46 -125 c26
-69 50 -134 54 -145 5 -11 25 -41 45 -68 20 -26 36 -54 36 -61 0 -8 11 -23 25
-34 14 -11 25 -24 25 -29 0 -19 97 -111 128 -121 19 -7 42 -23 53 -36 11 -14
35 -34 54 -46 l35 -22 0 -194 c0 -139 3 -194 11 -194 9 0 11 51 7 191 -5 174
-4 190 11 184 31 -13 122 -35 143 -35 19 0 20 -4 13 -57 -5 -50 -16 -100 -41
-198 -4 -17 -3 -18 6 -5 9 12 10 -1 6 -55 l-5 -70 24 79 c14 44 26 87 26 95 4
47 18 -131 25 -306 4 -111 11 -200 15 -197 4 2 6 152 3 332 -3 179 -3 324 0
322 2 -3 16 -50 30 -105 20 -75 26 -126 27 -210 1 -106 2 -108 11 -50 13 84 4
217 -20 300 -11 39 -23 85 -26 103 -5 28 -3 32 17 32 12 1 46 9 75 19 35 12
69 16 102 13 l50 -5 0 -98 c0 -91 13 -139 23 -87 2 13 5 -49 7 -137 3 -204 13
-257 23 -120 4 55 7 163 7 240 0 77 3 164 6 192 7 54 10 57 65 67 105 18 350
285 337 368 -3 19 -8 16 -58 -24 -69 -56 -115 -81 -210 -114 -41 -14 -82 -33
-91 -40 -14 -12 -22 -12 -60 5 -33 15 -67 20 -134 20 -49 0 -102 4 -117 10
-16 6 -28 8 -28 5 0 -2 -8 3 -19 13 -12 12 -22 45 -30 98 -11 67 -10 96 3 178
9 54 25 125 36 157 21 63 27 165 10 175 -5 3 -10 17 -10 30 0 13 -7 52 -16 87
-23 87 -14 241 20 372 14 54 26 106 26 116 0 15 12 20 63 27 34 5 65 8 70 6 4
-3 7 -54 7 -116 0 -118 16 -141 23 -32 2 47 4 41 5 -31 1 -50 5 -119 8 -153
13 -120 24 -58 24 134 l0 195 28 0 c15 0 37 -3 49 -6 l23 -6 -1 -304 c0 -188
4 -311 10 -322 14 -24 15 -18 16 198 2 244 14 423 29 416 6 -2 61 -26 121 -51
119 -52 215 -79 228 -66 4 4 -51 63 -124 130 -101 93 -144 125 -182 139 -27 9
-55 26 -63 37 -19 30 -57 222 -51 264 24 180 37 313 34 346 -5 38 -2 43 71
117 41 43 74 80 71 82 -2 2 -35 -22 -73 -55 -67 -56 -86 -64 -86 -33 0 8 -4
15 -10 15 -5 1 -16 2 -22 3 -10 1 -13 32 -13 118 -1 64 3 114 7 112 5 -3 14 7
21 23 6 15 21 29 32 30 11 2 30 4 43 5 12 1 22 6 22 10 0 4 6 5 14 2 8 -3 24
-1 35 6 12 6 21 8 21 6 0 -11 -60 -36 -95 -40 -37 -5 -85 -39 -85 -60 0 -16
68 -57 105 -63 27 -4 33 -2 38 16 4 17 13 21 42 21 27 0 38 5 42 18 2 9 21 26
41 37 20 11 38 29 40 40 2 11 10 27 18 36 8 9 16 30 19 47 2 17 7 37 11 44 4
6 9 45 11 85 3 51 10 84 24 108 l21 35 -32 0 c-17 0 -39 4 -49 9 -9 6 -41 11
-69 13 -55 3 -66 21 -16 26 16 2 34 8 39 12 6 5 34 12 63 16 74 9 135 58 168
132 14 32 27 71 28 87 2 17 7 50 11 74 8 42 7 44 -14 38 -13 -3 -33 -2 -45 3
-88 35 -126 41 -180 26 -76 -19 -122 -57 -140 -114 -23 -74 -25 -104 -11 -147
28 -83 20 -185 -14 -185 -13 0 -34 179 -28 231 4 28 18 70 31 94 14 23 35 67
46 97 17 46 27 58 58 72 84 37 132 80 132 118 0 7 12 38 26 67 23 50 23 53 4
36 -18 -16 -20 -16 -20 -2 0 10 -5 17 -10 17 -15 0 -101 -82 -111 -105 -8 -20
-8 -20 -8 1 -1 11 14 41 33 65 63 83 51 92 -26 19 l-73 -68 -1 -86 c0 -47 -3
-89 -7 -92 -4 -4 -7 -14 -7 -23 0 -9 -12 -41 -27 -71 -26 -55 -26 -55 -33 -25
-4 18 -2 36 5 45 26 33 26 54 -1 107 -28 54 -82 104 -118 110 -12 2 -52 6 -89
9 l-68 6 17 -34 c9 -18 18 -52 20 -75 4 -57 23 -90 78 -141 48 -45 59 -48 102
-32 44 17 50 2 36 -92 -10 -69 -9 -94 5 -167 17 -91 28 -115 49 -107 8 3 6 -9
-7 -37 -10 -23 -19 -48 -19 -55 0 -20 41 6 47 29 3 11 11 18 17 16 6 -2 22 4
36 13 26 18 91 42 97 37 1 -2 -24 -16 -57 -32 -33 -16 -67 -36 -76 -46 -14
-15 -10 -17 48 -23 91 -10 103 -24 16 -18 -97 6 -139 -11 -169 -70 -13 -24
-24 -45 -24 -48 -1 -3 -11 -21 -23 -40 l-23 -35 7 45 c3 25 10 61 14 80 8 35
8 35 9 5 1 -30 1 -30 33 19 43 65 69 143 53 156 -9 7 -17 5 -26 -7 -12 -14
-15 -7 -20 56 -5 70 -7 73 -54 121 -29 29 -64 54 -84 60 -19 5 -36 8 -37 7 0
-1 -4 -17 -7 -35 -5 -25 -2 -37 15 -54 12 -12 23 -29 23 -38 1 -8 2 -22 3 -31
1 -9 31 -37 66 -63 l65 -47 -46 -75 c-36 -57 -47 -85 -50 -126 -2 -29 -8 -66
-13 -83 -5 -16 -11 -80 -12 -142 -2 -61 -5 -110 -8 -108 -3 2 -37 55 -74 118
-71 118 -128 186 -229 273 l-58 49 29 52 c15 29 43 63 62 75 18 13 38 36 43
52 5 16 25 49 43 73 53 70 54 154 3 255 -10 20 -19 39 -19 41 0 3 14 10 30 17
62 26 69 97 15 153 -23 24 -35 46 -35 64 0 34 -6 43 -43 66 -15 10 -35 36 -43
58 -9 22 -25 44 -35 49 -18 10 -83 15 -107 9 -9 -3 -21 21 -36 67 -27 84 -65
138 -108 153 -17 6 -34 10 -37 10 -3 -1 -37 -5 -75 -10z m-96 -69 c0 -5 -8
-10 -17 -10 -15 0 -16 2 -3 10 19 12 20 12 20 0z m-50 -44 c-54 -14 -108 -53
-151 -108 -35 -43 -33 -51 12 -51 24 0 27 -2 14 -10 -9 -5 -25 -23 -36 -40
-10 -18 -19 -25 -19 -17 0 9 7 26 16 38 12 18 13 23 3 21 -24 -3 -65 3 -49 7
12 4 62 71 78 107 2 4 -13 7 -34 7 -47 0 -96 -32 -124 -81 -11 -20 -27 -39
-35 -42 -26 -11 76 113 107 129 19 10 46 14 72 12 29 -3 56 3 91 19 28 12 61
23 75 22 17 0 10 -4 -20 -13z m110 0 c0 -2 -8 -10 -17 -17 -16 -13 -17 -12 -4
4 13 16 21 21 21 13z m87 -38 c23 -34 29 -55 33 -127 5 -85 22 -117 28 -54 4
42 60 103 93 103 20 -1 17 -5 -18 -21 -43 -21 -50 -31 -63 -88 -8 -31 -5 -39
26 -74 19 -23 34 -52 34 -65 0 -35 9 -22 25 35 l13 48 1 -43 c1 -50 -4 -61
-117 -250 -68 -115 -86 -154 -90 -193 -2 -27 -9 -49 -14 -49 -5 0 -6 -44 -2
-107 6 -101 5 -110 -16 -135 -12 -16 -30 -28 -41 -28 -27 0 -23 12 10 32 36
20 48 67 32 124 -6 22 -11 55 -11 74 l0 35 -68 -3 c-61 -3 -74 0 -134 31 -46
24 -77 34 -103 32 -22 -1 -31 1 -23 6 7 5 21 9 31 9 23 0 23 0 -19 61 -23 35
-52 63 -82 79 -53 29 -88 71 -78 95 5 14 14 16 46 11 38 -6 40 -5 40 18 0 14
-5 28 -11 32 -6 3 -9 22 -7 40 2 19 1 34 -4 34 -18 0 -58 77 -58 111 0 41 17
60 73 84 54 23 58 18 7 -11 -54 -30 -70 -49 -70 -84 0 -35 21 -63 76 -100 45
-30 46 -30 39 -8 -4 13 -11 43 -15 68 -4 25 -8 39 -9 31 0 -8 -3 -12 -6 -9 -7
7 23 79 43 101 8 9 20 17 26 17 6 0 6 -4 -1 -11 -6 -6 -9 -19 -6 -28 4 -13 3
-13 -5 -2 -8 11 -12 10 -21 -8 -7 -12 -9 -27 -5 -33 4 -7 3 -8 -4 -4 -8 5 -10
-3 -6 -26 11 -69 16 -84 32 -102 9 -11 11 -16 5 -12 -18 10 -17 -18 1 -33 10
-9 16 -8 26 4 10 13 10 19 -3 33 -22 25 -18 70 11 127 14 28 26 51 27 53 6 9
65 19 65 11 0 -5 -12 -9 -27 -9 l-28 -1 33 -14 c39 -17 41 -25 5 -25 -19 0
-24 3 -15 9 10 6 9 10 -7 14 -12 3 -24 0 -28 -6 -3 -7 -3 -9 2 -5 4 4 13 2 19
-6 6 -7 24 -17 40 -20 28 -7 28 -6 24 29 -2 19 0 35 4 35 9 0 11 -104 2 -137
-3 -12 -12 -24 -20 -27 -13 -5 -12 -2 1 16 24 36 19 56 -20 72 -42 18 -58 13
-74 -20 -14 -31 -14 -44 -1 -44 6 0 10 12 10 28 0 21 2 24 10 12 6 -10 10 -11
10 -2 0 6 11 12 25 12 34 0 31 -21 -5 -45 -16 -11 -30 -23 -30 -27 0 -5 -7 -8
-16 -8 -9 0 -12 5 -8 12 4 7 3 8 -4 4 -21 -12 6 -49 30 -42 16 4 14 -1 -11
-22 l-31 -27 44 -44 45 -44 53 20 c29 12 85 31 125 43 101 32 99 30 80 87 -11
32 -12 42 -3 31 7 -10 16 -15 19 -11 4 3 7 -9 7 -28 0 -23 3 -30 9 -20 6 9 10
10 12 2 3 -9 12 -9 32 -2 16 6 40 11 54 11 22 0 24 3 19 28 -9 36 -37 74 -67
89 -13 7 -20 13 -14 13 5 0 4 5 -3 12 -7 7 -12 37 -12 68 0 70 -22 145 -51
176 -12 13 -17 24 -11 24 6 0 24 -19 39 -42z m-178 -62 c-2 -2 -29 -11 -59
-19 -30 -8 -64 -18 -75 -21 -11 -4 3 5 30 19 28 13 63 25 79 25 16 0 27 -2 25
-4z m86 -36 c45 -36 49 -37 35 -9 -7 11 -10 23 -7 25 12 12 40 -77 43 -135 2
-36 1 -57 -2 -46 -4 11 -13 29 -23 39 -9 11 -10 16 -3 12 20 -12 14 28 -11 65
-12 18 -38 44 -56 56 -19 13 -29 23 -24 23 6 0 27 -13 48 -30z m-172 -17 c-7
-2 -19 -2 -25 0 -7 3 -2 5 12 5 14 0 19 -2 13 -5z m80 0 c-7 -2 -19 -2 -25 0
-7 3 -2 5 12 5 14 0 19 -2 13 -5z m457 -25 c0 -6 -6 -8 -14 -5 -32 13 -50 -49
-21 -73 27 -23 47 -112 37 -166 l-10 -49 -1 67 c0 37 -6 70 -11 73 -6 4 -8 11
-4 16 3 5 -6 29 -20 54 -32 53 -32 63 -3 91 21 21 47 17 47 -8z m-428 -56 c-2
-7 11 -27 29 -43 l34 -31 -32 22 c-25 16 -33 18 -33 7 0 -7 -12 -24 -27 -38
l-28 -24 22 25 c20 23 21 28 9 40 -8 8 -18 29 -21 45 -5 26 -4 25 14 -10 l19
-40 1 33 c1 17 -4 32 -10 32 -5 0 -7 4 -4 10 9 14 34 -12 27 -28z m-305 -94
c-3 -8 -6 -5 -6 6 -1 11 2 17 5 13 3 -3 4 -12 1 -19z m394 5 c13 -16 12 -17
-3 -4 -17 13 -22 21 -14 21 2 0 10 -8 17 -17z m86 -30 c-3 -10 -5 -4 -5 12 0
17 2 24 5 18 2 -7 2 -21 0 -30z m978 27 c-3 -5 -12 -10 -18 -10 -7 0 -6 4 3
10 19 12 23 12 15 0z m-334 -90 c7 0 18 -8 25 -17 12 -16 15 -16 24 -3 8 12
10 11 10 -6 0 -11 10 -29 21 -40 l22 -19 -5 53 c-3 29 -2 50 1 46 3 -3 8 -39
11 -79 l5 -73 -25 27 c-16 17 -34 26 -50 25 -23 -2 -23 -2 -2 3 29 6 24 23
-13 43 -15 8 -38 25 -52 38 -16 16 -30 21 -46 17 -19 -5 -20 -4 -5 7 15 11 15
13 0 37 -10 15 0 8 26 -17 23 -23 47 -42 53 -42z m-966 30 c3 -6 -1 -7 -9 -4
-18 7 -21 14 -7 14 6 0 13 -4 16 -10z m1012 -22 c-3 -8 -6 -5 -6 6 -1 11 2 17
5 13 3 -3 4 -12 1 -19z m-340 -93 c20 -8 33 -18 30 -22 -4 -3 -13 -1 -20 5
-14 12 -52 17 -98 14 -21 -2 -29 -12 -48 -57 -32 -78 -79 -134 -165 -199 -41
-31 -76 -61 -78 -68 -2 -6 -9 -8 -16 -4 -21 13 0 38 69 82 65 41 140 122 179
192 39 71 40 72 76 72 19 0 51 -7 71 -15z m657 -97 c-32 -28 -34 -33 -18 -39
16 -6 15 -8 -7 -8 -15 -1 -37 -14 -55 -33 -59 -64 -59 -64 -1 -63 29 0 55 5
59 10 5 6 8 3 8 -7 0 -9 3 -18 8 -21 4 -2 0 -2 -8 1 -56 18 -140 -4 -140 -37
0 -8 -3 -11 -6 -8 -4 4 1 27 10 52 18 45 84 122 141 163 45 32 51 26 9 -10z
m-1659 3 c11 -36 66 -96 118 -128 49 -32 45 -45 -8 -21 -24 11 -29 8 -70 -32
-40 -39 -45 -42 -45 -22 0 14 14 32 40 51 l39 28 -21 19 c-22 20 -78 103 -78
116 0 16 19 8 25 -11z m125 -55 c0 -3 -4 -8 -10 -11 -5 -3 -10 -1 -10 4 0 6 5
11 10 11 6 0 10 -2 10 -4z m970 -50 c0 -3 -4 -8 -10 -11 -5 -3 -10 -1 -10 4 0
6 5 11 10 11 6 0 10 -2 10 -4z m-180 -40 c0 -3 -4 -8 -10 -11 -5 -3 -10 -1
-10 4 0 6 5 11 10 11 6 0 10 -2 10 -4z m-836 -61 c-6 -16 -24 -21 -24 -7 0 11
11 22 21 22 5 0 6 -7 3 -15z m1413 -37 c-3 -8 -6 -5 -6 6 -1 11 2 17 5 13 3
-3 4 -12 1 -19z m-683 -223 c-4 -8 -8 -15 -10 -15 -2 0 -4 7 -4 15 0 8 4 15
10 15 5 0 7 -7 4 -15z m-647 -27 c-3 -8 -6 -5 -6 6 -1 11 2 17 5 13 3 -3 4
-12 1 -19z m63 -18 c0 -5 -7 -10 -16 -10 -8 0 -12 5 -9 10 3 6 10 10 16 10 5
0 9 -4 9 -10z m1315 -30 c-3 -5 -11 -10 -16 -10 -6 0 -7 5 -4 10 3 6 11 10 16
10 6 0 7 -4 4 -10z m-46 -14 c-2 -2 -22 -6 -44 -9 -28 -5 -34 -4 -20 3 19 8
73 14 64 6z m94 -41 c-3 -9 -8 -14 -10 -11 -3 3 -2 9 2 15 9 16 15 13 8 -4z
m-749 -78 c-2 -7 14 -30 36 -52 22 -21 40 -44 40 -50 0 -5 -19 10 -43 36 -67
72 -69 75 -47 76 11 1 17 -3 14 -10z m114 -89 c-3 -28 1 -69 8 -92 7 -22 13
-34 13 -25 1 9 10 27 21 40 l20 24 -20 -45 c-11 -25 -20 -57 -20 -72 0 -33 -4
-34 -28 -10 -11 11 -37 22 -58 26 -21 3 -50 15 -64 27 l-25 20 25 -12 c14 -7
41 -16 60 -19 19 -4 43 -11 53 -15 13 -5 17 -2 17 12 0 44 -50 81 -131 97 -19
3 -44 13 -55 20 -17 13 -14 13 26 4 25 -5 66 -18 93 -28 46 -18 58 -15 35 8
-9 9 -8 12 5 12 15 0 17 8 13 58 -4 43 -2 53 6 38 6 -10 8 -41 6 -68z m190
-477 c34 -23 62 -44 62 -47 0 -6 -12 0 -67 38 -23 15 -44 28 -46 28 -3 0 0
-16 6 -36 10 -33 38 -63 97 -107 25 -18 25 -18 -5 -1 -16 9 -41 26 -54 38
l-24 21 7 -45 c4 -25 10 -65 13 -89 2 -24 9 -55 14 -68 5 -14 5 -23 -1 -23
-12 0 -27 57 -36 133 -7 63 -11 63 -43 2 -12 -22 -21 -34 -21 -27 0 7 11 34
25 60 31 58 31 81 3 135 l-22 42 -7 -35 -6 -35 -2 35 c0 20 -10 54 -21 75
l-20 40 43 -47 c23 -25 70 -65 105 -87z m-116 -53 c-8 -8 -9 -4 -5 13 4 13 8
18 11 10 2 -7 -1 -18 -6 -23z m129 -155 c13 -16 12 -17 -3 -4 -10 7 -18 15
-18 17 0 8 8 3 21 -13z m-144 -219 c-3 -3 -12 -4 -19 -1 -8 3 -5 6 6 6 11 1
17 -2 13 -5z m141 0 c12 -4 22 -11 22 -16 0 -10 -39 -1 -54 13 -12 11 -1 11
32 3z m-373 -69 c-16 -14 -52 -32 -80 -41 -27 -9 -56 -21 -62 -27 -7 -5 -13
-6 -12 -1 1 16 58 56 107 75 66 25 83 23 47 -6z m725 -79 c0 -3 -4 -8 -10 -11
-5 -3 -10 -1 -10 4 0 6 5 11 10 11 6 0 10 -2 10 -4z m-910 -36 c-6 -11 -16
-20 -22 -20 -6 0 -3 9 7 20 10 11 20 20 22 20 2 0 -1 -9 -7 -20z m260 -14 c0
-2 -9 -6 -20 -9 -11 -3 -18 -1 -14 4 5 9 34 13 34 5z m120 -36 c0 -6 -6 -25
-13 -43 -35 -82 -48 -181 -38 -284 5 -56 14 -109 19 -120 5 -10 14 -47 21 -83
9 -54 7 -85 -8 -185 -11 -66 -26 -136 -34 -155 -9 -22 -17 -75 -18 -138 -3
-87 -6 -102 -19 -98 -85 27 -155 61 -175 84 -42 46 -65 104 -65 161 0 28 -7
87 -16 129 -24 113 -14 213 37 370 43 132 82 220 118 262 l20 25 1 -90 c4
-423 6 -490 15 -493 6 -1 12 100 16 280 3 156 7 293 8 305 1 17 16 30 59 52
63 33 72 36 72 21z m-557 -158 c-3 -12 -9 -22 -14 -22 -14 0 -39 -57 -33 -74
4 -9 0 -18 -10 -22 -9 -3 -23 -29 -31 -57 -18 -61 -18 -60 -3 -51 7 4 8 3 4
-5 -4 -6 -11 -9 -16 -6 -4 3 -15 -7 -25 -21 -9 -14 -19 -23 -22 -20 -8 8 28
147 46 177 16 26 104 128 108 125 1 -1 0 -12 -4 -24z m157 24 c0 -2 -7 -6 -15
-10 -8 -3 -15 -1 -15 4 0 6 7 10 15 10 8 0 15 -2 15 -4z m-50 -180 c0 -3 -4
-8 -10 -11 -5 -3 -10 -1 -10 4 0 6 5 11 10 11 6 0 10 -2 10 -4z m-250 -263 c0
-41 -3 -54 -10 -43 -13 20 -13 100 0 100 6 0 10 -26 10 -57z m620 -652 c0 -6
-4 -13 -10 -16 -5 -3 -10 1 -10 9 0 9 5 16 10 16 6 0 10 -4 10 -9z m-80 -81
c0 -5 -5 -10 -11 -10 -5 0 -7 5 -4 10 3 6 8 10 11 10 2 0 4 -4 4 -10z m190 0
c0 -5 -5 -10 -11 -10 -5 0 -7 5 -4 10 3 6 8 10 11 10 2 0 4 -4 4 -10z m-103
-62 c-3 -8 -6 -5 -6 6 -1 11 2 17 5 13 3 -3 4 -12 1 -19z m327 -33 c-4 -8 -10
-12 -15 -9 -11 6 -2 24 11 24 5 0 7 -7 4 -15z m-304 -40 c-7 -9 -15 -13 -17
-11 -7 7 7 26 19 26 6 0 6 -6 -2 -15z"/>
<path d="M2300 4941 c0 -5 5 -22 12 -38 12 -30 14 -38 16 -65 1 -10 18 -24 38
-33 58 -24 62 -17 15 25 -57 52 -46 52 14 0 25 -22 56 -40 68 -40 17 1 5 17
-63 80 -83 78 -100 90 -100 71z"/>
<path d="M2795 4894 c-38 -14 -117 -43 -175 -63 -58 -20 -114 -42 -125 -49
-11 -6 -36 -18 -55 -27 l-35 -16 25 20 c25 20 20 26 -21 22 -9 -1 -37 7 -63
19 -92 39 -129 21 -71 -37 33 -33 39 -35 82 -30 33 3 42 2 30 -5 -26 -14 -21
-25 39 -88 62 -66 117 -96 192 -106 66 -8 102 1 102 26 0 32 39 120 85 196 24
38 49 83 55 98 9 25 8 28 -7 21 -60 -23 -211 -65 -228 -63 -11 2 26 16 81 32
108 30 213 74 179 75 -11 0 -51 -11 -90 -25z m-205 -254 c0 -5 -5 -10 -11 -10
-5 0 -7 5 -4 10 3 6 8 10 11 10 2 0 4 -4 4 -10z"/>
<path d="M4080 5450 c0 -5 5 -10 10 -10 6 0 10 5 10 10 0 6 -4 10 -10 10 -5 0
-10 -4 -10 -10z"/>
<path d="M3420 5240 c0 -5 5 -10 10 -10 6 0 10 5 10 10 0 6 -4 10 -10 10 -5 0
-10 -4 -10 -10z"/>
<path d="M4200 4610 c0 -5 5 -10 10 -10 6 0 10 5 10 10 0 6 -4 10 -10 10 -5 0
-10 -4 -10 -10z"/>
<path d="M4076 4575 c-14 -14 -14 -18 2 -35 9 -11 22 -20 28 -20 20 0 57 39
50 55 -7 20 -60 20 -80 0z"/>
<path d="M4090 4110 c0 -5 7 -10 15 -10 8 0 15 5 15 10 0 6 -7 10 -15 10 -8 0
-15 -4 -15 -10z"/>
<path d="M3817 3843 c-4 -3 -7 -15 -7 -25 0 -26 24 -17 28 10 3 21 -8 29 -21
15z"/>
<path d="M4535 3770 c3 -5 10 -10 16 -10 5 0 9 5 9 10 0 6 -7 10 -16 10 -8 0
-12 -4 -9 -10z"/>
<path d="M3080 3653 c-20 -7 -93 -56 -102 -68 -5 -6 -8 -2 -8 8 0 18 0 19 -78
23 -31 1 -63 -3 -80 -12 -15 -7 -38 -14 -52 -14 -28 0 -98 -62 -135 -119 -19
-28 -25 -55 -30 -126 -3 -49 -8 -99 -11 -110 l-6 -20 16 20 c19 22 19 30 0
-76 l-6 -37 49 23 c51 25 149 42 138 25 -8 -13 7 -13 42 1 15 6 38 12 51 14
12 1 31 10 42 20 15 14 20 15 20 4 1 -23 60 53 70 91 10 39 -1 106 -21 124 -9
8 -10 8 -5 -1 4 -7 2 -13 -3 -13 -7 0 -10 27 -8 74 l2 74 -30 -12 c-30 -12
-30 -12 -35 -112 l-5 -99 -8 58 c-5 31 -6 72 -2 90 l7 32 -38 -39 c-35 -36
-38 -44 -39 -95 0 -31 3 -76 7 -101 l6 -45 -13 40 c-7 22 -14 60 -15 85 l-1
45 -34 -60 c-19 -33 -35 -76 -36 -95 -2 -32 -2 -33 -6 -6 l-5 29 -51 -49 c-29
-27 -38 -33 -21 -14 34 38 105 142 101 147 -2 1 -19 -2 -38 -7 -18 -6 -45 -10
-59 -9 -31 1 -21 5 52 19 53 10 59 14 87 60 l30 49 -25 -9 c-14 -6 -37 -10
-52 -9 -31 1 -22 5 30 14 41 6 133 75 101 75 -39 0 -40 16 0 17 61 1 110 13
123 29 6 8 36 28 65 44 49 27 57 37 19 23z m-390 -193 c0 -5 -4 -10 -10 -10
-5 0 -10 5 -10 10 0 6 5 10 10 10 6 0 10 -4 10 -10z"/>
<path d="M2366 3574 c-8 -21 11 -54 31 -54 9 0 21 -6 27 -14 9 -12 16 -10 39
14 27 29 27 29 6 40 -11 6 -27 9 -34 6 -7 -2 -16 2 -19 10 -7 19 -42 18 -50
-2z"/>
<path d="M2055 3482 c-3 -11 -17 -24 -30 -30 -31 -14 -34 -56 -6 -72 26 -13
27 -13 51 12 24 27 29 108 6 108 -8 0 -17 -8 -21 -18z"/>
<path d="M2245 3490 c3 -5 8 -10 11 -10 2 0 4 5 4 10 0 6 -5 10 -11 10 -5 0
-7 -4 -4 -10z"/>
<path d="M1740 3450 c0 -5 5 -10 10 -10 6 0 10 5 10 10 0 6 -4 10 -10 10 -5 0
-10 -4 -10 -10z"/>
<path d="M2380 3290 c0 -5 5 -10 10 -10 6 0 10 5 10 10 0 6 -4 10 -10 10 -5 0
-10 -4 -10 -10z"/>
<path d="M4036 3171 c-4 -5 -2 -12 3 -15 5 -4 12 -2 15 3 4 5 2 12 -3 15 -5 4
-12 2 -15 -3z"/>
<path d="M4330 3150 c0 -5 5 -10 10 -10 6 0 10 5 10 10 0 6 -4 10 -10 10 -5 0
-10 -4 -10 -10z"/>
<path d="M2010 3066 c0 -9 5 -16 10 -16 6 0 10 4 10 9 0 6 -4 13 -10 16 -5 3
-10 -1 -10 -9z"/>
<path d="M2290 3040 c0 -5 5 -10 10 -10 6 0 10 5 10 10 0 6 -4 10 -10 10 -5 0
-10 -4 -10 -10z"/>
<path d="M1920 2875 c0 -9 5 -15 11 -13 6 2 11 8 11 13 0 5 -5 11 -11 13 -6 2
-11 -4 -11 -13z"/>
<path d="M3825 2080 c-9 -27 3 -60 21 -60 18 0 39 43 31 64 -9 23 -44 20 -52
-4z"/>
<path d="M3690 2010 c0 -5 5 -10 10 -10 6 0 10 5 10 10 0 6 -4 10 -10 10 -5 0
-10 -4 -10 -10z"/>
<path d="M3463 765 c0 -22 2 -30 4 -17 2 12 2 30 0 40 -3 9 -5 -1 -4 -23z"/>
</g>
</svg>
